<?xml version="1.0" encoding="utf-8"?>
<!-- Generator: Adobe Illustrator 23.0.0, SVG Export Plug-In . SVG Version: 6.00 Build 0)  -->
<svg version="1.1" xmlns="http://www.w3.org/2000/svg" xmlns:xlink="http://www.w3.org/1999/xlink" x="0px" y="0px"
	 viewBox="0 0 566.9 566.9" style="enable-background:new 0 0 566.9 566.9;" xml:space="preserve">
<style type="text/css">
	.st0{fill-rule:evenodd;clip-rule:evenodd;fill:#C0D7E0;}
	.st1{fill-rule:evenodd;clip-rule:evenodd;fill:#D2EBF6;}
	.st2{fill-rule:evenodd;clip-rule:evenodd;fill:#B6C300;}
	.st3{fill-rule:evenodd;clip-rule:evenodd;fill:#C8D100;}
	.st4{fill-rule:evenodd;clip-rule:evenodd;fill:#B5C000;}
	.st5{fill-rule:evenodd;clip-rule:evenodd;fill:#804318;}
	.st6{fill:#5D3119;}
	.st7{fill-rule:evenodd;clip-rule:evenodd;fill:#9A4C1A;}
	.st8{fill-rule:evenodd;clip-rule:evenodd;fill:url(#SVGID_1_);}
	.st9{fill:#FFF8F4;}
	.st10{fill:#F4FAFD;}
	.st11{fill-rule:evenodd;clip-rule:evenodd;fill:#FFFFFF;}
	.st12{fill:#F3E8E6;}
	.st13{fill:#E9DCCC;}
	.st14{fill-rule:evenodd;clip-rule:evenodd;fill:url(#SVGID_2_);}
	.st15{fill-rule:evenodd;clip-rule:evenodd;fill:url(#SVGID_3_);}
	.st16{fill-rule:evenodd;clip-rule:evenodd;fill:url(#SVGID_4_);}
	.st17{fill-rule:evenodd;clip-rule:evenodd;fill:url(#SVGID_5_);}
	.st18{fill-rule:evenodd;clip-rule:evenodd;fill:url(#SVGID_6_);}
	.st19{fill-rule:evenodd;clip-rule:evenodd;fill:url(#SVGID_7_);}
	.st20{fill-rule:evenodd;clip-rule:evenodd;fill:url(#SVGID_8_);}
	.st21{fill-rule:evenodd;clip-rule:evenodd;fill:url(#SVGID_9_);}
	.st22{fill-rule:evenodd;clip-rule:evenodd;fill:url(#SVGID_10_);}
	.st23{fill-rule:evenodd;clip-rule:evenodd;fill:url(#SVGID_11_);}
	.st24{fill-rule:evenodd;clip-rule:evenodd;fill:url(#SVGID_12_);}
	.st25{fill-rule:evenodd;clip-rule:evenodd;fill:url(#SVGID_13_);}
	.st26{fill-rule:evenodd;clip-rule:evenodd;fill:url(#SVGID_14_);}
	.st27{fill-rule:evenodd;clip-rule:evenodd;fill:url(#SVGID_15_);}
	.st28{fill-rule:evenodd;clip-rule:evenodd;fill:url(#SVGID_16_);}
	.st29{fill-rule:evenodd;clip-rule:evenodd;fill:url(#SVGID_17_);}
	.st30{fill-rule:evenodd;clip-rule:evenodd;fill:url(#SVGID_18_);}
	.st31{fill-rule:evenodd;clip-rule:evenodd;fill:url(#SVGID_19_);}
	.st32{fill-rule:evenodd;clip-rule:evenodd;fill:url(#SVGID_20_);}
	.st33{fill-rule:evenodd;clip-rule:evenodd;fill:url(#SVGID_21_);}
	.st34{fill:#96BD0D;}
	.st35{fill:#E30E6F;}
	.st36{fill:#FFEC00;}
	.st37{fill:#FCE90A;}
	.st38{fill:#0A71B3;}
	.st39{fill-rule:evenodd;clip-rule:evenodd;fill:#F8F1AA;}
	.st40{fill-rule:evenodd;clip-rule:evenodd;fill:#ECE280;}
	.st41{fill-rule:evenodd;clip-rule:evenodd;fill:#F3E887;}
	.st42{fill-rule:evenodd;clip-rule:evenodd;fill:#FFEE63;}
	.st43{fill-rule:evenodd;clip-rule:evenodd;fill:#E1001E;}
	.st44{fill-rule:evenodd;clip-rule:evenodd;fill:#111210;}
	.st45{fill-rule:evenodd;clip-rule:evenodd;fill:#E1001A;}
	.st46{fill:#693318;}
	.st47{fill-rule:evenodd;clip-rule:evenodd;fill:#BAE2F4;}
	.st48{fill:#90CFEB;}
	.st49{fill:#BAE2F4;}
	.st50{fill:#FFF39E;}
	.st51{fill:#F5C4D9;}
	.st52{fill:#F8D9E7;}
	.st53{fill:#111210;}
</style>
<g id="Vrstva_1">
	<g>
		<path class="st0" d="M275.8,366.3c-145.3,0-263.1,38.8-263.1,86.6c0,47.8,117.8,86.6,263.1,86.6s263.1-38.8,263.1-86.6
			C538.9,405,421.1,366.3,275.8,366.3z"/>
	</g>
	<g>
		<path class="st1" d="M275.8,358.6c-145.3,0-263.1,38.8-263.1,86.6c0,47.8,117.8,86.6,263.1,86.6s263.1-38.8,263.1-86.6
			C538.9,397.4,421.1,358.6,275.8,358.6z"/>
	</g>
	<g>
		<path class="st2" d="M278.5,200c-129.6,0-234.7,30.7-234.7,68.6c0,39.6-1.9,132.1-1.9,170c0,37.9,105.1,68.6,234.7,68.6
			c129.6,0,234.7-30.7,234.7-68.6c0-40.1,1.9-131.6,1.9-170C513.2,230.7,408.1,200,278.5,200z"/>
	</g>
	<g>
		<path class="st3" d="M509.8,389.6c1-33.6,1.9-117.2,1.9-117.2s0,58.6-220.9,61.5c-217.3,2.8-245.9-61.5-245.9-61.5
			s-2.9,152.7-1,169.1c1.9,16.3,17.3,24,43.2,37.5c25.9,13.4,128.7,40.4,278.6,21.1c149.9-19.2,144.1-59.6,144.1-59.6
			S509.1,413.7,509.8,389.6z"/>
	</g>
	<g>
		<path class="st4" d="M509.8,310.8c0,0-12.5-10.6-23.1-5.8c-10.6,4.8-107.6,25-140.3,27.9c-32.7,2.9-244-16.3-264.2-24
			c-20.2-7.7-34.6,1-34.6,51.9c0,0,5.8,7.7,10.6-6.7c4.8-14.4,7.7-30.7,14.4-25.9c6.7,4.8,18.3,25.9,18.3,41.3
			c0,15.4,1,26.9,10.6,17.3c9.6-9.6,11.5-41.3,23.1-44.2c11.5-2.9,27.9,2.9,29.8,17.3c1.9,14.4,5.8,58.6,19.2,50
			c13.4-8.6,25-42.3,31.7-46.1c6.7-3.8,5.8-3.8,16.3,0c10.6,3.8,17.3,25.9,37.5,28.8c20.2,2.9,19.2,1.9,32.7-9.6
			c13.5-11.5,19.2-20.2,37.5-21.1c18.3-1,28.8,1.9,42.3,14.4c13.4,12.5,24,17.3,33.6,9.6c9.6-7.7,13.5-27.9,23.1-25.9
			c9.6,1.9,11.5,64.4,3.8,82.6c-7.7,18.2-110.5,42.3-156.6,45.1c-46.1,2.9-138.3,1.9-138.3,1.9s179.6,33.6,278.6,2.9
			c98.9-30.7,92.2-45.2,92.2-64.4C507.9,408.8,509.8,310.8,509.8,310.8z"/>
	</g>
	<g>
		<path class="st5" d="M521.3,322.3c-2.9-16.3-5.8-29.8-5.8-44.2c0-14.4,11.5-51.9-105.7-72c-117.2-20.2-290.1-2.9-330.5,18.3
			c-40.3,21.1-31.7,22.1-34.6,28.8c0,0-4.8,21.1-2.9,32.7c1.9,11.5,1.9,56.7,1,73c-1,16.3,11.5,3.8,13.4-5.8
			c1.9-9.6,1.9-37.5,14.4-33.6c12.5,3.8,15.4,16.3,17.3,35.5c1.9,19.2,1,38.4,12.5,26.9c11.5-11.5,8.6-49,28.8-45.1
			c20.2,3.8,27.9,18.2,26.9,36.5c-1,18.3-10.6,38.4,8.6,33.6c19.2-4.8,23.1-56.7,50-50c26.9,6.7,15.4,32.7,41.3,37.5
			c25.9,4.8,26.9-21.1,42.3-29.8c15.4-8.6,52.8-15.4,63.4,3.8c10.6,19.2,24,28.8,37.5,17.3c13.4-11.5,10.6-40.3,25.9-39.4
			c15.4,1,13.4,14.4,32.7,23.1c19.2,8.6,32.7-13.4,36.5-36.5c3.8-23.1,7.7-21.1,11.5-6.7C509.8,340.6,524.2,338.6,521.3,322.3z"/>
	</g>
	<g>
		<path class="st6" d="M55.9,319.4c-3.8,10.1-5.8,42.7-11.5,44.7c0,0,5.8,2.9,8.6-13c2.9-15.9,5.8-29.3,10.6-32.7
			c4.8-3.4,7.7-1.9,7.7-1.9S59.7,309.3,55.9,319.4z M112.6,333.8c-5.3,9.1-11,45.2-20.2,46.6c0,0,5.8,5.3,11-6.7
			c5.3-12,9.6-34.1,17.8-37.9c8.2-3.8,13.4-1,13.4-1S117.8,324.7,112.6,333.8z M195.7,337.7c-8.6,7.7-23.1,76.4-41.8,64.8
			c0,0,5.8,9.1,13,3.4c7.2-5.8,16.3-35.1,25.9-43.7c9.6-8.6,22.6-12,31.7-4.3c9.1,7.7,15.9,21.1,15.9,21.1s-7.7-20.7-12-29.8
			C224,340.1,204.3,330,195.7,337.7z M421.9,331.9c-13-3.5-36,7.7-37.5,29.3c-0.7,10.2-13.9,10.1-21.6-1.9c-7.7-12-60-25-82.1-0.5
			c-12,13.3-9.1,32.7-27.4,33.1c0,0,12.5,6.3,23.5-6.2c11-12.5,12-23.5,36.5-29.3c24.5-5.8,42.7-1.9,49.5,8.2
			c6.7,10.1,10.6,19.7,18.7,22.1c8.2,2.4,19.2,1.9,25.5-18.3c6.2-20.2,11-27.4,19.7-25.5c8.6,1.9,19.2,12.5,19.2,12.5
			S436.3,335.8,421.9,331.9z M516.5,309.8c-2.4-12.5-2.9-33.6-2.9-33.6s-5.8,15.4-5.8,23.1c0,7.7-6.7,1-11.5,8.2
			c-4.3,6.5-8.3,43.6-15.7,53.5c3.4-3.4,9.1-10.6,10.5-22.3c1.9-16.8,6.7-29.3,10.6-25.5c3.8,3.9,6.7,20.2,13.9,19.7
			C522.8,332.4,518.9,322.3,516.5,309.8z M480.6,361c-1.5,1.5-2.5,2.2-2.5,2.2C479,362.8,479.8,362,480.6,361z"/>
	</g>
	<g>
		<path class="st7" d="M277.8,199.6c-127.6,0-231,25.1-231,56.1c0,31,103.4,56.1,231,56.1c127.6,0,231-25.1,231-56.1
			C508.8,224.7,405.4,199.6,277.8,199.6z"/>
	</g>
	<g>
		
			<radialGradient id="SVGID_1_" cx="126.6392" cy="180.7563" r="12.9438" gradientTransform="matrix(1 0 0 1 113.9941 8.999)" gradientUnits="userSpaceOnUse">
			<stop  offset="0" style="stop-color:#DDABD1"/>
			<stop  offset="0.3168" style="stop-color:#C176B0"/>
			<stop  offset="0.6246" style="stop-color:#A94994"/>
			<stop  offset="0.8619" style="stop-color:#9A2D83"/>
			<stop  offset="1" style="stop-color:#95237D"/>
		</radialGradient>
		<path class="st8" d="M244.2,185c-5.6,0-10.1,4.5-10.1,10.1c0,5.6,4.5,10.1,10.1,10.1c5.6,0,10.1-4.5,10.1-10.1
			C254.2,189.5,249.7,185,244.2,185z"/>
	</g>
	<g>
		<path class="st9" d="M44.6,320.2c0,0-0.9,24-0.9,33.1c0,9.1,1.8,11.3,3.6,3.2C49.2,348.3,44.2,327.9,44.6,320.2z M88.1,341.3
			c-0.9-3.6-1.8-5.7-1.8-5.7C86.8,337.7,87.4,339.6,88.1,341.3z M101.3,347c-3.8,5.6-9.7,2.6-13.2-5.6c1,3.8,2,9.3,2.3,16
			c0.5,13.1-1.8,21.3,3.2,19.5c5-1.8,7.7-13.6,10.4-22.7C106.7,345.1,105.8,340.2,101.3,347z M153.4,342.4
			c-8.2-7.7-16.8-8.2-16.8-8.2s12.2,4.1,18.1,16.8c0,0,5.4,12.2,4.5,25.8c-0.9,13.6-5.9,20.9-2.3,23.6c3.6,2.7,10.9-8.2,13.2-16.8
			C172.5,375.1,161.6,350.1,153.4,342.4z M260.9,365.1c-3.2,4.5-13.1,13.6-25.4-4.5c0,0,5.9,25.8,15.9,29
			c10,3.2,14.1-12.7,18.6-23.1c4.5-10.4,10.9-14.1,10.9-14.1S264.1,360.6,260.9,365.1z M509,285.3c0,0-0.3,1.1-0.7,2.8
			C508.8,286.5,509,285.3,509,285.3z M500.3,297.5c-7.3,3.2-13.3,15.1-15.1,24.6c-1.8,9.5-6.3,40.1-23.7,36.9
			c-10.7-2-20.2-17.1-20.2-17.1s4.1,17.7,18.6,24.5c14.5,6.8,23.6-10.4,25.4-24.5c1.8-14.1,4.1-31.7,9.5-36.3
			c5.4-4.5,10.4-1.4,11.3-7.7c0.5-3.7,1.4-7.4,2-9.9C507.2,291,505,295.5,500.3,297.5z M173.1,312.2c87.9,10.1,108.6,4.8,108.6,4.8
			s-168.1-4.3-223.3-38C58.3,279.1,85.2,302.1,173.1,312.2z M511.7,263.7c0,0-19.2,25.5-116.7,44.2c0,0,63.9-9.1,89.8-22.1
			C510.8,272.8,511.7,263.7,511.7,263.7z"/>
	</g>
	<g>
		<path class="st10" d="M283.1,464.5c0,0,20.6-2.4,20.2-17.8c-0.5-15.4-13.5-15.4-21.1-13.5c-7.7,1.9-11.5,19.7-11.5,19.7
			s0-18.7-8.6-22.6c-8.6-3.8-23.5,6.2-22.6,16.3c1,10.1,23.5,17.8,23.5,17.8s-21.6,2.9-21.6,16.8c0,13.9,16.3,20.2,23.5,14.9
			c7.2-5.3,10.1-23.1,10.1-23.1s-2.4,20.2,12,22.1c14.4,1.9,18.6-8.7,16.8-17.3C301.3,466.4,283.1,464.5,283.1,464.5z M383.5,452
			c0,0,14.9-3.4,13-15.8c-1.9-12.5-24-16.8-27.4,8.2c0,0-0.5-16.3-9.6-18.7c-9.1-2.4-18.7,3.8-19.2,13c-0.5,9.1,19.7,18.2,19.7,18.2
			s-20.2,4.3-21.1,18.3c-1,13.9,20.2,21.1,26.9,14.4c6.7-6.7,9.1-19.7,9.1-19.7s3.4,18.3,18.3,17.3c14.9-1,19.7-11.5,15.4-21.6
			C404.1,455.4,383.5,452,383.5,452z M523.7,400.1c-1-8.6-6.2-14.9-12-2.4c0,0-0.5-9.6-5.3-14.9c-4.8-5.3-10.1-3.4-12,1.9
			c-1.9,5.3,5.8,23.5,5.8,23.5s-13-0.5-13,4.8c0,2.1,1.2,7.9,3,13.8c-0.6-0.8-1.2-1.6-2-2.2c-7.2-5.8-24,4.3-24,4.3
			s4.8-12.5-1.9-20.6c-6.7-8.2-19.7-6.2-22.1,2.4c-2.4,8.6,9.6,24.5,9.6,24.5s-21.1-10.6-24.5,5.8c-3.4,16.3,1,23.1,7.2,24.5
			c6.2,1.4,22.1-16.3,22.1-16.3s-7.2,10.6-6.2,18.2c1,7.7,13,11.5,17.8,3.8c4.8-7.7,1-24,1-24s10.1,16.3,18.3,7.2
			c5.3-6,8-14.4,7.2-21.2c2.4,6,5.4,10.6,8.2,9.1c6.2-3.4,10.6-14.9,10.6-14.9s3.8,15.4,7.7,12c3.8-3.4,0.5-17.8,0.5-17.8
			S524.7,408.8,523.7,400.1z M202.9,452c-4.8-0.5-21.1,7.2-21.1,7.2s14.4-14.4,13-23.5c-1.4-8.7-20.2-13.9-23.2,11.9
			c-0.1,2.4-0.3,4-0.3,4c0.1-1.4,0.2-2.7,0.3-4c0.3-6.2-0.1-17.9-7.1-21c-9.6-4.3-19.7,1-21.6,11c-1.9,10.1-1,16.3,4.8,19.7
			c5.8,3.4,18.7,2.4,18.7,2.4s-17.8,3.4-18.7,14.4c-1,11.1,7.7,28.3,17.8,23.5c10.1-4.8,13-30.3,13-30.3s1,22.6,13.9,24.5
			c13,1.9,19.7-9.6,20.2-19.2C213,463.1,207.7,452.5,202.9,452z M110.6,409.3c-4.8,3.4-14.9,20.2-14.9,20.2s3.8-15.4-3.8-20.6
			c-7.7-5.3-17.8-1.9-19.7,4.3c-1.9,6.2,12,26.4,12,26.4s-13.4,5.8-14.9,13c-1.4,7.2,0,13.9,5.3,14.9c5.3,1,18.7-19.7,18.7-19.7
			s-4.8,10.1-0.5,19.7c4.3,9.6,16.8,5.3,20.2-1c3.4-6.2-8.6-24.5-8.6-24.5s7.7,4.8,14.4,0.5c6.7-4.3,8.2-18.3,6.7-25
			C124.1,410.7,115.4,405.9,110.6,409.3z M65,372.3c-4.8-3.8-14.9-1.9-17.8,4.8c-2.9,6.7-5.3,22.6-5.3,22.6S40,382.4,35.7,378
			c-4.3-4.3-8.6-4.8-9.6,1.9c-1,6.7,9.1,25.5,9.1,25.5s-15.4,13.5-11.1,23.1c4.3,9.6,12-1.4,16.3-13.5c0,0-4.3,20.7,2.4,25.5
			c6.7,4.8,13,7.2,16.3,0c3.4-7.2-8.2-30.7-8.2-30.7s10.1-6.7,14.4-14.4C69.8,387.6,69.8,376.1,65,372.3z"/>
	</g>
</g>
<g id="Vrstva_5_kopie_4">
	<g>
		<g>
			<path class="st11" d="M165.4,209.2c0,0,0.7-4.1-0.3-6.9c-0.9-2.8-5.2-4.9-5.2-4.9s1.6-3-0.5-5.4c-2.1-2.4-5.8-3.3-5.8-3.3
				s0.2-4.4-2.3-6.5c-2.5-2.1-5.3-1.7-6.5-2.3c-1.2-0.6-1-2.1-1-2.1s-0.9,2.3-0.1,3.4c0.9,1.1,1.5,2-0.1,3.7c-1.7,1.7-4.3,1.4-5.8,3
				c-1.5,1.6-1.7,2.7-1.1,4c0.6,1.3,1.5,1.1,1.5,1.1s-4.8,0.7-6.3,3.9c-1.5,3.3-0.1,5.2-0.1,5.2s-3.1,1.7-4.2,4.9
				c-1.1,3.2-0.4,6.5,2.6,8.5c3,1.9,11.2,3,18.4,2.7c7.2-0.3,13.2-0.3,16.8-3.5c0,0,1.6-0.7,1.5-2.9
				C167,209.5,165.4,209.2,165.4,209.2z"/>
		</g>
		<g>
			<path class="st12" d="M145,187c1.9-0.9,2.5-3.7-0.2-5.7c0,0,1.7,2.3,0.2,3.9c-1.5,1.5-6.9,1.8-6.7,2.5
				C138.4,188.3,143.1,187.9,145,187z M138,192.9c2.3,0.4,6.9-0.5,10.3-1.6c3.5-1.1,2.9-1.3,2.9-1.3s-2.9,0.5-2.1-4.6
				c0,0,0.1-4.1-3.5-4.7c-2-0.4-1.8-2.3-1.8-2.3s-0.3,1.7,0.8,2.2c1.1,0.5,2.8,0.3,3.6,2.7c0.8,2.4-2.9,5.9-6.2,6.9
				C138.7,191.3,135.7,192.5,138,192.9z M136.4,202.5c3.3,0.5,8.9-0.1,8.9-0.1s5.2-3.6,5.9-5.7c0.5-1.4-4.1-0.9-5.7-1.2
				c-1.5-0.3-3.5-0.5-5.5-0.9c-2-0.4-2.2-1.4-2.2-1.4s0.3,1.8,2.8,1.9c2.5,0.1,3.3,1.1,3.4,2.1c0.1,1-2.1,1.8-7.7,2.7
				C130.8,200.8,133.2,202,136.4,202.5z M154.4,216.2c-1.2-1.6,3.2-3.1,4.9-3.7c0,0,0.9-0.1,2.3-0.7c-0.6,0.2-1.2,0.4-1.6,0.5
				c-0.1,0-6.3-3-12.4-4.7c-4.5-1.3-6.4-1.1-8.1-1.2c-1.7-0.1-5.7-1.7-6.5-2.4c-0.8-0.7-0.9-1.8-0.9-1.8l-1.2,0.9
				c0.1-0.1,0.8-0.2,3.7,2.1c3.4,2.7,6.7,3.7,3.6,7.2c-3.4,3.7-7.5,1.1-9-0.3c-1.5-1.3-1.7-2.9-1.7-2.9s-1.9,3.9,2.9,6.1
				c4.8,2.2,17.1,1.7,21.9,2c4.8,0.3,7-0.1,10.3-1.1c3.3-1,3.7-2.1,3.7-2.1S155.9,218.1,154.4,216.2z M166.7,210.4
				c0,0,0-0.9-1.4-1.3c0,0-1.5,1.5-3.2,2.3c-0.2,0.1-0.4,0.2-0.6,0.3c1-0.3,2.1-0.7,2.6-0.9C165.4,210.4,166.7,210.4,166.7,210.4z
				 M157.3,199.7c-1.8,0.8-3.8,1.7-3.8,1.7S155.5,200.6,157.3,199.7z M162.5,199.1c0,0-1.5-1.1-2.7-1.7c0,0-0.2,0.9-2.1,2
				c-0.2,0.1-0.3,0.2-0.5,0.3c1.3-0.5,2.5-1,3-1.1C161.5,198.5,162.5,199.1,162.5,199.1z M155.3,189.3c0,0-1.2-0.7-1.7-0.7
				c0,0-0.1,0.4-1.2,1.1c0.5-0.2,1-0.4,1.2-0.5C154.7,189.1,155.3,189.3,155.3,189.3z M151.7,190.1c0.3-0.1,0.5-0.3,0.7-0.4
				c-1.3,0.6-2.9,1.6-2.9,1.6S150,191,151.7,190.1z"/>
		</g>
		<g>
			<path class="st13" d="M139.8,193c0,0,6.9-0.9,9.5-1.7c2.3-0.7,3.9-2.2,3.9-2.2s-3.3,0.7-3.6-1.3c-0.3-2,0.6-6.5-4.4-7
				c0.7,0.1,3.9,0.8,3.2,4.6C147.4,191.5,139.8,193,139.8,193z M145.2,180.8c-0.1,0-0.1,0-0.1,0
				C145.1,180.8,145.2,180.8,145.2,180.8z M143.9,195.3c1.5,0.2,3.1,0.2,3.3,2.8c0.5,4.8-8.6,4.6-8.6,4.6s1.1,0.7,11-0.8
				c9.9-1.5,9.6-4.2,9.6-4.2c0-3.5-2.8-3.9-5.3-3.3c-2.5,0.6-8.9,0.1-11.5,0c-2.6-0.1-4.1-0.7-4.3-1.1c-0.2-0.4,0.9-0.4,0.9-0.4
				s-0.8-0.1-1.2,0c-0.4,0.1-0.2,0.8,1,1.3C140.1,194.8,142.4,195.1,143.9,195.3z M159.8,203.7c-3.8,0.2-14.9,2.8-20.1,2.7
				c2.8,0.3,8.5,1.3,8.9,3.8c0.5,3.3-7.3,7.1-7.3,7.1s13.8-2.9,17.4-4.8C162.3,210.6,164,203.4,159.8,203.7z M139.7,206.4
				c-0.9-0.1-1.5-0.2-1.5-0.2C138.6,206.3,139.1,206.4,139.7,206.4z M131.8,202.2l-0.7,0.7c0,0,2.9,2.8,6.1,2.9c0,0-3.4-1.3-4.2-2.1
				C132.1,203,131.8,202.2,131.8,202.2z M165.4,209.1c0,0-0.6,0.4-1.3,1c-0.6,0.5-1.6,1.2-1.6,1.2s2.6-0.4,3.4,0.7
				c0.8,1.1-1.5,3.7-1.5,3.7s2.7-1.4,2.7-3.8C167,209.5,165.4,209.1,165.4,209.1z"/>
		</g>
	</g>
	<g>
		<g>
			<path class="st11" d="M416.5,204.6c0,0,0.6-3.7-0.2-6.3c-0.9-2.6-4.8-4.5-4.8-4.5s1.5-2.8-0.4-5c-1.9-2.2-5.3-3.1-5.3-3.1
				s0.2-4-2.1-5.9c-2.3-1.9-4.9-1.6-6-2.1c-1.1-0.6-0.9-1.9-0.9-1.9s-0.9,2.1-0.1,3.1c0.8,1,1.4,1.8-0.1,3.4c-1.5,1.6-4,1.3-5.3,2.8
				c-1.3,1.5-1.6,2.5-1,3.7c0.6,1.2,1.4,1,1.4,1s-4.4,0.6-5.8,3.6c-1.4,3-0.1,4.8-0.1,4.8s-2.9,1.6-3.9,4.5c-1,2.9-0.4,6,2.4,7.8
				c2.8,1.8,10.3,2.8,16.9,2.4c6.6-0.3,12.1-0.2,15.4-3.2c0,0,1.5-0.6,1.4-2.7C417.9,204.9,416.5,204.6,416.5,204.6z"/>
		</g>
		<g>
			<path class="st12" d="M397.7,184.2c1.7-0.9,2.3-3.4-0.2-5.3c0,0,1.5,2.1,0.2,3.5c-1.3,1.4-6.3,1.7-6.2,2.3
				C391.7,185.4,396,185.1,397.7,184.2z M391.3,189.7c2.1,0.4,6.3-0.4,9.5-1.5c3.2-1,2.6-1.2,2.6-1.2s-2.6,0.5-1.9-4.2
				c0,0,0.1-3.7-3.2-4.3c-1.9-0.3-1.6-2.1-1.6-2.1s-0.3,1.6,0.7,2c1,0.4,2.6,0.3,3.3,2.5c0.8,2.2-2.7,5.4-5.7,6.3
				C391.9,188.2,389.2,189.3,391.3,189.7z M389.8,198.5c3,0.5,8.1-0.1,8.1-0.1s4.8-3.3,5.4-5.2c0.4-1.3-3.8-0.9-5.2-1.1
				c-1.4-0.2-3.2-0.5-5-0.9c-1.8-0.4-2-1.3-2-1.3s0.3,1.7,2.6,1.7c2.3,0.1,3,1,3.1,1.9c0.1,0.9-2,1.7-7,2.5
				C384.7,196.9,386.8,198,389.8,198.5z M406.4,211c-1.1-1.4,2.9-2.9,4.5-3.4c0,0,0.9-0.1,2.1-0.7c-0.6,0.2-1.1,0.3-1.5,0.5
				c-0.1,0-5.8-2.7-11.4-4.3c-4.1-1.2-5.9-1-7.5-1.1c-1.6-0.1-5.2-1.6-5.9-2.2c-0.7-0.6-0.9-1.6-0.9-1.6l-1.1,0.8
				c0.1-0.1,0.7-0.1,3.4,2c3.1,2.4,6.2,3.4,3.3,6.6c-3.1,3.4-6.9,1-8.3-0.2c-1.3-1.2-1.6-2.6-1.6-2.6s-1.7,3.5,2.7,5.6
				c4.4,2,15.7,1.6,20.1,1.8c4.4,0.2,6.4-0.1,9.5-1c3.1-0.9,3.4-1.9,3.4-1.9S407.7,212.8,406.4,211z M417.7,205.7c0,0,0-0.8-1.3-1.2
				c0,0-1.4,1.3-2.9,2.1c-0.2,0.1-0.4,0.2-0.5,0.3c0.9-0.3,1.9-0.6,2.4-0.8C416.5,205.7,417.7,205.7,417.7,205.7z M413.8,195.3
				c0,0-1.3-1-2.4-1.5c0,0-0.2,0.9-1.9,1.8c-0.1,0.1-0.3,0.2-0.5,0.3c1.2-0.5,2.3-0.9,2.8-1C412.9,194.7,413.8,195.3,413.8,195.3z
				 M409,195.8c-1.7,0.7-3.5,1.5-3.5,1.5S407.4,196.7,409,195.8z M403.9,187c0.2-0.1,0.4-0.3,0.6-0.4c-1.2,0.6-2.6,1.5-2.6,1.5
				S402.3,187.9,403.9,187z M407.2,186.4c0,0-1.1-0.6-1.6-0.7c0,0-0.1,0.4-1.1,1c0.5-0.2,0.9-0.4,1.1-0.4
				C406.6,186.1,407.2,186.4,407.2,186.4z"/>
		</g>
		<g>
			<path class="st13" d="M392.9,189.7c0,0,6.4-0.9,8.7-1.5c2.1-0.6,3.6-2,3.6-2s-3,0.7-3.3-1.2c-0.3-1.9,0.6-6-4-6.4
				c0.6,0.1,3.6,0.7,3,4.2C399.9,188.4,392.9,189.7,392.9,189.7z M397.9,178.6c-0.1,0-0.1,0-0.1,0
				C397.8,178.5,397.9,178.5,397.9,178.6z M396.7,191.8c1.4,0.2,2.8,0.2,3.1,2.6c0.4,4.4-7.9,4.2-7.9,4.2s1,0.6,10.1-0.7
				c9.1-1.3,8.9-3.9,8.9-3.9c0-3.2-2.6-3.5-4.8-3c-2.3,0.6-8.2,0.1-10.6,0c-2.4-0.1-3.8-0.6-3.9-1c-0.1-0.4,0.8-0.3,0.8-0.3
				s-0.7-0.1-1.1,0c-0.4,0.1-0.1,0.8,0.9,1.2C393.2,191.3,395.4,191.6,396.7,191.8z M411.3,199.6c-3.5,0.2-13.7,2.6-18.4,2.5
				c2.6,0.3,7.8,1.2,8.2,3.5c0.5,3.1-6.7,6.5-6.7,6.5s12.7-2.7,16-4.4C413.6,205.9,415.2,199.3,411.3,199.6z M392.9,202
				c-0.9-0.1-1.4-0.1-1.4-0.1C391.8,202,392.3,202,392.9,202z M385.6,198.2l-0.7,0.7c0,0,2.7,2.6,5.6,2.7c0,0-3.1-1.2-3.8-1.9
				C385.9,199,385.6,198.2,385.6,198.2z M416.5,204.5c0,0-0.6,0.4-1.2,0.9c-0.6,0.5-1.5,1.1-1.5,1.1s2.3-0.4,3.1,0.6
				c0.8,1-1.4,3.4-1.4,3.4s2.4-1.2,2.4-3.5C417.9,204.9,416.5,204.5,416.5,204.5z"/>
		</g>
	</g>
	<g>
		
			<radialGradient id="SVGID_2_" cx="313.2852" cy="195.4912" r="10.3545" gradientTransform="matrix(1 0 0 1 113.9941 8.999)" gradientUnits="userSpaceOnUse">
			<stop  offset="0" style="stop-color:#FCE500"/>
			<stop  offset="1" style="stop-color:#E36828"/>
		</radialGradient>
		<path class="st14" d="M429,198.7c-5.8,0-10.5,4.7-10.5,10.5c0,5.8,4.7,10.5,10.5,10.5c5.8,0,10.5-4.7,10.5-10.5
			C439.4,203.4,434.7,198.7,429,198.7z"/>
	</g>
</g>
<g id="Vrstva_5_kopie_3">
	<g>
		<g>
			<path class="st11" d="M165.4,209.2c0,0,0.7-4.1-0.3-6.9c-0.9-2.8-5.2-4.9-5.2-4.9s1.6-3-0.5-5.4c-2.1-2.4-5.8-3.3-5.8-3.3
				s0.2-4.4-2.3-6.5c-2.5-2.1-5.3-1.7-6.5-2.3c-1.2-0.6-1-2.1-1-2.1s-0.9,2.3-0.1,3.4c0.9,1.1,1.5,2-0.1,3.7c-1.7,1.7-4.3,1.4-5.8,3
				c-1.5,1.6-1.7,2.7-1.1,4c0.6,1.3,1.5,1.1,1.5,1.1s-4.8,0.7-6.3,3.9c-1.5,3.3-0.1,5.2-0.1,5.2s-3.1,1.7-4.2,4.9
				c-1.1,3.2-0.4,6.5,2.6,8.5c3,1.9,11.2,3,18.4,2.7c7.2-0.3,13.2-0.3,16.8-3.5c0,0,1.6-0.7,1.5-2.9
				C167,209.5,165.4,209.2,165.4,209.2z"/>
		</g>
		<g>
			<path class="st12" d="M145,187c1.9-0.9,2.5-3.7-0.2-5.7c0,0,1.7,2.3,0.2,3.9c-1.5,1.5-6.9,1.8-6.7,2.5
				C138.4,188.3,143.1,187.9,145,187z M138,192.9c2.3,0.4,6.9-0.5,10.3-1.6c3.5-1.1,2.9-1.3,2.9-1.3s-2.9,0.5-2.1-4.6
				c0,0,0.1-4.1-3.5-4.7c-2-0.4-1.8-2.3-1.8-2.3s-0.3,1.7,0.8,2.2c1.1,0.5,2.8,0.3,3.6,2.7c0.8,2.4-2.9,5.9-6.2,6.9
				C138.7,191.3,135.7,192.5,138,192.9z M136.4,202.5c3.3,0.5,8.9-0.1,8.9-0.1s5.2-3.6,5.9-5.7c0.5-1.4-4.1-0.9-5.7-1.2
				c-1.5-0.3-3.5-0.5-5.5-0.9c-2-0.4-2.2-1.4-2.2-1.4s0.3,1.8,2.8,1.9c2.5,0.1,3.3,1.1,3.4,2.1c0.1,1-2.1,1.8-7.7,2.7
				C130.8,200.8,133.2,202,136.4,202.5z M154.4,216.2c-1.2-1.6,3.2-3.1,4.9-3.7c0,0,0.9-0.1,2.3-0.7c-0.6,0.2-1.2,0.4-1.6,0.5
				c-0.1,0-6.3-3-12.4-4.7c-4.5-1.3-6.4-1.1-8.1-1.2c-1.7-0.1-5.7-1.7-6.5-2.4c-0.8-0.7-0.9-1.8-0.9-1.8l-1.2,0.9
				c0.1-0.1,0.8-0.2,3.7,2.1c3.4,2.7,6.7,3.7,3.6,7.2c-3.4,3.7-7.5,1.1-9-0.3c-1.5-1.3-1.7-2.9-1.7-2.9s-1.9,3.9,2.9,6.1
				c4.8,2.2,17.1,1.7,21.9,2c4.8,0.3,7-0.1,10.3-1.1c3.3-1,3.7-2.1,3.7-2.1S155.9,218.1,154.4,216.2z M166.7,210.4
				c0,0,0-0.9-1.4-1.3c0,0-1.5,1.5-3.2,2.3c-0.2,0.1-0.4,0.2-0.6,0.3c1-0.3,2.1-0.7,2.6-0.9C165.4,210.4,166.7,210.4,166.7,210.4z
				 M162.5,199.1c0,0-1.5-1.1-2.7-1.7c0,0-0.2,0.9-2.1,2c-0.2,0.1-0.3,0.2-0.5,0.3c1.3-0.5,2.5-1,3-1.1
				C161.5,198.5,162.5,199.1,162.5,199.1z M157.3,199.7c-1.8,0.8-3.8,1.7-3.8,1.7S155.5,200.6,157.3,199.7z M155.3,189.3
				c0,0-1.2-0.7-1.7-0.7c0,0-0.1,0.4-1.2,1.1c0.5-0.2,1-0.4,1.2-0.5C154.7,189.1,155.3,189.3,155.3,189.3z M151.7,190.1
				c0.3-0.1,0.5-0.3,0.7-0.4c-1.3,0.6-2.9,1.6-2.9,1.6S150,191,151.7,190.1z"/>
		</g>
		<g>
			<path class="st13" d="M139.8,193c0,0,6.9-0.9,9.5-1.7c2.3-0.7,3.9-2.2,3.9-2.2s-3.3,0.7-3.6-1.3c-0.3-2,0.6-6.5-4.4-7
				c0.7,0.1,3.9,0.8,3.2,4.6C147.4,191.5,139.8,193,139.8,193z M145.2,180.8c-0.1,0-0.1,0-0.1,0
				C145.1,180.8,145.2,180.8,145.2,180.8z M143.9,195.3c1.5,0.2,3.1,0.2,3.3,2.8c0.5,4.8-8.6,4.6-8.6,4.6s1.1,0.7,11-0.8
				c9.9-1.5,9.6-4.2,9.6-4.2c0-3.5-2.8-3.9-5.3-3.3c-2.5,0.6-8.9,0.1-11.5,0c-2.6-0.1-4.1-0.7-4.3-1.1c-0.2-0.4,0.9-0.4,0.9-0.4
				s-0.8-0.1-1.2,0c-0.4,0.1-0.2,0.8,1,1.3C140.1,194.8,142.4,195.1,143.9,195.3z M159.8,203.7c-3.8,0.2-14.9,2.8-20.1,2.7
				c2.8,0.3,8.5,1.3,8.9,3.8c0.5,3.3-7.3,7.1-7.3,7.1s13.8-2.9,17.4-4.8C162.3,210.6,164,203.4,159.8,203.7z M139.7,206.4
				c-0.9-0.1-1.5-0.2-1.5-0.2C138.6,206.3,139.1,206.4,139.7,206.4z M131.8,202.2l-0.7,0.7c0,0,2.9,2.8,6.1,2.9c0,0-3.4-1.3-4.2-2.1
				C132.1,203,131.8,202.2,131.8,202.2z M165.4,209.1c0,0-0.6,0.4-1.3,1c-0.6,0.5-1.6,1.2-1.6,1.2s2.6-0.4,3.4,0.7
				c0.8,1.1-1.5,3.7-1.5,3.7s2.7-1.4,2.7-3.8C167,209.5,165.4,209.1,165.4,209.1z"/>
		</g>
	</g>
	<g>
		<g>
			<path class="st11" d="M469.6,219.4c0,0,0.7-4.1-0.3-6.9c-0.9-2.8-5.2-4.9-5.2-4.9s1.6-3-0.5-5.4c-2.1-2.4-5.8-3.3-5.8-3.3
				s0.2-4.4-2.3-6.5c-2.5-2.1-5.3-1.7-6.5-2.3c-1.2-0.6-1-2.1-1-2.1s-0.9,2.3-0.1,3.4c0.9,1.1,1.5,2-0.1,3.7c-1.7,1.7-4.3,1.4-5.8,3
				c-1.5,1.6-1.7,2.7-1.1,4c0.6,1.3,1.5,1.1,1.5,1.1s-4.8,0.7-6.3,3.9c-1.5,3.3-0.1,5.2-0.1,5.2s-3.1,1.7-4.2,4.9
				c-1.1,3.2-0.4,6.5,2.6,8.5c3,1.9,11.2,3,18.4,2.7c7.2-0.3,13.2-0.3,16.8-3.5c0,0,1.6-0.7,1.5-2.9
				C471.1,219.7,469.6,219.4,469.6,219.4z"/>
		</g>
		<g>
			<path class="st12" d="M449.1,197.2c1.9-0.9,2.5-3.7-0.2-5.7c0,0,1.7,2.3,0.2,3.9c-1.5,1.5-6.9,1.8-6.7,2.5
				C442.5,198.5,447.3,198.2,449.1,197.2z M442.1,203.2c2.3,0.4,6.9-0.5,10.3-1.6c3.5-1.1,2.9-1.3,2.9-1.3s-2.9,0.5-2.1-4.6
				c0,0,0.1-4.1-3.5-4.7c-2-0.4-1.8-2.3-1.8-2.3s-0.3,1.7,0.8,2.2c1.1,0.5,2.8,0.3,3.6,2.7c0.8,2.4-2.9,5.9-6.2,6.9
				C442.8,201.6,439.8,202.8,442.1,203.2z M440.5,212.7c3.3,0.5,8.9-0.1,8.9-0.1s5.2-3.6,5.9-5.7c0.5-1.4-4.1-0.9-5.7-1.2
				c-1.5-0.3-3.5-0.5-5.5-0.9c-2-0.4-2.2-1.4-2.2-1.4s0.3,1.8,2.8,1.9c2.5,0.1,3.3,1.1,3.4,2.1c0.1,1-2.1,1.8-7.7,2.7
				C435,211,437.3,212.2,440.5,212.7z M458.5,226.4c-1.2-1.6,3.2-3.1,4.9-3.7c0,0,0.9-0.1,2.3-0.7c-0.6,0.2-1.2,0.4-1.6,0.5
				c-0.1,0-6.3-3-12.4-4.7c-4.5-1.3-6.4-1.1-8.1-1.2c-1.7-0.1-5.7-1.7-6.5-2.4c-0.8-0.7-0.9-1.8-0.9-1.8l-1.2,0.9
				c0.1-0.1,0.8-0.2,3.7,2.1c3.4,2.7,6.7,3.7,3.6,7.2c-3.4,3.7-7.5,1.1-9-0.3c-1.5-1.3-1.7-2.9-1.7-2.9s-1.9,3.9,2.9,6.1
				c4.8,2.2,17.1,1.7,21.9,2c4.8,0.3,7-0.1,10.3-1.1c3.3-1,3.7-2.1,3.7-2.1S460,228.3,458.5,226.4z M470.8,220.7c0,0,0-0.9-1.4-1.3
				c0,0-1.5,1.5-3.2,2.3c-0.2,0.1-0.4,0.2-0.6,0.3c1-0.3,2.1-0.7,2.6-0.9C469.6,220.7,470.8,220.7,470.8,220.7z M461.4,209.9
				c-1.8,0.8-3.8,1.7-3.8,1.7S459.6,210.8,461.4,209.9z M466.6,209.3c0,0-1.5-1.1-2.7-1.7c0,0-0.2,0.9-2.1,2
				c-0.2,0.1-0.3,0.2-0.5,0.3c1.3-0.5,2.5-1,3-1.1C465.6,208.7,466.6,209.3,466.6,209.3z M459.4,199.6c0,0-1.2-0.7-1.7-0.7
				c0,0-0.1,0.4-1.2,1.1c0.5-0.2,1-0.4,1.2-0.5C458.8,199.3,459.4,199.6,459.4,199.6z M455.8,200.3c0.3-0.1,0.5-0.3,0.7-0.4
				c-1.3,0.6-2.9,1.6-2.9,1.6S454.1,201.2,455.8,200.3z"/>
		</g>
		<g>
			<path class="st13" d="M449.3,191.1c-0.1,0-0.1,0-0.1,0C449.2,191.1,449.3,191.1,449.3,191.1z M443.9,203.3c0,0,6.9-0.9,9.5-1.7
				c2.3-0.7,3.9-2.2,3.9-2.2s-3.3,0.7-3.6-1.3c-0.3-2,0.6-6.5-4.4-7c0.7,0.1,3.9,0.8,3.2,4.6C451.5,201.8,443.9,203.3,443.9,203.3z
				 M448,205.5c1.5,0.2,3.1,0.2,3.3,2.8c0.5,4.8-8.6,4.6-8.6,4.6s1.1,0.7,11-0.8c9.9-1.5,9.6-4.2,9.6-4.2c0-3.5-2.8-3.9-5.3-3.3
				c-2.5,0.6-8.9,0.1-11.5,0c-2.6-0.1-4.1-0.7-4.3-1.1c-0.2-0.4,0.9-0.4,0.9-0.4s-0.8-0.1-1.2,0c-0.4,0.1-0.2,0.8,1,1.3
				C444.2,205,446.5,205.3,448,205.5z M463.9,213.9c-3.8,0.2-14.9,2.8-20.1,2.7c2.8,0.3,8.5,1.3,8.9,3.8c0.5,3.3-7.3,7.1-7.3,7.1
				s13.8-2.9,17.4-4.8C466.4,220.9,468.2,213.7,463.9,213.9z M443.8,216.6c-0.9-0.1-1.5-0.2-1.5-0.2
				C442.7,216.6,443.2,216.6,443.8,216.6z M435.9,212.5l-0.7,0.7c0,0,2.9,2.8,6.1,2.9c0,0-3.4-1.3-4.2-2.1
				C436.2,213.3,435.9,212.5,435.9,212.5z M469.5,219.4c0,0-0.6,0.4-1.3,1c-0.6,0.5-1.6,1.2-1.6,1.2s2.6-0.4,3.4,0.7
				c0.8,1.1-1.5,3.7-1.5,3.7s2.7-1.4,2.7-3.8C471.1,219.7,469.5,219.4,469.5,219.4z"/>
		</g>
	</g>
	<g>
		
			<radialGradient id="SVGID_3_" cx="358.3066" cy="212.6821" r="10.9832" gradientTransform="matrix(1 0 0 1 113.9941 8.999)" gradientUnits="userSpaceOnUse">
			<stop  offset="0" style="stop-color:#FBEB79"/>
			<stop  offset="1" style="stop-color:#FFD500"/>
		</radialGradient>
		<path class="st15" d="M475.8,212.5c-6.8,0-12.2,5.5-12.2,12.2c0,6.8,5.5,12.3,12.2,12.3c6.8,0,12.3-5.5,12.3-12.3
			C488.1,218,482.6,212.5,475.8,212.5z"/>
	</g>
	<g>
		
			<radialGradient id="SVGID_4_" cx="141.5796" cy="276.9443" r="20.1113" gradientTransform="matrix(1 0 0 1 113.9941 8.999)" gradientUnits="userSpaceOnUse">
			<stop  offset="0" style="stop-color:#FFED00"/>
			<stop  offset="0.1276" style="stop-color:#F9BE05"/>
			<stop  offset="0.2994" style="stop-color:#F2850B"/>
			<stop  offset="0.4661" style="stop-color:#EC5511"/>
			<stop  offset="0.6235" style="stop-color:#E83015"/>
			<stop  offset="0.7692" style="stop-color:#E51618"/>
			<stop  offset="0.8991" style="stop-color:#E30619"/>
			<stop  offset="1" style="stop-color:#E2001A"/>
		</radialGradient>
		<path class="st16" d="M257.6,275.7c-8.8,0-15.8,7.1-15.8,15.9c0,8.8,7.1,15.8,15.8,15.8c8.8,0,15.9-7.1,15.9-15.8
			C273.5,282.8,266.4,275.7,257.6,275.7z"/>
	</g>
	<g>
		
			<radialGradient id="SVGID_5_" cx="228.9658" cy="272.4419" r="16.1453" gradientTransform="matrix(1 0 0 1 113.9941 8.999)" gradientUnits="userSpaceOnUse">
			<stop  offset="0" style="stop-color:#DDABD1"/>
			<stop  offset="0.3168" style="stop-color:#C176B0"/>
			<stop  offset="0.6246" style="stop-color:#A94994"/>
			<stop  offset="0.8619" style="stop-color:#9A2D83"/>
			<stop  offset="1" style="stop-color:#95237D"/>
		</radialGradient>
		<path class="st17" d="M347.1,273.2c-8.4,0-15.1,6.8-15.1,15.1c0,8.4,6.8,15.1,15.1,15.1c8.4,0,15.1-6.8,15.1-15.1
			C362.2,279.9,355.4,273.2,347.1,273.2z"/>
	</g>
</g>
<g id="Vrstva_8">
	<g>
		<g>
			<path class="st11" d="M511.4,249.2c0,0,0.7-4.2-0.3-7.1c-1-2.9-5.4-5.1-5.4-5.1s1.7-3.1-0.5-5.6c-2.1-2.5-6-3.5-6-3.5
				s0.2-4.6-2.4-6.7c-2.6-2.1-5.5-1.8-6.8-2.4c-1.2-0.6-1-2.1-1-2.1s-1,2.4-0.1,3.5c0.9,1.1,1.6,2.1-0.1,3.9c-1.7,1.8-4.5,1.5-6,3.1
				c-1.5,1.7-1.8,2.8-1.2,4.2c0.6,1.3,1.6,1.1,1.6,1.1s-5,0.7-6.6,4.1c-1.6,3.4-0.1,5.4-0.1,5.4s-3.3,1.8-4.4,5.1
				c-1.1,3.3-0.4,6.8,2.7,8.8c3.1,2,11.7,3.1,19.2,2.8c7.5-0.3,13.7-0.3,17.4-3.6c0,0,1.7-0.7,1.6-3
				C513,249.5,511.4,249.2,511.4,249.2z"/>
		</g>
		<g>
			<path class="st12" d="M490.2,226.2c1.9-1,2.6-3.8-0.2-6c0,0,1.7,2.4,0.2,4c-1.5,1.6-7.1,1.9-7,2.6
				C483.3,227.5,488.2,227.1,490.2,226.2z M482.8,232.3c2.4,0.4,7.1-0.5,10.7-1.7c3.6-1.2,3-1.3,3-1.3s-3,0.5-2.2-4.8
				c0,0,0.1-4.2-3.7-4.9c-2.1-0.4-1.9-2.4-1.9-2.4s-0.3,1.8,0.8,2.3c1.1,0.5,2.9,0.3,3.8,2.8c0.9,2.5-3.1,6.1-6.4,7.2
				C483.6,230.7,480.5,231.9,482.8,232.3z M481.3,242.3c3.4,0.6,9.2-0.1,9.2-0.1s5.4-3.8,6.1-5.9c0.5-1.5-4.3-1-5.9-1.2
				c-1.6-0.3-3.6-0.6-5.7-1c-2.1-0.4-2.3-1.5-2.3-1.5s0.3,1.9,2.9,1.9c2.6,0.1,3.4,1.1,3.5,2.1c0.1,1-2.2,1.9-8,2.8
				C475.4,240.5,477.9,241.7,481.3,242.3z M499.9,256.5c-1.2-1.6,3.3-3.2,5.1-3.8c0,0,1-0.1,2.4-0.7c-0.6,0.2-1.3,0.4-1.7,0.5
				c-0.1,0-6.6-3.1-12.9-4.9c-4.7-1.3-6.7-1.2-8.4-1.3c-1.8-0.1-5.9-1.8-6.7-2.5c-0.8-0.7-1-1.9-1-1.9l-1.2,0.9
				c0.1-0.1,0.8-0.2,3.8,2.2c3.5,2.8,7,3.9,3.7,7.5c-3.5,3.9-7.8,1.1-9.3-0.3c-1.5-1.4-1.8-3-1.8-3s-1.9,4,3,6.3
				c5,2.3,17.8,1.8,22.8,2.1c5,0.3,7.3-0.1,10.7-1.1c3.5-1,3.9-2.1,3.9-2.1S501.5,258.5,499.9,256.5z M512.7,250.5
				c0,0,0-0.9-1.5-1.3c0,0-1.6,1.5-3.3,2.4c-0.2,0.1-0.4,0.2-0.6,0.3c1-0.3,2.1-0.7,2.7-0.9C511.4,250.5,512.7,250.5,512.7,250.5z
				 M503,239.3c-1.9,0.8-3.9,1.7-3.9,1.7S501.1,240.3,503,239.3z M508.4,238.7c0,0-1.5-1.2-2.8-1.7c0,0-0.2,1-2.1,2.1
				c-0.2,0.1-0.3,0.2-0.5,0.3c1.3-0.6,2.6-1,3.1-1.1C507.3,238.1,508.4,238.7,508.4,238.7z M497.2,229.3c0.3-0.1,0.5-0.3,0.7-0.4
				c-1.3,0.6-3,1.7-3,1.7S495.4,230.3,497.2,229.3z M500.9,228.6c0,0-1.2-0.7-1.8-0.8c0,0-0.1,0.4-1.2,1.1c0.5-0.3,1-0.4,1.3-0.5
				C500.2,228.3,500.9,228.6,500.9,228.6z"/>
		</g>
		<g>
			<path class="st13" d="M490.4,219.7c-0.1,0-0.1,0-0.1,0C490.3,219.7,490.3,219.7,490.4,219.7z M484.7,232.4c0,0,7.2-1,9.9-1.7
				c2.4-0.7,4.1-2.3,4.1-2.3s-3.4,0.8-3.7-1.4c-0.3-2.1,0.7-6.8-4.6-7.2c0.7,0.1,4.1,0.8,3.4,4.8
				C492.6,230.9,484.7,232.4,484.7,232.4z M489.1,234.8c1.6,0.2,3.2,0.3,3.5,3c0.5,5-8.9,4.8-8.9,4.8s1.1,0.7,11.4-0.8
				c10.3-1.5,10-4.4,10-4.4c0-3.7-2.9-4-5.5-3.4c-2.6,0.6-9.2,0.1-12,0c-2.7-0.1-4.3-0.7-4.5-1.1c-0.2-0.4,0.9-0.4,0.9-0.4
				s-0.8-0.1-1.2,0c-0.4,0.1-0.2,0.9,1,1.3C485,234.2,487.5,234.6,489.1,234.8z M505.5,243.5c-4,0.2-15.5,2.9-20.9,2.8
				c2.9,0.4,8.8,1.4,9.2,4c0.6,3.5-7.6,7.3-7.6,7.3s14.4-3,18.1-5C508.2,250.7,510,243.3,505.5,243.5z M484.7,246.3
				c-1-0.1-1.6-0.2-1.6-0.2C483.5,246.3,484.1,246.3,484.7,246.3z M476.4,242l-0.8,0.8c0,0,3,2.9,6.3,3c0,0-3.5-1.3-4.3-2.1
				C476.8,242.8,476.4,242,476.4,242z M511.4,249.2c0,0-0.7,0.5-1.3,1c-0.7,0.6-1.7,1.3-1.7,1.3s2.7-0.4,3.5,0.7
				c0.9,1.1-1.6,3.9-1.6,3.9s2.8-1.4,2.8-3.9C513.1,249.6,511.4,249.2,511.4,249.2z"/>
		</g>
	</g>
	<g>
		
			<radialGradient id="SVGID_6_" cx="366.4941" cy="247.8833" r="10.2563" gradientTransform="matrix(1 0 0 1 113.9941 8.999)" gradientUnits="userSpaceOnUse">
			<stop  offset="5.494510e-03" style="stop-color:#FFED00"/>
			<stop  offset="1" style="stop-color:#97BE0D"/>
		</radialGradient>
		<path class="st18" d="M483.5,249.1c-6.9,0-12.5,5.6-12.5,12.5c0,6.9,5.6,12.5,12.5,12.5c6.9,0,12.5-5.6,12.5-12.5
			C496,254.7,490.4,249.1,483.5,249.1z"/>
	</g>
</g>
<g id="Vrstva_7">
	<g>
		<g>
			<path class="st11" d="M475,275.1c0,0,0.7-4.5-0.3-7.5c-1-3.1-5.7-5.4-5.7-5.4s1.8-3.3-0.5-5.9c-2.3-2.6-6.4-3.7-6.4-3.7
				s0.2-4.8-2.6-7.1c-2.8-2.3-5.9-1.9-7.2-2.6c-1.3-0.7-1.1-2.3-1.1-2.3s-1,2.6-0.1,3.7c1,1.2,1.7,2.2-0.1,4.1
				c-1.8,1.9-4.8,1.5-6.4,3.3c-1.6,1.8-1.9,3-1.2,4.4c0.7,1.4,1.7,1.2,1.7,1.2s-5.3,0.7-7,4.3c-1.7,3.6-0.1,5.7-0.1,5.7
				s-3.4,1.9-4.6,5.4c-1.2,3.5-0.4,7.2,2.9,9.3c3.3,2.1,12.4,3.3,20.3,2.9c7.9-0.4,14.5-0.3,18.5-3.8c0,0,1.8-0.7,1.7-3.2
				C476.6,275.5,475,275.1,475,275.1z"/>
		</g>
		<g>
			<path class="st12" d="M452.5,250.7c2.1-1,2.8-4-0.2-6.3c0,0,1.8,2.6,0.2,4.3c-1.6,1.7-7.5,2-7.4,2.7
				C445.2,252.1,450.4,251.7,452.5,250.7z M444.7,257.2c2.5,0.4,7.5-0.5,11.4-1.8c3.8-1.2,3.2-1.4,3.2-1.4s-3.2,0.6-2.3-5.1
				c0,0,0.1-4.5-3.9-5.2c-2.2-0.4-2-2.5-2-2.5s-0.3,1.9,0.9,2.4c1.2,0.5,3.1,0.3,4,3c0.9,2.7-3.2,6.5-6.8,7.6
				C445.5,255.5,442.2,256.8,444.7,257.2z M443,267.8c3.6,0.6,9.7-0.1,9.7-0.1s5.7-4,6.4-6.2c0.5-1.5-4.5-1-6.2-1.3
				c-1.7-0.3-3.8-0.6-6-1c-2.2-0.4-2.4-1.5-2.4-1.5s0.4,2,3.1,2.1c2.7,0.1,3.6,1.2,3.7,2.3c0.1,1.1-2.3,2-8.4,3
				C436.9,265.9,439.4,267.2,443,267.8z M462.8,282.8c-1.3-1.7,3.5-3.4,5.4-4c0,0,1-0.1,2.5-0.8c-0.7,0.2-1.3,0.4-1.8,0.6
				c-0.1,0-6.9-3.3-13.7-5.1c-4.9-1.4-7-1.2-8.9-1.4c-1.9-0.1-6.2-1.9-7.1-2.6c-0.9-0.7-1-2-1-2l-1.3,1c0.1-0.1,0.8-0.2,4.1,2.4
				c3.7,2.9,7.4,4.1,4,7.9c-3.7,4.1-8.3,1.2-9.9-0.3c-1.6-1.5-1.9-3.2-1.9-3.2s-2.1,4.2,3.2,6.7c5.3,2.4,18.8,1.9,24.1,2.2
				c5.3,0.3,7.7-0.1,11.4-1.2c3.7-1.1,4.1-2.3,4.1-2.3S464.4,284.9,462.8,282.8z M476.4,276.5c0,0,0-1-1.5-1.4c0,0-1.7,1.6-3.5,2.6
				c-0.2,0.1-0.4,0.2-0.6,0.3c1.1-0.4,2.3-0.7,2.9-1C475,276.5,476.4,276.5,476.4,276.5z M471.7,264c0,0-1.6-1.2-2.9-1.8
				c0,0-0.2,1-2.3,2.2c-0.2,0.1-0.3,0.2-0.5,0.3c1.4-0.6,2.8-1.1,3.3-1.2C470.6,263.3,471.7,264,471.7,264z M466,264.6
				c-2,0.8-4.2,1.8-4.2,1.8S464.1,265.6,466,264.6z M463.8,253.3c0,0-1.3-0.7-1.9-0.8c0,0-0.1,0.4-1.3,1.2c0.6-0.3,1.1-0.5,1.4-0.5
				C463.1,253,463.8,253.3,463.8,253.3z M459.9,254.1c0.3-0.2,0.5-0.3,0.8-0.4c-1.4,0.7-3.2,1.8-3.2,1.8S458,255.1,459.9,254.1z"/>
		</g>
		<g>
			<path class="st13" d="M446.7,257.3c0,0,7.6-1,10.5-1.9c2.6-0.7,4.3-2.4,4.3-2.4s-3.6,0.8-4-1.5c-0.4-2.3,0.7-7.2-4.8-7.7
				c0.7,0.1,4.3,0.9,3.6,5.1C455.1,255.7,446.7,257.3,446.7,257.3z M452.7,243.9c-0.1,0-0.1,0-0.1,0
				C452.6,243.9,452.6,243.9,452.7,243.9z M451.3,259.8c1.7,0.2,3.4,0.3,3.7,3.1c0.5,5.3-9.5,5.1-9.5,5.1s1.2,0.7,12.1-0.9
				c10.9-1.6,10.6-4.6,10.6-4.6c0-3.9-3.1-4.3-5.8-3.6c-2.7,0.7-9.8,0.2-12.7,0c-2.9-0.1-4.6-0.7-4.7-1.2c-0.2-0.5,1-0.4,1-0.4
				s-0.8-0.1-1.3,0c-0.5,0.1-0.2,0.9,1.1,1.4C447,259.2,449.6,259.6,451.3,259.8z M446.7,272c-1.1-0.1-1.8-0.2-1.8-0.2
				C445.4,272,446,272,446.7,272z M468.7,269.1c-4.2,0.3-16.3,3.1-22,3c3.1,0.4,9.3,1.5,9.7,4.2c0.6,3.7-8.1,7.8-8.1,7.8
				s15.2-3.2,19.2-5.3C471.5,276.7,473.4,268.8,468.7,269.1z M437.9,267.4l-0.8,0.8c0,0,3.2,3.1,6.7,3.2c0,0-3.7-1.4-4.6-2.3
				C438.3,268.3,437.9,267.4,437.9,267.4z M474.9,275c0,0-0.7,0.5-1.4,1.1c-0.7,0.6-1.8,1.3-1.8,1.3s2.8-0.4,3.7,0.7
				c0.9,1.2-1.7,4.1-1.7,4.1s2.9-1.5,2.9-4.1C476.7,275.5,474.9,275,474.9,275z"/>
		</g>
	</g>
	<g>
		
			<radialGradient id="SVGID_7_" cx="-4.3394" cy="202.0395" r="10.9828" gradientTransform="matrix(1 0 0 1 113.9941 8.999)" gradientUnits="userSpaceOnUse">
			<stop  offset="5.494510e-03" style="stop-color:#FFED00"/>
			<stop  offset="1" style="stop-color:#97BE0D"/>
		</radialGradient>
		<path class="st19" d="M113.1,204c-5.9,0-10.6,4.8-10.6,10.7c0,5.9,4.8,10.7,10.6,10.7c5.9,0,10.7-4.8,10.7-10.7
			C123.8,208.8,119,204,113.1,204z"/>
	</g>
</g>
<g id="Vrstva_5_kopie_2">
	<g>
		<g>
			<path class="st11" d="M101.6,227.2c0,0,0.7-4.1-0.3-6.9c-0.9-2.8-5.2-4.9-5.2-4.9s1.6-3-0.5-5.4c-2.1-2.4-5.8-3.3-5.8-3.3
				s0.2-4.4-2.3-6.5c-2.5-2.1-5.3-1.7-6.5-2.3c-1.2-0.6-1-2.1-1-2.1s-0.9,2.3-0.1,3.4c0.9,1.1,1.5,2-0.1,3.7c-1.7,1.7-4.3,1.4-5.8,3
				c-1.5,1.6-1.7,2.7-1.1,4c0.6,1.3,1.5,1.1,1.5,1.1s-4.8,0.7-6.3,3.9c-1.5,3.3-0.1,5.2-0.1,5.2s-3.1,1.7-4.2,4.9
				c-1.1,3.2-0.4,6.5,2.6,8.5c3,1.9,11.2,3,18.4,2.7c7.2-0.3,13.2-0.3,16.8-3.5c0,0,1.6-0.7,1.5-2.9
				C103.1,227.5,101.6,227.2,101.6,227.2z"/>
		</g>
		<g>
			<path class="st12" d="M81.2,205c1.9-0.9,2.5-3.7-0.2-5.7c0,0,1.7,2.3,0.2,3.9c-1.5,1.5-6.9,1.8-6.7,2.5
				C74.6,206.3,79.3,206,81.2,205z M74.1,210.9c2.3,0.4,6.9-0.5,10.3-1.6c3.5-1.1,2.9-1.3,2.9-1.3s-2.9,0.5-2.1-4.6
				c0,0,0.1-4.1-3.5-4.7c-2-0.4-1.8-2.3-1.8-2.3s-0.3,1.7,0.8,2.2c1.1,0.5,2.8,0.3,3.6,2.7c0.8,2.4-2.9,5.9-6.2,6.9
				C74.8,209.3,71.8,210.5,74.1,210.9z M72.6,220.5c3.3,0.5,8.9-0.1,8.9-0.1s5.2-3.6,5.9-5.7c0.5-1.4-4.1-0.9-5.7-1.2
				c-1.5-0.3-3.5-0.5-5.5-0.9c-2-0.4-2.2-1.4-2.2-1.4s0.3,1.8,2.8,1.9c2.5,0.1,3.3,1.1,3.4,2.1c0.1,1-2.1,1.8-7.7,2.7
				C67,218.8,69.3,220,72.6,220.5z M90.5,234.2c-1.2-1.6,3.2-3.1,4.9-3.7c0,0,0.9-0.1,2.3-0.7c-0.6,0.2-1.2,0.4-1.6,0.5
				c-0.1,0-6.3-3-12.4-4.7c-4.5-1.3-6.4-1.1-8.1-1.2c-1.7-0.1-5.7-1.7-6.5-2.4c-0.8-0.7-0.9-1.8-0.9-1.8l-1.2,0.9
				c0.1-0.1,0.8-0.2,3.7,2.1c3.4,2.7,6.7,3.7,3.6,7.2c-3.4,3.7-7.5,1.1-9-0.3c-1.5-1.3-1.7-2.9-1.7-2.9s-1.9,3.9,2.9,6.1
				c4.8,2.2,17.1,1.7,21.9,2c4.8,0.3,7-0.1,10.3-1.1c3.3-1,3.7-2.1,3.7-2.1S92,236.1,90.5,234.2z M102.9,228.4c0,0,0-0.9-1.4-1.3
				c0,0-1.5,1.5-3.2,2.3c-0.2,0.1-0.4,0.2-0.6,0.3c1-0.3,2.1-0.7,2.6-0.9C101.6,228.4,102.9,228.4,102.9,228.4z M98.7,217.1
				c0,0-1.5-1.1-2.7-1.7c0,0-0.2,0.9-2.1,2c-0.2,0.1-0.3,0.2-0.5,0.3c1.3-0.5,2.5-1,3-1.1C97.7,216.5,98.7,217.1,98.7,217.1z
				 M93.4,217.7c-1.8,0.8-3.8,1.7-3.8,1.7S91.7,218.6,93.4,217.7z M91.5,207.4c0,0-1.2-0.7-1.7-0.7c0,0-0.1,0.4-1.2,1.1
				c0.5-0.2,1-0.4,1.2-0.5C90.8,207.1,91.5,207.4,91.5,207.4z M87.9,208.1c0.3-0.1,0.5-0.3,0.7-0.4c-1.3,0.6-2.9,1.6-2.9,1.6
				S86.1,209,87.9,208.1z"/>
		</g>
		<g>
			<path class="st13" d="M75.9,211c0,0,6.9-0.9,9.5-1.7c2.3-0.7,3.9-2.2,3.9-2.2s-3.3,0.7-3.6-1.3c-0.3-2,0.6-6.5-4.4-7
				c0.7,0.1,3.9,0.8,3.2,4.6C83.5,209.6,75.9,211,75.9,211z M81.4,198.9c-0.1,0-0.1,0-0.1,0C81.3,198.8,81.3,198.8,81.4,198.9z
				 M80.1,213.3c1.5,0.2,3.1,0.2,3.3,2.8c0.5,4.8-8.6,4.6-8.6,4.6s1.1,0.7,11-0.8c9.9-1.5,9.6-4.2,9.6-4.2c0-3.5-2.8-3.9-5.3-3.3
				c-2.5,0.6-8.9,0.1-11.5,0c-2.6-0.1-4.1-0.7-4.3-1.1c-0.2-0.4,0.9-0.4,0.9-0.4s-0.8-0.1-1.2,0c-0.4,0.1-0.2,0.8,1,1.3
				C76.2,212.8,78.6,213.1,80.1,213.3z M75.9,224.4c-0.9-0.1-1.5-0.2-1.5-0.2C74.7,224.3,75.3,224.4,75.9,224.4z M95.9,221.7
				c-3.8,0.2-14.9,2.8-20.1,2.7c2.8,0.3,8.5,1.3,8.9,3.8c0.5,3.3-7.3,7.1-7.3,7.1s13.8-2.9,17.4-4.8
				C98.5,228.6,100.2,221.5,95.9,221.7z M67.9,220.2l-0.7,0.7c0,0,2.9,2.8,6.1,2.9c0,0-3.4-1.3-4.2-2.1
				C68.3,221.1,67.9,220.2,67.9,220.2z M101.6,227.1c0,0-0.6,0.4-1.3,1c-0.6,0.5-1.6,1.2-1.6,1.2s2.6-0.4,3.4,0.7
				c0.8,1.1-1.5,3.7-1.5,3.7s2.7-1.4,2.7-3.8C103.2,227.5,101.6,227.1,101.6,227.1z"/>
		</g>
	</g>
	<g>
		
			<radialGradient id="SVGID_8_" cx="58.6938" cy="190.5796" r="7.5476" gradientTransform="matrix(1 0 0 1 113.9941 8.999)" gradientUnits="userSpaceOnUse">
			<stop  offset="0" style="stop-color:#D5EDFA"/>
			<stop  offset="0.2574" style="stop-color:#90D4EF"/>
			<stop  offset="0.5149" style="stop-color:#53BDE5"/>
			<stop  offset="0.7335" style="stop-color:#26ADDE"/>
			<stop  offset="0.902" style="stop-color:#0AA3DA"/>
			<stop  offset="1" style="stop-color:#009FD8"/>
		</radialGradient>
		<path class="st20" d="M175.9,192.7c-5,0-9.1,4.1-9.1,9.1c0,5,4.1,9.1,9.1,9.1c5,0,9.1-4.1,9.1-9.1
			C185.1,196.7,181,192.7,175.9,192.7z"/>
	</g>
</g>
<g id="Vrstva_5_kopie">
	<g>
		<g>
			<path class="st11" d="M160.6,282.9c0,0,0.7-4.5-0.3-7.5c-1-3.1-5.7-5.4-5.7-5.4s1.8-3.3-0.5-5.9c-2.3-2.6-6.4-3.7-6.4-3.7
				s0.2-4.8-2.6-7.1c-2.8-2.3-5.9-1.9-7.2-2.6c-1.3-0.7-1.1-2.3-1.1-2.3s-1,2.6-0.1,3.7c1,1.2,1.7,2.2-0.1,4.1
				c-1.8,1.9-4.8,1.5-6.4,3.3c-1.6,1.8-1.9,3-1.2,4.4c0.7,1.4,1.7,1.2,1.7,1.2s-5.3,0.7-7,4.3c-1.7,3.6-0.1,5.7-0.1,5.7
				s-3.4,1.9-4.6,5.4c-1.2,3.5-0.4,7.2,2.9,9.3c3.3,2.1,12.4,3.3,20.3,2.9c7.9-0.4,14.5-0.3,18.5-3.8c0,0,1.8-0.7,1.7-3.2
				C162.3,283.2,160.6,282.9,160.6,282.9z"/>
		</g>
		<g>
			<path class="st12" d="M138.1,258.5c2.1-1,2.8-4-0.2-6.3c0,0,1.8,2.6,0.2,4.3c-1.6,1.7-7.5,2-7.4,2.7
				C130.9,259.9,136.1,259.5,138.1,258.5z M130.3,265c2.5,0.4,7.5-0.5,11.4-1.8c3.8-1.2,3.2-1.4,3.2-1.4s-3.2,0.6-2.3-5.1
				c0,0,0.1-4.5-3.9-5.2c-2.2-0.4-2-2.5-2-2.5s-0.3,1.9,0.9,2.4c1.2,0.5,3.1,0.3,4,3c0.9,2.7-3.2,6.5-6.8,7.6
				C131.2,263.2,127.9,264.5,130.3,265z M128.7,275.5c3.6,0.6,9.7-0.1,9.7-0.1s5.7-4,6.4-6.2c0.5-1.5-4.5-1-6.2-1.3
				c-1.7-0.3-3.8-0.6-6-1c-2.2-0.4-2.4-1.5-2.4-1.5s0.4,2,3.1,2.1c2.7,0.1,3.6,1.2,3.7,2.3c0.1,1.1-2.3,2-8.4,3
				C122.5,273.6,125.1,275,128.7,275.5z M148.4,290.6c-1.3-1.7,3.5-3.4,5.4-4c0,0,1-0.1,2.5-0.8c-0.7,0.2-1.3,0.4-1.8,0.6
				c-0.1,0-6.9-3.3-13.7-5.1c-4.9-1.4-7-1.2-8.9-1.4c-1.9-0.1-6.2-1.9-7.1-2.6c-0.9-0.7-1-2-1-2l-1.3,1c0.1-0.1,0.8-0.2,4.1,2.4
				c3.7,2.9,7.4,4.1,4,7.9c-3.7,4.1-8.3,1.2-9.9-0.3c-1.6-1.5-1.9-3.1-1.9-3.1s-2.1,4.2,3.2,6.7c5.3,2.4,18.8,1.9,24.1,2.2
				c5.3,0.3,7.7-0.1,11.4-1.2c3.7-1.1,4.1-2.3,4.1-2.3S150.1,292.7,148.4,290.6z M162,284.3c0,0,0-1-1.5-1.4c0,0-1.7,1.6-3.5,2.6
				c-0.2,0.1-0.4,0.2-0.6,0.3c1.1-0.4,2.3-0.7,2.9-1C160.6,284.3,162,284.3,162,284.3z M151.7,272.4c-2,0.8-4.2,1.8-4.2,1.8
				S149.7,273.4,151.7,272.4z M157.4,271.7c0,0-1.6-1.2-2.9-1.8c0,0-0.2,1-2.3,2.2c-0.2,0.1-0.3,0.2-0.5,0.3
				c1.4-0.6,2.8-1.1,3.3-1.2C156.3,271.1,157.4,271.7,157.4,271.7z M149.5,261c0,0-1.3-0.7-1.9-0.8c0,0-0.1,0.4-1.3,1.2
				c0.6-0.3,1.1-0.5,1.4-0.5C148.7,260.7,149.5,261,149.5,261z M145.5,261.8c0.3-0.2,0.5-0.3,0.8-0.4c-1.4,0.7-3.2,1.8-3.2,1.8
				S143.6,262.9,145.5,261.8z"/>
		</g>
		<g>
			<path class="st13" d="M132.3,265.1c0,0,7.6-1,10.5-1.9c2.6-0.7,4.3-2.4,4.3-2.4s-3.6,0.8-4-1.5c-0.4-2.3,0.7-7.2-4.8-7.7
				c0.7,0.1,4.3,0.9,3.6,5.1C140.7,263.5,132.3,265.1,132.3,265.1z M138.3,251.7c-0.1,0-0.1,0-0.1,0
				C138.2,251.7,138.3,251.7,138.3,251.7z M136.9,267.6c1.7,0.2,3.4,0.3,3.7,3.1c0.5,5.3-9.5,5.1-9.5,5.1s1.2,0.7,12.1-0.9
				c10.9-1.6,10.6-4.6,10.6-4.6c0-3.9-3.1-4.2-5.8-3.6c-2.7,0.7-9.8,0.2-12.7,0c-2.9-0.1-4.6-0.7-4.7-1.2c-0.2-0.5,1-0.4,1-0.4
				s-0.8-0.1-1.3,0c-0.5,0.1-0.2,0.9,1.1,1.4C132.7,267,135.3,267.4,136.9,267.6z M154.4,276.9c-4.2,0.3-16.2,3.1-22,3
				c3.1,0.4,9.3,1.5,9.7,4.2c0.6,3.7-8.1,7.8-8.1,7.8s15.2-3.2,19.2-5.3C157.2,284.5,159.1,276.6,154.4,276.9z M132.4,279.8
				c-1.1-0.1-1.8-0.2-1.8-0.2C131.1,279.8,131.7,279.8,132.4,279.8z M123.5,275.2l-0.8,0.8c0,0,3.2,3.1,6.7,3.2c0,0-3.7-1.4-4.6-2.3
				C123.9,276.1,123.5,275.2,123.5,275.2z M160.6,282.8c0,0-0.7,0.5-1.4,1.1c-0.7,0.6-1.8,1.3-1.8,1.3s2.8-0.4,3.7,0.7
				c0.9,1.2-1.7,4.1-1.7,4.1s2.9-1.5,2.9-4.1C162.3,283.2,160.6,282.8,160.6,282.8z"/>
		</g>
	</g>
	<g>
		<g>
			<path class="st11" d="M236.7,296.4c0,0,0.7-4.5-0.3-7.5c-1-3.1-5.7-5.4-5.7-5.4s1.8-3.3-0.5-5.9c-2.3-2.6-6.4-3.7-6.4-3.7
				s0.2-4.8-2.6-7.1c-2.8-2.3-5.9-1.9-7.2-2.6c-1.3-0.7-1.1-2.3-1.1-2.3s-1,2.6-0.1,3.7c1,1.2,1.7,2.2-0.1,4.1
				c-1.8,1.9-4.8,1.5-6.4,3.3c-1.6,1.8-1.9,3-1.2,4.4c0.7,1.4,1.7,1.2,1.7,1.2s-5.3,0.7-7,4.3c-1.7,3.6-0.1,5.7-0.1,5.7
				s-3.4,1.9-4.6,5.4c-1.2,3.5-0.4,7.2,2.9,9.3c3.3,2.1,12.4,3.3,20.3,2.9c7.9-0.4,14.5-0.3,18.5-3.8c0,0,1.8-0.7,1.7-3.2
				C238.4,296.8,236.7,296.4,236.7,296.4z"/>
		</g>
		<g>
			<path class="st12" d="M214.2,272c2.1-1,2.8-4-0.2-6.3c0,0,1.8,2.6,0.2,4.3c-1.6,1.7-7.5,2-7.4,2.7C207,273.4,212.2,273,214.2,272
				z M206.5,278.5c2.5,0.4,7.5-0.5,11.4-1.8c3.8-1.2,3.2-1.4,3.2-1.4s-3.2,0.6-2.3-5.1c0,0,0.1-4.5-3.9-5.2c-2.2-0.4-2-2.5-2-2.5
				s-0.3,1.9,0.9,2.4c1.2,0.5,3.1,0.3,4,3c0.9,2.7-3.2,6.5-6.8,7.6C207.3,276.7,204,278.1,206.5,278.5z M204.8,289.1
				c3.6,0.6,9.7-0.1,9.7-0.1s5.7-4,6.4-6.2c0.5-1.5-4.5-1-6.2-1.3c-1.7-0.3-3.8-0.6-6-1c-2.2-0.4-2.4-1.5-2.4-1.5s0.4,2,3.1,2.1
				c2.7,0.1,3.6,1.2,3.7,2.3c0.1,1.1-2.3,2-8.4,3C198.6,287.2,201.2,288.5,204.8,289.1z M224.6,304.1c-1.3-1.7,3.5-3.4,5.4-4
				c0,0,1.1-0.1,2.5-0.8c-0.7,0.2-1.3,0.4-1.8,0.6c-0.1-0.1-7-3.3-13.7-5.1c-4.9-1.4-7-1.2-8.9-1.4c-1.9-0.1-6.2-1.9-7.1-2.6
				c-0.9-0.7-1-2-1-2l-1.3,1c0.1-0.1,0.8-0.2,4.1,2.4c3.7,2.9,7.4,4.1,4,7.9c-3.7,4.1-8.3,1.2-9.9-0.3c-1.6-1.5-1.9-3.2-1.9-3.2
				s-2.1,4.2,3.2,6.7c5.3,2.4,18.8,1.9,24.1,2.2c5.3,0.3,7.7-0.1,11.4-1.2c3.7-1.1,4.1-2.3,4.1-2.3S226.2,306.2,224.6,304.1z
				 M238.1,297.8c0,0,0-1-1.5-1.4c0,0-1.7,1.6-3.5,2.6c-0.2,0.1-0.4,0.2-0.6,0.3c1.1-0.3,2.3-0.7,2.9-1
				C236.7,297.8,238.1,297.8,238.1,297.8z M227.8,285.9c-2,0.8-4.2,1.8-4.2,1.8S225.8,286.9,227.8,285.9z M233.5,285.2
				c0,0-1.6-1.2-2.9-1.8c0,0-0.2,1-2.3,2.2c-0.2,0.1-0.3,0.2-0.5,0.3c1.4-0.6,2.8-1.1,3.3-1.2C232.4,284.6,233.5,285.2,233.5,285.2z
				 M225.6,274.5c0,0-1.3-0.7-1.9-0.8c0,0-0.1,0.4-1.3,1.2c0.6-0.3,1.1-0.5,1.4-0.5C224.8,274.3,225.6,274.5,225.6,274.5z
				 M221.6,275.4c0.3-0.2,0.5-0.3,0.8-0.4c-1.4,0.7-3.2,1.8-3.2,1.8S219.7,276.4,221.6,275.4z"/>
		</g>
		<g>
			<path class="st13" d="M214.4,265.2c-0.1,0-0.1,0-0.1,0C214.3,265.2,214.4,265.2,214.4,265.2z M208.4,278.6c0,0,7.6-1,10.5-1.9
				c2.6-0.7,4.3-2.4,4.3-2.4s-3.6,0.8-4-1.5c-0.4-2.3,0.7-7.2-4.8-7.7c0.7,0.1,4.3,0.9,3.6,5.1C216.8,277,208.4,278.6,208.4,278.6z
				 M213,281.1c1.7,0.2,3.4,0.3,3.7,3.1c0.5,5.3-9.5,5.1-9.5,5.1s1.2,0.7,12.1-0.9c10.9-1.6,10.6-4.6,10.6-4.6
				c0-3.9-3.1-4.2-5.8-3.6c-2.7,0.7-9.8,0.2-12.7,0c-2.9-0.1-4.6-0.7-4.7-1.2c-0.2-0.5,1-0.4,1-0.4s-0.8-0.1-1.3,0
				c-0.5,0.1-0.2,0.9,1.1,1.4C208.8,280.5,211.4,280.9,213,281.1z M230.5,290.4c-4.2,0.3-16.3,3.1-22,3c3.1,0.4,9.3,1.5,9.7,4.2
				c0.6,3.7-8.1,7.8-8.1,7.8s15.2-3.2,19.2-5.3C233.3,298,235.2,290.1,230.5,290.4z M208.5,293.3c-1.1-0.1-1.8-0.2-1.8-0.2
				C207.2,293.3,207.8,293.3,208.5,293.3z M199.6,288.7l-0.8,0.8c0,0,3.2,3.1,6.7,3.2c0,0-3.7-1.4-4.6-2.3
				C200,289.6,199.6,288.7,199.6,288.7z M236.7,296.3c0,0-0.7,0.5-1.4,1.1c-0.7,0.6-1.8,1.3-1.8,1.3s2.8-0.4,3.7,0.7
				c0.9,1.2-1.7,4.1-1.7,4.1s2.9-1.5,2.9-4.1C238.4,296.8,236.7,296.3,236.7,296.3z"/>
		</g>
	</g>
	<g>
		<g>
			<path class="st11" d="M320.2,296c0,0,0.7-4.5-0.3-7.5c-1-3.1-5.7-5.4-5.7-5.4s1.8-3.3-0.5-5.9c-2.3-2.6-6.4-3.7-6.4-3.7
				s0.2-4.8-2.6-7.1c-2.8-2.3-5.9-1.9-7.2-2.6c-1.3-0.7-1.1-2.3-1.1-2.3s-1,2.6-0.1,3.7c1,1.2,1.7,2.2-0.1,4.1
				c-1.8,1.9-4.8,1.5-6.4,3.3c-1.6,1.8-1.9,3-1.2,4.4c0.7,1.4,1.7,1.2,1.7,1.2s-5.3,0.7-7,4.3c-1.7,3.6-0.1,5.7-0.1,5.7
				s-3.4,1.9-4.6,5.4c-1.2,3.5-0.4,7.2,2.9,9.3c3.3,2.1,12.4,3.3,20.3,2.9c7.9-0.4,14.5-0.3,18.5-3.8c0,0,1.8-0.7,1.7-3.2
				C321.9,296.3,320.2,296,320.2,296z"/>
		</g>
		<g>
			<path class="st12" d="M297.7,271.6c2.1-1,2.8-4-0.2-6.3c0,0,1.8,2.6,0.2,4.3c-1.6,1.7-7.5,2-7.4,2.7
				C290.5,273,295.7,272.6,297.7,271.6z M289.9,278.1c2.5,0.4,7.5-0.5,11.4-1.8c3.8-1.2,3.2-1.4,3.2-1.4s-3.2,0.6-2.3-5.1
				c0,0,0.1-4.5-3.9-5.2c-2.2-0.4-2-2.5-2-2.5s-0.3,1.9,0.9,2.4c1.2,0.5,3.1,0.3,4,3c0.9,2.7-3.2,6.5-6.8,7.6
				C290.8,276.3,287.5,277.7,289.9,278.1z M288.3,288.7c3.6,0.6,9.8-0.1,9.8-0.1s5.7-4,6.4-6.2c0.5-1.5-4.5-1-6.2-1.3
				c-1.7-0.3-3.8-0.6-6-1c-2.2-0.4-2.4-1.5-2.4-1.5s0.4,2,3.1,2.1c2.7,0.1,3.6,1.2,3.7,2.3c0.1,1.1-2.3,2-8.4,3
				C282.1,286.7,284.7,288.1,288.3,288.7z M308.1,303.7c-1.3-1.7,3.5-3.4,5.4-4c0,0,1-0.1,2.5-0.8c-0.7,0.2-1.3,0.4-1.8,0.6
				c-0.1,0-6.9-3.3-13.7-5.1c-4.9-1.4-7-1.2-8.9-1.4c-1.9-0.1-6.2-1.9-7.1-2.6c-0.9-0.7-1-2-1-2l-1.3,1c0.1-0.1,0.8-0.2,4.1,2.4
				c3.7,2.9,7.4,4.1,4,7.9c-3.7,4.1-8.3,1.2-9.9-0.3c-1.6-1.5-1.9-3.2-1.9-3.2s-2.1,4.2,3.2,6.7c5.3,2.4,18.8,1.9,24.1,2.2
				c5.3,0.3,7.7-0.1,11.4-1.2c3.7-1.1,4.1-2.3,4.1-2.3S309.7,305.8,308.1,303.7z M321.6,297.4c0,0,0-1-1.5-1.4c0,0-1.7,1.6-3.5,2.6
				c-0.2,0.1-0.4,0.2-0.6,0.3c1.1-0.4,2.3-0.7,2.9-1C320.2,297.4,321.6,297.4,321.6,297.4z M311.3,285.5c-2,0.8-4.2,1.8-4.2,1.8
				S309.3,286.5,311.3,285.5z M317,284.8c0,0-1.6-1.2-2.9-1.8c0,0-0.2,1-2.3,2.2c-0.2,0.1-0.3,0.2-0.5,0.3c1.4-0.6,2.8-1.1,3.3-1.2
				C315.9,284.2,317,284.8,317,284.8z M305.1,274.9c0.3-0.2,0.5-0.3,0.8-0.4c-1.4,0.7-3.2,1.8-3.2,1.8S303.2,276,305.1,274.9z
				 M309.1,274.1c0,0-1.3-0.7-1.9-0.8c0,0-0.1,0.4-1.3,1.2c0.6-0.3,1.1-0.5,1.4-0.5C308.3,273.8,309.1,274.1,309.1,274.1z"/>
		</g>
		<g>
			<path class="st13" d="M291.9,278.2c0,0,7.6-1,10.5-1.9c2.6-0.7,4.3-2.4,4.3-2.4s-3.6,0.8-4-1.5c-0.4-2.3,0.7-7.2-4.8-7.7
				c0.7,0.1,4.3,0.9,3.6,5.1C300.3,276.6,291.9,278.2,291.9,278.2z M297.9,264.8c-0.1,0-0.1,0-0.1,0
				C297.8,264.8,297.9,264.8,297.9,264.8z M296.5,280.7c1.7,0.2,3.4,0.3,3.7,3.1c0.5,5.3-9.5,5.1-9.5,5.1s1.2,0.7,12.1-0.9
				c10.9-1.6,10.6-4.6,10.6-4.6c0-3.9-3.1-4.2-5.8-3.6c-2.7,0.7-9.8,0.2-12.7,0c-2.9-0.1-4.6-0.7-4.7-1.2c-0.2-0.5,1-0.4,1-0.4
				s-0.8-0.1-1.3,0c-0.5,0.1-0.2,0.9,1.1,1.4C292.3,280.1,294.9,280.5,296.5,280.7z M314,290c-4.2,0.3-16.3,3.1-22,3
				c3.1,0.4,9.3,1.5,9.7,4.2c0.6,3.7-8.1,7.8-8.1,7.8s15.2-3.2,19.2-5.3C316.8,297.6,318.7,289.7,314,290z M292,292.9
				c-1.1-0.1-1.8-0.2-1.8-0.2C290.7,292.9,291.3,292.9,292,292.9z M283.1,288.3l-0.8,0.8c0,0,3.2,3.1,6.7,3.2c0,0-3.7-1.4-4.6-2.3
				C283.5,289.2,283.1,288.3,283.1,288.3z M320.2,295.9c0,0-0.7,0.5-1.4,1.1c-0.7,0.6-1.8,1.3-1.8,1.3s2.8-0.4,3.7,0.7
				c0.9,1.2-1.7,4.1-1.7,4.1s2.9-1.5,2.9-4.1C321.9,296.4,320.2,295.9,320.2,295.9z"/>
		</g>
	</g>
	<g>
		<g>
			<path class="st11" d="M408.7,289.4c0,0,0.7-4.5-0.3-7.5c-1-3.1-5.7-5.4-5.7-5.4s1.8-3.3-0.5-5.9c-2.3-2.6-6.4-3.7-6.4-3.7
				s0.2-4.8-2.6-7.1c-2.8-2.3-5.9-1.9-7.2-2.6c-1.3-0.7-1.1-2.3-1.1-2.3s-1,2.6-0.1,3.7c1,1.2,1.7,2.2-0.1,4.1
				c-1.8,1.9-4.8,1.5-6.4,3.3c-1.6,1.8-1.9,3-1.2,4.4c0.7,1.4,1.7,1.2,1.7,1.2s-5.3,0.7-7,4.3c-1.7,3.6-0.1,5.7-0.1,5.7
				s-3.4,1.9-4.6,5.4c-1.2,3.5-0.4,7.2,2.9,9.3c3.3,2.1,12.4,3.3,20.3,2.9c7.9-0.4,14.5-0.3,18.5-3.8c0,0,1.8-0.7,1.7-3.2
				C410.3,289.8,408.7,289.4,408.7,289.4z"/>
		</g>
		<g>
			<path class="st12" d="M386.2,265c2.1-1,2.8-4-0.2-6.3c0,0,1.8,2.6,0.2,4.3c-1.6,1.7-7.5,2-7.4,2.7
				C378.9,266.4,384.1,266,386.2,265z M378.4,271.5c2.5,0.4,7.5-0.5,11.4-1.8c3.8-1.2,3.2-1.4,3.2-1.4s-3.2,0.6-2.3-5.1
				c0,0,0.1-4.5-3.9-5.2c-2.2-0.4-2-2.5-2-2.5s-0.3,1.9,0.9,2.4c1.2,0.5,3.1,0.3,4,3c0.9,2.7-3.2,6.5-6.8,7.6
				C379.2,269.8,375.9,271.1,378.4,271.5z M376.7,282.1c3.6,0.6,9.7-0.1,9.7-0.1s5.7-4,6.4-6.2c0.5-1.5-4.5-1-6.2-1.3
				c-1.7-0.3-3.8-0.6-6-1c-2.2-0.4-2.4-1.5-2.4-1.5s0.4,2,3.1,2.1c2.7,0.1,3.6,1.2,3.7,2.3c0.1,1.1-2.3,2-8.4,3
				C370.5,280.2,373.1,281.5,376.7,282.1z M396.5,297.1c-1.3-1.7,3.5-3.4,5.4-4c0,0,1-0.1,2.5-0.8c-0.7,0.2-1.3,0.4-1.8,0.6
				c-0.1,0-6.9-3.3-13.7-5.1c-4.9-1.4-7-1.2-8.9-1.4c-1.9-0.1-6.2-1.9-7.1-2.6c-0.9-0.7-1-2-1-2l-1.3,1c0.1-0.1,0.8-0.2,4.1,2.4
				c3.7,2.9,7.4,4.1,4,7.9c-3.7,4.1-8.3,1.2-9.9-0.3c-1.6-1.5-1.9-3.2-1.9-3.2s-2.1,4.2,3.2,6.7c5.3,2.4,18.8,1.9,24.1,2.2
				c5.3,0.3,7.7-0.1,11.4-1.2c3.7-1.1,4.1-2.3,4.1-2.3S398.1,299.2,396.5,297.1z M410,290.8c0,0,0-1-1.5-1.4c0,0-1.7,1.6-3.5,2.6
				c-0.2,0.1-0.4,0.2-0.6,0.3c1.1-0.4,2.3-0.7,2.9-1C408.7,290.8,410,290.8,410,290.8z M405.4,278.3c0,0-1.6-1.2-2.9-1.8
				c0,0-0.2,1-2.3,2.2c-0.2,0.1-0.3,0.2-0.5,0.3c1.4-0.6,2.8-1.1,3.3-1.2C404.3,277.6,405.4,278.3,405.4,278.3z M399.7,278.9
				c-2,0.8-4.2,1.8-4.2,1.8S397.8,280,399.7,278.9z M393.6,268.4c0.3-0.2,0.5-0.3,0.8-0.4c-1.4,0.7-3.2,1.8-3.2,1.8
				S391.7,269.4,393.6,268.4z M397.5,267.6c0,0-1.3-0.7-1.9-0.8c0,0-0.1,0.4-1.3,1.2c0.6-0.3,1.1-0.5,1.4-0.5
				C396.8,267.3,397.5,267.6,397.5,267.6z"/>
		</g>
		<g>
			<path class="st13" d="M380.4,271.6c0,0,7.6-1,10.5-1.9c2.6-0.7,4.3-2.4,4.3-2.4s-3.6,0.8-4-1.5c-0.4-2.3,0.7-7.2-4.8-7.7
				c0.7,0.1,4.3,0.9,3.6,5.1C388.7,270,380.4,271.6,380.4,271.6z M386.4,258.2c-0.1,0-0.1,0-0.1,0
				C386.3,258.2,386.3,258.2,386.4,258.2z M385,274.1c1.7,0.2,3.4,0.3,3.7,3.1c0.5,5.3-9.5,5.1-9.5,5.1s1.2,0.7,12.1-0.9
				c10.9-1.6,10.6-4.6,10.6-4.6c0-3.9-3.1-4.2-5.8-3.6c-2.7,0.7-9.8,0.2-12.7,0c-2.9-0.1-4.6-0.7-4.7-1.2c-0.2-0.5,1-0.4,1-0.4
				s-0.8-0.1-1.3,0c-0.5,0.1-0.2,0.9,1.1,1.4C380.7,273.5,383.3,273.9,385,274.1z M380.4,286.4c-1.1-0.1-1.8-0.2-1.8-0.2
				C379.1,286.3,379.7,286.4,380.4,286.4z M402.4,283.4c-4.2,0.3-16.3,3.1-22,3c3.1,0.4,9.3,1.5,9.7,4.2c0.6,3.7-8.1,7.8-8.1,7.8
				s15.2-3.2,19.2-5.3C405.2,291,407.1,283.1,402.4,283.4z M371.6,281.8l-0.8,0.8c0,0,3.2,3.1,6.7,3.2c0,0-3.7-1.4-4.6-2.3
				C371.9,282.7,371.6,281.8,371.6,281.8z M408.6,289.4c0,0-0.7,0.5-1.4,1.1c-0.7,0.6-1.8,1.3-1.8,1.3s2.8-0.4,3.7,0.7
				c0.9,1.2-1.7,4.1-1.7,4.1s2.9-1.5,2.9-4.1C410.4,289.8,408.6,289.4,408.6,289.4z"/>
		</g>
	</g>
	<g>
		
			<radialGradient id="SVGID_9_" cx="305.916" cy="266.7109" r="15.0284" gradientTransform="matrix(1 0 0 1 113.9941 8.999)" gradientUnits="userSpaceOnUse">
			<stop  offset="0" style="stop-color:#D5EDFA"/>
			<stop  offset="0.2574" style="stop-color:#90D4EF"/>
			<stop  offset="0.5149" style="stop-color:#53BDE5"/>
			<stop  offset="0.7335" style="stop-color:#26ADDE"/>
			<stop  offset="0.902" style="stop-color:#0AA3DA"/>
			<stop  offset="1" style="stop-color:#009FD8"/>
		</radialGradient>
		<path class="st21" d="M424.7,266.4c-7.7,0-13.9,6.2-13.9,13.9c0,7.7,6.2,13.9,13.9,13.9c7.7,0,13.9-6.2,13.9-13.9
			C438.6,272.7,432.4,266.4,424.7,266.4z"/>
	</g>
	<g>
		
			<radialGradient id="SVGID_10_" cx="54.6006" cy="445.9883" r="11.6344" gradientTransform="matrix(1 0 0 1 113.9941 8.999)" gradientUnits="userSpaceOnUse">
			<stop  offset="0" style="stop-color:#F2D4EA"/>
			<stop  offset="1" style="stop-color:#E0007B"/>
		</radialGradient>
		<path class="st22" d="M173.8,445.8c-8.1,0-14.6,6.6-14.6,14.6c0,8.1,6.6,14.7,14.6,14.7c8.1,0,14.6-6.6,14.6-14.7
			C188.5,452.3,181.9,445.8,173.8,445.8z"/>
	</g>
	<g>
		
			<radialGradient id="SVGID_11_" cx="60.332" cy="270.8037" r="11.635" gradientTransform="matrix(1 0 0 1 113.9941 8.999)" gradientUnits="userSpaceOnUse">
			<stop  offset="0" style="stop-color:#F2D4EA"/>
			<stop  offset="1" style="stop-color:#E0007B"/>
		</radialGradient>
		<path class="st23" d="M178.6,269c-8.1,0-14.6,6.6-14.6,14.7c0,8.1,6.6,14.6,14.6,14.6c8.1,0,14.6-6.6,14.6-14.6
			C193.3,275.6,186.7,269,178.6,269z"/>
	</g>
	<g>
		
			<radialGradient id="SVGID_12_" cx="253.5244" cy="188.124" r="7.5475" gradientTransform="matrix(1 0 0 1 113.9941 8.999)" gradientUnits="userSpaceOnUse">
			<stop  offset="0" style="stop-color:#F2D4EA"/>
			<stop  offset="1" style="stop-color:#E0007B"/>
		</radialGradient>
		<path class="st24" d="M370.9,190.2c-5.3,0-9.6,4.3-9.6,9.6c0,5.3,4.3,9.6,9.6,9.6c5.3,0,9.6-4.3,9.6-9.6
			C380.5,194.5,376.2,190.2,370.9,190.2z"/>
	</g>
	<g>
		
			<radialGradient id="SVGID_13_" cx="-24.8047" cy="425.5224" r="12.4694" gradientTransform="matrix(1 0 0 1 113.9941 8.999)" gradientUnits="userSpaceOnUse">
			<stop  offset="0" style="stop-color:#FCE500"/>
			<stop  offset="1" style="stop-color:#E36828"/>
		</radialGradient>
		<path class="st25" d="M93.3,425.1c-7.7,0-13.9,6.2-13.9,13.9c0,7.7,6.2,13.9,13.9,13.9c7.7,0,13.9-6.2,13.9-13.9
			C107.3,431.3,101,425.1,93.3,425.1z"/>
	</g>
	<g>
		
			<radialGradient id="SVGID_14_" cx="-77.1963" cy="394.415" r="7.7222" gradientTransform="matrix(1 0 0 1 113.9941 8.999)" gradientUnits="userSpaceOnUse">
			<stop  offset="0" style="stop-color:#FBEB79"/>
			<stop  offset="1" style="stop-color:#FFD500"/>
		</radialGradient>
		<path class="st26" d="M40.7,396.3c-6.8,0-12.2,5.5-12.2,12.3c0,6.8,5.5,12.2,12.2,12.2c6.8,0,12.3-5.5,12.3-12.2
			C53,401.8,47.5,396.3,40.7,396.3z"/>
	</g>
	<g>
		
			<radialGradient id="SVGID_15_" cx="-63.2803" cy="227.417" r="11.8064" gradientTransform="matrix(1 0 0 1 113.9941 8.999)" gradientUnits="userSpaceOnUse">
			<stop  offset="0" style="stop-color:#FBEB79"/>
			<stop  offset="1" style="stop-color:#FFD500"/>
		</radialGradient>
		<path class="st27" d="M57.1,227.2c-6.8,0-12.2,5.5-12.2,12.2c0,6.8,5.5,12.3,12.2,12.3c6.8,0,12.3-5.5,12.3-12.3
			C69.3,232.7,63.8,227.2,57.1,227.2z"/>
	</g>
	<g>
		
			<radialGradient id="SVGID_16_" cx="188.854" cy="184.0317" r="5.9025" gradientTransform="matrix(1 0 0 1 113.9941 8.999)" gradientUnits="userSpaceOnUse">
			<stop  offset="0" style="stop-color:#FFED00"/>
			<stop  offset="0.1276" style="stop-color:#F9BE05"/>
			<stop  offset="0.2994" style="stop-color:#F2850B"/>
			<stop  offset="0.4661" style="stop-color:#EC5511"/>
			<stop  offset="0.6235" style="stop-color:#E83015"/>
			<stop  offset="0.7692" style="stop-color:#E51618"/>
			<stop  offset="0.8991" style="stop-color:#E30619"/>
			<stop  offset="1" style="stop-color:#E2001A"/>
		</radialGradient>
		<path class="st28" d="M306.1,186.1c-4.7,0-8.5,3.8-8.5,8.5c0,4.7,3.8,8.5,8.5,8.5c4.7,0,8.5-3.8,8.5-8.5
			C314.6,189.9,310.8,186.1,306.1,186.1z"/>
	</g>
</g>
<g id="Vrstva_5">
	<g>
		<g>
			<path class="st11" d="M99.8,258.2c0,0,0.7-4.5-0.3-7.5c-1-3.1-5.7-5.4-5.7-5.4s1.8-3.3-0.5-5.9c-2.3-2.6-6.4-3.7-6.4-3.7
				s0.2-4.8-2.6-7.1c-2.8-2.3-5.9-1.9-7.2-2.6c-1.3-0.7-1.1-2.3-1.1-2.3s-1,2.6-0.1,3.7c1,1.2,1.7,2.2-0.1,4.1
				c-1.8,1.9-4.8,1.5-6.4,3.3c-1.6,1.8-1.9,3-1.2,4.4c0.7,1.4,1.7,1.2,1.7,1.2s-5.3,0.7-7,4.3c-1.7,3.6-0.1,5.7-0.1,5.7
				s-3.4,1.9-4.6,5.4c-1.2,3.5-0.4,7.2,2.9,9.3c3.3,2.1,12.4,3.3,20.3,2.9c7.9-0.4,14.5-0.3,18.5-3.8c0,0,1.8-0.7,1.7-3.2
				C101.4,258.6,99.8,258.2,99.8,258.2z"/>
		</g>
		<g>
			<path class="st12" d="M77.3,233.8c2.1-1,2.8-4-0.2-6.3c0,0,1.8,2.6,0.2,4.3c-1.6,1.7-7.5,2-7.4,2.7
				C70,235.2,75.2,234.8,77.3,233.8z M69.5,240.3c2.5,0.4,7.5-0.5,11.4-1.8c3.8-1.2,3.2-1.4,3.2-1.4s-3.2,0.6-2.3-5.1
				c0,0,0.1-4.5-3.9-5.2c-2.2-0.4-2-2.5-2-2.5s-0.3,1.9,0.9,2.4c1.2,0.5,3.1,0.3,4,3c0.9,2.7-3.2,6.5-6.8,7.6
				C70.3,238.5,67,239.9,69.5,240.3z M67.8,250.9c3.6,0.6,9.7-0.1,9.7-0.1s5.7-4,6.4-6.2c0.5-1.5-4.5-1-6.2-1.3
				c-1.7-0.3-3.8-0.6-6-1c-2.2-0.4-2.4-1.5-2.4-1.5s0.4,2,3.1,2.1c2.7,0.1,3.6,1.2,3.7,2.3c0.1,1.1-2.3,2-8.4,3
				C61.6,249,64.2,250.3,67.8,250.9z M87.6,265.9c-1.3-1.7,3.5-3.4,5.4-4c0,0,1-0.1,2.5-0.8c-0.7,0.2-1.3,0.4-1.8,0.6
				c-0.1-0.1-6.9-3.3-13.7-5.1c-4.9-1.4-7-1.2-8.9-1.4c-1.9-0.1-6.2-1.9-7.1-2.6c-0.9-0.7-1-2-1-2l-1.3,1c0.1-0.1,0.8-0.2,4.1,2.4
				c3.7,2.9,7.4,4.1,4,7.9c-3.7,4.1-8.3,1.2-9.9-0.3c-1.6-1.5-1.9-3.2-1.9-3.2s-2.1,4.2,3.2,6.7c5.3,2.4,18.8,1.9,24.1,2.2
				c5.3,0.3,7.7-0.1,11.4-1.2c3.7-1.1,4.1-2.3,4.1-2.3S89.2,268,87.6,265.9z M101.1,259.6c0,0,0-1-1.5-1.4c0,0-1.7,1.6-3.5,2.6
				c-0.2,0.1-0.4,0.2-0.6,0.3c1.1-0.4,2.3-0.7,2.9-1C99.8,259.6,101.1,259.6,101.1,259.6z M90.8,247.7c-2,0.8-4.2,1.8-4.2,1.8
				S88.8,248.7,90.8,247.7z M96.5,247c0,0-1.6-1.2-2.9-1.8c0,0-0.2,1-2.3,2.2c-0.2,0.1-0.3,0.2-0.5,0.3c1.4-0.6,2.8-1.1,3.3-1.2
				C95.4,246.4,96.5,247,96.5,247z M84.7,237.2c0.3-0.2,0.5-0.3,0.8-0.4c-1.4,0.7-3.2,1.8-3.2,1.8S82.7,238.2,84.7,237.2z
				 M88.6,236.3c0,0-1.3-0.7-1.9-0.8c0,0-0.1,0.4-1.3,1.2c0.6-0.3,1.1-0.5,1.4-0.5C87.9,236.1,88.6,236.3,88.6,236.3z"/>
		</g>
		<g>
			<path class="st13" d="M71.5,240.4c0,0,7.6-1,10.5-1.9c2.6-0.7,4.3-2.4,4.3-2.4s-3.6,0.8-4-1.5c-0.4-2.3,0.7-7.2-4.8-7.7
				c0.7,0.1,4.3,0.9,3.6,5.1C79.8,238.8,71.5,240.4,71.5,240.4z M77.5,227c-0.1,0-0.1,0-0.1,0C77.4,227,77.4,227,77.5,227z
				 M76.1,242.9c1.7,0.2,3.4,0.3,3.7,3.1c0.5,5.3-9.5,5.1-9.5,5.1s1.2,0.7,12.1-0.9c10.9-1.6,10.6-4.6,10.6-4.6
				c0-3.9-3.1-4.3-5.8-3.6c-2.7,0.7-9.8,0.2-12.7,0c-2.9-0.1-4.6-0.7-4.7-1.2c-0.2-0.5,1-0.4,1-0.4s-0.8-0.1-1.3,0
				c-0.5,0.1-0.2,0.9,1.1,1.4C71.8,242.3,74.4,242.7,76.1,242.9z M93.5,252.2c-4.2,0.3-16.3,3.1-22,3c3.1,0.4,9.3,1.5,9.7,4.2
				c0.6,3.7-8.1,7.8-8.1,7.8s15.2-3.2,19.2-5.3C96.3,259.8,98.2,251.9,93.5,252.2z M71.5,255.1c-1.1-0.1-1.8-0.2-1.8-0.2
				C70.2,255.1,70.8,255.1,71.5,255.1z M62.7,250.5l-0.8,0.8c0,0,3.2,3.1,6.7,3.2c0,0-3.7-1.4-4.6-2.3
				C63,251.4,62.7,250.5,62.7,250.5z M99.7,258.1c0,0-0.7,0.5-1.4,1.1c-0.7,0.6-1.8,1.3-1.8,1.3s2.8-0.4,3.7,0.7
				c0.9,1.2-1.7,4.1-1.7,4.1s2.9-1.5,2.9-4.1C101.5,258.6,99.7,258.1,99.7,258.1z"/>
		</g>
	</g>
	<g>
		
			<radialGradient id="SVGID_17_" cx="154.4727" cy="450.8994" r="14.3198" gradientTransform="matrix(1 0 0 1 113.9941 8.999)" gradientUnits="userSpaceOnUse">
			<stop  offset="0" style="stop-color:#FFED00"/>
			<stop  offset="0.1276" style="stop-color:#F9BE05"/>
			<stop  offset="0.2994" style="stop-color:#F2850B"/>
			<stop  offset="0.4661" style="stop-color:#EC5511"/>
			<stop  offset="0.6235" style="stop-color:#E83015"/>
			<stop  offset="0.7692" style="stop-color:#E51618"/>
			<stop  offset="0.8991" style="stop-color:#E30619"/>
			<stop  offset="1" style="stop-color:#E2001A"/>
		</radialGradient>
		<path class="st29" d="M273,450.1c-8.8,0-15.8,7.1-15.8,15.9c0,8.8,7.1,15.8,15.8,15.8s15.9-7.1,15.9-15.8
			C288.8,457.2,281.7,450.1,273,450.1z"/>
	</g>
	<g>
		
			<radialGradient id="SVGID_18_" cx="253.5249" cy="443.5322" r="11.3726" gradientTransform="matrix(1 0 0 1 113.9941 8.999)" gradientUnits="userSpaceOnUse">
			<stop  offset="0" style="stop-color:#DDABD1"/>
			<stop  offset="0.3168" style="stop-color:#C176B0"/>
			<stop  offset="0.6246" style="stop-color:#A94994"/>
			<stop  offset="0.8619" style="stop-color:#9A2D83"/>
			<stop  offset="1" style="stop-color:#95237D"/>
		</radialGradient>
		<path class="st30" d="M370.4,440.2c-8.4,0-15.1,6.8-15.1,15.1c0,8.4,6.8,15.1,15.1,15.1c8.4,0,15.1-6.8,15.1-15.1
			C385.5,446.9,378.8,440.2,370.4,440.2z"/>
	</g>
	<g>
		
			<radialGradient id="SVGID_19_" cx="341.1182" cy="423.8848" r="12.9435" gradientTransform="matrix(1 0 0 1 113.9941 8.999)" gradientUnits="userSpaceOnUse">
			<stop  offset="0" style="stop-color:#D5EDFA"/>
			<stop  offset="0.2574" style="stop-color:#90D4EF"/>
			<stop  offset="0.5149" style="stop-color:#53BDE5"/>
			<stop  offset="0.7335" style="stop-color:#26ADDE"/>
			<stop  offset="0.902" style="stop-color:#0AA3DA"/>
			<stop  offset="1" style="stop-color:#009FD8"/>
		</radialGradient>
		<path class="st31" d="M459.1,423.6c-7.7,0-13.9,6.2-13.9,13.9c0,7.7,6.2,13.9,13.9,13.9c7.7,0,13.9-6.2,13.9-13.9
			C473,429.8,466.8,423.6,459.1,423.6z"/>
	</g>
	<g>
		
			<radialGradient id="SVGID_20_" cx="395.1475" cy="399.3271" r="11.0125" gradientTransform="matrix(1 0 0 1 113.9941 8.999)" gradientUnits="userSpaceOnUse">
			<stop  offset="5.494510e-03" style="stop-color:#FFED00"/>
			<stop  offset="1" style="stop-color:#97BE0D"/>
		</radialGradient>
		<path class="st32" d="M512.9,401.4c-4.9,0-8.8,3.9-8.8,8.8c0,4.9,3.9,8.8,8.8,8.8c4.9,0,8.8-3.9,8.8-8.8
			C521.7,405.3,517.8,401.4,512.9,401.4z"/>
	</g>
	<g>
		
			<radialGradient id="SVGID_21_" cx="-12.5259" cy="257.2964" r="12.9438" gradientTransform="matrix(1 0 0 1 113.9941 8.999)" gradientUnits="userSpaceOnUse">
			<stop  offset="0" style="stop-color:#FCE500"/>
			<stop  offset="1" style="stop-color:#E36828"/>
		</radialGradient>
		<path class="st33" d="M105.8,255.3c-7.7,0-13.9,6.2-13.9,13.9c0,7.7,6.2,13.9,13.9,13.9c7.7,0,13.9-6.2,13.9-13.9
			C119.8,261.6,113.5,255.3,105.8,255.3z"/>
	</g>
	<g>
		<g>
			<path class="st11" d="M358.7,199.3c0,0,0.6-3.7-0.2-6.3c-0.9-2.6-4.8-4.5-4.8-4.5s1.5-2.8-0.4-5c-1.9-2.2-5.3-3.1-5.3-3.1
				s0.2-4-2.1-5.9c-2.3-1.9-4.9-1.6-6-2.1c-1.1-0.6-0.9-1.9-0.9-1.9s-0.9,2.1-0.1,3.1c0.8,1,1.4,1.8-0.1,3.4c-1.5,1.6-4,1.3-5.3,2.8
				c-1.3,1.5-1.6,2.5-1,3.7c0.6,1.2,1.4,1,1.4,1s-4.4,0.6-5.8,3.6c-1.4,3-0.1,4.8-0.1,4.8s-2.9,1.6-3.9,4.5c-1,2.9-0.4,6,2.4,7.8
				c2.8,1.8,10.3,2.8,16.9,2.4c6.6-0.3,12.1-0.2,15.4-3.2c0,0,1.5-0.6,1.4-2.7C360.1,199.6,358.7,199.3,358.7,199.3z"/>
		</g>
		<g>
			<path class="st12" d="M340,178.9c1.7-0.9,2.3-3.4-0.2-5.3c0,0,1.5,2.1,0.2,3.5c-1.3,1.4-6.3,1.6-6.2,2.3
				C333.9,180.1,338.3,179.8,340,178.9z M333.5,184.3c2.1,0.4,6.3-0.4,9.5-1.5c3.2-1,2.6-1.2,2.6-1.2s-2.6,0.5-1.9-4.2
				c0,0,0.1-3.7-3.2-4.3c-1.9-0.3-1.6-2.1-1.6-2.1s-0.3,1.6,0.7,2c1,0.4,2.6,0.3,3.3,2.5c0.8,2.2-2.7,5.4-5.7,6.3
				C334.2,182.9,331.4,184,333.5,184.3z M332.1,193.2c3,0.5,8.1-0.1,8.1-0.1s4.8-3.3,5.4-5.2c0.4-1.3-3.8-0.9-5.2-1.1
				c-1.4-0.2-3.2-0.5-5-0.9c-1.8-0.4-2-1.3-2-1.3s0.3,1.7,2.6,1.7c2.3,0.1,3,1,3.1,1.9c0.1,0.9-2,1.7-7,2.5
				C326.9,191.6,329.1,192.7,332.1,193.2z M348.6,205.7c-1.1-1.4,2.9-2.9,4.5-3.4c0,0,0.9-0.1,2.1-0.7c-0.6,0.2-1.1,0.3-1.5,0.5
				c-0.1,0-5.8-2.7-11.4-4.3c-4.1-1.2-5.9-1-7.5-1.1c-1.6-0.1-5.2-1.6-5.9-2.2c-0.7-0.6-0.9-1.6-0.9-1.6l-1.1,0.8
				c0.1-0.1,0.7-0.1,3.4,2c3.1,2.4,6.2,3.4,3.3,6.6c-3.1,3.4-6.9,1-8.3-0.2c-1.3-1.2-1.6-2.6-1.6-2.6s-1.7,3.5,2.7,5.6
				c4.4,2,15.7,1.6,20.1,1.8c4.4,0.2,6.4-0.1,9.5-1c3.1-0.9,3.4-1.9,3.4-1.9S349.9,207.5,348.6,205.7z M353.1,202.3
				c0.1,0,0.2-0.1,0.3-0.1C353.2,202.3,353.1,202.3,353.1,202.3z M359.9,200.4c0,0,0-0.8-1.3-1.2c0,0-1.4,1.3-2.9,2.1
				c-0.2,0.1-0.4,0.2-0.5,0.3c0.9-0.3,1.9-0.6,2.4-0.8C358.7,200.4,359.9,200.4,359.9,200.4z M351.2,190.5c-1.7,0.7-3.5,1.5-3.5,1.5
				S349.6,191.4,351.2,190.5z M356,190c0,0-1.3-1-2.4-1.5c0,0-0.2,0.9-1.9,1.8c-0.1,0.1-0.3,0.2-0.5,0.2c1.2-0.5,2.3-0.9,2.8-1
				C355.1,189.4,356,190,356,190z M349.4,181c0,0-1.1-0.6-1.6-0.7c0,0-0.1,0.4-1.1,1c0.5-0.2,0.9-0.4,1.1-0.4
				C348.8,180.8,349.4,181,349.4,181z M346.1,181.7c0.2-0.1,0.5-0.3,0.6-0.4c-1.2,0.6-2.7,1.5-2.7,1.5S344.6,182.6,346.1,181.7z"/>
		</g>
		<g>
			<path class="st13" d="M340.1,173.2c-0.1,0-0.1,0-0.1,0C340.1,173.2,340.1,173.2,340.1,173.2z M335.1,184.4c0,0,6.4-0.9,8.7-1.5
				c2.1-0.6,3.6-2,3.6-2s-3,0.7-3.3-1.2c-0.3-1.9,0.6-6-4-6.4c0.6,0.1,3.6,0.7,3,4.2C342.1,183.1,335.1,184.4,335.1,184.4z
				 M339,186.5c1.4,0.2,2.8,0.2,3.1,2.6c0.4,4.4-7.9,4.2-7.9,4.2s1,0.6,10.1-0.7c9.1-1.3,8.9-3.9,8.9-3.9c0-3.2-2.6-3.5-4.8-3
				c-2.3,0.6-8.2,0.1-10.6,0c-2.4-0.1-3.8-0.6-3.9-1c-0.1-0.4,0.8-0.3,0.8-0.3s-0.7-0.1-1.1,0c-0.4,0.1-0.1,0.8,0.9,1.2
				C335.4,186,337.6,186.3,339,186.5z M353.5,194.3c-3.5,0.2-13.7,2.6-18.4,2.5c2.6,0.3,7.8,1.2,8.2,3.5c0.5,3.1-6.7,6.5-6.7,6.5
				s12.7-2.7,16-4.4C355.9,200.6,357.5,194,353.5,194.3z M335.1,196.7c-0.8-0.1-1.4-0.1-1.4-0.1
				C334.1,196.7,334.6,196.7,335.1,196.7z M327.8,192.9l-0.7,0.7c0,0,2.7,2.6,5.6,2.7c0,0-3.1-1.2-3.8-1.9
				C328.1,193.6,327.8,192.9,327.8,192.9z M358.7,199.2c0,0-0.6,0.4-1.2,0.9c-0.6,0.5-1.5,1.1-1.5,1.1s2.3-0.4,3.1,0.6
				c0.8,1-1.4,3.4-1.4,3.4s2.4-1.2,2.4-3.5C360.2,199.6,358.7,199.2,358.7,199.2z"/>
		</g>
	</g>
	<g>
		<g>
			<path class="st11" d="M228.2,199.7c0,0,0.6-3.7-0.2-6.3c-0.9-2.6-4.8-4.5-4.8-4.5s1.5-2.8-0.4-5c-1.9-2.2-5.3-3.1-5.3-3.1
				s0.2-4-2.1-5.9c-2.3-1.9-4.9-1.6-6-2.1c-1.1-0.6-0.9-1.9-0.9-1.9s-0.9,2.1-0.1,3.1c0.8,1,1.4,1.8-0.1,3.4c-1.5,1.6-4,1.3-5.3,2.8
				c-1.3,1.5-1.6,2.5-1,3.7c0.6,1.2,1.4,1,1.4,1s-4.4,0.6-5.8,3.6c-1.4,3-0.1,4.8-0.1,4.8s-2.9,1.6-3.9,4.5c-1,2.9-0.4,6,2.4,7.8
				c2.8,1.8,10.3,2.8,16.9,2.4c6.6-0.3,12.1-0.2,15.4-3.2c0,0,1.5-0.6,1.4-2.7C229.6,200,228.2,199.7,228.2,199.7z"/>
		</g>
		<g>
			<path class="st12" d="M209.4,179.3c1.7-0.9,2.3-3.4-0.2-5.3c0,0,1.5,2.1,0.2,3.5c-1.3,1.4-6.3,1.6-6.2,2.3
				C203.3,180.5,207.7,180.2,209.4,179.3z M202.9,184.8c2.1,0.4,6.3-0.4,9.5-1.5c3.2-1,2.6-1.2,2.6-1.2s-2.6,0.5-1.9-4.2
				c0,0,0.1-3.7-3.2-4.3c-1.9-0.3-1.6-2.1-1.6-2.1s-0.3,1.6,0.7,2c1,0.4,2.6,0.3,3.3,2.5c0.8,2.2-2.7,5.4-5.7,6.3
				C203.6,183.3,200.8,184.4,202.9,184.8z M201.5,193.6c3,0.5,8.1-0.1,8.1-0.1s4.8-3.3,5.4-5.2c0.4-1.3-3.8-0.9-5.2-1.1
				c-1.4-0.2-3.2-0.5-5-0.9c-1.8-0.4-2-1.3-2-1.3s0.3,1.7,2.6,1.7c2.3,0.1,3,1,3.1,1.9c0.1,0.9-2,1.7-7,2.5
				C196.4,192,198.5,193.1,201.5,193.6z M218,206.1c-1.1-1.4,2.9-2.9,4.5-3.4c0,0,0.9-0.1,2.1-0.7c-0.6,0.2-1.1,0.3-1.5,0.5
				c-0.1,0-5.8-2.7-11.4-4.3c-4.1-1.2-5.9-1-7.5-1.1c-1.6-0.1-5.2-1.6-5.9-2.2c-0.7-0.6-0.9-1.7-0.9-1.7l-1.1,0.8
				c0.1-0.1,0.7-0.1,3.4,2c3.1,2.4,6.2,3.4,3.3,6.6c-3.1,3.4-6.9,1-8.3-0.2c-1.3-1.2-1.6-2.6-1.6-2.6s-1.7,3.5,2.7,5.6
				c4.4,2,15.7,1.6,20.1,1.8c4.4,0.2,6.4-0.1,9.5-1c3.1-0.9,3.4-1.9,3.4-1.9S219.4,207.9,218,206.1z M229.3,200.8c0,0,0-0.8-1.3-1.2
				c0,0-1.4,1.3-2.9,2.1c-0.2,0.1-0.4,0.2-0.5,0.3c0.9-0.3,1.9-0.6,2.4-0.8C228.2,200.8,229.3,200.8,229.3,200.8z M225.5,190.4
				c0,0-1.3-1-2.4-1.5c0,0-0.2,0.9-1.9,1.8c-0.1,0.1-0.3,0.2-0.5,0.2c1.2-0.5,2.3-0.9,2.8-1C224.6,189.8,225.5,190.4,225.5,190.4z
				 M220.7,190.9c-1.7,0.7-3.5,1.5-3.5,1.5S219.1,191.8,220.7,190.9z M215.6,182.1c0.2-0.1,0.4-0.3,0.6-0.4
				c-1.2,0.6-2.6,1.5-2.6,1.5S214,183,215.6,182.1z M218.9,181.5c0,0-1.1-0.6-1.6-0.7c0,0-0.1,0.4-1.1,1c0.5-0.2,0.9-0.4,1.1-0.4
				C218.3,181.2,218.9,181.5,218.9,181.5z"/>
		</g>
		<g>
			<path class="st13" d="M204.6,184.8c0,0,6.4-0.9,8.7-1.5c2.1-0.6,3.6-2,3.6-2s-3,0.7-3.3-1.2c-0.3-1.9,0.6-6-4-6.4
				c0.6,0.1,3.6,0.7,3,4.2C211.6,183.5,204.6,184.8,204.6,184.8z M209.6,173.6c-0.1,0-0.1,0-0.1,0
				C209.5,173.6,209.5,173.6,209.6,173.6z M208.4,186.9c1.4,0.2,2.8,0.2,3.1,2.6c0.4,4.4-7.9,4.2-7.9,4.2s1,0.6,10.1-0.7
				c9.1-1.3,8.9-3.9,8.9-3.9c0-3.2-2.6-3.5-4.8-3c-2.3,0.6-8.2,0.1-10.6,0c-2.4-0.1-3.8-0.6-3.9-1c-0.1-0.4,0.8-0.3,0.8-0.3
				s-0.7-0.1-1.1,0c-0.4,0.1-0.1,0.8,0.9,1.2C204.8,186.4,207,186.7,208.4,186.9z M204.5,197.1c-0.9-0.1-1.4-0.1-1.4-0.1
				C203.5,197.1,204,197.1,204.5,197.1z M223,194.7c-3.5,0.2-13.7,2.6-18.4,2.5c2.6,0.3,7.8,1.2,8.2,3.5c0.5,3.1-6.7,6.5-6.7,6.5
				s12.7-2.7,16-4.4C225.3,201,226.9,194.4,223,194.7z M197.2,193.3l-0.7,0.7c0,0,2.7,2.6,5.6,2.7c0,0-3.1-1.2-3.8-1.9
				C197.5,194,197.2,193.3,197.2,193.3z M228.1,199.6c0,0-0.6,0.4-1.2,0.9c-0.6,0.5-1.5,1.1-1.5,1.1s2.3-0.4,3.1,0.6
				c0.8,1-1.4,3.4-1.4,3.4s2.4-1.2,2.4-3.5C229.6,200,228.1,199.6,228.1,199.6z"/>
		</g>
	</g>
	<g>
		<g>
			<path class="st11" d="M293.7,196.4c0,0,0.6-3.7-0.2-6.3c-0.9-2.6-4.8-4.5-4.8-4.5s1.5-2.8-0.4-5c-1.9-2.2-5.3-3.1-5.3-3.1
				s0.2-4-2.1-5.9c-2.3-1.9-4.9-1.6-6-2.1c-1.1-0.6-0.9-1.9-0.9-1.9s-0.9,2.1-0.1,3.1c0.8,1,1.4,1.8-0.1,3.4c-1.5,1.6-4,1.3-5.3,2.8
				c-1.3,1.5-1.6,2.5-1,3.7c0.6,1.2,1.4,1,1.4,1s-4.4,0.6-5.8,3.6c-1.4,3-0.1,4.8-0.1,4.8s-2.9,1.6-3.9,4.5c-1,2.9-0.4,6,2.4,7.8
				c2.8,1.8,10.3,2.8,16.9,2.4c6.6-0.3,12.1-0.2,15.4-3.2c0,0,1.5-0.6,1.4-2.7C295.1,196.7,293.7,196.4,293.7,196.4z"/>
		</g>
		<g>
			<path class="st12" d="M274.9,176c1.7-0.9,2.3-3.4-0.2-5.3c0,0,1.5,2.1,0.2,3.5c-1.3,1.4-6.3,1.6-6.2,2.3
				C268.8,177.2,273.2,176.9,274.9,176z M268.4,181.5c2.1,0.4,6.3-0.4,9.5-1.5c3.2-1,2.6-1.2,2.6-1.2s-2.6,0.5-1.9-4.2
				c0,0,0.1-3.7-3.2-4.3c-1.9-0.3-1.6-2.1-1.6-2.1s-0.3,1.6,0.7,2c1,0.4,2.6,0.3,3.3,2.5c0.8,2.2-2.7,5.4-5.7,6.3
				C269.1,180,266.3,181.1,268.4,181.5z M267,190.3c3,0.5,8.1-0.1,8.1-0.1s4.8-3.3,5.4-5.2c0.4-1.3-3.8-0.9-5.2-1.1
				c-1.4-0.2-3.2-0.5-5-0.9c-1.8-0.4-2-1.3-2-1.3s0.3,1.7,2.6,1.7c2.3,0.1,3,1,3.1,1.9c0.1,0.9-2,1.7-7,2.5
				C261.9,188.7,264,189.8,267,190.3z M283.5,202.8c-1.1-1.4,2.9-2.9,4.5-3.4c0,0,0.9-0.1,2.1-0.7c-0.6,0.2-1.1,0.3-1.5,0.5
				c-0.1,0-5.8-2.7-11.4-4.3c-4.1-1.2-5.9-1-7.5-1.1c-1.6-0.1-5.2-1.6-5.9-2.2c-0.7-0.6-0.9-1.6-0.9-1.6l-1.1,0.8
				c0.1-0.1,0.7-0.1,3.4,2c3.1,2.4,6.2,3.4,3.3,6.6c-3.1,3.4-6.9,1-8.3-0.2c-1.3-1.2-1.6-2.6-1.6-2.6s-1.7,3.5,2.7,5.6
				c4.4,2,15.7,1.6,20.1,1.8c4.4,0.2,6.4-0.1,9.5-1c3.1-0.9,3.4-1.9,3.4-1.9S284.9,204.6,283.5,202.8z M288.2,199.4
				c-0.1,0-0.2,0.1-0.2,0.1C288.1,199.4,288.1,199.4,288.2,199.4z M294.8,197.6c0,0,0-0.8-1.3-1.2c0,0-1.4,1.3-2.9,2.1
				c-0.2,0.1-0.4,0.2-0.5,0.3c0.9-0.3,1.9-0.6,2.4-0.8C293.7,197.6,294.8,197.6,294.8,197.6z M286.2,187.7c-1.7,0.7-3.5,1.5-3.5,1.5
				S284.5,188.5,286.2,187.7z M291,187.1c0,0-1.3-1-2.4-1.5c0,0-0.2,0.9-1.9,1.8c-0.1,0.1-0.3,0.2-0.5,0.3c1.2-0.5,2.3-0.9,2.8-1
				C290.1,186.6,291,187.1,291,187.1z M284.4,178.2c0,0-1.1-0.6-1.6-0.7c0,0-0.1,0.4-1.1,1c0.5-0.2,0.9-0.4,1.1-0.4
				C283.8,177.9,284.4,178.2,284.4,178.2z M281.1,178.9c0.2-0.1,0.4-0.3,0.6-0.4c-1.2,0.6-2.6,1.5-2.6,1.5S279.5,179.7,281.1,178.9z
				"/>
		</g>
		<g>
			<path class="st13" d="M270.1,181.6c0,0,6.4-0.9,8.7-1.5c2.1-0.6,3.6-2,3.6-2s-3,0.7-3.3-1.2c-0.3-1.9,0.6-6-4-6.4
				c0.6,0.1,3.6,0.7,3,4.2C277,180.2,270.1,181.6,270.1,181.6z M275.1,170.4c-0.1,0-0.1,0-0.1,0C275,170.4,275,170.4,275.1,170.4z
				 M273.9,183.6c1.4,0.2,2.8,0.2,3.1,2.6c0.4,4.4-7.9,4.2-7.9,4.2s1,0.6,10.1-0.7c9.1-1.3,8.9-3.9,8.9-3.9c0-3.2-2.6-3.5-4.8-3
				c-2.3,0.6-8.2,0.1-10.6,0c-2.4-0.1-3.8-0.6-3.9-1c-0.1-0.4,0.8-0.3,0.8-0.3s-0.7-0.1-1.1,0c-0.4,0.1-0.1,0.8,0.9,1.2
				C270.3,183.2,272.5,183.5,273.9,183.6z M288.5,191.4c-3.5,0.2-13.7,2.6-18.4,2.5c2.6,0.3,7.8,1.2,8.2,3.5
				c0.5,3.1-6.7,6.5-6.7,6.5s12.7-2.7,16-4.4C290.8,197.7,292.4,191.1,288.5,191.4z M270,193.9c-0.9-0.1-1.4-0.1-1.4-0.1
				C269,193.8,269.5,193.8,270,193.9z M262.7,190l-0.7,0.7c0,0,2.7,2.6,5.6,2.7c0,0-3.1-1.2-3.8-1.9C263,190.8,262.7,190,262.7,190z
				 M293.6,196.4c0,0-0.6,0.4-1.2,0.9c-0.6,0.5-1.5,1.1-1.5,1.1s2.3-0.4,3.1,0.6c0.8,1-1.4,3.4-1.4,3.4s2.4-1.2,2.4-3.5
				C295.1,196.7,293.6,196.4,293.6,196.4z"/>
		</g>
	</g>
</g>
<g id="Vrstva_2">
	<g>
		<path class="st34" d="M361.1,162.5l22.5-122.7l1.2,0.6l-22,121.4C362.9,161.9,362.3,163.7,361.1,162.5z"/>
		<path class="st34" d="M344.1,253.5l17.4-92.3l1.2,0.6l-16.9,91C345.9,252.9,345.3,254.7,344.1,253.5z"/>
		<path class="st35" d="M386.1,32.8c0,0,0.6-5.7-2.3-6.8c-2.9-1-4.5,1-4.1,2.9c0.4,1.8,4.7,3.7,4.7,3.7s-3.6-2-5.7-0.2
			c-1.5,1.2-1.3,6.1,1.6,5.3c3-0.9,4.2-2.2,4.2-2.2s-2.2,3.7-0.2,6.2c1.5,1.8,3.6,1,4-1.7c0.4-2.7-1.2-4.5-1.2-4.5s5.1,4.1,6.6,2
			c1.4-2,1.4-3.9-0.6-4.9c-2-1-5.9,0.6-5.9,0.6s5.9-2.3,4.3-4.9C389.8,25.6,386.7,25.6,386.1,32.8z"/>
		<path class="st36" d="M387.9,33.4c0,1.2-1,2.3-2.3,2.3c-1.2,0-2.3-1-2.3-2.3c0-1.2,1-2.3,2.3-2.3
			C386.9,31.2,387.9,32.2,387.9,33.4z"/>
		<path class="st37" d="M379.7,59.4c0,0,51.7-3.5,71.6,29.8c29.5,49.1,81.9,31.9,81.9,31.9l-15.4,55.1c0,0-68.5,31-104.5-31.8
			c-9.9-17.3-47.1-15.1-47.1-15.1L379.7,59.4z"/>
		<path class="st38" d="M379.5,112.5c-0.1-0.2-0.1-0.3-0.1-0.4l0,0c0-0.3,0.1-0.3,0.1-0.4l0,0c0.1-0.1,0.1-0.3,0.2-0.5l0,0l0.1,0
			c3.4-7.8,9.2-14.6,13.5-21.8l0,0c0.6-1.1,3-5.9,4.2-7.2l0,0c0.2-0.2,0.3-0.4,0.8-0.5l0,0c0.3,0,0.6,0.2,0.6,0.4l0,0h0l-0.6,0.3
			v0.2l0.2,0.3c0,0-0.1,0-0.1,0.1l0,0c-0.1,0.1-0.3,0.4-0.5,0.6l0,0c-0.4,0.6-0.8,1.4-1.3,2.2l0,0c-0.9,1.7-1.9,3.5-2.3,4.2l0,0
			c-4.4,7.4-10.3,14.3-13.6,22.1l0,0l0,0l0,0c-0.1,0.1-0.1,0.2-0.2,0.3l0,0c-0.1,0,0,0.1-0.5,0.2l0,0c0,0,0,0,0,0l0,0
			C379.8,112.8,379.6,112.7,379.5,112.5L379.5,112.5z"/>
		<path class="st38" d="M396.5,86c-4.5-0.9-9.7-1.1-14-3.5l0,0l0.4-1.1c0.3,0,0.5,0.1,0.7,0.1l0,0c0.1,0,0.2,0,0.3,0l0,0h0l0.1,0.5
			c3.8,1.8,8.5,2.1,12.8,2.9l0,0c5.5,1.1,11.2,2.7,16.7,2.8l0,0l0,1.2C407.7,88.7,402,87,396.5,86L396.5,86z"/>
		<path class="st38" d="M394.4,106.2c0-0.9,0.2-1.8,0.5-2.8l0,0c-0.3-0.1-0.5-0.3-0.8-0.5l0,0l0.8-0.9c0.1,0.1,0.2,0.2,0.4,0.3l0,0
			c2-4.2,6.8-7.9,11.1-8l0,0c1.3,0,2.5,0.4,3.6,1.2l0,0c1.2,0.9,1.8,1.9,1.8,2.9l0,0c-0.1,2-2.1,3.3-4.6,4.3l0,0
			c-2.5,1-5.6,1.5-8.2,1.6l0,0c-1.1,0-2.2-0.1-3.1-0.4l0,0c-0.3,0.8-0.4,1.6-0.4,2.3l0,0c0,2.3,1.4,4.3,6,5.1l0,0l-0.2,1.2
			C396.6,111.8,394.4,109.2,394.4,106.2L394.4,106.2z M399.2,103c2.5,0,5.5-0.6,7.8-1.5l0,0c2.4-0.9,3.9-2.2,3.8-3.2l0,0
			c0-0.5-0.3-1.1-1.3-1.9l0,0c-0.9-0.6-1.8-0.9-2.9-0.9l0,0c-2.3,0-5.1,1.5-7.3,3.6l0,0c-1.1,1.1-2,2.3-2.7,3.6l0,0
			C397.3,102.9,398.2,103,399.2,103L399.2,103z"/>
		<path class="st38" d="M412.8,117.5c0-3.8,0.6-11,1.7-15.1l0,0c0.4-1.4,0.7-2.4,1.4-2.9l0,0h0l0.8,1c-0.2,0.1-0.7,1-1,2.3l0,0
			c-0.3,1.3-0.7,2.9-0.9,4.7l0,0c-0.5,3.5-0.8,7.6-0.8,10l0,0c0,0.5,0,0.9,0,1.3l0,0l-1.2,0.1C412.8,118.5,412.8,118,412.8,117.5
			L412.8,117.5z"/>
		<path class="st38" d="M405.1,114.5c-0.1,0-0.2,0-0.3,0l0,0l-1.4-0.2l1.1-0.9c3.9-3,11.9-5.1,16.6-6.2l0,0l0.3,1.2
			c-4.3,1-11.4,2.9-15.2,5.3l0,0l0.3,0.3C406.1,114.3,405.6,114.5,405.1,114.5L405.1,114.5C405.1,114.5,405.1,114.5,405.1,114.5
			L405.1,114.5z"/>
		<path class="st38" d="M417.9,123.8c5.2-5.9,12.4-17.7,14.2-22.3l0,0h0l1.1,0.5c-2,4.9-9.1,16.6-14.4,22.7l0,0L417.9,123.8
			L417.9,123.8z"/>
		<path class="st38" d="M423.1,104.6l1.2-0.2c0.4,4.5,8.5,8.4,12.4,11l0,0l-0.7,1C432.4,113.8,423.9,110.2,423.1,104.6L423.1,104.6z
			 M423.1,104.6C423.1,104.6,423.1,104.6,423.1,104.6L423.1,104.6L423.1,104.6L423.1,104.6L423.1,104.6z"/>
		<path class="st38" d="M431.4,145.1c2.7-3.5,19.9-24.1,24.1-31.1l0,0c0.6-1,0.9-1.8,0.9-1.8l0,0h0.3l-0.2,0.2h0l0.8-0.9
			c0.2,0.2,0.3,0.5,0.3,0.7l0,0c0,0.7-0.4,1.4-1,2.5l0,0c-0.6,1-1.5,2.4-2.6,3.8l0,0c-2.1,3-5,6.7-7.9,10.4l0,0
			c-5.9,7.5-12.1,15-13.7,17l0,0L431.4,145.1L431.4,145.1z"/>
		<path class="st38" d="M438.4,134L438.4,134l0.8-0.9c3.5,3.1,9.1,6,14,6.4l0,0l-0.1,1.2C447.9,140.3,442.1,137.3,438.4,134
			L438.4,134z"/>
		<path class="st38" d="M440.7,151.7c3.7-8.2,13.6-14.2,18.8-20.9l0,0c0.8-1,2-3,3.3-4.7l0,0c1.3-1.7,2.6-3.3,4.2-3.4l0,0l0,1.2
			c-0.7,0-2.1,1.2-3.3,2.9l0,0c-1.2,1.7-2.4,3.6-3.3,4.7l0,0c-5.5,6.9-15.3,13-18.7,20.6l0,0L440.7,151.7L440.7,151.7z"/>
		<path class="st38" d="M447.5,151.1l-0.3-0.3l0.1-0.4c1.5-4.8,8.9-7.4,12.1-10.1l0,0c1.4-1.1,4.5-4.2,5.2-4.9l0,0h0l0.9,0.9
			c-0.7,0.7-3.8,3.7-5.3,4.9l0,0c-3.4,2.7-10.2,5.5-11.6,9.1l0,0c3.5,3.1,10.7,4.5,15.4,5.8l0,0l-0.4,1.2
			C458.9,156.1,451.3,154.8,447.5,151.1L447.5,151.1z"/>
		<path class="st38" d="M456.6,146.4L456.6,146.4c-0.3-0.1-0.7-0.2-1.2-0.5l0,0l0.5-1.1c4.2,1.5,7.9,4.1,11.8,5.8l0,0l-0.5,1.1
			C463.5,150.2,460.2,147.9,456.6,146.4L456.6,146.4z"/>
		<path class="st38" d="M461.4,139.5l0-1.2c4.5,0,9.8,3.3,13.1,5.9l0,0l-0.7,1C470.5,142.7,465.3,139.5,461.4,139.5L461.4,139.5z
			 M461.4,139.5C461.4,139.5,461.4,139.5,461.4,139.5L461.4,139.5L461.4,139.5L461.4,139.5L461.4,139.5z"/>
		<path class="st38" d="M472.3,159.5c3.3-6.1,7.3-11.8,10.2-18l0,0h0l1.1,0.5c-3,6.3-7,12-10.2,18l0,0L472.3,159.5L472.3,159.5z"/>
		<path class="st38" d="M475.5,152.9l-0.1-0.5l0.5-0.2c1.1-0.3,2.5-0.4,3.9-0.4l0,0c0.8,0,1.6,0,2.4,0l0,0c3.4,0,6.5-0.3,7.6-2.8
			l0,0c0.2-0.4,0.3-0.9,0.3-1.4l0,0c0-2.3-2.2-5.4-5-7.8l0,0c-2.4-2.1-5.3-3.8-7.2-4.3l0,0c0,0,0,0,0,0.1l0,0l0,0h-0.7l-0.3,0.4
			l0.2-0.2l-0.1,0.3c0,0,0,0,0,0l0,0c0,0,0,0,0,0l0,0c0,0-0.1,0-0.3-0.1l0,0c-0.1,0-0.4-0.3-0.4-0.6l0,0c0.1-0.6,0.4-0.7,0.7-1l0,0
			l0.2-0.1l0.2,0c2.3,0.2,5.6,2.1,8.5,4.7l0,0c2.9,2.6,5.3,5.7,5.4,8.7l0,0c0,0.6-0.1,1.3-0.4,1.9l0,0c-1.5,3.3-5.3,3.5-8.7,3.6l0,0
			c-0.8,0-1.6,0-2.4,0l0,0c-1.1,0-2.2,0-3,0.2l0,0c1.1,4.1,7.6,9.7,11.1,12.2l0,0l-0.7,1C483.5,163.7,476.4,157.9,475.5,152.9
			L475.5,152.9z"/>
		<path class="st38" d="M493.1,163.7c0-0.2,0-0.3,0-0.5l0,0c0.1-4.9,5.3-12.6,7-15.3l0,0l1,0.7c-1.8,2.6-6.9,10.5-6.8,14.6l0,0
			c0,0.1,0,0.2,0,0.3l0,0c0.2,3,2.6,3.9,5.8,4l0,0c2.9,0,6.2-0.9,8.4-1.8l0,0l0.5,1.1c-2.3,1-5.8,1.9-8.9,1.9l0,0
			c-0.1,0-0.1,0-0.2,0l0,0C496.6,168.8,493.4,167.4,493.1,163.7L493.1,163.7z"/>
		<path class="st38" d="M496.5,157.4l-0.2,0.5c-0.5-0.2-0.9-0.4-1.3-0.6l0,0l-1.8-0.9l2.1-0.2c0.3,0,0.5,0,0.8,0l0,0
			c4,0,8.4,2.7,12.1,3.5l0,0l-0.3,1.2C504.1,160,499.9,157.6,496.5,157.4L496.5,157.4z"/>
		<path class="st38" d="M502.7,150.5c-0.3-0.1-4-0.6-5-0.8l0,0l0,0c-0.1,0-0.2,0-0.3-0.1l0,0c0,0,0,0,0,0l0,0c0,0,0,0-0.2-0.1l0,0
			c0-0.1-0.2,0-0.3-0.5l0,0v0c0-0.2,0.1-0.3,0.2-0.4l0,0c0.1-0.1,0.3-0.2,0.4-0.2l0,0c0.3,0,4.9,0.7,5.4,0.8l0,0
			c4.4,0.9,8.7,2,13,2.9l0,0l-0.2,1.2C511.3,152.5,507,151.4,502.7,150.5L502.7,150.5z M498.1,149.1c0-0.3-0.2-0.4-0.2-0.5l0,0
			l-0.1,0.5H498.1L498.1,149.1z"/>
		<g>
			<path class="st39" d="M228.1,240.7c-1.4-6.9-2.1-30.8-2.8-70.2c-0.7-39.4,0.7-85.6,0.7-85.6s-2.8-4.6-19.5-5.1
				c-12.6-0.4-20.9,4-20.9,4s0.7,84.5,0.7,113.6c0,35.2-9.3,56.5-9.3,56.5s5,7.4,25,8.1c20.9,0.7,29.7-9.7,29.7-9.7
				S229.5,247.5,228.1,240.7z"/>
		</g>
		<g>
			<path class="st40" d="M223.4,232.6c-1.2-11.8-1.7-45.3-1.2-70.9C222.8,136.3,224,90,224,90s0,0.9-5.8,2.4
				c-5.8,1.4-13.9,0.5-13.9,0.5c12.1,13.7,9.2,101.6,6.4,130.4c-2.9,28.8-12.1,33.1-12.1,33.1s7.5,1.9,16.8-0.9
				c9.2-2.8,12.7-4.7,12.7-4.7S224.5,244.4,223.4,232.6z"/>
		</g>
		<g>
			<path class="st41" d="M205.8,81c-10,0-18.2,2.1-18.2,4.8c0,2.6,8.1,4.8,18.2,4.8c10,0,18.2-2.1,18.2-4.8
				C223.9,83.2,215.8,81,205.8,81z"/>
		</g>
		<g>
			<path class="st42" d="M223.8,53.6c-2.7-13.1-17.2-39.4-17.2-39.4s3.5,7-3.5,23.9c-3.5,8.4-13.1,13.1-12,23.5
				c1,9.4,14.3,14.3,14.3,14.3S227.7,72.2,223.8,53.6z"/>
		</g>
		<g>
			<path class="st43" d="M216.7,61.9c-0.4-7.4-4.6-21.8-4.6-21.8s-2.7,9.4-6.7,13.5c-6.4,6.4-7.6,6.1-7.6,12.7
				c0,6.6,7.9,8.2,7.9,8.2C208.1,74.3,217.3,71.1,216.7,61.9z"/>
		</g>
		<g>
			<path class="st44" d="M208.2,61.4c0,0-1.4,4.6-2.1,7.1c-0.2,0.6-0.2,1.4-0.1,2.1c0.4,2.3,0.1,1.4,0,0c0-0.1,0-0.2-0.1-0.3
				c-0.7-4-0.2,3.6-0.2,5.9c0,8.6-3.1,8.9-3.1,8.9s2.4,0.6,3.8-1.4c1.4-2,1-8.3,0.7-12.6C206.8,66.8,208.2,61.4,208.2,61.4z"/>
		</g>
		<g>
			<path class="st45" d="M269.8,173.4c-4.8,0-8.7,3.9-8.7,8.7c0,4.8,3.9,8.7,8.7,8.7c4.8,0,8.7-3.9,8.7-8.7
				C278.5,177.3,274.6,173.4,269.8,173.4z"/>
		</g>
		<g>
			<path class="st46" d="M397.5,217.2c0,0-0.5-1.9-3.4-2.7c-2.9-0.8-4.8-0.8-4.8-0.8l0,0.3c0,0-2.1-0.3-6.2,0.1
				c-4.1,0.4-7.8,1.3-7.8,1.3l1.2,0c0,0-1.9,0.5-3.8,1.1c-1.9,0.6-4,2.1-4,2.1s-8.3-2.3-17.2-2.8c-7-0.4-8.5-0.2-8.8-0.2l-0.1,0
				c0,0,0,0,0.1,0l2.1-0.8l-2.9,0.6l-1-0.4l-0.2,0.5c0,0-10.4,0.3-18.4,1.5c-8.1,1.1-13.5,2.5-13.5,2.5s-3.2-1.7-4.5-2.3
				c-1.3-0.6-1.3-1-1.3-1l-0.9,0.5c0,0-2.5-0.2-4.4-0.3c-0.5,0-1-0.1-1.3-0.1c-0.9-0.1-1.3-0.1-1.3-0.1l0.7,0.5c0,0-3.2-0.3-8.6,1.1
				c-5.5,1.3-6.1,2.2-6.1,2.2l1.9-0.3c0,0-1,0.3-2.1,1c-1.1,0.7-1.2,0.9-1.2,0.9l2-0.5c0,0-1.4,0.6-0.7,1.2c0.6,0.6,3.1,1.4,3.1,1.4
				l0.6-0.3c0,0,0.8,0.3,1.3,0.4c0.5,0.2,2,0.3,2,0.3l0.9-0.4c0,0,1.9,0.2,2.7,0.2c0.9,0,2.1,0,2.1,0l-1.4,0.5c0,0-5.5,2.6-7.5,5.4
				c-0.8,1-1.2,2.1-1.5,3.1c-0.4,0-0.9,0.1-1.2,0.1c0,0-6.3,0.2-8.1,0.1c-1.8-0.1-6.4-0.2-6.4-0.2s-5.3,1.8-8.3,2.9
				c-3,1.1-2.9,2-1.2,3.1c1.7,1.1,6.7,1.9,6.7,1.9l2.1-0.8c0,0-0.1,0.9,1.9,0.3c2-0.6,6.3-1.1,6.3-1.1l-1.1,0.6c0,0,1-0.2,2.3-0.4
				c-0.1,0.2-0.1,0.3-0.1,0.3l2.2-0.4c0,0,0.1,0,0.1,0c-0.3,0.2-1.3,0.8-0.5,1.2c0,0,0.1,0.1,0.2,0.1c-0.1,0.1-0.3,0.1-0.4,0.2
				c-1.2,0.5-4.9,1.5-6.6,2.2c-1.7,0.7-5.9,2.1-5.9,2.1s2.2,3.1,5,5.7c-1.7,0.1-3.2,0.2-3.2,0.2l0,0.5l-3.1-0.6c0,0-1.9,0.8-2.8,1.1
				c-0.9,0.3-4.6,1.4-4.6,1.4l1.1-0.8c0,0-1.8,0.3-4.5,1.2c-2.6,0.9-3.3,1.4-3.3,1.4l-0.5-0.4l-2.3,1.1c0,0-3.8,2-5.5,3.1
				c-1.7,1.1-1.2,1.3-1.2,1.3l1.4-0.5c0,0-2.2,1-3,1.8c-0.9,0.8-0.3,2.4-0.3,2.4l1.6-0.4c0,0-0.9,0.8-0.7,1.7
				c0.1,0.9,4.4,2.5,8.2,2.9c3.7,0.4,5.3,0.4,5.3,0.4l0.4-0.6c0,0,2.3,0.7,6.4,0.3c4.1-0.3,9.9-1.3,13-2.3c3.1-1,5.8-1.7,5.8-1.7
				l-2,0.1c0,0,2.7-0.5,5.7-2.1c3-1.6,4.6-4.6,4.6-4.6l-1.3,0.4c0,0,1.3-3,0.2-4c-0.1-0.1-0.1-0.1-0.2-0.1c2.9,0,5.6-0.1,7.3-0.2
				c3.5-0.1,11.5-0.9,11.5-0.9s14.9-7.2,15.7-8.1c0.3-0.3,0.6-0.9,1-1.5c0.2,0,0.3-0.1,0.3-0.1s0.6,0,1.5,0c0.2,0.9,0.4,1.8,0.3,1.9
				c0,0.2,2.9,3.5,5.6,6.3l-3.9,1c0,0-5.4,1.6-8.3,2.7c-2.5,1-4.4,2.2-5,2.6c-0.1,0.1-0.1,0.1-0.1,0.1s-1.1,0.3-2.9,2
				c-1.8,1.8-1.2,4.2-1.2,4.2l-1.7,0.2c0,0,1.5,0.8,2.1,1.4c0.6,0.6,5,1.9,10,2c5,0.1,7.7-0.4,7.7-0.4l-1-0.3c0,0,4.3-0.2,9.2-1.4
				c4.8-1.2,7.1-2.1,7.1-2.1l-1.2-0.1c0,0,4-0.6,7.1-2.4c3.1-1.8,6.1-4.3,6.1-4.3l-1.7,0.3c-0.1,0-0.1,0-0.1,0l0.1,0
				c0.6-0.1,4-0.8,4.5-2.8c0-0.1,0-0.2,0-0.2c1.7,0,3.2,0,3.9-0.1c2.6-0.1,3-0.1,3-0.1l-0.1-0.3c0,0,1.5-0.3,2.7-0.6
				c1.2-0.3,1.7-0.5,1.7-0.5l-1-0.3c0,0,0.3-0.5-0.5-0.8c-0.8-0.3-2.1-0.4-2.1-0.4l2.4-0.5c0,0-1.9-0.5-2.7-0.5
				c-0.8,0,0.3-0.7,0.3-0.7s-1.8-0.3-3.3-0.7c-1.6-0.3-11.3-0.4-11.3-0.4s-4.9,0.5-7-1.3c-1.3-1.1-2.3-3-3-4.4c0,0,0.1,0,0.1,0
				c9-0.7,14.7-2,14.7-2s-0.2,0.4-1.1,0.7c-0.9,0.3-0.9,0.3-0.9,0.3s3.3-0.7,4.3-1c1-0.4,1.9-0.8,1.9-0.8l1.6,0c0,0,2.2-0.4,2-0.7
				c-0.2-0.4-0.4-0.5-0.4-0.5l2.2,0c0,0-0.5-0.7-1-0.9c-0.5-0.2-1-0.4-1-0.4l3.8-0.2c0,0-0.2-0.5-0.8-0.9s-2.2-1.1-2.2-1.1
				s6.1-1.9,9.5-3.8c3.4-1.9,3.7-2.3,3.7-2.3l0.2,0.6c0,0,0.4-0.7,1.6-1.8c1.9-1.6,1.8-3.2,1.8-3.2s6.8-0.5,9.7-1.1
				c1.5-0.3,2.9-0.7,3.9-1.1c0.8-0.3,1.3-0.5,1.3-0.5l0.1,0.7c0,0,5.2-3.1,5.2-4.1C398.2,217.4,397.5,217.2,397.5,217.2z"/>
		</g>
		<g>
			<path class="st47" d="M369.9,181.8c0,0,3.3-2.3,3.3-5.3c0-3.1-1.6-3.7-1.6-3.7s0.2-6-1.6-8.5c-1.8-2.5-5.8-2.5-5.8-2.5
				s-4.6-2.1-8.6-0.9c-4,1.2-9.1,6.1-9.7,8c-0.6,1.8-2.7,2.7-4.5,3.3c-1.1,0.4-17.1,5.2-33.3,9.4c-12.5-2-39-5.7-44.4-2.9
				c0,0-6.4,0.9-8.6,0.4c-2.1-0.4-7.3-0.9-7.3-0.9s-8.7,3-9.8-1.4c-1-3.8-4.4-7.9-6.2-12.2c-4.2-10-3.7-8.4-5.7-10.6
				c-2-2.1-0.8,7.6-0.7,12.8c0.1,5.2,1.6,15.2-0.6,18c-2.8,3.5-2.4,4.3-6.9,5c-4.5,0.6-7,2.4-8.3,6.9c-1.3,4.5,5.1,5.8,11.8,5.4
				c6.7-0.3,9.9-0.3,13.8-1.6c3.8-1.3,9.6-0.3,9.6-0.3l-2.9,2.2c0,0,7-1.6,9-1l8.1-2.4c-2.4,3.4-3.6,6.2-3.6,6.2s2.6-0.6,3.4-1.9
				c1.3-2.1,5.1-3.9,5.1-3.9l-0.4,1.9c0,0,1.9-1.9,3.9-1.9c1.9,0,1.9,3.4,1.3,5.1c-0.6,1.7-3.2,5.1-4.1,7.5
				c-0.9,2.4-3.4,7.1-3.4,7.1s16.7,27.2,22.3,28.5c5.6,1.3,13.5,0.2,16.9,0c3.4-0.2,10.7-2.8,10.7-2.8s7.1-23.4,6.9-26.4
				c-0.2-3-1.3-16.4-0.2-14c0,0,5.8,1.2,10.1,2.1c4.3,0.9,23.3-17.7,28.1-15.9c5.9,2.3,9,1.7,13-0.7c0,0,3.4-2.5,2.8-4.9
				C371.2,182.7,369.9,181.8,369.9,181.8z"/>
		</g>
		<g>
			<path class="st48" d="M317.6,215.1c-0.9-1.1-1.3-4.9-1.7-7.1c-0.4-2.1-2.6-2.8-2.6-2.8s0.4,2.1,0.6,4.5c0.2,2.4-0.2,3.4-0.4,4.5
				c-0.2,1.1-1.3-1.1-2.1-1.9c-0.9-0.9-3-0.4-3-0.4s0.9,1.3,2.1,3.2c1.3,1.9,1.5,5.4,0.6,7.9c-0.9,2.6-2.6,10.3-3.9,11.6
				c-1.3,1.3-1.7,0-1.7,0s0,3.6-0.6,6.2c-0.6,2.6-2.8,3.9-2.8,3.9s-0.2-0.9-0.6-1.7c-0.4-0.9-1.5-1.3-1.5-1.3s-2.8,3-6.4,2.8
				c-3.6-0.2-6.6-7.1-7.7-9.4c-1.1-2.4,1.1-2.6,1.1-2.6s-3.4-1.9-5.6-5.8c-2.1-3.9-0.9-8.4-0.9-8.4s-5.4-0.2-6.6-1.9
				c-1.3-1.7-0.9-3.6-0.9-3.6s-2.8,0.4-4.1-0.9c-1.3-1.3,0.2-4.1,0.2-4.1s-2.4,1.9-3,3c-0.6,1.1-1.1,1.7-1.1,1.7
				c-1.3,3.2,2.1,13.1,4.1,16.3c1.9,3.2,11.6,18.2,13.1,19.1c1.5,0.9,2.1,0,4.5,0c2.4,0,4.1-0.9,4.1-0.9l-1.3,2.1
				c0,0,1.7,0.6,4.3-0.6c2.6-1.3,3.2-1.7,3.2-1.7l0.4,2.1c0,0,1.3-1.1,3.9-1.7c2.6-0.6,4.3-0.2,4.3-0.2s0-0.4,1.9-1.5
				c1.9-1.1,2.4-1.1,6-4.9c3.6-3.9,4.1-16.7,3.6-20.2c-0.4-3.4-0.4-3.4-0.4-3.4l1.3-0.4C318,216.6,318.4,216.1,317.6,215.1z
				 M253.7,205.2c0.1-0.1,0.2-0.2,0.3-0.3C253.6,205.2,253.4,205.4,253.7,205.2z M266.3,198.4c1.9-0.2,3.4,0.4,3.4,0.4
				s-4.1-2.6-6.2-3.6c-2.1-1.1-0.9-5.6-0.9-5.6s-0.9,1.7-3,1.5c-2.1-0.2,0.9-5.4,0.9-5.4s-2.6-0.9-4.3-1.9c-1.7-1.1-2.6,0-2.6,0
				s2.4,6.4,1.3,8.1c-1.1,1.7-4.1,5.4-4.1,5.4s3.9-1.3,4.3,0.4c0.4,1.5-0.4,5.8-1.2,7.2c0.8-0.7,2.6-2.1,2.9-0.7
				c0,0,2.4-3.9,4.5-5.1c2.1-1.3,2.4,0,2.4,0l0.9,0.6C264.6,199.6,264.4,198.6,266.3,198.4z M277.7,190.6c0,0,1.1-2.8,2.8-1.7
				c1.7,1.1,4.5,6,4.5,6s2.1-3,5.4-2.6c3.2,0.4,7.9,2.8,7.9,2.8s1.3-4.1,3.6-4.7c2.4-0.6,7.3,1.1,7.3,1.1s-1.7-1.9,1.1-3.4
				c2.8-1.5,7.3-2.1,7.3-2.1l-4.9-4.5c0,0-36-0.9-40.5,0.9c-0.8,0.3-5.8,1.1-5.8,1.1s6.4,0.6,8.6,2.4
				C277,187.4,277.7,190.6,277.7,190.6z M244.1,189c-1.6-2.6-1,0.6-0.6,2.6c0.3,1.9-5.4,2.2-9.3,0c-3.8-2.2-5.8-4.8-5.8-4.8
				s0.6,1.9-1.9,4.2c-2.6,2.2-11.2,2.9-11.2,2.9s2.2,0.3,5.8,0c3.5-0.3,9.9,1,4.5,2.6c-5.4,1.6-12.5,2.9-12.5,2.9s-1,0.6,2.6,1.6
				c3.5,1,9.6-1.6,15.4-2.2c5.8-0.6,10.6-1.9,13.4-2.2c2.9-0.3,3.5,0,3.2,1.3c-0.3,1.3-1.3,3.2,0,2.6c1.3-0.6,3.2-5.8,3.2-5.8
				C247.9,194.1,245.7,191.5,244.1,189z"/>
		</g>
		<g>
			<path class="st49" d="M283.3,236.1c0,0-2.4-9.6-4.7-12.9c-2.4-3.2-5.1-5.4-5.1-5.4l-2.1-0.2c0,0-1.7-1.7-3.6-3.9
				c-1.9-2.1-4.7-1.7-7.1-2.1c-2.4-0.4-5.6,0.9-5.6,0.9l0.6,1.7l-4.1-2.1c0,0-0.9,2.8-1.5,3.6c-0.6,0.9-3,4.5-3,4.5v-2.8
				c0,0-1.5,1.1-3,4.1c-1.5,3-1.5,4.7-1.5,4.7l-1.1-1.3l-0.9,3.6c0,0-1.3,6.4-1.5,10.1c-0.2,3.6,0.4,4.1,0.4,4.1l0.9-1.5
				c0,0-0.9,3.2-0.6,5.8c0.2,2.6,3,7.7,3,7.7l1.1-1.3c0,0,0.2,2.6,1.5,5.4c1.3,2.8,7.7,7.7,12,9c4.3,1.3,5.8,1.1,5.8,1.1l-0.4-1.9
				c0,0,3.2,2.1,6.9,1.1c3.6-1.1,8.4-4.1,10.3-7.1c1.9-3,3.9-5.1,3.9-5.1l-1.9,0.2c0,0,2.1-1.5,3.2-6.7c1.1-5.1-0.9-14.6-0.9-14.6
				L283.3,236.1z M351,223.6c-1.7-7.1-3.4-10.3-6.4-11.8c-3-1.5-4.3-2.4-4.3-2.4s-1.5,0.6-2.8,0.6c-1.3,0-2.1-1.9-2.1-1.9
				s-1.9,1.5-4.1,1.7c-2.1,0.2-5.1,0.6-6.4,1.9c-1.3,1.3-2.6,2.6-2.6,2.6l-0.4-2.1l-4.5,5.4c0,0-3.9,5.1-5.6,8.8
				c-1.5,3.1-2,7.3-2.1,8.5c0,0.2,0,0.3,0,0.3s-0.9,0.9-0.6,6.4c0.2,5.6,3.6,13.3,3.6,13.3l-1.5,0.6c0,0,2.4,2.4,3.6,4.3
				c1.3,1.9,7.1,5.8,12.2,6.2c5.1,0.4,7.3-1.3,7.3-1.3l-1.3-0.9c0,0,4.1-0.6,7.7-4.3c3.6-3.6,4.9-6.4,4.9-6.4l-1.3-0.2
				c0,0,3.4-1.9,4.7-7.5c1.3-5.6,1.7-13.7,1.7-13.7l-1.4,1C349.8,232.5,352.6,230.1,351,223.6z"/>
		</g>
		<g>
			<path class="st47" d="M358.5,93.3c-1.1-3.9-2.1-4.7-2.1-4.7s-2.8-7.7-7.1-10.9c-4.3-3.2-6.4-3.2-6.4-3.2l0.4,1.3
				c0,0-2.8-1.1-7.1,0.4c-4.3,1.5-7.5,5.1-7.5,5.1l1.5,0.2c0,0-1.5,2.1-3,4.5c-1.5,2.4-1.9,8.6-1.9,8.6s-12.4-9.4-23.4-11.4
				c-8.5-1.5-10.1-1.1-10.4-0.8l-0.1,0.1c0,0,0-0.1,0.1-0.1l1.4-3.1l-2.6,2.4l-1.7-1.7l0.4,2.1c0,0-11.6,1.3-19.3,5.8
				c-7.7,4.5-12,10.1-12,10.1s-6.2-7.1-8.6-9.4c-2.4-2.4-3-4.1-3-4.1l-0.2,2.1c0,0-3.2-0.9-5.6-1.3c-0.7-0.1-1.2-0.2-1.7-0.4
				c-1.2-0.3-1.7-0.5-1.7-0.5l1.5,1.9c0,0-4.1-1.1-8.4,4.3c-4.3,5.4-3.6,8.8-3.6,8.8l1.7-1.3c0,0-0.6,1.3-0.9,4.1
				c-0.2,2.8,0,3.4,0,3.4l1.5-1.9c0,0-0.6,2.4,1.1,4.9c1.7,2.6,5.6,5.4,5.6,5.4l0.2-1.3c0,0,1.3,1.1,2.1,1.7
				c0.9,0.6,2.8,1.3,2.8,1.3l0.4-1.5c0,0,2.4,0.6,3.4,0.9c1.1,0.2,2.4,0,2.4,0l-0.9,1.9c0,0-2.4,10.1-0.6,20.6
				c1.7,10.5,6.4,22.7,6.4,22.7s-1.5,1.1-2.8,2.6c-1.3,1.5-1.3,3-1.3,3h2.6c0,0-1.1,1.3-1.3,3.6c-0.2,2.4,0.4,3.6,0.4,3.6l1.9-1.7
				c0,0-0.6,2.6,1.1,4.5c1.7,1.9,7.7,5.1,12.9,6.2c5.1,1.1,16.3,3.6,17.8,3.9c1.5,0.2,1.5,1.7,2.8,3.4c1.3,1.7,2.8,1.7,2.8,1.7
				l1.3-1.3l1.7,1.1l0.2,1.3l2.6-1.7l1.3-0.9v1.7c0,0,0.4-0.2,1.9-1.1c1.5-0.9,4.9-4.3,4.9-4.3s9,0.4,17.8-2.1
				c8.8-2.6,13.5-6.9,13.5-6.9s0.2,1.3-0.4,2.4c-0.6,1.1-0.6,1.1-0.6,1.1s2.8-2.4,3.4-3.6c0.6-1.3,1.1-3,1.1-3h1.7
				c0,0,1.9-1.3,1.3-2.6c-0.6-1.3-1.1-1.9-1.1-1.9h2.4c0,0-1.3-2.4-2.1-3.2c-0.9-0.9-1.5-1.3-1.5-1.3l3.9-0.9c0,0-0.9-1.9-1.9-3.4
				c-1.1-1.5-3.6-3.9-3.6-3.9s4.5-6.9,6-14.1c1.5-7.3,1.5-8.6,1.5-8.6l0.9,2.1c0,0-0.3-2.7-0.2-6.6c0.2-6.2-1.7-12.4-1.7-12.4
				s7.1-1.9,9.6-4.1c1.4-1.2,2.5-2.9,3.2-4.2c0.6-1.1,0.9-2,0.9-2l0.9,2.6C357.2,109.4,359.6,97.2,358.5,93.3z"/>
		</g>
		<g>
			<path class="st48" d="M342.6,120.3c-0.6-2.1-2.4-6-2.4-6s0.6,4.9,0.4,11.8c-0.2,6.9-2.6,10.7-2.6,10.7l2.6-1.9
				c0,0,1.1,0.2-1.1,4.9c-2.1,4.7-6.7,8.8-6.7,8.8l1.9,1.5c0,0,0.2,1.9-1.9,3.9c-2.1,1.9-7.5,3.6-9.2,3.4c-1.7-0.2-4.3-1.5-4.3-1.5
				l2.6,2.6l-3,0.9c0,0,0.4,17.4-15.6,25.9c0,0,13.1-3,15.4-3.6c2.4-0.6,7.7-3.6,7.7-3.6l-0.2-1.9c0,0,2.4-1.7,3.9-1.5
				c1.5,0.2,3.6,0.6,3.6,0.6l0.2-3c0,0,0-1.5,1.5-1.5c1.5,0,2.6-0.6,2.6-0.6s-4.1-4.1-1.5-3.4c2.6,0.6,3.6,1.3,3.6,1.3l-2.8-3.6
				c0,0,1.3-1.3,2.1-1.5c0.9-0.2,0.9-1.1,0.9-1.1l-3.6-3.6l-1.9-1.5c0,0,6.2-6.9,7.5-19.1c1.2-11.8,0.1-14,0-14.1l1.7,2.8
				C344.1,126.1,343.3,122.5,342.6,120.3z M357,102.3c1.1-3.4,0.4-6,0.4-6s-0.4,2.8-3,4.5c-2.6,1.7-3,1.7-3,1.7l0.5-2.8
				c-0.3,1.3-1.1,3.7-3.3,4.3c-3,0.9-4.1,0.4-4.1,0.4s0.9-1.1,1.3-2.6c0.4-1.5,0-3,0-3s-0.2,3.6-1.9,4.5c-1.7,0.9-3,1.3-3,1.3
				s-0.9,2.4-3.9,1.5c0,0,1.3,1.7,2.1,3.9c0.9,2.1,1.3,3.4,1.3,3.4l1.5,2.6c0,0,1.7-0.2,3.6-0.4c0.8-0.1,1.6-0.4,2.1-0.7
				c0.8-0.4,1.3-0.8,1.3-0.8s2.1-1.5,3.9-3.2c1.7-1.7,2.6-5.1,2.6-5.1L354,107c-0.4,0.3-0.6,0.5-0.6,0.5l0.6-0.5
				C354.8,106.2,356.3,104.7,357,102.3z M351.9,99.7c0.1-0.5,0.1-0.8,0.1-0.8L351.9,99.7z M331.7,98.1l3.2,4.9c0,0-0.6-2.8,0-4.9
				c0.6-2.1,0.6-3.6,0.6-3.6s-1.3,1.9-2.8,1.5c-1.5-0.4-1.9-2.6-1.9-2.6s-0.4,1.7-1.9,1.9c-1.4,0.2-3.1,0-3.4,0
				c0.2,0,1.1,0.2,2.9,1.7C333.5,101,332,98.5,331.7,98.1z M245.1,110c-1.5-0.4-2.4-0.9-2.4-0.9s2.1,1.9,2.1,3
				c0,1.1-1.9,1.5-1.9,1.5s3.6-0.9,3.6,1.1c0,0,0.6-0.2,1.1-1.5c0.4-1.3,0.6-3.2,0.6-3.2S246.6,110.5,245.1,110z M251.5,90.8
				c0,0,3.2,6,2.1,6.9c-1.1,0.9-3.2,1.7-3.2,1.7s1.9,1.9,0.4,2.6c-1.5,0.6-2.1-3.2-4.7-3.2c-2.6,0-5.1,3.4-5.1,3.4l3.2-1.5l1.9,1.1
				c0,0,0.6,0.2,1.9,0.9c1.3,0.6,3.4,2.8,3.4,2.8s1.1-0.6,2.4-1.9c1.3-1.3,3.9-4.7,3.9-4.7l-2.6-3L251.5,90.8z"/>
		</g>
		<g>
			<path class="st50" d="M242.3,103.8c-1.1,4.3,2.6,5.6,2.6,5.6l3,0.4c0,0,1.7-2.6,3.2-4.3c0,0-2.1-2.6-3.6-4.1
				C246,100,243.4,99.5,242.3,103.8z M345.6,93.8c-0.9-1.7-3.6-3.2-7.3-0.9c-3.6,2.4-3.9,8.1-3.9,8.1l0.2,1.1l2.4,3
				c0,0,2.1,0,3.4-0.9c1.3-0.9,1.7-2.1,1.7-2.1l0.6,1.3c0,0,2.1-1.3,2.6-3.2c0.4-1.9-0.2-4.1-0.2-4.1l1.1,0.4
				C346.3,96.5,346.5,95.5,345.6,93.8z"/>
		</g>
		<g>
			<path class="st51" d="M331.8,231.6c-5.2-1-10.7,4.1-12.1,11.6c-1.5,7.4,1.6,14.3,6.8,15.3c5.2,1,10.7-4.1,12.1-11.6
				C340.1,239.5,337,232.7,331.8,231.6z M326.1,228.1c2.3,0,4.1-1.8,4.1-4.1c0-2.2-1.8-4.1-4.1-4.1c-2.2,0-4.1,1.8-4.1,4.1
				C322.1,226.3,323.9,228.1,326.1,228.1z M337.1,220.4c-1.9,0-3.4,1.5-3.4,3.4c0,1.9,1.5,3.4,3.4,3.4c1.9,0,3.4-1.5,3.4-3.4
				C340.5,222,339,220.4,337.1,220.4z M344.1,228.4c-1.7,0-3,1.3-3,3c0,1.7,1.3,3,3,3c1.7,0,3-1.3,3-3
				C347.1,229.7,345.8,228.4,344.1,228.4z M260.7,234.6c-5.2,1-8.3,7.9-6.8,15.3c1.5,7.4,6.9,12.6,12.1,11.6c5.2-1,8.3-7.9,6.8-15.3
				C271.3,238.8,265.9,233.6,260.7,234.6z M266.3,231.1c2.2,0,4.1-1.8,4.1-4.1c0-2.2-1.8-4.1-4.1-4.1c-2.2,0-4.1,1.8-4.1,4.1
				C262.3,229.3,264.1,231.1,266.3,231.1z M258.8,226.9c0-1.9-1.5-3.4-3.4-3.4c-1.9,0-3.4,1.5-3.4,3.4c0,1.9,1.5,3.4,3.4,3.4
				C257.3,230.3,258.8,228.8,258.8,226.9z M248.3,231.4c-1.7,0-3,1.3-3,3c0,1.7,1.3,3,3,3c1.7,0,3-1.3,3-3
				C251.3,232.7,250,231.4,248.3,231.4z"/>
		</g>
		<g>
			<path class="st52" d="M262.1,235.3c-4.1,0-7.5,5.1-7.5,11.5c0,6.3,3.4,11.5,7.5,11.5c4.1,0,7.5-5.1,7.5-11.5
				C269.6,240.4,266.3,235.3,262.1,235.3z M331.6,232.1c-3.9-1.3-8.8,2.5-10.8,8.4c-2,6-0.5,11.9,3.4,13.3c3.9,1.3,8.8-2.5,10.8-8.4
				C337,239.4,335.5,233.5,331.6,232.1z M247.8,231.7c-1.3,0-2.3,1-2.3,2.3c0,1.3,1,2.3,2.3,2.3c1.3,0,2.3-1,2.3-2.3
				C250.1,232.8,249,231.7,247.8,231.7z M257.2,226.7c0-1.4-1.1-2.5-2.5-2.5c-1.4,0-2.5,1.1-2.5,2.5c0,1.4,1.1,2.5,2.5,2.5
				C256.1,229.2,257.2,228.1,257.2,226.7z M265.5,230.2c1.7,0,3.2-1.4,3.2-3.2c0-1.7-1.4-3.2-3.2-3.2c-1.7,0-3.2,1.4-3.2,3.2
				C262.3,228.7,263.7,230.2,265.5,230.2z M325.5,226.8c1.7,0,3.2-1.4,3.2-3.2c0-1.7-1.4-3.2-3.2-3.2c-1.7,0-3.2,1.4-3.2,3.2
				C322.4,225.4,323.8,226.8,325.5,226.8z M336.9,220.7c-1.5,0-2.7,1.2-2.7,2.7c0,1.5,1.2,2.7,2.7,2.7c1.5,0,2.7-1.2,2.7-2.7
				C339.5,221.9,338.4,220.7,336.9,220.7z M344.3,228.4c-1,0-1.8,0.8-1.8,1.8c0,1,0.8,1.8,1.8,1.8c1,0,1.8-0.8,1.8-1.8
				C346.1,229.2,345.3,228.4,344.3,228.4z"/>
		</g>
		<g>
			<path class="st48" d="M256.2,96.3c0,0-1.1-2.1-2.5-3.4c-1.4-1.3-2.4-3.9-2.4-3.9s-0.7,0.2-0.4,1.6
				C251.2,92,254.7,96.1,256.2,96.3z M249.2,89.1c-0.2-0.2-0.5-0.6-0.9-1.2c-1.1-1.7-2-4.3-2-4.3s-0.6,0.3-0.4,1.7
				C246.1,86.7,247.9,88.4,249.2,89.1z M249.6,89.3c-0.1-0.1-0.2-0.1-0.4-0.2C249.6,89.5,249.6,89.3,249.6,89.3z M244.8,87.2
				c0,0,0-0.8-2.3-0.8c-2.3,0-4.1,1.2-4.1,1.2S243.9,86.8,244.8,87.2z M233.5,86.4c-3.9,2.1-4.3,5.4-4.3,5.4s7.8-6.6,9.5-6.4
				C238.7,85.5,237.4,84.3,233.5,86.4z M228.2,93.2c0,0,0,0.1,0,0.1C228.3,93.2,228.2,93.2,228.2,93.2z M228.2,93.3
				c-0.1,0.2-0.3,0.6-1.2,2c-1.5,2.2-0.9,3.8-0.9,3.8S229,97.9,228.2,93.3z M233.5,110.4c-0.8-1.7-0.7-2.5-0.7-2.5s-1.4,1.6-1.4,2
				c0,0.3-3-5.4-2.6-7.4c0,0-1-0.7-0.3,2.6c0.7,3.4,3.5,7.5,3.9,7.5c0.2,0,0.4-0.5,0.6-0.9c0-0.3,0.2-0.5,0.2-0.5s-0.1,0.2-0.2,0.5
				c-0.1,0.5,0.1,1.4,1.5,2.3c2.2,1.5,4.6,1.3,4.6,1.3S234.3,112.1,233.5,110.4z M246.2,122.7c0,0,2.1-7.7,3.2-9.5
				c0,0-1.5,2.3-2.4,4.4C246.2,119.6,246.2,122.7,246.2,122.7z M251.4,107.3c0,0,7.8-7.6,9.9-8.3c0,0-1.9,0.2-4.9,2.3
				C253.5,103.4,251.4,107.3,251.4,107.3z M246.4,143.1c0.1-0.4-0.9-8.7,1.4-10.7c0,0-2.4,0.9-2.4,4.7
				C245.4,140.9,246.3,143.5,246.4,143.1z M248.4,151.6c1.6,2.4,2.7,3.3,2.7,3.3s-3.7-4.4-3.3-6.5
				C247.8,148.4,246.8,149.3,248.4,151.6z M343.3,123.5c-0.6-3.6-1.1-4.7-1.1-4.7c1.1,3.4,0.2,12.2,0.2,13.1
				C342.4,132.8,343.9,127.2,343.3,123.5z M343.5,137c-0.2-4.5-0.6-4.5-0.6-4.5c-2.1,7.5,1.7,11.8,1.7,11.8S343.7,141.6,343.5,137z
				 M344.3,114.8c0,0,1.5,1.3,4.7,0.4c3.2-0.9,5.6-2.8,5.6-2.8S346.1,115.2,344.3,114.8z M357.9,99.8c0,0-1.3,9.2-3.4,10.7
				c0,0,0.4,2.1,2.1-3C358.3,102.3,357.9,99.8,357.9,99.8z M357.4,89.5c-0.6-3.4-2.1-6.2-2.1-6.2s0.4,6.9,2.1,10.1
				C357.4,93.3,358.1,92.9,357.4,89.5z M347.6,76.4c0,0-2.4-3.2-5.6-2.8c-3.2,0.4-6.9,2.6-6.9,2.6S345.2,73.6,347.6,76.4z
				 M328.5,82.4c-2.4,3.6-2.4,7.3-2.4,7.3s3-9.6,6-9.6C332.1,80,330.8,78.7,328.5,82.4z M337.1,160.4c1.3,0.2,4.5,3,4.5,3
				s-0.9-2.6-3-4.7c-2.1-2.1-3.4-1.3-3.4-1.3C336.2,157.4,335.8,160.2,337.1,160.4z M341.3,168.6c0,0-0.9-1.5-2.8-1.9
				c-1.9-0.4-3.9,1.3-3.9,1.3C336,166.6,341.3,168.6,341.3,168.6z M329.8,178.4c-1.9,2.4-14.4,6.9-14.4,6.9s7.3-0.4,12-4.1
				C332.1,177.6,329.8,178.4,329.8,178.4z M251.5,167.1c-1.1,4.6,3.7,10.3,3.7,10.3s-3.2-4.1-3.6-8.6
				C251.5,168.1,251.4,167.5,251.5,167.1z M251.5,167.1c0.2-0.7,0.5-1.3,0.9-2C252.4,165.1,251.5,164.5,251.5,167.1z M254.1,169.8
				c0,0-1.7-0.2,0,3.2c1.7,3.4,2.6,3.4,2.6,3.4S253.7,172.6,254.1,169.8z M273.6,191.7c0,0,3.4-0.4,4.7-4.3
				C279,185.4,273.6,191.7,273.6,191.7z M309,186.1c0,0-3.9,3.9-6.6,3.4c0,0-0.4,0.4,2.6-0.2C307.9,188.7,309,186.1,309,186.1z
				 M347.1,214.4c0,0-0.6-3-4.3-5.4c-3.6-2.4-7.5,0-7.5,0C340.9,208,347.1,214.4,347.1,214.4z M327.2,211.2c0,0-4.1,1.5-6.2,3
				c-2.1,1.5-3.9,3.6-3.9,3.6l1.3-3.6c0,0-2.8,1.7-4.7,5.6c-1.9,3.9-3.2,9.2-3.2,9.2s4.3-6.9,6.2-8.6c1.9-1.7,4.3-3,4.3-3
				S323.1,212.9,327.2,211.2z M240,250.4c0,0,0.6,1.9,2.1,2.8c1.5,0.9,4.7-1.1,4.7-1.1C243.8,252.6,240,250.4,240,250.4z
				 M247.5,261.8c2.4,3.4,4.9,3.6,4.9,3.6s-5.1-5.6-5.6-7.9C246.8,257.5,245.1,258.4,247.5,261.8z M282,226.9
				c-0.9,5.6,1.9,12.2,1.9,12.2s0.4-2.8-0.4-7.7C282.6,226.4,282,226.9,282,226.9z M271.7,210.1c0,0-1.7,2.6-1.3,4.7
				c0.4,2.1,6.2,7.3,6.2,7.3s1.1-0.2-1.7-3.9C272.1,214.6,271.7,210.1,271.7,210.1z M290.3,246.4c-3-2.6-4.5-3.9-4.5-3.9
				s0.2,1.5-0.2,4.1c-0.4,2.6-0.6,3-0.6,3s2.6-1.1,3.4-1.7c0.9-0.6,4.9,1.7,6.4,0.4C294.8,248.3,293.3,248.9,290.3,246.4z
				 M308.8,239.3l-0.6,0.2c0.1,1.1,0.2,2.1,0.3,3C309.7,240.2,308.8,239.3,308.8,239.3z M305.3,246.6l3.4-1.5c0,0-0.1-1.1-0.3-2.5
				c-0.1,0.2-0.2,0.4-0.3,0.6C306.4,245.9,305.3,246.6,305.3,246.6z M308.5,233.9c-0.1,0.4-0.7,1.4-2.5,4.3c-1.3,2-1.9,2.8-2.1,3.1
				l4.4-1.8C308.1,237.3,308.1,235,308.5,233.9z M308.5,233.9c0.1-0.1,0.1-0.2,0.1-0.2C308.5,233.8,308.5,233.8,308.5,233.9z
				 M303.8,241.3l-0.2,0.1C303.6,241.4,303.6,241.7,303.8,241.3z M317.6,260.5c0,0-1.3,1.5,3.2,3.9c4.5,2.4,9.2-0.4,9.2-0.4
				S318.6,263.1,317.6,260.5z M345.4,252.4c0.2-0.5,0.3-1,0.4-1.5C345.2,252.8,344.9,253.7,345.4,252.4z M347.3,241
				c-2,3.7-0.9,6.6-1.5,9.8c1.5-4.4,4.9-14.1,4.9-14.1S349.7,236.7,347.3,241z M348.6,227.1c0,0,0.9,0,0.4-4.7
				c-0.4-4.7-3.6-5.4-3.6-5.4C346.3,218.5,348.6,227.1,348.6,227.1z M314.5,209.9c-0.6,0.1-1,0.3-1,0.3S314,210.4,314.5,209.9z
				 M316.7,211c0,0,0.2-3-0.6-5.4c-0.9-2.4-2.6-4.7-2.6-4.7s1.3,3,1.5,6.4c0.1,1.5-0.2,2.2-0.5,2.5
				C315.3,209.8,316.3,209.9,316.7,211z M270,182.3c0,0-9-0.9-10.5-2.1c0,0,1.3,2.1,5.1,3c3.9,0.9,9,0.9,9,0.9L270,182.3z M292,83.5
				c0,0-6.4-2.1-11.4,3.4c0,0,3.4-2.1,6-2.8C289.3,83.5,292,83.5,292,83.5z M309,87.5c0,0-7.9,0.4-10.9-3.4c0,0,1.5,3,5.4,3.9
				C307.3,88.8,309,87.5,309,87.5z M340.5,90.1c-1.7,0.4-2.8,1.1-2.8,1.1l0.4-2.6l-2.8,7.3c0,0,0.3-0.5,0.9-1.2c1-1.3,2.8-3,4.4-3
				c2.6,0,4.3,0.6,4.3,0.6S342.2,89.7,340.5,90.1z"/>
		</g>
		<g>
			<path class="st53" d="M279.4,137.9c-2.3,0-4.2,3.1-4.2,6.9c0,3.8,1.9,6.9,4.2,6.9c2.3,0,4.2-3.1,4.2-6.9
				C283.6,141,281.7,137.9,279.4,137.9z M304.3,137.9c-2,0-3.7,2.8-3.7,6.3c0,3.5,1.7,6.3,3.7,6.3c2,0,3.7-2.8,3.7-6.3
				C308,140.8,306.3,137.9,304.3,137.9z"/>
		</g>
		<g>
			<path class="st50" d="M325.7,168.1c0-10.5-14.6-19.1-32.7-19.1c-18.1,0-32.7,8.5-32.7,19.1c0,8.4,9.2,15.4,22,18
				c1.2,2.1,5.6,3.6,10.9,3.6c5.3,0,9.8-1.6,10.9-3.7C316.7,183.4,325.7,176.4,325.7,168.1z"/>
		</g>
		<g>
			<path class="st53" d="M309.2,176.1c-0.9,0.4-1.9,0.8-3,1.2C306.2,177.3,307.6,177,309.2,176.1z M312.8,173.1
				c-1,1.4-2.4,2.4-3.6,3.1c9-4.3,6.9-10.6,6.9-10.6S315.2,169.8,312.8,173.1z M315.6,163c1.5-0.2,3,0.6,3,0.6s-1.7-3.9-5.1,0.6
				C313.8,163.8,314.6,163.1,315.6,163z M313.3,164.5c0.1-0.1,0.1-0.2,0.2-0.3C313.3,164.4,313.3,164.5,313.3,164.5z"/>
		</g>
		<g>
			<path class="st11" d="M278.2,140.1c-0.8,0-1.4,1-1.4,2.1c0,1.2,0.6,2.1,1.4,2.1c0.8,0,1.4-1,1.4-2.1
				C279.6,141,279,140.1,278.2,140.1z"/>
		</g>
		<g>
			<path class="st11" d="M303.3,139.6c-0.8,0-1.4,0.9-1.4,2.1c0,1.2,0.6,2.1,1.4,2.1s1.4-1,1.4-2.1
				C304.7,140.6,304.1,139.6,303.3,139.6z"/>
		</g>
		<g>
			<path class="st53" d="M293.1,149.5c-6.8,0-12.4,2.2-12.4,4.8c0,2.7,5.5,4.8,12.4,4.8c6.8,0,12.4-2.2,12.4-4.8
				C305.4,151.7,299.9,149.5,293.1,149.5z M272.4,101.4c-5.1,1.3-5.8,7.4-5.8,7.4s1.8-4.4,5.5-5.5c3.7-1.1,6.3,1.8,6.3,1.8
				S277.6,100.1,272.4,101.4z M309.4,100.9c-5.5-1.3-7.2,3.7-7.2,3.7c8.8-5.8,11.7,3.4,11.7,3.4S313.4,101.8,309.4,100.9z"/>
		</g>
		<g>
			<path class="st11" d="M290.2,150.6c-3.9,0.4-7,1.7-6.9,2.9c0.1,1.2,3.4,1.8,7.3,1.4c3.9-0.4,7-1.7,6.9-2.9
				C297.4,150.8,294.1,150.2,290.2,150.6z"/>
		</g>
		<path class="st48" d="M349.5,181.4c0,0,3.3-1,5.5-2.7c2.3-1.6,3.9-8,3.9-8s-0.4,3.7,1.4,4.3c1.8,0.6,8.6-0.4,8.6-0.4
			s-5.4,0.8-7.6,0.8c-4.1,0-4.1,5.7-3.3,7.4c0.8,1.6,9.2-0.8,9.2-0.8s-9.6,2.5-10.2,5.1c-0.6,2.7,3.5,5.1,3.5,5.1s-5.5-0.8-5.9-3.1
			c-0.4-2.3,0.2-4.3,1-5.3c0.8-1,0.8-0.8,0.4-3.1C355.6,178.5,354.2,182,349.5,181.4z"/>
		<path class="st48" d="M349.1,165c0,0,4.9-2.5,7.2-2.7c2.3-0.2,4.9,0.2,4.9,0.2S356,158.7,349.1,165z"/>
		<path class="st48" d="M360.3,170.7c0,0,3.5,1,6.8,0.8c3.3-0.2,4.7-2.7,4.5-4.1c-0.2-1.4-1-2.3-1.2-1c-0.2,1.2-2.9,3.7-10.2,3.5
			C352.7,169.7,360.3,170.7,360.3,170.7z"/>
		<path class="st48" d="M317.7,204.5c0,0,1.4,0,3.7,0.8c2.3,0.8,4.1,2.3,4.1,2.3l-0.4-1.8c0,0,0.4,0,2.8,0.9
			c2.4,0.9,3.8,1.5,3.8,1.5l-0.2-2.7c0,0,2.9-0.2,6.5-2.3c3.7-2,7.2-5.1,7.2-5.1s-4.7,1.8-8.2,2.9c-3.5,1-10,1.4-10,1.4l4.9,1.2
			C331.9,203.7,323.9,206.1,317.7,204.5z"/>
		<path class="st48" d="M331.5,179.1c0,0,1.4,0,4.1-2.5c2.7-2.5,3.4-2.7,3.4-2.7l-0.2,2.5c0,0,2-1.2,3.7-2c1.6-0.8,3.5-2.9,3.5-2.9
			s-3.5,5.3-4.9,5.9c-1.4,0.6-6.5,2.9-6.5,2.9l7.8,1.2C342.3,181.6,336.4,178.9,331.5,179.1z"/>
		<path class="st48" d="M316.3,202.4c0,0,0.6-1.2-0.4-3.3c-1-2-2.3-4.5-2.3-4.5s4.9,0.6,7.6-0.2c2.7-0.8,6.1-3.9,6.1-3.9
			s-2.9,4.5-4.3,5.3c-1.4,0.8-3.1,1.4-3.1,1.4s0.8,1.6,3.3,2.3c2.5,0.6,4.3,0,4.3,0s-4.3,2.7-6.1,1.6c-1.8-1-3.3-2-3.5-0.4
			c-0.2,1.6-0.2,3.7-0.2,3.7L316.3,202.4z"/>
	</g>
</g>
</svg>
