<?xml version="1.0" encoding="utf-8"?>
<!-- Generator: Adobe Illustrator 23.0.0, SVG Export Plug-In . SVG Version: 6.00 Build 0)  -->
<svg version="1.1" id="Capa_1" xmlns="http://www.w3.org/2000/svg" xmlns:xlink="http://www.w3.org/1999/xlink" x="0px" y="0px"
	 viewBox="0 0 1920 1080" style="enable-background:new 0 0 1920 1080;" xml:space="preserve">
<g>
	<path d="M1003,979.5l-473,100l-385-117l-282.5,50.9V32.6l397.6,48.9L455,0.6l196,101L867.9,0.5h267.7l287.2,62
		c2.3,1.4,57.1,33.3,117.2,33.3c49.9,0,89.3-21.4,117.1-63.5c13.9-21.1,51-31.8,110.3-31.8c98.4,0,226.2,30,234.1,31.9v981.1h-223.9
		l-385.6,66L1003,979.5z"/>
	<path d="M1767.4,1c97,0,222.6,29.2,233.6,31.8V1013h-223.4h-0.1l-0.1,0l-385.4,66L1003.2,979l-0.2-0.1l-0.2,0L530,1079L145.3,962
		l-0.2-0.1l-0.2,0l-281.8,50.8V33.1L259.9,82l0.3,0l0.2-0.1L455,1.1l195.6,100.8l0.4,0.2l0.4-0.2L868,1h267.5l287.1,61.9
		c1.5,0.9,15.2,8.8,35.4,16.6c19.7,7.6,50,16.7,82,16.7c50,0,89.6-21.4,117.5-63.7C1671.4,11.6,1708.3,1,1767.4,1L1767.4,1
		 M1767.4,0c-51.2,0-94.8,8-110.7,32c-32.2,48.6-75.8,63.3-116.7,63.3c-61.6,0-117-33.3-117-33.3L1135.6,0H867.8L651,101L455,0
		L260,81l-398-49v982l283-51l385,117l473-100l389,100l385.6-66H2002V32C2002,32,1869.7,0,1767.4,0L1767.4,0z"/>
</g>
</svg>
