<?xml version="1.0" encoding="iso-8859-1"?>
<!-- Generator: Adobe Illustrator 19.0.0, SVG Export Plug-In . SVG Version: 6.00 Build 0)  -->
<svg xmlns="http://www.w3.org/2000/svg" xmlns:xlink="http://www.w3.org/1999/xlink" version="1.1" id="Capa_1" x="0px" y="0px" viewBox="0 0 490 490" style="enable-background:new 0 0 490 490;" xml:space="preserve" width="512px" height="512px">
<path id="XMLID_1381_" d="M456.66,260.873c-3.942-7.077-10.89-11.94-18.828-13.423l3.447-11.656  c0.199-0.675,0.351-1.362,0.454-2.059c9.24-62.492-26.614-122.17-84.731-144.576l3.219-13.597c0.013-0.057,0.026-0.113,0.039-0.17  c3.326-14.816-2.318-29.513-14.73-38.354c-12.268-8.739-28.443-9.328-41.306-1.536l-44.23,24.855V15c0-8.284-6.715-15-14.999-15  c-8.283,0-14.999,6.716-14.999,15v45.358l-44.229-24.855c-12.863-7.792-29.04-7.203-41.306,1.535  c-12.413,8.841-18.057,23.538-14.731,38.354c0.013,0.057,0.026,0.113,0.039,0.17l3.136,13.244  c-58.281,21.987-94.577,81.442-85.793,143.975c0.105,0.747,0.267,1.486,0.482,2.209l3.773,12.623  c-7.455,1.624-13.992,6.258-17.828,12.887c-4.711,8.141-4.723,17.872-0.034,26.03l69.958,121.736  c14.267,24.828,34.621,45.51,58.858,59.809C186.637,482.419,214.279,490,242.26,490c55.303,0,106.137-28.792,135.982-77.018  l77.801-125.714C461.092,279.108,461.322,269.241,456.66,260.873z M161.864,61.475c1.238-0.883,4.539-2.678,8.427-0.272  c0.179,0.11,0.359,0.217,0.543,0.32l61.824,34.742c8.651,4.985,15.525,5.048,24.675,0.001c0,0,62.189-34.953,62.367-35.063  c3.887-2.403,7.188-0.61,8.429,0.272c1.445,1.029,3.733,3.342,2.877,7.285l-12.069,50.972l-17.213-8.519  c-11.254-5.567-25.017-1.932-32.019,8.461l-24.708,36.678l-24.708-36.678c-4.792-7.112-12.748-11.06-20.901-11.06  c-3.761,0-7.565,0.841-11.117,2.599l-17.214,8.519l-12.07-50.977C158.132,64.814,160.419,62.504,161.864,61.475z M139.893,118.314  l3.399,14.358c1.765,7.452,6.764,13.601,13.717,16.868c6.988,3.287,14.966,3.206,21.888-0.218l18.895-9.351l26.357,39.126  c4.671,6.933,12.464,11.072,20.847,11.072c8.383,0,16.176-4.14,20.847-11.072l26.357-39.126l18.897,9.352  c6.922,3.425,14.9,3.501,21.889,0.217c6.952-3.27,11.95-9.418,13.714-16.869l3.307-13.969  c42.604,18.363,68.64,62.904,62.196,109.632l-7.302,24.698C357.496,267.115,302.864,280,245.377,280  c-58.179,0-113.431-13.195-161.23-27.475l-7.474-25.004C70.6,180.721,97.06,136.311,139.893,118.314z M352.734,397.194  C328.396,436.521,287.098,460,242.26,460c-45.933,0-89.15-25.551-112.786-66.683L110.327,360h56.537  c9.411,0,17.068,7.508,17.068,16.735c0,29.271,23.991,53.083,53.48,53.083c0.072,0,0.143,0,0.215,0  c29.489,0,53.48-23.813,53.48-53.083c0-9.228,7.657-16.735,17.068-16.735h25.654c8.283,0,14.999-6.716,14.999-15  s-6.715-15-14.999-15h-25.654c-25.952,0-47.065,20.966-47.065,46.735c0,12.729-10.534,23.083-23.482,23.083  c-0.072,0-0.143,0-0.215,0c-12.948,0-23.482-10.354-23.482-23.083c0-25.77-21.113-46.735-47.065-46.735H93.087l-30.224-52.594  C115.549,293.711,178.118,310,245.377,310c66.723,0,128.829-16.03,181.249-32.203L352.734,397.194z M298.621,195v-2  c0-8.284,6.715-15,14.999-15s14.999,6.716,14.999,15v2c0,8.284-6.715,15-14.999,15S298.621,203.284,298.621,195z M229.495,237v-2  c0-8.284,6.715-15,14.999-15c8.283,0,14.999,6.716,14.999,15v2c0,8.284-6.715,15-14.999,15C236.21,252,229.495,245.284,229.495,237z   M157.158,195v-2c0-8.284,6.715-15,14.999-15s14.999,6.716,14.999,15v2c0,8.284-6.715,15-14.999,15S157.158,203.284,157.158,195z" fill="#FFFFFF"/>
<g>
</g>
<g>
</g>
<g>
</g>
<g>
</g>
<g>
</g>
<g>
</g>
<g>
</g>
<g>
</g>
<g>
</g>
<g>
</g>
<g>
</g>
<g>
</g>
<g>
</g>
<g>
</g>
<g>
</g>
</svg>
