<?xml version="1.0" encoding="utf-8"?>
<!-- Generator: Adobe Illustrator 23.0.0, SVG Export Plug-In . SVG Version: 6.00 Build 0)  -->
<svg version="1.1" id="Capa_1" xmlns="http://www.w3.org/2000/svg" xmlns:xlink="http://www.w3.org/1999/xlink" x="0px" y="0px"
	 viewBox="0 0 450 450" style="enable-background:new 0 0 450 450;" xml:space="preserve">
<style type="text/css">
	.st0{fill:#EFEFEF;}
	.st1{fill:url(#SVGID_1_);}
	.st2{fill:#B29776;}
	.st3{fill:#42210B;}
	.st4{fill:#FFFFFF;}
	.st5{fill:#D3D3D3;}
	.st6{fill:#BCBCBC;}
	.st7{fill:url(#SVGID_2_);}
	.st8{fill:#E5E4E3;}
	.st9{opacity:0.28;fill:#2D1F15;enable-background:new    ;}
	.st10{fill:url(#SVGID_3_);}
	.st11{fill:url(#SVGID_4_);}
	.st12{fill:#E2D3BA;}
	.st13{fill:#E0D9D5;}
	.st14{fill:url(#SVGID_5_);}
	.st15{opacity:0.51;fill:url(#SVGID_6_);enable-background:new    ;}
	.st16{opacity:0.32;fill:#CEAA91;enable-background:new    ;}
	.st17{opacity:0.25;fill:#B87453;enable-background:new    ;}
	.st18{fill:#F9F2DE;}
	.st19{opacity:0.51;fill:url(#SVGID_7_);enable-background:new    ;}
	.st20{opacity:0.51;fill:url(#SVGID_8_);enable-background:new    ;}
	.st21{opacity:0.38;fill:#723E2B;enable-background:new    ;}
	.st22{fill:#CEAA91;}
	.st23{fill:#B87453;}
	.st24{fill:#9AC53C;}
	.st25{fill:#6C991D;}
	.st26{fill:#5B7F03;}
	.st27{fill:#496302;}
	.st28{fill:#C4D334;}
	.st29{fill:url(#SVGID_9_);}
	.st30{opacity:0.56;fill:#FFF7EF;enable-background:new    ;}
	.st31{fill:#F9E9C6;}
	.st32{fill:#CEBC9F;}
	.st33{fill:url(#SVGID_10_);}
	.st34{opacity:0.32;fill:#F7F0EB;enable-background:new    ;}
	.st35{fill:#7C4D3A;}
	.st36{opacity:0.56;fill:#BAB7B1;enable-background:new    ;}
	.st37{fill:#B51709;}
	.st38{fill:#CF1D0C;}
	.st39{fill:#DC2130;}
	.st40{fill:#F92649;}
	.st41{fill:#FCA4AF;}
	.st42{fill:#9B0B04;}
	.st43{fill:#562611;}
	.st44{fill:#683C2C;}
	.st45{fill:#472B22;}
	.st46{fill:#846055;}
	.st47{fill:url(#SVGID_11_);}
	.st48{fill:url(#SVGID_12_);}
	.st49{fill:url(#SVGID_13_);}
	.st50{fill:url(#SVGID_14_);}
	.st51{fill:url(#SVGID_15_);}
	.st52{fill:url(#SVGID_16_);}
	.st53{fill:url(#SVGID_17_);}
	.st54{fill:url(#SVGID_18_);}
	.st55{fill:url(#SVGID_19_);}
	.st56{fill:url(#SVGID_20_);}
	.st57{fill:url(#SVGID_21_);}
	.st58{fill:url(#SVGID_22_);}
</style>
<g>
	<g id="Capa_3">
		<path class="st0" d="M121,410c-20.4,0-37-16.6-37-37l0,0v-23.2c0-1.4,0.1-2.9,0.3-4.3c-20-12.4-37.4-27.6-50.5-44.2
			c-20.9-26.5-31.9-57-31.9-88.3c0-46.9,24.1-90.5,67.9-122.7C111.3,59.8,166,43,223.9,43s112.7,16.8,154.2,47.4
			c43.8,32.2,67.9,75.8,67.9,122.7c0,31.3-11,61.8-31.9,88.3c-13.1,16.6-30.5,31.8-50.5,44.2c0.2,1.4,0.2,2.8,0.3,4.3V373
			c0,20.4-16.6,37-37,37l0,0H121z"/>
		
			<radialGradient id="SVGID_1_" cx="222.925" cy="224.5" r="295.1955" gradientTransform="matrix(1 0 0 -1 0 450)" gradientUnits="userSpaceOnUse">
			<stop  offset="0" style="stop-color:#FEFBED"/>
			<stop  offset="1" style="stop-color:#DCBD93"/>
		</radialGradient>
		<path class="st1" d="M374.1,93.4C333.5,63.5,279.8,47,222.9,47S112.4,63.5,71.7,93.4C29.3,124.7,5.9,166.8,5.9,212.1
			c0,30.1,10.7,59.6,30.9,85.1c13.4,16.9,31.4,32.4,52,44.8c-0.5,2.2-0.7,4.5-0.7,6.8V372c0,17.7,14.3,32,32,32h205.9
			c17.7,0,32-14.3,32-32v-23.2c0-2.3-0.2-4.6-0.7-6.8c20.7-12.4,38.6-27.8,52-44.8c20.2-25.6,30.9-55,30.9-85.1
			C440,166.8,416.6,124.7,374.1,93.4z"/>
		<path class="st2" d="M368.8,100.7C329.7,71.9,277.9,56,222.9,56S116.2,71.9,77.1,100.7C37,130.2,14.9,169.7,14.9,212.1
			c0,28.1,10,55.6,28.9,79.6c14.2,18,33.4,33.9,56,46.3C98,341.2,97,345,97,348.8V372c0,12.7,10.3,23,23,23h205.9
			c12.7,0,23-10.3,23-23v-23.2c0-3.8-0.9-7.5-2.7-10.9c22.5-12.4,41.8-28.3,56-46.3c18.9-24,28.9-51.5,28.9-79.6
			C431,169.7,408.9,130.2,368.8,100.7z M398.2,288.5c-14.9,18.8-35.3,35.2-59.4,47.7c3.3,3.4,5.1,7.9,5.1,12.6V372
			c0,9.9-8.1,18-18,18H120c-9.9,0-18-8.1-18-18v-23.2c0-4.7,1.9-9.2,5.1-12.6c-24.1-12.5-44.6-28.9-59.4-47.7
			c-18.2-23.1-27.9-49.5-27.9-76.5c0-40.7,21.4-78.8,60.2-107.4C118.3,76.5,169,61,222.9,61s104.7,15.5,142.9,43.6
			c38.8,28.6,60.1,66.7,60.1,107.4C426,239,416.4,265.5,398.2,288.5z"/>
		<path class="st2" d="M363.5,107.9C325.9,80.3,276,65,222.9,65S120,80.3,82.4,107.9c-37.7,27.8-58.5,64.8-58.5,104.2
			c0,26.1,9.3,51.6,27,74c15.8,20,37.9,37.1,64.2,49.6c-5.4,2.1-9,7.3-9,13.1V372c0,7.7,6.3,14,14,14h205.8c7.7,0,14-6.3,14-14
			v-23.2c0-5.8-3.6-11-9-13.1c26.3-12.5,48.4-29.6,64.2-49.6c17.7-22.4,27-47.9,27-74C422,172.7,401.2,135.7,363.5,107.9z
			 M323.6,336.8h2.3c6.6,0,12,5.4,12,12V372c0,6.6-5.4,12-12,12H120c-6.6,0-12-5.4-12-12v-23.2c0-6.6,5.4-12,12-12h2.3
			c-57.7-25.3-96.4-71.7-96.4-124.7c0-80.1,88.2-145,197.1-145S420,132,420,212.1C420,265.1,381.3,311.5,323.6,336.8z"/>
		<path class="st2" d="M178.2,363.2c-0.5,0.3-1.1,0.6-1.5,0.9c-0.5,0.4-1,0.8-1.5,1.3l-1.6,1.5c-0.6,0.5-1.1,1-1.8,1.4
			c-0.7,0.5-1.4,0.9-2.1,1.3c-0.8,0.4-1.6,0.8-2.5,1c-1,0.3-2,0.6-3,0.7c-1.2,0.2-2.4,0.3-3.6,0.3c-1.4,0-2.7-0.3-3.9-0.9
			c-1.2-0.6-2.2-1.4-3-2.4c-0.8-1-1.5-2.2-1.9-3.4c-0.5-1.3-0.7-2.7-0.7-4.1c0-1.1,0.1-2.2,0.3-3.2c0.2-1.2,0.5-2.4,0.9-3.5
			c0.4-1.2,0.9-2.4,1.5-3.6c0.6-1.2,1.3-2.3,2-3.4c0.7-1.1,1.5-2.1,2.4-3c0.9-0.9,1.8-1.7,2.8-2.4c1-0.7,2-1.2,3.2-1.6
			c1.1-0.4,2.3-0.6,3.5-0.6c0.8,0,1.6,0.1,2.4,0.4c0.8,0.3,1.5,0.7,2.1,1.3c0.7,0.6,1.2,1.4,1.6,2.2c0.4,1,0.6,2,0.6,3.1
			c0,0.8-0.1,1.6-0.4,2.4c-0.2,0.8-0.6,1.6-1,2.4c-0.5,0.8-1,1.5-1.6,2.1c-0.6,0.6-1.2,1.2-1.9,1.7c-0.7,0.5-1.4,0.8-2.2,1.1
			c-0.7,0.3-1.5,0.4-2.2,0.4c-0.8,0-1.5-0.1-2.2-0.4c-0.4-0.2-0.7-0.6-0.7-1.1c0-0.1,0-0.2,0-0.3v-0.4c0-0.2,0-0.4,0-0.6
			c0-0.2,0.1-0.4,0.1-0.6c0.1-0.2,0.2-0.3,0.3-0.4c0.1-0.1,0.3-0.2,0.5-0.2c0.1,0,0.2,0,0.3,0l0.3,0.1c0.1,0.1,0.3,0.1,0.4,0.1
			c0.2,0,0.4,0.1,0.6,0c0.7,0,1.4-0.2,2.1-0.5c0.7-0.3,1.4-0.7,1.9-1.3c0.6-0.6,1-1.3,1.4-2c0.4-0.8,0.6-1.7,0.5-2.5
			c0-0.5-0.1-0.9-0.2-1.4c-0.1-0.4-0.3-0.8-0.6-1.1c-0.3-0.3-0.7-0.6-1.1-0.8c-0.5-0.2-1.1-0.3-1.7-0.3c-0.8,0-1.6,0.2-2.3,0.5
			c-0.8,0.4-1.5,0.8-2.1,1.4c-0.7,0.6-1.4,1.3-1.9,2.1c-0.6,0.8-1.2,1.7-1.7,2.6c-0.5,0.9-1,1.9-1.4,2.9c-0.4,1-0.8,2-1.1,3
			c-0.3,0.9-0.5,1.9-0.7,2.9c-0.1,0.8-0.2,1.7-0.2,2.6c0,1,0.1,2,0.4,3c0.2,0.8,0.6,1.5,1.2,2.1c0.5,0.6,1.2,1,1.9,1.3
			c0.8,0.3,1.6,0.4,2.5,0.4c1.1,0,2.2-0.1,3.2-0.5c1-0.3,1.9-0.7,2.8-1.2c0.9-0.5,1.8-1,2.6-1.6l2.5-1.8c0.8-0.6,1.7-1.2,2.6-1.8
			c0.9-0.6,1.8-1,2.8-1.4L178.2,363.2z"/>
		<path class="st2" d="M181.7,358.5c0.4-0.6,0.9-1.2,1.5-1.9c0.7-0.8,1.4-1.6,2.2-2.4c0.7-0.7,1.5-1.4,2.3-1.9
			c0.5-0.4,1.1-0.6,1.7-0.6c0.1,0,0.3,0,0.4,0.1c0.2,0.1,0.3,0.2,0.5,0.3c0.2,0.2,0.3,0.3,0.4,0.5c0.1,0.3,0.1,0.6,0.1,0.9
			c0,0.7-0.1,1.5-0.3,2.2c-0.3,0.9-0.7,1.8-1.2,2.6c-0.5,0.8-0.9,1.7-1.2,2.6c-0.2,0.8-0.3,1.5-0.3,2.3c0,0.3,0.1,0.7,0.2,1
			c0.1,0.3,0.3,0.4,0.5,0.4c0.3,0,0.6-0.1,0.8-0.2c0.3-0.1,0.6-0.3,0.9-0.4c0.3-0.2,0.6-0.4,0.9-0.6s0.5-0.5,0.8-0.7
			c0.6-0.6,1.2-1.2,1.8-1.9l0.3,4.3l-0.7,0.5c-0.3,0.2-0.6,0.4-1,0.7s-0.8,0.5-1.2,0.7c-0.4,0.2-0.8,0.5-1.3,0.6
			c-0.4,0.2-0.8,0.3-1.3,0.5c-0.4,0.1-0.8,0.2-1.2,0.2c-0.6,0-1.1-0.1-1.6-0.5c-0.4-0.3-0.8-0.7-1.1-1.2c-0.3-0.5-0.5-1-0.6-1.5
			c-0.1-0.5-0.2-1-0.2-1.6c0-0.4,0.1-0.8,0.1-1.2c0.1-0.4,0.2-0.9,0.4-1.3s0.3-0.9,0.5-1.3s0.3-0.8,0.5-1.1s0.3-0.6,0.4-0.8
			c0.1-0.1,0.1-0.2,0.2-0.4l-0.3,0c-0.3,0.3-0.6,0.6-0.9,0.9c-0.5,0.6-1,1.2-1.5,1.8c-0.5,0.7-1.1,1.5-1.7,2.5
			c-0.6,0.9-1.1,1.9-1.6,2.8c-0.2,0.5-0.4,0.9-0.6,1.3c-0.1,0.3-0.3,0.6-0.4,0.9c-0.1,0.2-0.3,0.4-0.5,0.5c-0.2,0.1-0.4,0.2-0.7,0.2
			c-0.3,0-0.6-0.1-0.8-0.3c-0.2-0.2-0.4-0.5-0.5-0.8c-0.1-0.4-0.2-0.7-0.2-1.1c0-0.4,0-0.8,0-1.3c0-0.7,0-1.7,0-2.9s0.1-2.5,0.2-4
			s0.2-3,0.5-4.5l0.7-4.7c0.2-1.5,0.5-3,1-4.4c0.4-1.3,1-2.5,1.6-3.7c0.6-1,1.3-1.9,2.3-2.5c0.9-0.6,1.9-1,3-0.9
			c0.5,0,1,0.1,1.4,0.3c0.4,0.2,0.7,0.4,0.9,0.7c0.2,0.3,0.4,0.7,0.5,1.1c0.1,0.5,0.1,1,0.1,1.5c0,0.9-0.1,1.8-0.3,2.7
			c-0.2,1-0.5,2.1-0.9,3.1c-0.4,1.1-0.8,2.1-1.3,3.2s-1,2.1-1.5,3.2s-1,2-1.5,2.9s-0.9,1.7-1.3,2.4L181.7,358.5z M183.1,348.3
			c0.5-1.4,1-2.8,1.4-4.2c0.2-0.8,0.4-1.7,0.4-2.5c0-0.8-0.1-1.2-0.4-1.2s-0.7,0.5-1.3,1.4c-0.7,1.3-1.4,2.6-1.9,4
			c-0.2,0.6-0.4,1.2-0.5,1.9s-0.3,1.3-0.4,1.9s-0.2,1.3-0.3,1.9s-0.2,1.2-0.3,1.7c-0.2,1.3-0.4,2.5-0.5,3.8l1-2.2l1-2.4
			c0.3-0.8,0.6-1.5,1-2.2S182.9,348.8,183.1,348.3z"/>
		<path class="st2" d="M199,368.4c-0.9,0-1.8-0.2-2.6-0.6c-0.7-0.4-1.4-0.9-1.9-1.5c-0.5-0.7-0.9-1.4-1.1-2.2
			c-0.3-0.8-0.4-1.7-0.4-2.6c0-0.7,0.1-1.4,0.3-2.1c0.2-0.8,0.5-1.5,0.7-2.2c0.2-0.6,0.6-1.3,0.9-1.8c0.4-0.6,0.8-1.1,1.3-1.5
			c0.5-0.4,1-0.8,1.6-1.1c0.6-0.3,1.3-0.4,2-0.4c0.6,0,1.1,0.1,1.7,0.3c0.5,0.2,1,0.5,1.4,0.8c0.4,0.4,0.7,0.8,0.9,1.3
			c0.2,0.5,0.3,1.1,0.3,1.7c0,0.8-0.3,1.5-0.7,2.2c-0.4,0.8-0.9,1.5-1.5,2.1c-0.6,0.6-1.3,1.1-2.1,1.5c-0.8,0.5-1.7,0.8-2.6,1.1
			c0.1,0.3,0.3,0.5,0.5,0.7c0.1,0.2,0.3,0.3,0.5,0.4c0.2,0.1,0.3,0.2,0.5,0.2c0.2,0,0.4,0.1,0.6,0.1c0.7,0,1.4-0.1,2.1-0.4
			c0.7-0.3,1.4-0.6,2.1-1c0.7-0.4,1.3-0.8,1.9-1.3c0.5-0.4,1.1-0.8,1.5-1.3l2.1,2.1c-0.9,1-1.9,1.9-3,2.7c-0.5,0.3-1,0.7-1.5,1
			c-0.5,0.3-1.1,0.6-1.7,0.9c-0.6,0.3-1.2,0.5-1.8,0.6C200.3,368.4,199.6,368.4,199,368.4z M196.8,360.7c0.4,0,0.9-0.1,1.3-0.3
			c1-0.4,1.8-1.1,2.4-2c0.3-0.4,0.5-0.8,0.6-1.3c0-0.4-0.1-0.8-0.3-1.2c-0.1-0.3-0.4-0.4-0.7-0.5c-0.4,0-0.8,0.1-1.2,0.3
			c-0.3,0.2-0.6,0.4-0.8,0.6c-0.2,0.3-0.4,0.6-0.5,0.9c-0.1,0.4-0.3,0.8-0.5,1.3c-0.2,0.4-0.3,0.8-0.3,1.3
			C196.8,360.2,196.8,360.5,196.8,360.7L196.8,360.7z"/>
		<path class="st2" d="M205.8,365c0-0.5,0-1,0.1-1.7s0.1-1.3,0.2-2s0.2-1.4,0.3-2.1s0.3-1.5,0.5-2.3s0.4-1.5,0.5-2.1
			c0.1-0.5,0.3-0.9,0.4-1.4c0.1-0.2,0.2-0.4,0.3-0.6c0.1-0.1,0.2-0.2,0.3-0.3c0.1-0.1,0.3-0.1,0.4-0.2c0.2,0,0.4,0,0.6,0
			c0.2,0,0.4,0,0.6,0c0.1,0,0.3,0.1,0.4,0.2c0.1,0.1,0.1,0.3,0.1,0.5c0,0.2,0,0.5,0,0.8s0,1-0.1,1.7c0,0.6,0,1.3,0,1.9h0.2
			c0.2-0.4,0.5-1,0.8-1.7c0.3-0.6,0.6-1.2,1-1.8c0.3-0.4,0.8-0.8,1.2-1.2c0.5-0.3,1-0.5,1.6-0.5c0.2,0,0.4,0,0.6,0.1
			c0.2,0.1,0.4,0.2,0.5,0.3c0.1,0.1,0.3,0.3,0.4,0.5c0.1,0.2,0.1,0.4,0.1,0.6c0,0.3,0,0.5-0.1,0.8c-0.1,0.3-0.1,0.8-0.3,1.3
			s-0.2,1-0.3,1.3c0,0.3-0.1,0.6-0.1,0.9c0,0.3,0,0.7,0.1,1c0.1,0.2,0.2,0.4,0.3,0.6c0.1,0.1,0.3,0.3,0.4,0.3
			c0.2,0.1,0.3,0.1,0.5,0.1c0.5,0,1-0.1,1.5-0.3c0.5-0.2,1-0.4,1.4-0.7c0.5-0.3,1-0.7,1.5-1.1l-0.2,3.8l-1,0.6
			c-0.4,0.2-0.7,0.4-1.1,0.6c-0.4,0.2-0.8,0.4-1.3,0.5c-0.4,0.1-0.9,0.2-1.3,0.2c-0.7,0-1.4-0.1-2-0.5c-0.5-0.3-0.9-0.8-1.2-1.3
			c-0.3-0.6-0.5-1.2-0.6-1.8c-0.1-0.7-0.3-1.3-0.3-2h-0.3l-2.9,8.1c-0.1,0.3-0.3,0.7-0.4,1c-0.1,0.2-0.3,0.5-0.4,0.7
			c-0.1,0.2-0.3,0.3-0.4,0.4c-0.2,0.1-0.3,0.1-0.5,0.1c-0.4,0-0.8-0.1-1.1-0.3c-0.3-0.2-0.5-0.5-0.6-0.8c-0.1-0.3-0.2-0.7-0.3-1.1
			C205.7,365.8,205.7,365.4,205.8,365z"/>
		<path class="st2" d="M219.7,365c0-0.5,0-1,0.1-1.7s0.1-1.3,0.2-2s0.2-1.4,0.3-2.1s0.3-1.5,0.5-2.3s0.4-1.5,0.5-2.1
			c0.1-0.5,0.3-0.9,0.4-1.4c0.1-0.2,0.2-0.4,0.3-0.6c0.1-0.1,0.2-0.2,0.3-0.3c0.1-0.1,0.3-0.1,0.4-0.2c0.2,0,0.4,0,0.6,0
			c0.2,0,0.4,0,0.6,0c0.1,0,0.3,0.1,0.4,0.2c0.1,0.1,0.1,0.3,0.1,0.5c0,0.2,0,0.5,0,0.8s0,1-0.1,1.7c0,0.6-0.1,1.3-0.1,1.9h0.2
			c0.2-0.4,0.5-1,0.8-1.7c0.3-0.6,0.6-1.2,1-1.8c0.3-0.4,0.8-0.8,1.2-1.2c0.5-0.3,1-0.5,1.6-0.5c0.2,0,0.4,0,0.6,0.1
			c0.2,0.1,0.4,0.2,0.5,0.3c0.1,0.1,0.3,0.3,0.4,0.5c0.1,0.2,0.1,0.4,0.1,0.6c0,0.3,0,0.5-0.1,0.8c-0.1,0.3-0.1,0.8-0.3,1.3
			s-0.2,1-0.3,1.3c-0.1,0.3-0.1,0.6-0.1,0.9c0,0.3,0,0.7,0.1,1c0.1,0.2,0.2,0.4,0.3,0.6c0.1,0.1,0.3,0.3,0.4,0.3
			c0.2,0.1,0.3,0.1,0.5,0.1c0.5,0,1-0.1,1.5-0.3c0.5-0.2,1-0.4,1.4-0.7c0.5-0.3,1-0.7,1.5-1.1l-0.2,3.8l-1,0.6
			c-0.4,0.2-0.7,0.4-1.1,0.6c-0.4,0.2-0.8,0.4-1.3,0.5c-0.4,0.1-0.9,0.2-1.3,0.2c-0.7,0-1.4-0.1-2-0.5c-0.5-0.3-0.9-0.8-1.2-1.3
			c-0.3-0.6-0.5-1.2-0.6-1.8c-0.1-0.7-0.3-1.3-0.3-2h-0.3l-2.9,8.1c-0.1,0.3-0.3,0.7-0.4,1c-0.1,0.2-0.2,0.5-0.4,0.7
			c-0.1,0.2-0.3,0.3-0.4,0.4c-0.2,0.1-0.4,0.1-0.5,0.1c-0.4,0-0.8-0.1-1.1-0.3c-0.3-0.2-0.5-0.5-0.6-0.8c-0.2-0.3-0.3-0.7-0.3-1.1
			C219.7,365.8,219.7,365.4,219.7,365z"/>
		<path class="st2" d="M240,368.7l0.4-2c-0.6,0.5-1.2,0.9-1.8,1.3c-0.6,0.3-1.2,0.5-1.8,0.5c-0.5,0-1-0.1-1.5-0.3
			c-0.5-0.2-0.9-0.5-1.3-0.9c-0.4-0.4-0.7-0.9-0.9-1.5c-0.2-0.6-0.4-1.3-0.3-1.9c0-0.9,0.1-1.7,0.2-2.6l0.5-2.9
			c0.1-0.9,0.4-1.8,0.7-2.7c0.3-0.7,0.6-1.3,0.9-2c0.2-0.5,0.6-0.9,1.1-1.1c0.4-0.2,0.9-0.4,1.4-0.4c0.4,0,0.7,0.1,1,0.3
			c0.3,0.2,0.4,0.5,0.4,0.9c0,0.1,0,0.3,0,0.4c0,0.2-0.1,0.3-0.1,0.5c-0.2,0.6-0.4,1.2-0.5,1.8c-0.1,0.7-0.3,1.6-0.5,2.7
			s-0.4,2-0.5,2.7c-0.1,0.6-0.2,1.2-0.2,1.8c0,0.3,0,0.5,0,0.8c0,0.2,0.1,0.5,0.2,0.7c0.1,0.2,0.2,0.4,0.4,0.5
			c0.2,0.1,0.4,0.2,0.6,0.2c0.4,0,0.8-0.2,1.1-0.5c0.3-0.4,0.6-0.8,0.8-1.3c0.2-0.5,0.4-1,0.6-1.5c0.1-0.4,0.2-0.9,0.3-1.3l1.3-6.1
			c0.1-0.4,0.2-0.7,0.5-1c0.2-0.3,0.5-0.5,0.8-0.7c0.3-0.2,0.6-0.3,0.9-0.4c0.3-0.1,0.6-0.1,0.9-0.1c0.3,0,0.6,0.1,0.9,0.2
			c0.2,0.2,0.4,0.4,0.3,0.7c0,0.1,0,0.2,0,0.3c-0.1,0.3-0.1,0.7-0.2,1.2s-0.2,1-0.3,1.6s-0.3,1.5-0.5,2.6s-0.4,2-0.5,2.7
			c-0.3,1.6-0.6,3.3-0.8,5.2c0.4-0.2,0.7-0.4,1.1-0.7c0.4-0.3,0.9-0.7,1.3-1.1c0.5-0.5,1-1,1.6-1.7c0.6-0.7,1.2-1.5,1.9-2.6l0.8,3.6
			c-0.2,0.4-0.5,0.7-0.8,1c-0.3,0.4-0.6,0.7-1,1.1c-0.5,0.5-0.9,0.8-1.2,1l-1.2,0.9c-0.2,0.2-0.9,0.7-2.1,1.5
			c-0.3,0.3-0.6,0.6-0.6,1.1c-0.1,0.5-0.2,1.5-0.4,2.9c-0.1,0.4-0.1,0.7-0.1,0.9c-0.1,0.5-0.1,1-0.2,1.5c-0.1,0.5-0.2,1.1-0.3,1.6
			c-0.1,0.6-0.3,1.1-0.5,1.6c-0.2,0.5-0.5,1-0.8,1.5c-0.3,0.5-0.7,0.9-1.1,1.3c-0.4,0.4-0.9,0.7-1.5,0.9c-0.6,0.2-1.2,0.3-1.9,0.3
			c-0.5,0-1-0.1-1.5-0.2c-0.5-0.1-0.9-0.3-1.3-0.6c-0.4-0.3-0.8-0.6-1-1.1c-0.3-0.5-0.4-1-0.4-1.6c-0.1-1.3,0.3-2.5,0.9-3.6l0.8-1.5
			c0.2-0.3,0.4-0.7,0.8-1.2c0.3-0.5,0.7-0.9,1.1-1.4c0.8-0.9,1.4-1.5,1.9-2.1S239.3,369.3,240,368.7z M240.1,372.6
			c-0.9,0.7-1.7,1.6-2.2,2.6c-0.7,1.1-1.3,2.4-1.8,3.6c-0.4,1-0.2,1.6,0.5,1.6c0.2,0,0.5,0,0.7-0.1c0.2-0.1,0.4-0.2,0.6-0.4
			c0.2-0.2,0.3-0.4,0.4-0.5c0.2-0.3,0.3-0.5,0.4-0.8c0.1-0.4,0.3-0.7,0.4-1.1s0.3-0.8,0.4-1.4c0.1-0.3,0.2-0.7,0.2-1
			c0.1-0.4,0.1-0.9,0.2-1.4S240.1,372.8,240.1,372.6L240.1,372.6z"/>
		<path class="st2" d="M265,365.3c1,0,2-0.1,3-0.3c0.8-0.2,1.7-0.5,2.4-0.9c0.7-0.3,1.4-0.8,2-1.2c0.6-0.5,1.1-1,1.6-1.5l0.2,3.6
			c-0.8,1-1.8,1.8-2.9,2.4c-0.6,0.3-1.2,0.6-1.8,0.8c-0.6,0.2-1.3,0.3-1.9,0.3c-0.1,0-0.2,0-0.3,0l-0.6-0.1l-1.2-0.2l-2.1-0.4v0.3
			c0,1.8-0.2,3.6-0.5,5.4c-0.3,1.4-0.7,2.8-1.4,4.1c-0.5,1-1.1,1.9-2,2.6c-0.6,0.6-1.4,0.9-2.3,0.9c-0.5,0-1.1-0.1-1.5-0.5
			c-0.4-0.3-0.8-0.7-1-1.2c-0.3-0.6-0.4-1.2-0.5-1.8c-0.1-0.7-0.2-1.5-0.1-2.2c0-0.5,0.1-1,0.2-1.5c0.2-0.6,0.3-1.2,0.6-1.8
			c0.2-0.6,0.5-1.3,0.8-1.9s0.6-1.3,0.9-1.9c0.7-1.4,1.6-2.8,2.5-4.3c0.1-0.8,0.3-1.6,0.4-2.5s0.3-1.7,0.5-2.5
			c0.2-0.9,0.5-1.8,0.9-2.6c0.3-0.8,0.8-1.5,1.3-2.2c1-1.2,2.5-1.9,4-1.8c0.6,0,1.2,0.1,1.8,0.3c0.6,0.2,1.1,0.5,1.5,0.9
			c0.4,0.4,0.8,1,1,1.6c0.3,0.8,0.4,1.5,0.4,2.3c0,0.8-0.1,1.6-0.3,2.3c-0.3,0.8-0.7,1.5-1.3,2.1c-0.5,0.6-1.2,1.2-1.8,1.7
			c-0.8,0.6-1.6,1-2.5,1.4L265,365.3z M257.1,375.5c0,0.1,0,0.3,0.1,0.4c0,0.2,0.1,0.4,0.2,0.6c0.1,0.2,0.2,0.4,0.3,0.5
			c0.1,0.1,0.3,0.2,0.5,0.2c0.2,0,0.4-0.1,0.5-0.3c0.1-0.3,0.2-0.5,0.3-0.8c0.1-0.4,0.1-0.7,0.2-1.1c0-0.4,0.1-0.9,0.1-1.3
			s0-0.9,0-1.3s0-0.8,0-1.1c0-0.6,0.1-1.1,0.1-1.5s0-0.7,0-1s0-0.6,0-0.8c-0.2,0.4-0.4,0.8-0.6,1.2c-0.2,0.5-0.4,1-0.5,1.5
			s-0.3,1-0.5,1.5s-0.3,1-0.4,1.4s-0.2,0.8-0.2,1.1C257.1,375.1,257.1,375.3,257.1,375.5L257.1,375.5z M262.9,363.7
			c0.6-0.3,1.2-0.6,1.7-1c0.4-0.4,0.8-0.8,1.2-1.2c0.1,0,0.5-0.5,1-1.4c0.3-0.6,0.5-1.2,0.7-1.9c0.1-0.3,0.1-0.5,0.1-0.8
			c0-0.3,0-0.6-0.1-0.9c-0.1-0.3-0.2-0.5-0.4-0.7c-0.2-0.2-0.5-0.3-0.8-0.3c-0.4,0-0.7,0.1-1,0.3c-0.3,0.2-0.6,0.5-0.8,0.9
			c-0.2,0.4-0.4,0.8-0.5,1.3c-0.1,0.5-0.3,1.1-0.5,1.9c-0.2,0.7-0.3,1.3-0.4,2C263,362.5,263,363.1,262.9,363.7L262.9,363.7z"/>
		<path class="st2" d="M282,365c-0.5,0.4-0.9,0.8-1.5,1.1c-0.6,0.4-1.2,0.8-1.9,1.1c-0.7,0.3-1.3,0.6-2,0.9c-0.6,0.2-1.3,0.3-2,0.3
			c-0.5,0-1-0.1-1.4-0.2c-0.4-0.1-0.7-0.4-0.9-0.6c-0.2-0.3-0.4-0.6-0.5-1c-0.1-0.4-0.2-0.9-0.2-1.3c0-0.8,0.1-1.6,0.2-2.4
			c0.1-1.1,0.3-2.1,0.6-3.2c0.1-0.5,0.4-1.5,0.9-3.1c0.4-1.3,0.7-2.1,0.8-2.5c0.1-0.3,0.2-0.5,0.5-0.7c0.2-0.2,0.5-0.4,0.8-0.5
			c0.3-0.1,0.6-0.2,0.9-0.3c0.3-0.1,0.5-0.1,0.8-0.1c0.3,0,0.7,0.1,0.9,0.3c0.2,0.2,0.3,0.4,0.2,0.7c0,0.3-0.1,0.7-0.2,1
			c-0.1,0.4-0.2,0.9-0.4,1.5s-0.4,1.3-0.6,2.1c-0.2,0.7-0.4,1.5-0.6,2.2c-0.1,0.6-0.2,1.2-0.4,1.8c-0.1,0.5-0.2,1.1-0.2,1.7
			c0,0.4,0,0.8,0.2,1.2c0.1,0.3,0.4,0.5,0.7,0.4c0.5,0,0.9-0.2,1.3-0.4c0.5-0.3,1-0.6,1.5-1c0.5-0.4,1-0.8,1.4-1.2l1.2-1L282,365z
			 M274.8,348c0-0.3,0.1-0.6,0.2-0.9c0.1-0.3,0.3-0.6,0.5-0.9c0.3-0.3,0.6-0.5,1-0.7c0.5-0.2,1-0.3,1.5-0.3c0.4,0,0.7,0,1.1,0.1
			c0.3,0.1,0.6,0.2,0.9,0.4c0.3,0.2,0.5,0.4,0.6,0.7c0.1,0.3,0.2,0.7,0.2,1c0,0.4-0.1,0.7-0.2,1.1c-0.1,0.3-0.3,0.7-0.6,0.9
			c-0.3,0.3-0.6,0.5-1,0.7c-0.4,0.2-0.9,0.3-1.4,0.3c-0.8,0.1-1.5-0.2-2.1-0.7C275,349.3,274.8,348.7,274.8,348z"/>
		<path class="st2" d="M286.4,368.4c-0.9,0-1.8-0.2-2.6-0.6c-0.7-0.4-1.4-0.9-1.9-1.5c-0.5-0.7-0.9-1.4-1.1-2.2
			c-0.3-0.8-0.4-1.7-0.4-2.6c0-0.7,0.1-1.4,0.3-2.1c0.2-0.8,0.5-1.5,0.7-2.2c0.2-0.6,0.5-1.3,0.9-1.8c0.4-0.6,0.8-1.1,1.3-1.5
			c0.5-0.4,1-0.8,1.6-1.1c0.6-0.3,1.3-0.4,2-0.4c0.6,0,1.1,0.1,1.7,0.3c0.5,0.2,1,0.5,1.4,0.8c0.4,0.4,0.7,0.8,0.9,1.3
			c0.2,0.5,0.3,1.1,0.3,1.7c0,0.8-0.3,1.5-0.7,2.2c-0.4,0.8-0.9,1.5-1.5,2.1c-0.6,0.6-1.3,1.1-2.1,1.5c-0.8,0.5-1.7,0.8-2.6,1.1
			c0.1,0.2,0.3,0.5,0.5,0.7c0.1,0.2,0.3,0.3,0.5,0.4c0.2,0.1,0.3,0.2,0.5,0.2c0.2,0,0.4,0.1,0.6,0.1c0.7,0,1.4-0.1,2-0.4
			c0.7-0.3,1.4-0.6,2.1-1c0.7-0.4,1.3-0.8,1.9-1.3c0.5-0.4,1.1-0.8,1.5-1.3l2.1,2.1c-0.9,1-1.9,1.9-3,2.7c-0.5,0.3-1,0.7-1.5,1
			c-0.5,0.3-1.1,0.6-1.7,0.9c-0.6,0.3-1.2,0.5-1.8,0.6C287.7,368.4,287,368.4,286.4,368.4z M284.2,360.7c0.4,0,0.9-0.1,1.3-0.3
			c0.5-0.2,0.9-0.5,1.3-0.8c0.4-0.4,0.8-0.8,1.2-1.2c0.3-0.4,0.5-0.8,0.6-1.3c0-0.4-0.1-0.8-0.3-1.2c-0.1-0.3-0.4-0.4-0.7-0.5
			c-0.4,0-0.8,0.1-1.2,0.3c-0.3,0.2-0.6,0.4-0.8,0.6c-0.2,0.3-0.4,0.6-0.5,0.9c-0.1,0.4-0.3,0.8-0.5,1.3c-0.2,0.4-0.3,0.8-0.3,1.3
			C284.2,360.2,284.2,360.5,284.2,360.7z"/>
		<path class="st2" d="M374.1,93.4C333.5,63.5,279.8,47,222.9,47S112.4,63.5,71.7,93.4C29.3,124.7,5.9,166.8,5.9,212.1
			c0,30.1,10.7,59.6,30.9,85.1c13.4,16.9,31.4,32.4,52,44.8c-0.5,2.2-0.7,4.5-0.7,6.8V372c0,17.7,14.3,32,32,32h205.9
			c17.7,0,32-14.3,32-32v-23.2c0-2.3-0.2-4.6-0.7-6.8c20.7-12.4,38.6-27.8,52-44.8c20.2-25.6,30.9-55,30.9-85.1
			C440,166.8,416.6,124.7,374.1,93.4z M407.6,296c-13.6,17.2-31.7,32.6-52.8,45c0.7,2.5,1,5.1,1,7.8V372c0,16.6-13.4,30-30,30H120
			c-16.6,0-30-13.4-30-30v-23.2c0-2.6,0.3-5.2,1-7.8c-21-12.4-39.2-27.9-52.8-45c-19.9-25.3-30.4-54.3-30.4-83.9
			c0-44.6,23.1-86.2,65.1-117c40.3-29.7,93.6-46,150-46S332.7,65.4,373,95c42,30.9,65,72.4,65,117.1
			C438,241.8,427.5,270.8,407.6,296z"/>
	</g>
	<g>
		<path class="st3" d="M340.3,131.5l-17.7-6.6c-11.3-4.1-20.7-12.3-26.3-23l-8.1-17.7c-5.2-11.4-18.7-16.4-30.1-11.2c0,0,0,0,0,0
			l-16,7.3c-11.1,4.9-23.6,5.4-35.1,1.6L185,73.8c-11.7-4.4-24.8,1.6-29.2,13.4c0,0,0,0,0,0l-7.1,19c-0.3,1-0.7,1.9-1.1,2.9
			c-4.7,11.6-13.6,20.9-25,26.1l-15.1,6.9c-11.4,5.2-16.4,18.7-11.2,30.1c0,0,0,0,0,0.1l7.1,15.4c5,10.8,5.8,23.1,2.3,34.4
			l-7.6,20.4c-4.4,11.8,1.6,24.8,13.4,29.2l17.9,6.7c11.5,4.3,21,12.9,26.5,23.9l9.4,20.5c5.2,11.4,18.7,16.4,30.1,11.2c0,0,0,0,0,0
			l19.1-8.8c10.9-5,23.4-5.8,34.9-2.3l17.3,6.4c11.8,4.4,24.8-1.7,29.2-13.4c0,0,0,0,0,0l5.7-15.3c4.3-11.4,12.8-20.8,23.7-26.2
			l20.7-9.5c11.4-5.2,16.4-18.7,11.2-30.1c0,0,0,0,0,0l-9.1-19.8c-4.9-11.1-5.5-23.7-1.6-35.2l7.1-19.2
			C358,148.9,352.1,135.9,340.3,131.5z"/>
		<path class="st4" d="M122,202.4c0,57.1,46.3,103.4,103.4,103.4s103.4-46.3,103.4-103.4c0-57.1-46.3-103.4-103.4-103.4
			C168.3,99,122,145.3,122,202.4C122,202.4,122,202.4,122,202.4z"/>
	</g>
	<g>
		<path class="st0" d="M327.3,262.2c-2.3-1.1-2.6-3-2.8-5c0-0.2,0.1-0.3,0.1-0.5h-0.1c0-1.7-0.4-3.4-1.4-4.8
			c-2.8-3.6-9.7-3.7-13.9-4.3c-10.1-1.4-20.6-0.3-30.7-1.7c-1.9-0.3-4.1-0.9-5.8-0.9l-139.9,8.1c-11.1,4.7-0.3,14.2,6.3,16.8
			c8.5,3.5,17.3,6,26.3,7.6c46.1,7.3,70.6,3.7,81.7,4.1c0.7,0.9,1.5,1.8,2.4,2.5c0.8,0.5,1.6,0.6,2.4,1.2s1.1,1.3,1.8,1.8
			c3,2,7.8,2.6,11.3,2.9c2.7,0.2,5.4,0.2,8.1,0c2-0.3,4-0.5,6-0.6c2,0.7,4,1.8,6.5,1.9c3,0.2,6.2,0.3,8.8-0.9c0.5-0.1,1-0.3,1.6-0.5
			c2.2-0.8,4.3-2.8,6.6-3.1c3-0.4,5.5-0.1,8.4-1c5-1.4,9.9-3.5,14.4-6.1c5-3.1,3.1-8.3,5.2-13C331.9,263.3,330.1,263.5,327.3,262.2z
			 M246.7,281.7c-0.1-0.1-0.3-0.3-0.4-0.5c0.2,0.1,0.4,0.3,0.6,0.4L246.7,281.7z"/>
		<path class="st5" d="M319.9,255.5c-0.1-0.3-0.3-0.6-0.6-0.9c-0.8-0.7-1.7-1.2-2.6-1.5c-2.6-0.7-5.2-1-7.9-0.8
			c-4.9,0.2-9.9,1.7-14.8,1.7l-161.5,0.3c-7.4,16.4,29.8,20.3,38.6,22.2c8.9,1.8,18,2.7,27.1,2.6c9.3,0,18.2,1.6,27.6,1.1
			c4.8-0.2,9.6-0.2,14.4,0c2.4,0.1,5.1-0.2,7.4,0.2c2.1,0.4,3.1,2.1,4.5,3.6c1.5,1.6,3.4,2.8,5.4,3.5c4.7,2,11,1.7,15.9,0.4
			c5.5-1.5,8.9,2.4,14.2,2.6c2.6,0,5.2-0.7,7.4-2c2.4-1.3,3.7-2.6,6.6-2.9c5.1-0.3,10.2-1.3,15-3c4.1-1.6,8.9-4.2,10.3-8.6
			c0.6-1.9,0.6-3.7,1-5.7c0.5-2.1,1-3.6-0.2-5.6c-0.9-1.6-2.4-2.8-4.1-3.5c-0.8-0.3-1.6-0.6-2.3-1.1
			C320.5,257.5,320.3,256.4,319.9,255.5z"/>
		<path class="st6" d="M314.7,257.9c-0.9,0.1-1.8,0.4-2.7,0.5c-2.3,0.5-4.7-0.1-7-0.1l-5.8,0.2l-13.3,0.4l-23.4,0.7
			c-1.1,0-3.4-0.4-4.4,0.1c-4.7,2.4-10.4,3.2-15.3,5.2s-9.5,4.2-14.2,6.4l-0.9,0.4c-1.7-1.3-4.5-1.4-6.8-1.7
			c-8.7-1.1-17.3-3.2-26-3.9c-10.2-0.9-20.4-0.2-30.5-0.8c-9.3-0.5-19.3-2.5-27-6.5l-0.8-0.2c-0.8,0.3-1.1,2.3-1,3.2
			c0.1,1.3,1,2,2.2,2.7c1.9,1,4,2,6,3c4.4,2.2,9.1,3.7,14,4.4c5.5,0.9,15,3.3,20.7,3.6c16.6,0.8,33.1,2.9,49.8,2.9c4,0,8-0.1,12-0.2
			c1.8-0.1,3.3-0.4,4.9,0.5s2.6,2.4,4,3.4c1.7,1.4,3.7,2.4,5.8,3.2c4.9,1.7,10.2,1.9,15.2,0.6c2.3-0.8,4.8-0.7,6.9,0.5
			c2.3,1,4.6,1.6,7.1,2c2.7,0.5,5.4,0.5,8.1,0c2.3-0.5,4.3-1.6,6.6-2.5c4.7-1.8,10.1-1.2,15-2.9c4.2-1.5,8.5-3.5,11.5-7.2
			s3.7-10.2,0.3-13.9c-1.7-1.8-3.8-3.1-6.1-3.8C317.8,257.7,316.2,257.6,314.7,257.9z"/>
		
			<linearGradient id="SVGID_2_" gradientUnits="userSpaceOnUse" x1="119.8769" y1="207.817" x2="332.2513" y2="207.817" gradientTransform="matrix(1 0 0 -1 0 450)">
			<stop  offset="0" style="stop-color:#E3B47D"/>
			<stop  offset="0.99" style="stop-color:#A15018"/>
		</linearGradient>
		<path class="st7" d="M332.1,211.6h-11c-2.3,1.2-7.9,0.5-11.3,0.4c-10.3-0.4-20.6-1.7-31-2.1c-15.4-0.6-31.2,0.3-46.6,1.1
			c-0.9-1.2-2.2-1.8-4.4-2.2c-6.6-0.9-13.6-0.6-20.3-1.4c-16.6-1.9-35-1.3-51.6,1c-7.2,1-14.7,0.4-21.8,1.5
			c-3.7,0.5-8.2,2.1-11.4,2.1l-2.4-0.1c-1.6,4.8,1.2,10.9,2.1,15.5c0.9,4.7,2.3,9.4,4.1,13.9c1.8,4.3,5.2,15.2,10.1,19.5
			c7.6,9.8,44.5,17.3,89,17.3c42.6,0,78.3-6.9,87.8-16.1c3.7-3,9.9-14,12.1-20.8c1.5-4.7,2.4-9.7,3.9-14.5
			C331.1,221.5,332.8,215.7,332.1,211.6z"/>
		<path class="st8" d="M332.1,211.6h-11c-2.3,1.2-7.9,0.5-11.3,0.4c-4-0.2-8-0.5-12-0.8c-1.4,8-4.5,15.7-7.8,20.4
			c-9.3,13.1-23.7,20.5-38.2,25.4c-58.1,19.7-108.6,1.6-115.4-1.6c-1.3-0.6-2.9-1.2-4.6-1.9c1.2,2.7,2.9,5.1,5,7.2
			c7.6,9.8,44.5,17.3,89,17.3c42.6,0,78.3-6.9,87.9-16.1c3.7-3,9.9-14,12.1-20.8c1.5-4.7,2.4-9.7,3.9-14.5
			C331.1,221.5,332.8,215.7,332.1,211.6z"/>
		<path class="st9" d="M276.8,209.9l-21.2-17.6c-32.5-1.7-66.3,4.5-98.1,11.2c-9.2,2-21.1,4.5-29,10c-6.2,4.3-4.4,12-2.1,18
			c5.4,13.7,12.4,17.3,29.3,24.9c14,6.3,33.9,3,49.7,1.4s30.7-5.5,44.9-12.9C261.6,239.3,278.5,224,276.8,209.9z"/>
		<path class="st9" d="M188.5,207.5c-13-0.6-26.9-1.5-39.8-0.2c-6.5,0.6-20.5,1.6-21.7,9.4l-0.5,2.1c0,17.1,8.1,26.2,24.3,30.5
			c15.4,4.1,32.7,5,48.4,0.9c13.2-3.4,30.6-9.9,38.7-21.7C252.1,208,198.5,208,188.5,207.5z"/>
		
			<linearGradient id="SVGID_3_" gradientUnits="userSpaceOnUse" x1="120.0043" y1="243.0062" x2="332.1147" y2="243.0062" gradientTransform="matrix(1 0 0 -1 0 450)">
			<stop  offset="0" style="stop-color:#CF8A4F"/>
			<stop  offset="1" style="stop-color:#99531E"/>
		</linearGradient>
		<path class="st10" d="M332,213.5c-0.4,2.6-1.6,5-3.4,6.8c-4.8,4.8-13.7,7-20,8.7c-21.8,6.1-44.9,7.9-67.4,8.7
			c-5,0.2-9.9,0.2-14.9,0.2c-24.1,0-48.7-1.5-72.3-6.5c-8.4-1.8-30.8-5.3-33.7-15.9c-1.5-5.5,4.7-11.5,8.9-14.2
			c5.2-3.2,11.2-5,16.9-6.7c4.8-1.4,9.7-2.1,14.5-4.2s9.1-5.3,14.1-7.2c10.3-4,21.3-6.1,32.4-6.1c5.4,0,10.5-0.2,15.8-0.7
			c33.4-3.1,65.3,8.6,75.6,12.6c7,2.7,15.4,3.5,25.5,9.8C329.1,202.1,332.8,207.8,332,213.5z"/>
		
			<linearGradient id="SVGID_4_" gradientUnits="userSpaceOnUse" x1="120.0343" y1="244.386" x2="332.1147" y2="244.386" gradientTransform="matrix(1 0 0 -1 0 450)">
			<stop  offset="0" style="stop-color:#99531E"/>
			<stop  offset="1" style="stop-color:#86401B"/>
		</linearGradient>
		<path class="st11" d="M332,213.2c-0.4,2.6-1.6,5-3.4,6.8c-4.8,4.8-14.6,6.1-20.9,7.9c-21.8,6.1-43.9,6.7-66.4,7.5
			c-5,0.2-9.9,0.2-14.9,0.2c-24.1,0-48.9-0.9-72.6-5.9c-8.4-1.8-30.6-3.8-33.5-14.4c-1.5-5.5,4.7-11.5,8.9-14.1
			c5.2-3.2,11.2-5,16.9-6.7c4.8-1.4,9.7-2.1,14.5-4.2s9.1-5.3,14.1-7.2c10.3-4,21.3-6.1,32.4-6.1c5.4,0,10.5-0.2,15.8-0.7
			c33.4-3.1,65.3,8.6,75.6,12.6c7,2.7,15.4,3.5,25.5,9.8C329.1,201.7,332.8,207.4,332,213.2z"/>
		<path class="st12" d="M324,198.5c-10.1-6.3-18.4-7.1-25.5-9.8l-1.8-0.7c2.7,4.1,2,10-0.9,14.3c-4.5,6.8-9.9,10.7-16.9,14.3
			c-9,4.7-18.4,7-28.2,8.8c-12.1,2.2-24.9,1.3-37.2,2.5c-8.7,0.9-17.3,2.7-26,2.6c-6.7-0.1-13.4-1-20.2-1.4c-4.8-0.2-9.7,0-14.6,0.2
			l1.1,0.2c23.7,5,48.4,5.9,72.6,5.9c5,0,9.9-0.1,14.9-0.2c22.5-0.7,44.7-1.4,66.4-7.5c6.3-1.8,16.1-3.1,20.9-7.9
			c1.9-1.8,3.1-4.2,3.4-6.8C332.8,207.4,329.1,201.7,324,198.5z"/>
		<path class="st9" d="M262.9,182l-2.1-0.5c-8.1-5.5-24-3.6-33.6-2.6c-15.8,1.6-32.9,0.9-47.5,6.7c-6.6,2.6-9.8,4.2-16.5,6.4
			c-7.3,2.4-15.1,3.4-22.2,6.5c-5.1,2.2-21.5,4.9-16,14.5c3.6,6.3,12,6.7,18.1,7.7c16.2,2.7,32.6,4,49,4.2c8.8,0,16.9-2.3,25.3-3.6
			s16.7-2.9,24.8-6.1c7-2.8,15-5.9,19.8-12C266.1,198,269.9,186.7,262.9,182z"/>
		<path class="st9" d="M238.1,187.2l-2.1-2.6c-6.6-3.9-15.7-1.7-22.7-0.5c-7.8,1.2-15.6,2.8-23.2,4.8c-8.3,2.3-15.8,5.8-23.7,8.6
			s-16,3.3-23.9,5.6c-5.9,1.7-16.8,6.1-7.3,10.6c6.7,3.2,16,2.4,23.4,3.9c16.4,3.3,33.1,2.8,49.1-2.9
			C215.8,211.8,244.6,200.1,238.1,187.2z"/>
		<path class="st13" d="M326.5,224.6c-0.8-5.5-3.4-10.7-7.3-14.7c-3.6-4-9-5.6-14-7.4c-8.2-2.9-15.8-6.4-24.4-8.1
			c-17.6-3.5-34.7-0.8-52.4,0.2c-27.6,1.5-54.9,3.4-82,8.6c-6.3,1.2-11.8,2.7-16.2,7.6c-2.6,2.9-6.3,9.7-5.9,13.1l-1,3.7
			c-0.4,2.5-0.5,4.8,2.3,4.6c0.9-0.1,1.6-1.3,2.4-1.6c1.9-0.6,6-1.4,7.6,0s1.7,4.4,2.8,6.3c1.6,3,5.3,5,8.5,3.8
			c1.9-0.7,2.5-2,4.7-1.2c1.6,0.6,2.9,1.4,4.6,1.9c4.8,1.4,2.2,5.4,3.5,9.3c1.5,4.6,7.8,3.7,10.2,0.5c1-1.4,1.2-2.5,2.8-3.3
			s3.2-0.5,4.6-1.4s2-2.6,3.9-2.9c4.5-0.8,7.2,6.7,7,10.1c-0.3,5-2.3,8.7,0.4,13.7c1.6,3.1,5.3,4.3,8.4,2.7c1.3-0.7,2.3-1.7,2.9-3.1
			c2.2-5.1,0-9.5-2-14c-0.8-1.7-2.2-5.5,1-6c2.5-0.4,3.1,2.6,6.3,1.3c0.9-0.4,1.4-1.5,2.4-1.9c1.3-0.4,3,0.4,4.3-0.1
			c2-0.6,3.3-2.4,5.4-2.9c2.7-0.6,5.5-0.8,8.3-0.7c3.3,0.2,5.9,2.8,9.2,2.7c1.8,0,3.4-1.2,5.3-1s3.5,1.6,5.5,1.8
			c4,0.3,6.6-1.9,8.3,3c1.1,3.1,1.5,6.5,3.2,9.3c1.8,3,6.5,3.8,9.3,1.6c3.5-2.6,1.8-8.2,4.7-10.3c1.6-1.1,4,0.1,5.5-1
			s0.8-2.6,3.6-2.7c1.9-0.1,3.3,1.3,5.2,0.7c2.1-0.7,2.2-2.2,3.5-3.4c3.5-3.4,4,0.4,4.8,3c0.9,3,2.7,6.2,6.1,6.8
			c2.6,0.5,5.2-0.8,6.4-3.2c1.3-2.5-0.2-5.3,0.6-7.4c1-2.6,3.6-1.9,5.4-3c2.2-1.4,1.7-4.5,4-5.7c4.1-2.3,7.8,3.4,10,5.6
			C326,233.9,327.5,230,326.5,224.6z"/>
		<path class="st13" d="M323.7,228.4c-0.9-5-0.7-11.5-4.5-15.3c-2.5-2.4-4-5.2-7.3-6.7c-3-1.3-6.2-1.9-9.5-1.9
			c-5.5-0.3-11.2-0.9-16.7-1c-8.1,0-15.8,1.9-23.6,3.6c-2.1-4.3-4.8-7.9-10-9.8c-5.7-2.1-12.4-2.5-18.4-3.2
			c-9.5-1-19.1-2.1-28.7-2.5c-11.9-0.5-23.8-0.3-35.7,0.6c-8.8,0.8-17.5,1.9-26.2,3.3c-0.2,0.3-0.6,0.5-0.9,0.7
			c-4.4,1.8-8.6,4-12.6,6.8c-2.2,1.5-4,3.4-5.3,5.8c-0.3,0.5-0.6,1-0.9,1.5c0,0.8,0.1,1.5,0.1,2.2c0.2,5.5-2.1,10.7-0.5,16.1
			c0.1,0.4,0.3,0.9,0.4,1.3l-0.2,0.8c1.1-0.2,1.7-1,2.7-1.6c1.5-0.8,3.4-0.3,5-0.7c1.1-0.3,1.7-1.1,3.1-0.9c2,0.2,3,1.8,3.9,3.4
			c1.8,3.1,2.9,8.6,7.5,8.3c1.9-0.1,3.5-1.6,5.6-1.4c1.7,0.1,2.9,1.3,4.5,1.8s4,0,5.2,1.3s1,3.5,1.3,5c0.4,3.2,1.5,5.8,5.1,4
			c2.7-1.4,2.1-5,4.9-5.9c2.2-0.7,4.5,1.6,7.2,0.5c2.5-1,3.4-1.8,5.9,0.6c1.6,1.6,3.7,3,4.1,5.4c0.9,5.2-0.6,11.2,1.2,16.3
			c0.8,2.2,3.7,3.7,5.6,2.1s2.6-4.7,2.7-6.9c0-2.6-0.3-5.2-1-7.7c-0.5-2.1-2-4.9-1.7-7.1c0.4-3.6,4.1-0.4,5.8-0.2
			c0.9,0.1,2.5-0.9,3.4-1.3c1-0.6,2.2-0.9,3.3-1c2.6-0.3,4-2.2,6.5-3s5.2-1.8,7.7-1.4s4.7,2.3,7.3,2.9c4.1,1,7.9-0.9,11.7,0.6
			c1.7,0.6,3.1,1.8,5.1,1.4c1.6-0.2,3.1-1.9,4.8-1.7c4.1,0.5,3.9,5.7,4.8,8.5c1.1,3.3,4,5.6,7.5,5.7c2.6,0.1,3.5,0.1,4.3-2.4
			c0.5-1.5-0.3-4.3,0.3-5.5c1-2.1,3-0.9,4.5-1.3c1.8-0.5,2.5-1.8,3.8-3c2-1.9,2.4-0.7,4.7-1.1c1.8-0.3,2.5-1.8,3.4-3.3
			c2.5-3.6,7.5-4.8,9.3-0.2c1.1,2.8,4.4,13.4,9.4,8.6c1.8-1.7,1.7-4.9,2-7c0.4-3.5,1.5-3.6,4.5-4.7c2.6-1,2.4-3.2,4-5
			c1.8-2.1,4.8-0.7,6.9,0.3c1.9,0.9,3.4,4,5.3,4.4c0.2-0.5,0.4-1.1,0.5-1.5L323.7,228.4z"/>
		
			<linearGradient id="SVGID_5_" gradientUnits="userSpaceOnUse" x1="118.2337" y1="228.9415" x2="333.8907" y2="228.9415" gradientTransform="matrix(1 0 0 -1 0 450)">
			<stop  offset="0" style="stop-color:#7C3A20"/>
			<stop  offset="0.99" style="stop-color:#652010"/>
		</linearGradient>
		<path class="st14" d="M332.2,220.8c0.2-4.6,2.4-9,1.4-13.7c-1.6-7.6-12.2-12.2-18.5-15.1c-8-3.7-16.6-5.1-24.9-7.7
			c-4.3-1.4-8.9-2.5-13.2-3.5s-7.7-1.9-12.2-3c-9.5-2.3-19-4.7-29-3.7c-5.1,0.5-10.1-0.6-15-0.8s-10,1.2-14.9,1.7s-9.9,0.7-14.7,1.2
			c-4.8,0.8-9.4,2.1-14,3.7c-4.3,2-9.1,3.6-13.5,5.6c-4,1.8-7.4,3.1-11.6,5c-4.9,2.2-10.6,3.2-15.7,5.3c-2.4,1-21.2,7.3-17.9,21.7
			c0.6,2.6-0.8,11.8,1.2,12.9s3.6-0.8,4.8-2c2.1-2,2.5-2.7,5.3-1.1c2.2,1.3,5,0,7.1,1.4c1.4,0.9,2,3.1,2.6,4.5
			c1.6,3.9,3.5,7.3,8.1,4.4c1.5-0.9,3.1-2.3,4.9-1.2c1.4,0.9,1.2,2.6,2.7,3.4c1.8,1,3.3-0.9,4.7,0.7c1.9,2.1-0.4,5.8,1.2,8.2
			c1.4,1.9,4,2.4,5.9,1c0.1,0,0.1-0.1,0.2-0.1c2.1-1.7,0.3-6.8,3.2-7.3c2.2-0.4,3.4,3.1,5.7,2.7c2.7-0.5,3.8-4.3,7-3.8
			c3.8,0.7,5.9,5.6,6.3,9c0.4,4.7-1.5,9.7-0.6,14c1.1,5,6.5,6.7,8.3,1.1c1.4-4.3,0.1-9.4-1.2-13.3c-0.6-1.9-1.4-4.1-1.1-6.4
			c0.4-3,1.2-2.8,3.4-1.9c1,0.5,1,1.4,2.3,1.6c1.5,0.1,2-1.1,3.2-1.3c2.1-0.4,3.7,0.7,6-0.6c3.9-2.3,6.7-3.6,11.2-4.2
			s6.9,2.8,11.2,3.7c3.2,0.7,6.8-1.9,9.5-0.7c1.7,0.7,2,2.1,4.1,2.1c2.3,0,3.1-1.9,5-2.4c4.1-1,5.3,3.9,5.7,6.7
			c0.5,3.1,0,7.6,3.3,9.3c3.7,1.9,7.4-1.3,8.4-4.8c0.5-1.8-0.1-4,0.5-5.7c1-3,1.5-1.1,3.6-0.7c4,0.7,3.6-5.5,6.4-5.2
			c1.6,0.2,1.6,2.6,4.1,1.1c2.8-1.5,2.9-5.7,6.4-6.3c2.8-0.5,3.8,1.4,4.6,3.7c1.5,4.3,5.3,13,10.1,5.7c1.3-1.9,0.5-4.4,1.3-6.5
			c1.3-3.2,3-1.6,5.2-2.6c2.6-1.2,1.6-3.6,3.1-5.2s3.8-1.1,5.7-0.4c1.5,0.5,3.8,1.3,4.9,2.5c0.6,0.6,2.2,4.6,3.4,4
			C332.1,235.6,332,226,332.2,220.8z"/>
		
			<linearGradient id="SVGID_6_" gradientUnits="userSpaceOnUse" x1="123.137" y1="247.4881" x2="264.0745" y2="247.4881" gradientTransform="matrix(1 0 0 -1 0 450)">
			<stop  offset="0" style="stop-color:#9F5C46"/>
			<stop  offset="0.99" style="stop-color:#824225"/>
		</linearGradient>
		<path class="st15" d="M242.8,175.4c-1.2-0.1-2.3-0.1-3.3,0c-10.6,0.4-21.8-0.6-32.3,0.9c-9.4,1.3-18.3,2-27.3,5.3
			c-8.7,3.2-16.9,4-25.1,8.9s-17,4.6-25,9.1c-2,1.1-5.5,3.1-6.4,5.3c-0.8,2.7-0.1,5.5,1.9,7.5c2.7,2.1,6.9,1.8,10.2,3.4
			c3,1.5,5.6,3.8,8.6,5.2c3.2,1.5,6.6,2.6,10.1,3.3c8.1,1.7,16.6,2.7,24.8,3.8c4.8,0.7,9.3,1.7,14.3,1.7c6.2,0,12.5-0.5,18.7-1.4
			c5.3-0.8,11.1-1.6,15.9-3.9c3-1.5,5.3-3.9,7.6-6.1c2.1-1.9,4.7-3.3,6.4-5.5c2.3-3,3.1-5.9,6.1-8.3c2.3-1.8,4.8-3.3,7.2-4.9
			c4.3-2.9,10.2-7.1,8.6-13.1C261.6,178.7,250.7,175.8,242.8,175.4z"/>
		<g>
			<path class="st8" d="M129.2,199.2l1.2-0.7L129.2,199.2z"/>
			<path class="st8" d="M130.6,198.4l1.2-0.6L130.6,198.4z"/>
			<path class="st8" d="M127.8,200.1c0.4-0.3,0.9-0.5,1.3-0.8C128.6,199.5,128.2,199.8,127.8,200.1z"/>
			<path class="st8" d="M126.2,201.1c0.4-0.3,0.9-0.6,1.3-0.9C127.1,200.5,126.7,200.8,126.2,201.1z"/>
			<path class="st8" d="M132,197.7l1.1-0.5L132,197.7z"/>
			<path class="st8" d="M133.3,197.1l0.9-0.4L133.3,197.1z"/>
			<path class="st8" d="M135.4,196.3l0.6-0.2L135.4,196.3z"/>
			<path class="st8" d="M134.3,196.7l0.8-0.3L134.3,196.7z"/>
			<path class="st8" d="M124.8,202.2c0.4-0.3,0.8-0.7,1.3-1C125.6,201.5,125.2,201.8,124.8,202.2z"/>
			<path class="st8" d="M119.2,209.4c0.2-0.5,0.4-1,0.7-1.5C119.6,208.4,119.4,208.9,119.2,209.4z"/>
			<path class="st8" d="M123.5,203.4c0.4-0.4,0.8-0.8,1.2-1.1C124.3,202.6,123.8,203,123.5,203.4z"/>
			<path class="st8" d="M120,207.7c0.3-0.5,0.6-1,0.9-1.4C120.6,206.7,120.3,207.2,120,207.7z"/>
			<path class="st8" d="M123.2,203.6c-0.4,0.4-0.8,0.8-1.1,1.2C122.5,204.3,122.8,203.9,123.2,203.6z"/>
			<path class="st16" d="M312.1,230.3c3-3,9.3-1.8,12.7,0.3c2,1.3,2.1,4,4.7,1.8c2-1.6,0.8-3.4,0.4-5.3c-1-4.7,1-9.1,1.2-13.8
				c0.5-9.2-8-14.8-15.2-18.9c-3.3-1.9-8-2.4-11.7-3.1c-3.9-0.9-7.7-2-11.4-3.4c-7-2.4-15-6-22.4-6.3L267,181
				c7.6,5.5,10.2,14.1,7.5,22.7c-2.4,7.4-10.6,14.4-17,18.4c-2.2,1.4-4.9,2.2-7.1,3.7c-2.3,1.6-3.8,4.1-6.2,5.7
				c-2.8,1.9-7,3.1-10.1,3.7c-7.6,1.4-15.2-1.7-23-1c-8.9,0.9-19.2,1.4-28.3-1c-7.9-2.1-13.7-2.2-21.6-4.1
				c-7.8-1.8-15.5-4.1-23.1-6.8c-3.3-1.3-6.4-3.8-9.6-5s-5.4-4-8.5-5.4c-0.5-0.2-1-0.4-1.5-0.6c0.1-0.6,0.3-1.1,0.5-1.7
				c-0.9,2.5-1.1,5.2-0.4,7.8c0.6,2.6-0.8,11.8,1.2,12.9s3.6-0.8,4.8-2c2.1-2,2.5-2.7,5.3-1.1c2.2,1.3,5,0,7.1,1.4
				c1.4,0.9,2,3.1,2.6,4.5c1.6,3.9,3.5,7.3,8.1,4.4c1.5-0.9,3.1-2.3,4.9-1.2c1.4,0.9,1.2,2.6,2.7,3.4c1.8,1,3.3-0.9,4.7,0.7
				c1.9,2.1-0.4,5.8,1.2,8.2c1.4,1.9,4,2.4,5.9,1c0.1,0,0.1-0.1,0.2-0.1c2.1-1.7,0.3-6.8,3.2-7.3c2.2-0.4,3.4,3.1,5.7,2.7
				c2.7-0.5,3.8-4.3,7-3.8c3.8,0.7,5.9,5.6,6.3,9c0.4,4.7-1.5,9.7-0.6,14c1.1,5,6.5,6.7,8.3,1.1c1.4-4.3,0.1-9.4-1.2-13.3
				c-0.6-1.9-1.4-4.1-1.1-6.4c0.4-3,1.2-2.8,3.4-1.9c1,0.5,1,1.4,2.3,1.6c1.5,0.1,2-1.1,3.2-1.3c2.1-0.4,3.7,0.7,6-0.6
				c3.9-2.3,6.7-3.6,11.2-4.2s6.9,2.8,11.2,3.7c3.2,0.7,6.8-1.9,9.5-0.7c1.7,0.7,2,2.1,4.1,2.1c2.3,0,3.1-1.9,5-2.4
				c4.1-1,5.3,3.9,5.7,6.7c0.5,3.1,0,7.6,3.3,9.3c3.7,1.9,7.4-1.3,8.4-4.8c0.5-1.8-0.1-4,0.5-5.7c1-3,1.5-1.1,3.6-0.7
				c4,0.7,3.6-5.5,6.4-5.2c1.6,0.2,1.6,2.6,4.1,1.1c2.8-1.5,2.9-5.7,6.4-6.3c2.8-0.5,3.8,1.4,4.6,3.7c1.5,4.3,5.3,13,10.1,5.7
				c1.3-1.9,0.5-4.4,1.3-6.5s1.8-2.1,3-2.2C308.7,234.5,310.1,232.2,312.1,230.3z"/>
			<path class="st8" d="M120.9,206.2c0.3-0.4,0.7-0.9,1-1.3C121.6,205.3,121.3,205.8,120.9,206.2z"/>
		</g>
		<path class="st17" d="M233.8,178.9l-2.4-0.6c-4-1.4-10.5,0.8-14.6,1.3c-4.9,0.6-10,1-15,1.8c-10.8,1.7-21.7,3.7-31.7,8.9
			c-8.4,4.4-17.2,7.2-26,10.3c-3.1,1.1-11.4,3.7-11.5,7.7c-0.2,4.8,6.5,6.6,10.1,7.6c2.8,0.8,5.5,1.9,8.1,3.4c3,1.6,5.8,1.6,9.1,2.1
			c3.5,0.6,6.9,2,10.6,2.4c8.5,0.9,17.6-0.4,24.7-5.5c6.7-4.8,11.7-10.2,19.3-13.7c4.5-2.1,9.2-4.1,13.5-6.4c2-1.1,4.6-2.4,5.9-4.3
			c1.5-2.2,0.6-4.4,0.5-6.8C234.3,184.4,237.3,180.9,233.8,178.9z"/>
		<path class="st18" d="M328.5,208.1l-1-0.8c0,5.7-11.5,11.6-15.7,13.8c-3.4,1.7-6.9,3.1-10.5,4.2c-2.6,0.9-8.5,1.1-9.1,4.4
			c-0.4,2,1.3,2.9,2.1,4.4s1.1,3.5,1.6,5.1c0.4,1.1,1.3,3.8,3.1,3.5c1.5-0.3,1.7-3.4,2.2-4.3c1.1-2.4,2-1.9,4.1-2.9
			c1.5-0.7,2.8-2.4,3.8-3.8c2.4-3.4,4.5-5.4,9-4.5c4.1,0.8,12,5.9,10.3-2.5c-0.7-3.4,0.4-5.2,1-8.3
			C329.7,214.4,330.4,209.6,328.5,208.1z"/>
		
			<linearGradient id="SVGID_7_" gradientUnits="userSpaceOnUse" x1="310.57" y1="241.729" x2="324.7" y2="241.729" gradientTransform="matrix(1 0 0 -1 0 450)">
			<stop  offset="0" style="stop-color:#9F5C46"/>
			<stop  offset="0.99" style="stop-color:#824225"/>
		</linearGradient>
		<path class="st19" d="M324,202.3c-0.5-0.7-3-2.4-3.2-0.6c-0.1,0.7,0.6,1.1,0.5,1.7c-0.2,0.8-0.6,1.5-1.2,2
			c-1.8,1.9-3.5,3.8-5.4,5.5c-0.9,0.8-4.2,2.5-4.1,3.8c0,0.9,0.9,1,1.7,0.7c4-1.7,9.2-3.9,11.5-7.9
			C324.6,206.1,325.2,203.9,324,202.3z"/>
		
			<linearGradient id="SVGID_8_" gradientUnits="userSpaceOnUse" x1="305.05" y1="233.0537" x2="308.21" y2="233.0537" gradientTransform="matrix(1 0 0 -1 0 450)">
			<stop  offset="0" style="stop-color:#9F5C46"/>
			<stop  offset="0.99" style="stop-color:#824225"/>
		</linearGradient>
		<path class="st20" d="M307.4,215.6c-0.9-0.2-1.8,0.2-2.3,1c-0.3,0.5-0.1,1.2,0.5,1.5c0.1,0,0.1,0.1,0.2,0.1c0.9,0.3,1.9-0.2,2.3-1
			c0.3-0.5,0.1-1.2-0.4-1.5C307.6,215.7,307.5,215.7,307.4,215.6z"/>
		<path class="st21" d="M327.9,233.9c-0.3-1.7-2.8-1-2.5,0.7c0,0.1,0,0.2,0,0.3c0.3,1.7,2.8,1,2.5-0.7
			C328,234.1,327.9,234,327.9,233.9z"/>
		<path class="st21" d="M325.9,231.2c-0.6-2.6-4.4-2.6-6.5-3c-3-0.6-6.1-0.1-7.5,2.8c-0.2,0.4,0.3,0.8,0.6,0.4c2.9-3.4,8,0,11,1.7
			c0.8,0.4,1.8,0.1,2.3-0.7C325.9,232.1,326,231.6,325.9,231.2z"/>
		<path class="st22" d="M183.3,238.1c-1.4-0.1-2.8,0.5-3.8,1.5c-1.3,1.2-2.1,4-4.2,4c-0.1,0-0.1,0.1,0,0.2c1.8,1,3.5-0.1,4.8-1.4
			c3.6-3.3,5.3,1.1,8.2,2.7c0.2,0.1,0.4,0,0.5-0.1c0,0,0-0.1,0-0.1C188.5,242.1,186.5,238.4,183.3,238.1z"/>
		<path class="st22" d="M328.4,200.5c-0.1-0.1-0.2,0.1-0.1,0.1c3.9,6.3-1.2,11.9-1.9,18.3c-0.7,5.9,4,12.4,1.3,17.6
			c-0.2,0.4,0.2,0.8,0.6,0.6c5.5-3.9,2.3-15.3,3.1-21.1C332.3,209.7,334,204.7,328.4,200.5z"/>
		<path class="st22" d="M310.8,233c-0.1-0.3-0.3-0.4-0.6-0.3c0,0-0.1,0-0.1,0c-0.6,0.4-0.9,0.9-1.4,1.3c-0.7,0.3-1.4,0.4-2.1,0.3
			c-1.3,0-2.6,0.6-3.5,1.6c-2.5,2.9,0.5,6.2,0,9.4c0,0.1,0.2,0.2,0.2,0c0.4-2.3,0.5-7.8,3.2-8.3C308.4,236.6,311.9,235.7,310.8,233z
			"/>
		<path class="st22" d="M228.6,240.1c-3.8-1.3-6-3.8-10.2-3.6c-3,0.1-4.8,1.5-6.6,3.3c-0.6,0.4-1.1,0.8-1.6,1.2
			c-1.4,1.1-2.6,1.1-4.2,1.4s-3.4,1.1-5.1,0.7c-2.3-0.6-3.8-3.6-6.3-1.9c-2,1.3-2.1,4.1-1.8,6.2c0.8,5.6,5.1,11.7,3.5,17.4
			c0,0,0,0.1,0.1,0.1c0,0,0.1,0,0.1,0l0,0c1.5-2.3,1.6-4.5,1.1-7.1c-0.6-3.6-2.4-6.9-2.5-10.6c0-1.2,0-3.9,1.6-4
			c1.4,0,2.4,2.3,3.5,2.9c1.8,0.9,2.4-0.8,3.7-1.5s2,0,3.3-0.1c1.7-0.3,3.2-1,4.6-2c2.9-3.1,6.4-3.4,9.8-2.5
			C223.9,239.9,226.3,240,228.6,240.1L228.6,240.1z"/>
		<path class="st17" d="M128.9,223.1c-1.4-0.9-2.5-2.3-3.1-3.9c-1.2-3-0.4-5.4,0.5-8.3l0.2-1.4c-3.4,0.7-5.1,4.8-5,7.9
			c0,2.2-1.5,9.5,1.3,9.7c1.4,0.1,2.6-1.9,4-1.9c1.2,0,3.5,2.1,4.8,0.7S129.8,223.7,128.9,223.1z"/>
		<path class="st17" d="M157.8,237.8c-2.1-0.4-3.7-4.2-5.7-5.3c-2.3-1.2-3.9,0.9-6,1s-4.2-3.9-5.3-5.3c-1.2-1.7-3.1-2.9-5.2-3.2
			c-0.1,0-0.2,0.1-0.1,0.2c5.3,2.3,3.5,10.8,10.1,12c3.1,0.6,5-2.2,7.9,0.1c1.6,1.3,2.6,1.9,4.5,1c0.1-0.1,0.2-0.3,0.1-0.4
			C158,237.8,157.9,237.8,157.8,237.8z"/>
		<path class="st17" d="M165.7,247.4c-0.6-0.4-1.1-0.1-1.5-0.8c-0.3-0.8-0.6-1.6-0.7-2.5c-0.4-1.7-0.5-3.5-1.3-5
			c-0.2-0.3-0.6-0.1-0.5,0.2c0.4,2.4-0.9,4.8-0.4,7.2c0.3,2,2.5,5,4.7,3c0.5-0.5,0.5-1.4,0-1.9C165.9,247.5,165.8,247.5,165.7,247.4
			z"/>
		<path class="st17" d="M194.4,263.6c-2.8,0-1.8-10.6-2.1-13.1c-0.4-3.1-1.5-11.8-6.1-11.8 M186.1,238.8c3.4,5.9,3.1,13.2,3.1,19.9
			c0,2.7,1.2,11.2,5.9,7.6c1-0.8,0.8-2.6-0.7-2.6L186.1,238.8z"/>
		<path class="st17" d="M264,253c-4.7-3.6-3.3-11.7-8.5-15c-3-1.9-5.8-0.9-8.7,0.7c-3.4,1.8-3.6,0.1-6.3-0.2
			c-4.1-0.5-7.6,1.3-11.6-0.5c-0.2-0.1-0.4,0.1-0.2,0.3c4.3,3.4,9.1,1.3,13.8,3.9c4.4,2.4,10.5-5.1,12.9,2.6
			c0.9,2.8,3.1,15.1,8.7,11.1c0.8-0.5,1-1.7,0.4-2.4C264.3,253.3,264.1,253.2,264,253z"/>
		<path class="st17" d="M283.7,240.7c-2.5,0.2-3.9-3.1-6.7-1.6c-1.1,0.6-2,1.6-2.5,2.7c-0.6,1.2-0.7,2.6-1.3,3.8 M273.2,245.7
			c1-0.3,1.8-0.9,2.4-1.6c0.7-1.1,1.8-3,3.4-2.2c1.1,0.5,1.8,1.3,3.1,1.1c1-0.1,1.8-0.8,2-1.8c0.1-0.2-0.1-0.5-0.3-0.5
			c0,0-0.1,0-0.1,0L273.2,245.7z"/>
		<path class="st17" d="M301.8,245.5c-2.7-1.5-3.7-4.2-5.4-6.8c-1.9-2.9-5.4-4.5-8.3-2.2 M288.2,236.6c4.4-0.5,5.5,4.6,7.1,7.7
			c0.7,1.6,1.9,2.9,3.5,3.6c1.1,0.6,2.5,0.1,3.1-1c0.1-0.2,0.2-0.4,0.2-0.7c0.1-0.3,0-0.6-0.3-0.7L288.2,236.6z"/>
		<path class="st23" d="M123.9,225.3c-0.6-1.9-0.8-3.9-0.6-5.9c-0.1-2.3,0.1-4.6,0.7-6.8c0.1-0.2-0.2-0.3-0.3-0.1
			c-2.7,3.9-3.9,8.7-3.5,13.4C120.5,228.8,124.8,227.8,123.9,225.3z"/>
		<path class="st23" d="M149.7,234.4c-0.9-0.9-2.4-0.5-3.5,0c-1.3,0.8-3,0.4-3.8-0.8c-0.1-0.1-0.3-0.1-0.4,0c0,0-0.1,0.1-0.1,0.2
			c0,2,0.9,3.2,2.9,3.3c1.5,0.1,4.3-0.7,4.9-2.1C149.9,234.7,149.8,234.5,149.7,234.4z"/>
		<path class="st23" d="M152.2,234.8c-0.1-0.3-0.4-0.5-0.7-0.5c-0.2,0-0.4,0-0.6,0.1c-0.4,0.1-0.6,0.5-0.5,0.8
			c0.1,0.2,0.2,0.4,0.5,0.5c0.4,0.1,0.7,0.2,1.1,0c0.2-0.1,0.3-0.4,0.3-0.7C152.2,234.9,152.2,234.8,152.2,234.8z"/>
		<path class="st23" d="M164.7,246.5c-1.1,0.6-1.9-0.7-2.6-1.5c-0.1-0.2-0.4,0-0.4,0.2c-0.2,1.1,0.1,2.2,0.8,3
			c0.8,1,2.3,1.2,3.3,0.4c0,0,0,0,0,0C167.1,247.7,166.1,245.7,164.7,246.5z"/>
		<path class="st23" d="M194.9,264.4c-0.8-0.2-1.4-0.1-1.9-0.8c-0.5-1-0.8-2-1-3c-0.5-1.8-0.9-3.7-1.1-5.5h-0.1
			c-0.5,2.6-1.2,5.2-0.8,7.9c0.4,2.4,2.2,5.1,4.9,4.4C196.3,266.8,196.4,264.6,194.9,264.4z"/>
		<path class="st23" d="M248.7,240.9c-0.7-0.3-1.5-0.3-2.3-0.2c-1.2,0.2-2.4,0-3.5-0.4c-1.7-0.7-3.6-1-5.5-0.8
			c-0.1,0-0.2,0.1-0.2,0.2c0,0.1,0.1,0.1,0.1,0.2c2.7,0.9,9.6,6.1,11.5,1.3C248.9,241.1,248.8,240.9,248.7,240.9z"/>
		<path class="st23" d="M263.5,253.9c-1.8-0.6-2.3-2.2-2.9-3.8c-1-3-2.1-6.9-4.2-9.3c-0.1-0.2-0.4,0-0.3,0.2
			c1.7,3.3,1.1,7.4,2.4,10.8c0.5,1.5,3.2,6.5,5.5,4.2c0.5-0.5,0.5-1.2,0-1.7C263.9,254.1,263.7,254,263.5,253.9z"/>
		<path class="st23" d="M278.7,239c-1.6-0.1-3.1,0.7-3.9,2.1c-0.5,0.7-0.7,1.6-1.2,2.3c-0.5,0.6-1.2,1.2-1.9,1.6c0,0,0,0.1,0,0.1
			c1.4,1.1,2.9,0,3.7-1.2c1-1.5,1.6-3.6,3.4-4.4C279,239.3,278.9,239,278.7,239z"/>
		<path class="st23" d="M300.7,245.6c-2.7,0.7-4-4.8-5-6.5c0,0-0.1-0.1-0.1,0c0,0-0.1,0.1,0,0.1c0.9,3.3,0.6,9.6,5.8,8.6
			C302.7,247.5,302.1,245.3,300.7,245.6z"/>
		<path class="st23" d="M251.2,239.6l-0.1-0.1c-0.4-0.4-1-0.4-1.3,0s-0.4,1,0,1.3c0.4,0.4,1,0.4,1.3,0c0,0,0.1-0.1,0.1-0.1
			C251.5,240.4,251.5,239.9,251.2,239.6z"/>
		<path class="st23" d="M208.9,240.6c-0.9-0.6-1.5-1.4-2.7-1c-1.6,0.5-3.1,0.9-4.8,1.2c-2.3,0.3-3.2-2.1-5.4-1.3
			c-0.1,0.1-0.1,0.3,0,0.3c2-0.2,1.6,1.2,2.8,1.9c0.8,0.5,1.7,0.8,2.6,1c2.6,0.4,4.9-1.1,7.4-1.5
			C209.1,241.1,209.1,240.8,208.9,240.6z"/>
		<path class="st23" d="M210.7,239.6c-0.2,0-0.5,0-0.7,0.2c-0.6,0.4,0.2,1.3,0.6,0.7c0.1-0.1,0.2-0.2,0.3-0.3
			c0.2-0.1,0.2-0.3,0.1-0.5C210.9,239.7,210.8,239.6,210.7,239.6z"/>
		<path class="st22" d="M136.3,224.4c-2.3-0.8-4.5,0.1-6.8,0.1c-1.4-0.1-2.8,0.5-3.8,1.6c0,0,0,0.1,0.1,0.1c1.1-0.4,3,0.4,4.1,0.7
			c1.9,0.6,2.5,0.2,4.4,0c3.6-0.4,4.5,4.6,6.2,6.6c0.1,0.1,0.3,0.1,0.4,0c0-0.1,0.1-0.1,0.1-0.2C141,230,139.7,225.6,136.3,224.4z"
			/>
		<path class="st22" d="M158.6,237.9c-1.8-0.1-3.2-0.1-4.8-1.4c-0.6-0.7-1.5-1.2-2.3-1.5c-3.2-0.5-4.6,1.4-7.4,2.4
			c-0.1,0-0.1,0.2,0,0.2c1.5-0.2,3-0.5,4.4-1.1c2.5-0.9,4.4,1.8,6.3,2.7c1.2,0.4,2.5,0.5,3.7,0.4c3,0,2.7,4.1,3.2,6
			c0,0.1,0.1,0.2,0.2,0.1c0.1,0,0.1-0.1,0.1-0.1C163.6,242,163.4,238.2,158.6,237.9z"/>
		<path class="st22" d="M179.7,242.2c0-0.2-0.1-0.4-0.3-0.5c-0.3-0.3-0.7-0.4-1.1-0.3c-1.9,0.6-3.1-0.8-4.6-1.8
			c-1.3-1-3.1-1.3-4.7-0.7c-2.9,1.1-2.2,5.2-2.1,7.6c0,0.3,0.5,0.4,0.6,0.1c0.5-2.7,1.3-7.8,5.1-4.7c2,1.7,3.9,3.4,6.5,1.7
			C179.6,243.2,179.8,242.7,179.7,242.2z"/>
		<path class="st22" d="M273.6,245.5c-1.4-1.6-6.1-5.4-7.3-1.5c-1.4,4.6,1.7,11.8-4.6,13.5c0,0-0.1,0-0.1,0.1c0,0,0,0.1,0.1,0.1
			c5.1,0.2,6.5-3.9,7.1-8.2c0.2-1.3,0.2-2.5,0.3-3.8c0,0,0-0.1,0-0.1l0.1,0.1c1.2,0.7,3.3,1.2,4.4,0.1
			C273.7,245.7,273.7,245.6,273.6,245.5C273.6,245.5,273.6,245.5,273.6,245.5z"/>
		<path class="st22" d="M287.9,235c-1.6,0.2-3.1,0.9-4.2,2.1c-1.9,1.9-2.1,4.4-5.4,3.8c-0.1,0-0.3,0.1-0.3,0.2c0,0.1,0,0.2,0.1,0.2
			c1.9,1.1,3.4,1.3,5.1-0.3c1.6-1.4,2-3.1,4.2-3.9c2.5-0.9,4.4,1.3,5.9,2.9c0.2,0.2,0.5,0.1,0.5-0.2c-0.2-2.9-2.7-5.2-5.6-5
			C288,235,287.9,235,287.9,235z"/>
		<path class="st22" d="M311,219.6c-27.1,11.6-56.6,13.3-63.8,15.3c3.2,0.2,6.3,0.6,9.5,1.2c2.8,0.6,5.5,3.6,8.4,3
			c2.1-0.4,2.8-1.1,4.8-1c1.6,0.2,3.2,0,4.7-0.7c1.4-0.7,2.5-2.5,4.1-2.8c1.8-0.3,3.2,0.6,5.1,0c4.4-1.4,8.8-5.5,13.2-1.6
			c0.7,0.6,1.8,3.1,2.9,3c0.8-0.1,2.9-3.8,4-4.5c2.3-1.2,4.3-2.7,6.1-4.6c1.6-1.8,3.7-3.1,6-3.7c2.3-0.5,3.2,0.3,5.1-1
			s4.5-9,4.2-11.1C323.7,213.4,317.5,216.8,311,219.6z"/>
		<path class="st23" d="M163.8,224.4c-1-0.8-2.4-1.1-3.7-0.9c-1,0.1-1.4,1.6-0.3,1.8s1.9,1,3.1,1.1c0.7,0,1.2-0.6,1.2-1.2
			C164.1,224.9,164,224.6,163.8,224.4z"/>
		<path class="st23" d="M167.2,226c-0.5,0-0.9,0.4-0.9,0.9c0,0.5,0.4,0.9,0.9,0.9s0.9-0.4,0.9-0.9C168.1,226.4,167.7,226,167.2,226
			L167.2,226z"/>
		<path class="st23" d="M168.7,185.6c0.1-0.1,0-0.2-0.1-0.2c-7.1,3.4-14.4,5.7-21.8,8.4c-4.9,1.8-12.3,3.2-16.2,7.1
			c-8.5,8.6,9.4,18.1,9.3,17.8l-0.1-0.2c0.9,0.4,1.9,0.7,2.7,1c3.8,1.5,9.7,3.5,13.9,2.8c0.2-0.1,0.3-0.3,0.3-0.5
			c0-0.1,0-0.1-0.1-0.2c-1.6-1.5-3.6-1.9-5.7-2.8c-0.9-0.3-1.7-0.7-2.6-1.1c-2.5-2.1-5.1-3.9-7.7-5.8c-1.5-1.3-2.7-2.9-3.4-4.7
			C134,200.9,159.2,196.3,168.7,185.6z"/>
		<path class="st22" d="M298,192.2c-0.8-0.7-3.2-1.3-3.6-2.3c-0.8-1.8,2-1.9,1.6-3.4c-0.5-1.7-8.6-2.5-10.3-2.9
			c-6.9-1.4-13.9-2.4-20.9-2.9c-9.1-0.7-18.2-0.8-27.2-1.8c-9.4-1-18.7-1.9-28.1-2.5h-0.7l-52.6,11.9c0.9,2.6,8.3-1.5,6,4.2
			c-1,2.6-4.1,5.9,0.1,7.5c1.6,0.6,3.4-0.3,5,0.4s2.3,2.1,4,2.5c3.5,1,7.1-1.4,10.6-0.9c7,1.1-1.8,14.2-0.2,18s6.2,1.7,8.3-0.3
			c2.6-2.6,3.3-4.5,7.2-4.6c3-0.1,6.6-3.3,9.2-2.5s4,5,4.7,7.4c0.9,3,0.8,6.5,3.5,8.6s6.1,1.4,7.5-1.8c0.9-2.1,0.8-7.7,4.2-7.7
			c1.4,0,2.4,1.7,3.5,2.3c1.5,0.7,3.1,1,4.8,0.8c1.7-0.3,2.8-1.6,4.3-2.1c1.8-0.7,3.3-0.1,4.4-1.9c0.9-1.3,0.3-3.3,1.6-4.5
			s3.2-0.6,4.7,0.3c1.9,1.2,1.9,1.2,4.1,1.3c1.9,0.1,2.8,1.2,4.5,1.6c4,0.9,4.9-1.9,7.4-3.9c2.9-2.4,6.6,0,9.7-2.2
			c2.4-1.7,1.5-6,4.7-7.4c0.9-0.4,1.7-0.1,2.5-0.6s0.9-1.2,1.5-1.6c1.6-1.1,2.9-0.9,4.8-0.7c2.9,0.3,8.3,1.2,10.7-0.7
			C302.3,197.6,300.1,194,298,192.2z"/>
		<path class="st24" d="M322,278.1c-5,3-9.6,5.5-15.6,6.1s-11.4-0.5-16.5-1.7c-2.4-0.6-12.9-4.1-14.5-1.1l-4.8-5.4
			c5.8-0.9,11.3-3.2,15.9-6.8c4.2-3.4,7.2-7.5,12.3-10c5.3-2.6,11.2-3.6,17-2.8c3.9,0.5,9.5,1.4,12.9,3.5c3.7,2.3-0.1,5.3-1.4,7.8
			c-0.9,1.9-0.9,4.1-1.6,6.2C325,276.3,324.1,276.8,322,278.1z"/>
		<path class="st25" d="M321.3,273.1c-2.9,1-5.7,2.3-8.6,3.4c-3.9,1.5-12.2,7.5-16,3.1l-7.3-1.9c-5.6,0.1-1.1-6,0.5-7.7
			c2.6-2.8,5.5-5.2,8.7-7.3c4.7-3,12-2,17.5-1.8c2.4,0.1,4.7,0.8,6.8,2c2.5,1.5,1.2,1.9,0.6,4.5S324.4,272.1,321.3,273.1z"/>
		<path class="st26" d="M315.9,270.5c-2.9,0.7-5.6,1.8-8.2,3.3c-5.2,3.2-8.8,6-15.5,5.8l-2.4,0.3c-1.4,0.4-4.1-0.5-4.6-2
			c1.9-1.2,3.7-2.7,5.3-4.3c2.4-2.6,4-5.1,7-6.8c3-1.5,6.2-2.5,9.5-2.8c3-0.4,6.1-0.3,9.1,0.3c3.4,0.8,5.3,2.7,8,4.4
			C321.8,270,318.4,269.8,315.9,270.5z"/>
		<path class="st27" d="M324.8,268.3c-9.3,1.1-16.4,0.6-24.5,6.5c-4.6,3.4-11.9,8.4-17.8,7.5c-1-0.1-1.7-1-1.6-2
			c0-0.1,0-0.2,0.1-0.4c2.5-6.9,12.5-8.6,18.8-11c9.5-3.8,15.2-1.9,24.9-0.7C324.9,268.2,324.9,268.3,324.8,268.3z"/>
		<path class="st24" d="M285.3,273.7c-3.3,3.9-11.7,9.5-17,6.4l-3.6-3.6c7.9,0,4.6-9.8,8.3-13.5c5.4-5.4,12.9-1.8,18.8-5.3
			C289.6,263.4,289.9,268.4,285.3,273.7z"/>
		<path class="st25" d="M282.5,274.4l-5.9,1c-2.6,0.8-6.5,1.7-4.9-2c0.9-2,1.2-4.5,2.3-6.4c2.8-4.8,9.4-4.7,14.3-4.7
			C286.2,266.2,284.2,270.3,282.5,274.4z"/>
		<path class="st26" d="M281.6,269.6c-1.4,3.2-2,6-6.3,7.6l-5.8,0.4c3.1-0.2,5.1-6.8,6.6-8.9c3.1-4.4,7.5-4.4,12-7.1
			C285.3,263.8,283.1,266.5,281.6,269.6z"/>
		<path class="st27" d="M286.6,263.3c-2,3.6-5.4,6.1-7.3,9.9c-2,4-3,6.7-7.3,8.7c-4,1.9-6.8-4.9-2.5-6.5c3.2-1.2,5-3.5,7.5-5.7
			c2.9-2.5,6.5-3.9,9.2-6.7C286.5,263,286.7,263.1,286.6,263.3z"/>
		<path class="st28" d="M328,264.1c-2.2,2.9-2,4.5-2.6,7.8c-0.5,2.5-2.3,4.6-3.9,6.4l-2.5,1c2.4-1.1,3.4-5.6,2.6-8.2
			c-1-3.3-4.4-5.5-4.8-8.8c3.3,1.5,4.9-1.2,7.8-1.8c1.3-0.3,2.6,0,3.8,0.6C329.8,262.1,328.9,262.9,328,264.1z"/>
		<path class="st24" d="M310.3,252.5c-3,5.8-11.9,15.2-19.4,12.9l-5.5-3.5c9.9-2.2,2.9-13.5,6.5-19.2c5.2-8.2,15.6-5.9,21.9-11.9
			C312.7,238.4,314.4,244.6,310.3,252.5z"/>
		<path class="st25" d="M307,254.2l-7.1,2.9c-3,1.8-7.6,4-6.6-1.1c0.5-2.7,0.2-6,1-8.6c2.1-6.8,10.4-8.5,16.4-9.9
			C309.2,242.9,307.9,248.5,307,254.2z"/>
		<path class="st26" d="M304.4,248.5c-0.8,4.4-0.8,8.1-5.6,11.3l-7.1,2.1c3.8-1.1,4.4-10,5.7-12.9c2.6-6.4,8-7.7,12.9-12.3
			C307.4,240.5,305.2,244.2,304.4,248.5z"/>
		<path class="st27" d="M308.9,239.2c-1.4,5.1-5,9.2-6.2,14.4c-1.3,5.5-1.8,9.2-6.5,13c-4.5,3.5-9.8-4.2-5-7.3
			c3.7-2.4,5.3-5.8,7.8-9.2c2.9-3.9,7-6.8,9.6-10.9C308.6,238.8,309,238.9,308.9,239.2z"/>
		
			<linearGradient id="SVGID_9_" gradientUnits="userSpaceOnUse" x1="156.4" y1="246.6631" x2="298.3002" y2="246.6631" gradientTransform="matrix(1 0 0 -1 0 450)">
			<stop  offset="0" style="stop-color:#F2DAB8"/>
			<stop  offset="1" style="stop-color:#E6CB9C"/>
		</linearGradient>
		<path class="st29" d="M291.3,183.1l-0.5-0.1c-8.6-1.2-16.5-4.9-25.3-4.6c-8.2,0.3-16.3,0.8-24.6,1.2c-5,0.2-10.2,1.1-15.1,1
			c-3.5,0-7-1-10.5-1c-6.2,0-11.9,0.7-17.9-0.3c-5.2-1-10.5-1.4-15.8-1.3c-2.4,0.1-4.7,0.6-6.9,1.3c-4.6,1.4-16,4.4-18.2,9
			c0,0,0.6,0.4,0.6,0.4c1.5-0.6,5.4-1.9,7-0.7c2.4,1.7,0.2,3.8-0.9,5.5c-4.5,6.9,3.5,3.2,6.5,4.4c0.9,0.4,1.2,1.7,2,2.1
			c1.4,0.7,1.7,0.3,3.2,0.4c2.1,0.2,4.2,0.1,6.2-0.4c5.4-1.4,6.3,3.6,4.7,8.5c-0.8,2.4-5.8,10.9-1.2,11.7c4,0.7,5.5-6.8,8.5-7.9
			c2.4-0.9,4.2,0.9,6.5,0.2c2.1-0.6,3.7-2.9,5.8-3.4c7.7-1.7,5.4,12.6,7.6,16.9c2.6,5.1,7.6,2,8.7-2.5c0.6-2.5-0.3-4.9,1.9-6.6
			c1.2-1,4.9-1.3,6-0.5c1.8,1.3,2,5.4,4.9,4.6c1.7-0.5,2-2.9,4.5-3.1c4.5-0.3,4.1-1.1,5.1-5.4c0.6-2.5,1.3-3.5,3.8-3.5
			c2.8,0.1,3,1.9,5,3.2c0.8,0.5,2.1,0.3,3.1,1c0.8,0.5,0.9,1.5,1.7,2c2.1,1.3,4.1,0.8,5.8-0.9c1.5-1.5,1.7-3.6,3.1-5
			c2.3-2.3,3-0.5,5.4-0.2s3.6-1.6,4.3-3.7c0.3-1,0.6-2,1.1-3c0.9-1.8,1.8-1.5,3.5-2.2c1.1-0.5,1.5-1.6,2.5-2.2
			c2.3-1.4,5.3-0.2,7.8,0.3c1.8,0.4,5.7,1.2,6.9-1c1.1-2-1.9-4.3-3.4-5.1s-6.7-3-3.2-5c1.3-0.8,3.7,0.6,4.6-1
			C297.4,184.2,292.4,183.2,291.3,183.1z"/>
		<path class="st30" d="M250.9,199.6c-1.9-1.5-11.2,2.8-13.3,3.3c-10,2.6-19.4,0.7-28.9-1.2c-6.2-1.2-11.5-4.5-17.3-6.7
			c-3-1.1-6.3-2.1-8.8-4.1c-2.8-2.2-2.5-5.8-4.8-7.8l-0.6-2.5c-1.8-0.4-11,2.1-11.7,4.7c-0.5,1.9,2,2.9,2.5,4.7
			c0.9,2.8-0.5,4.2,3.5,5c2.6,0.5,5.3-0.9,7.8-0.3c1.8,0.5,3.9,1.8,5.8,2.4c2.4,0.9,3.8,1.4,4.4,4.1c0.5,2.2-0.7,5.5,0.6,7.3
			c3.1,4.5,8.4-1.1,11.7-1.7c1.9-0.4,5.1-1.2,7-0.9s3.4,2.2,5.1,3.1c4.5,2.4,9,1.7,13.9,0.8c2.6-0.5,5.2-0.6,7.8-1s3.8-1.2,6-2.9
			C243,204.9,253.3,201.4,250.9,199.6z"/>
		<path class="st31" d="M271.8,178.4c-1.7-0.2-3.5-0.3-5.2-0.2c-3-0.1-5.9-0.4-8.9-0.6c-4.9-0.3-9.7-1.1-14.5-1.3
			c-7.2-0.3-15.4,0-22.4-2l-42,3.9c0.2,1.2,1.1,1.9,1.6,3c0.6,1.2,0.2,2.3,0.5,3.6c0.7,2.6,2.2,4.8,4.3,6.4c2.1,1.5,4.4,2,6.4,3.7
			c2.1,1.5,4.5,2.7,7.1,3.4c2.6,0.9,5.3,1,7.9,1.8s5.2,1.9,7.9,2.6c5.9,1.6,13.1,1.6,19.2,1c2.8-0.3,5.6-0.9,8.4-1
			c2.6-0.1,5.7,0.4,8.1-0.2c2.6-0.6,5.1-2.9,7.4-4.2c2.1-1.3,4.2-1.8,6.4-3c3.9-2,9.3-6.7,10.3-11.1
			C274.9,181.6,274.9,179.1,271.8,178.4z"/>
		<path class="st32" d="M266.3,178.1c-6.5-2.2-13.8-2.8-20.6-3.4c-5.6-0.5-11.2-0.6-16.8-1.1c-2.9-0.3-5.7-0.6-8.6-0.9
			s-6.2-1.1-9.1-0.5l-31,6.1c-1,2.5,1.8,3.7,2.7,5.5c1.1,2.1,1.3,3.9,3.3,5.6s3.9,1.6,6.1,2.7c1.1,0.6,1.6,1.6,2.5,2.4
			c1,0.8,2.1,1.3,3.4,1.7c2.3,0.7,5.3,0.4,7.4,1.6s3.6,2.6,6.1,3s5.2,0,7.8,0.5c2.7,0.6,5,1.2,7.8,0.7c2.5-0.5,5.2-2.1,7.8-2.2
			s4.6,1.5,7.3,1.4s4.7-1.6,7-2.9c2.1-1.2,4.5-1.9,6.9-2.1c2.3-0.3,4.7-1.8,6.7-3.1c1.9-1.2,4.3-2.4,5.9-3.9c1.6-1.6,2.7-3.7,2.9-6
			C271.6,180.2,268.5,178.9,266.3,178.1z"/>
		<path class="st30" d="M218.9,225.5c-2.4,0.2-3.3-0.5-4.1-2.8c-0.6-1.8-0.5-3.7-1-5.6c-0.8-3.1-2-7.9-5.6-8.7
			c-0.4-0.1-0.7,0.4-0.4,0.7c4.8,3.9,3.4,9.5,5,14.8c0.4,1.4,1.4,3.7,3.1,4c1.4,0.4,2.9-0.4,3.3-1.9c0,0,0-0.1,0-0.1
			C219.2,225.8,219.1,225.6,218.9,225.5C218.9,225.5,218.9,225.5,218.9,225.5z"/>
		<path class="st30" d="M185.8,199.6c-0.1,0-0.3,0-0.3,0.2c0,0.1,0,0.2,0.1,0.2c3.4,3-0.4,8.6-1.8,12.1c-0.8,2.2-2.3,5.7-0.3,7.6
			c0.4,0.4,1,0.5,1.5,0.2l0.5-0.1c0.3-0.1,0.5-0.4,0.4-0.8c0-0.2-0.1-0.3-0.3-0.4C182.1,216.6,195.2,203.1,185.8,199.6z"/>
		<path class="st30" d="M173.9,198.9c-3.1,0.3-2.1-1.8-3.8-3c-1.3-0.7-2.7-1.1-4.1-1c-0.8-0.1-0.7,0.1-0.5-0.6s0.2-1.4,0.4-2
			c0.3-1.2,0.6-1.9-0.1-3l0,0c0.5,2.7-5.2,5-1.8,7.5c1.5,1.1,3.7,0,5.2,1.1c0.7,0.6,1.5,0.5,2.2,0.9c0.8,0.5,1.7,0.6,2.6,0.5
			C174.3,199.4,174.3,198.9,173.9,198.9z"/>
		<path class="st30" d="M263,212.4c-1.4,1.5-4.6-1.6-5.9-2.2c-0.5-0.2-1.1-0.3-1.6-0.3c-1.6-0.1-1.6-0.9-2.7-1.1
			c-2.9-0.6-4.8-0.9-7.6,0.3c-0.1,0.1,0,0.3,0.1,0.2c2.3-0.8,4.5-1.4,6.1,1.3c0.6,0.9,1.5,1.6,2.5,2c1.4,0.7,2.6,0.8,4,1.8
			c1,0.7,2.2,1,3.4,0.8c0.5,0,1-0.3,1.2-0.7l1-1.9c0.1-0.1,0.1-0.2,0-0.3S263.1,212.3,263,212.4z"/>
		<path class="st30" d="M264.1,211.4c0-0.1-0.1-0.1-0.2-0.1c0,0,0,0,0,0c-0.2,0.1-0.2,0.2-0.4,0.3s0,0.6,0.3,0.4
			S264.2,211.7,264.1,211.4z"/>
		<path class="st30" d="M234.7,219.1c-1.5-0.5-2.3-2-3.5-3c-1.2-1.2-3.1-1.6-4.7-1c-0.1,0-0.1,0.1-0.1,0.2c0,0,0.1,0.1,0.1,0.1
			c2.5-0.4,3.6,1.2,4.8,3c0.6,0.9,1.4,2,2.6,1.9c0.4,0,0.8-0.4,0.8-0.8l0,0l0.1-0.2C234.9,219.2,234.8,219.2,234.7,219.1z"/>
		<path class="st30" d="M275.1,206.5c-1.3,0.4-2.3,1.1-3.7,0.9c-1-0.3-2.1-0.2-3.1,0.1 M268.3,207.7c2,0,6.9,3,7-0.9
			c0-0.1-0.1-0.2-0.2-0.2L268.3,207.7z"/>
		<path class="st31" d="M270,207.5c-1.4-1.5-3.7,0.2-4.7,1.4c-0.7,1.1-1.6,2.2-2.5,3.1c-0.4,0.4-0.8,0.7-1.3,1
			c-0.5,0.3-1.1,0.1-1.7,0.3c-0.6,0.2-0.9,0.8-0.7,1.4c0.1,0.2,0.2,0.4,0.4,0.6c2,1.5,4.4-1.1,5.1-2.7c0.6-1.1,1.3-2.2,2.2-3.1
			C267.6,208.4,268.7,207.8,270,207.5C270,207.5,270,207.5,270,207.5z"/>
		<path class="st31" d="M247.7,208.9C247.7,208.9,247.6,208.9,247.7,208.9c-0.1,0.1,0,0.2,0,0.2l0,0
			C247.8,209.1,247.8,209,247.7,208.9C247.8,208.9,247.8,208.9,247.7,208.9z"/>
		<path class="st31" d="M242.2,212.7c-0.5,0.8-1.2,1.5-2.1,2c-0.7,0.3-1.5,0.4-1.9,1.1c-0.7,0.3-1.5,0.6-2.2,0.8
			c-0.6,0.4-1.1,0.9-1.5,1.5c-0.2,0.4-0.1,1,0.4,1.2c0.4,0.2,0.8,0.1,1.1-0.1c1.9-2,5.2-0.1,6.7-2.9s0.3-6.9,4.9-7.3l0,0
			C244.4,208.2,243.6,210.5,242.2,212.7z"/>
		<path class="st31" d="M226,215.1c-2.9-0.6-5,1.1-6.1,3.7c-0.6,1.5-1,3-1.4,4.6c-0.3,1-0.9,2.1-2.1,2.1c-0.6,0-1.2,0.2-1.7,0.6
			c-0.1,0-0.1,0.1-0.1,0.2c0.8,3.4,4.6,1,5.6-0.9c0.8-1.6,1-3.5,1.5-5.2c0.7-2.1,2.2-3.8,4.3-4.6c0.1-0.1,0.2-0.3,0.1-0.4
			C226.1,215.2,226.1,215.1,226,215.1z"/>
		<path class="st31" d="M207,208.6c-1.8-0.6-3.1-0.2-4.9,0.4c-2.5,0.8-5.6,0.3-8.2,1c-1.8,0.4-3.5,1.5-4.6,3.1
			c-1.1,1.4-3,7.3-5.9,6.2c0,0-0.1,0.1,0,0.1c2.3,1.6,3.8,0,5.3-2.1c0.8-1.3,1.7-2.6,2.7-3.8c1.4-1.6,4.9-1.2,7.1-1.2
			c3.4,0.1,4.5-4.6,8.4-3.3C207.2,209,207.3,208.6,207,208.6z"/>
		<path class="st31" d="M180.5,197.9c-1.8,0.1-3.4,0.8-5.2,0.9c-2.3,0.1-3.2-0.6-4.9-1.7c-0.1-0.1-0.3,0.1-0.2,0.2
			c1.5,1.2,1.9,2.4,3.9,2.5c1.8,0.2,3.6,0.3,5.5,0.1c1.9-0.4,3.9-0.3,5.9,0.1c0,0,0.1,0,0.1,0c0,0,0-0.1,0-0.1
			C184.3,198.1,182.8,197.8,180.5,197.9z"/>
		<path class="st31" d="M165.2,187.6c-1.4-3.1-6.9-1.5-8.8,0.1c-0.3,0.3,0,0.8,0.4,0.7c1.3-0.2,2.5-0.8,3.8-1c1.6-0.2,2.4,0.3,3.7,1
			c0.3,0.2,0.7,0,0.8-0.3C165.3,188,165.3,187.8,165.2,187.6z"/>
		<path class="st31" d="M294.7,192.3c-1.4-0.8-6.7-3-3.2-5c1.3-0.8,3.7,0.6,4.6-1c1.2-2.1-3.7-3-4.9-3.1l-0.5-0.1
			c-7.7-1.1-14.8-4.2-22.5-4.6l1.7,1.2c5.6,0,7.6,6.3,6.9,11c-0.8,5-2.9,9.2-4.8,13.9c-0.5,1.4-1.1,2.9-1.8,4.3
			c0.6,0.2,1.1,0.4,1.7,0.4c2.6,0.3,3.6-1.6,4.3-3.7c0.3-1,0.6-2,1.1-3c0.9-1.8,1.8-1.5,3.5-2.2c1.1-0.5,1.5-1.6,2.5-2.2
			c2.3-1.4,5.3-0.2,7.8,0.3c1.8,0.4,5.7,1.2,6.9-1C299.1,195.4,296.2,193.1,294.7,192.3z"/>
		
			<linearGradient id="SVGID_10_" gradientUnits="userSpaceOnUse" x1="191.7988" y1="310.9522" x2="281.2327" y2="310.9522" gradientTransform="matrix(0.9992 -4.117812e-02 -4.117812e-02 -0.9992 2.224 469.2049)">
			<stop  offset="1.000000e-02" style="stop-color:#824225"/>
			<stop  offset="1" style="stop-color:#522505"/>
		</linearGradient>
		<path class="st33" d="M269,149.1c-0.3-0.6-0.7-1.3-1.1-1.9c-2.1-2.9-8.3-8-11.9-8c1-5.3-15.6-5.6-17.2-6.1
			c-1.2-0.5-2.5-0.9-3.8-1.3c-3.4-0.5-6.9,0.5-10.2,1.1c-4.3,0.8-8.6,1.4-12.9,1.7c-2,0.2-16.7,2.7-16.3,6c-3.5,0-8.4,2.5-7.4,6.7
			c-1.1,0.9-2.6,1.2-3.7,2.3c-1.7,1.5-0.8,2.7-0.2,4.4c-1.6,0.8-3.8,1.6-2.6,3.8c0.9,1.6,3.2,2.1,4.8,2.5c3.2,0.6-0.1,4.7,2.8,4.9
			c4.4,0.4,9,0.8,13.4,0.9c5.8,0.1,11.6-0.6,17.4-0.9c6.4-0.3,12.6-1.7,18.9-2.6c3.9-0.5,7.9-0.4,11.8-1.1c3.6-0.6,7-1.6,10.6-2.3
			c2-0.3,4-0.5,6-0.6C272.4,158.8,270.8,152.8,269,149.1z"/>
		<g>
			<path class="st34" d="M217.6,146.1c-0.4,0-0.8,0.1-1.1,0.2c0.3-0.5,0.1-1.2-0.5-1.5c-0.1,0-0.2-0.1-0.3-0.1
				c0.1-0.2,0.1-0.4,0-0.6c0.2-0.2,0.2-0.6-0.1-0.8c0,0,0,0,0,0c-0.2-0.2-0.5-0.3-0.7-0.4c0-0.3-0.2-0.6-0.5-0.8
				c-0.2-0.3-0.4-0.5-0.6-0.7c0.4-0.3,0.5-0.8,0.3-1.3c-0.6-1.4-1.6-2.5-2.9-3.2h0.1c0.7-0.1,0.9-1.2,0.1-1.3h-0.2l0,0H211
				c-1.2,0-2.4,0.3-3.4,0.9l0,0c-3.4,0.6-7.2,3-10.5,3.3c-0.1,0-0.2,0.1-0.2,0.2c0,0.1,0.1,0.2,0.2,0.2c3.6,0.1,7.8-2.5,11.2-2.3
				c0.3,0.2,0.6,0.4,0.9,0.7c0.1,0.2,0.2,0.4,0.3,0.6c0,0.2-0.1,0.5-0.4,0.6c-1.3,0-2.7,0-4,0.2c-5.8,0.8-9.9,5.4-15.5,6.7
				c-0.1,0-0.1,0.2,0,0.2c7-0.1,12.8-6,19.3-5.2c0,0.2,0,0.3,0,0.5c-1.9,0.4-3.7,0.8-5.4,1.5c-6.8,2.2-11.9,8.1-19.1,9.2
				c-0.1,0-0.1,0.1,0,0.1c2.9,0.2,5.7-0.5,8.3-1.9c0,0,0.1,0,0.1,0c2.6-1,5.3-1.9,8.1-2.5c1.5-0.3,3.1-0.5,4.6-0.6
				c1.5,0,2.8,0.6,4.2,0.5h0.1c-0.1,0.6,0.4,1.2,1,1.2c0.1,0,0.2,0,0.3,0c0.2,0.4,0.7,0.7,1.2,0.5c1.3-0.7,2.6-1.3,4-1.7
				c0.5-0.1,1-0.2,1.5-0.2C219.1,148.1,219.1,146,217.6,146.1z"/>
			<path class="st34" d="M270.4,156.2c-4.6-5.1-5.5-11.6-12.8-14c-4.9-1.5-10-1.7-15-0.7l0.4-0.3c1-0.7,2.1-1.3,3.2-1.8
				c4-0.6,8.1-0.3,12.1,0.7c0.1,0,0.2,0,0.2-0.1c0-0.1,0-0.1-0.1-0.2c-3-1.5-6.3-2.3-9.7-2.3c-0.1-0.2-0.4-0.4-0.6-0.3
				c-1.3,0.1-2.6,0.4-3.8,0.8c-0.4,0.1-0.9,0.2-1.3,0.3c0.5-0.7,1.2-1.4,1.9-1.9c1.6-1.2,3.2-1,5-1.4c0.1,0,0.1-0.1,0-0.2
				c-1.4-1-3.3-1.1-4.8-0.3c-0.1-0.2-0.3-0.4-0.5-0.4c-1.7-0.4-3.3-0.9-5-0.6c-0.6,0.1-1.3,0.7-1,1.4c0.5,1.6,0.8,3.2,0.8,4.8
				c-1.6,0.8-3,1.7-4.3,2.9c-1,0.9,0.5,2.3,1.5,1.4c0.4-0.3,0.8-0.7,1.2-1c0,0.2,0,0.4,0.1,0.5c-0.1,0.1-0.2,0.1-0.4,0.2
				c-0.5,0.4-0.7,1.2-0.3,1.7c0.3,0.4,0.8,0.6,1.3,0.5c2.8-0.9,4.7,0.1,7.5-0.4c6.6-1.2,10.3,1.1,16,3.6c0.3,0.1,0.6,0.1,0.8-0.1
				c2.2,3,3.6,6.8,7.3,8.1C270.4,157.2,270.6,156.5,270.4,156.2z"/>
		</g>
		<path class="st22" d="M269.7,156.6c-1.8-2.4-3.3-4.9-4.7-7.6c-1.4-2.5-4.2-4.4-6.6-5.8c-4.4-2.6-11.6-3-16.9-1.8
			c-0.2-1.2,2-1.6,2.7-1.8c-1.1-0.6-2.7-0.2-2-1.8c0.6-0.9,1.5-1.7,2.5-2.1c-1.9-0.4-3.7-1.6-5.6-1.9c-2.5-0.5-5-0.7-7.5-0.6
			c-2.7,0.1-5.3,0.4-7.9,0.6c-1.8,0.1-5.9-0.2-7,1.2l-5.1,1.1c-1.3-0.5-3.2,0.4-4.5,0.8c0.3,1,1.9,0.9,2.5,1.9
			c1.1,1.8-0.5,1.6-1.8,1.7c-2.1,0.2-5.4,0.9-7,2.3c1.9-1,6.7-1.6,8.1,0.6c-1,0.8-3.3,0.8-4.6,1.1c-1.7,0.5-3.2,1.1-4.8,1.9
			c-3,1.6-6.1,3.9-9.6,4.3c2.4,0,5-1.2,7.5-1.4c2.5-0.3,5-0.1,7.5,0.5c1.3,0.4,2.4,1.3,3.6,1.7c1.3,0.4,2.6,0.6,3.9,0.6
			c2.8,0.3,5.4,1,8.2,0.6s5.4-1.1,8.1-1.7s5.6-0.7,8.1-1.6c2.1-0.8,3.9-2.1,6.1-2.4c3.3-0.4,6.6-0.7,9.9-0.7
			c3.9-0.2,6.4,1.1,9.4,3.6c0,0,0-0.1,0-0.1c1.2,1.6,2.1,3.4,3.4,5c0.7,1.2,2,1.9,3.3,1.9c0.1,0,0.2-0.1,0.2-0.2
			C269.8,156.7,269.7,156.7,269.7,156.6z"/>
		<path class="st23" d="M198.6,144.4c-4.3,2.2-9.1,3.7-13.1,6.4c-0.1,0-0.1,0.1,0,0.2c0,0,0.1,0.1,0.1,0.1c8,0.6,13-7.4,20.5-8.4
			l0,0C203.6,141.7,200.9,143.2,198.6,144.4z"/>
		<path class="st23" d="M206.1,138.8c-2.5,0-5.1,0.7-7.3,1.8c-2.7,1.4-5.7,2.3-8.3,3.8c-0.1,0.1-0.1,0.2-0.1,0.3
			c0,0,0.1,0.1,0.1,0.1c2.1,0.4,3.8-0.5,5.6-1.4c3.3-1.6,6.2-3.6,9.9-4c0.2,0,0.3-0.1,0.3-0.3S206.3,138.8,206.1,138.8z"/>
		<path class="st22" d="M265.5,146.7c-3.5-4.4-8.7-7.7-14.5-7c-0.1,0-0.2,0.1-0.2,0.2c0,0.1,0.1,0.2,0.2,0.2c5.6,0,10,3.8,14.4,6.8
			C265.5,146.9,265.6,146.8,265.5,146.7z"/>
		<path class="st35" d="M246,136.8C246,136.8,246,136.8,246,136.8c0,0.1,0,0.1,0.1,0.1c3.2-0.9,6.1-0.9,8.9,1c0.1,0,0.2,0,0.2-0.1
			c0,0,0-0.1,0-0.1C254,133.8,248.5,135.2,246,136.8z"/>
		<path class="st22" d="M267.5,155.2c-0.6-1.5-1.5-2.9-2.4-4.2c-0.5-0.7-0.8-1.4-1.3-2.1c-0.5-0.6-1-1.2-1.6-1.8
			c-0.5-0.6-1-1.1-1.6-1.6c-0.7-0.4-1.5-0.8-2.4-1c-0.9-0.3-1.8-0.1-2.6-0.6c-0.7-0.6-1.6-1-2.5-1.3c-0.9-0.2-1.9,0.2-2.8-0.1
			c-0.4-0.1-0.8-0.3-1.2-0.4c-0.5-0.1-1.1-0.2-1.6-0.3c-0.9,0-1.9,0.2-2.7,0.6c-0.3,0.2-0.7,0.3-1.1,0.2c-0.4-0.1-0.9-0.1-1.4-0.1
			c-2.5,0.1-1.6-2.5-1.1-3.8c0.9-2.3-2-3.3-3.6-3.6c-2.8-0.4-5.7-0.6-8.5-0.4c-2.9,0.1-6.4,0.1-9,1.3l-8.4,0.3c-0.1,0-0.3,0-0.4,0
			c-0.1,1.1,0.3,2.7,0,3.7c-0.2,0.6-0.8,0.8-1.1,1.3c-0.5,0.8-0.4,0.6-0.4,1.6c0,1.3-0.1,1.8-1.3,2.3c-1.6,0.7-3.4,0.6-5,1
			c-2.2,0.8-4.2,2-5.9,3.5c0.6,0.3,1.4-0.1,2.1-0.1c1.1-0.1,2.3-0.2,3.4-0.4c1.1-0.2,2.2-0.3,3.3-0.4c1.2,1.2,2.7,1.9,4.4,2.3
			c4,0.1,8.1-0.4,12.1-0.6c3-0.2,6.1-0.2,9.1-0.2c1.5,0,3.1,0,4.6,0c1.2,0,2.3-0.2,3.5-0.2c0.6,0,1.2,0.1,1.8,0.2
			c0.9,0.1,1.9,0.5,2.8,0.7c1.8,0.4,3.7,0.4,5.6,0.8c1.4,0.3,2.7,0.7,4,1.1s2.5,0.9,3.7,1.4c2.2,0.7,4.4,1.1,6.5,2.1
			c0.8,0.3,2.7,1.6,3.6,1.2C268.4,157.2,267.7,155.7,267.5,155.2z"/>
		<path class="st36" d="M240.1,140.5c-0.1-0.4-0.3-0.7-0.4-1c-0.7-1.1-1.6-1.9-2.8-2.3c-4.6-1.9-10.3-0.4-15,0.4
			c-1.1,0.3-2.2,0.5-3.4,0.6l-5.6,0.7c0.3,1.4-0.7,2-1.3,3.2c-0.5,1.3-0.9,2.6-1.1,4c-0.3,1-1.3,0.8-2.2,0.8
			c-1.9-0.1-3.8,0.3-5.4,1.1c-0.4,0.2-0.7,0.4-1,0.6c1-0.1,2,0.2,2.9,0.7c1,0.5,2.3,1.6,3.4,1.5c0.5-0.1,1-0.4,1.4-0.7
			c0.7-0.3,1.4-0.6,2.2-0.8c1.3-0.4,2.7-0.6,4.1-0.6c1.3,0.1,2.7,0.2,4,0.1c1.3-0.1,2.6-0.1,3.9,0c1.6,0,3.1,0,4.7-0.1
			c1-0.1,2-0.2,3-0.4c0.7-0.2,1.3-0.6,2-0.8c2.1-0.4,4.2-0.6,6.4-0.7c3.3-0.2,6.5-0.7,9.7-1.5c0.7-0.2,2.7-0.7,1.9-1.6
			c-0.6-0.5-1.3-0.8-2.1-1c-0.8-0.2-1.7-0.3-2.6-0.3c-0.8,0.1-1.7,0.5-2.4,0.9c-0.5,0.3-0.4,0.1-1-0.1c-0.4-0.1-0.9-0.2-1.3-0.2
			c-1,0-1.8-0.4-1.8-1.4C240.3,141.3,240.3,140.9,240.1,140.5z"/>
		<path class="st37" d="M244.7,137.8c-2.3,9.3-12.1,14.9-22,12.5s-16-11.9-13.7-21.2c1.7-6.4,6.8-11.3,13.3-12.6
			c2.8-0.6,5.4,0.6,8.4,1.4c3.7,0.9,7.2,1.6,9.6,4.1C244.3,126,246,132,244.7,137.8z"/>
		<path class="st38" d="M238.1,122.6c-2.9-1.6-7.1,0.1-10.5-0.4c-1.6-0.2-4.6-1-3.8-3.2c0.1-0.5,0.5-0.9,1-1.1
			c0.5-0.2,1.2,0,1.3-0.7c-1.4-1.2-3.7-0.5-5.2,0.1c-2.8,0.8-5.4,2.4-7.4,4.6c-2.6,3.2-4,7.3-4.1,11.4c0.4,9.6,11.8,12.5,19.6,9.7
			c4.5-1.6,7.9-3.3,10-7.9c1-1.8,1.6-3.8,1.7-5.9c0.1-2.3-0.8-3.9-2.1-5.8C238.6,123.1,238.4,122.8,238.1,122.6z"/>
		<path class="st39" d="M236.7,123.2c-0.1,0-0.1-0.1-0.2-0.1c-2.9-1.9-7,1.2-10.3,0.3s-5.4-5.2-8-4.2c-8.1,2.9-8.6,13.3-3.6,16.9
			c7.2,5.3,21.5-0.4,22.4-10.2C237.4,121.8,236.9,124.1,236.7,123.2z"/>
		<path class="st40" d="M231.1,125.9c-1.6-1.6-4.2-0.8-6.2-1.3c-1.1-0.3-2.2-0.8-3-1.7c-0.5-0.4-1.2-1.6-1.9-1.6c0,0,0,0.1,0.1,0.1
			l-1.1-0.4c-4-1-6.5,6.4-4.9,9c2.4,4,6.7,5.2,11,3.9C227.7,133.3,234.1,129.1,231.1,125.9z"/>
		<path class="st41" d="M228,127.7c-0.2-0.5-0.8-0.8-1.3-0.7l0,0c-0.3-0.1-0.6,0.1-0.8,0.3c-0.3,0.3-0.4,0.7-0.5,1.1
			c-0.1,0.5,0.3,1.1,0.8,1.2c0.1,0,0.2,0,0.3,0c0.3,0,0.6-0.1,0.9-0.1c0.6-0.1,1-0.6,0.9-1.2C228.2,128,228.1,127.9,228,127.7z"/>
		<path class="st41" d="M222.6,127.3c-0.1-0.1-0.2-0.1-0.3-0.1c0-0.4-0.3-0.7-0.6-0.9c-0.2-0.4-0.7-0.7-1.1-0.7
			c-0.2-0.2-0.5-0.3-0.8-0.4c-0.5-0.6-1.4-0.6-2,0c-0.1,0.1-0.2,0.3-0.3,0.4c-0.3,0.8-0.3,1.7,0,2.5c0.3,0.7,1.1,1,1.8,0.8
			c0.1,0,0.2-0.1,0.2-0.1c0.2,0.1,0.4,0.1,0.6,0c0.4,0.3,1,0.2,1.4-0.1c0.2,0,0.4,0,0.6-0.1H222c0.4,0.1,0.8-0.2,0.8-0.6
			C222.8,127.7,222.8,127.4,222.6,127.3z"/>
		<path class="st41" d="M217.5,124.2c-0.6-0.8-1.7,0.3-1,0.9c0.2,0.3,0.7,0.3,0.9,0C217.7,124.9,217.7,124.5,217.5,124.2z"/>
		<path class="st42" d="M233,120.5c-1,0.1-2,0.1-3,0c-0.2,0-0.3-0.1-0.5-0.1c-0.2-0.4-0.6-0.7-0.9-1.2c-0.3-0.7-0.8-1.2-1.5-1.3
			c-1.6-0.3-3,1.7-1.5,2.8c2.2,1.7,5,0.8,7.4,0.1C233.3,120.8,233.2,120.5,233,120.5z"/>
		<path class="st42" d="M242.6,127.5c-0.2-0.4-0.9-1.1-0.7-0.7c2.2,5.2-0.3,11.8-4.6,16.1c-2.4,2.3-5.2,3.9-8.4,4.8
			c-2,0.4-4.1,0.6-6.2,0.7c-0.4,0-0.7,0.3-0.3,0.4C234.6,154.3,250.1,139.5,242.6,127.5z"/>
		<path class="st43" d="M232.7,96.5c-0.3-1.8-0.9-3.5-1.8-5c-0.4-0.8-1.6-1.3-2.2-0.4c-0.1,0.1-0.2,0.3-0.3,0.4
			c-0.5,0.6-0.4,1.4,0.2,1.8c3.2,2.2,2.7,10.1,2.8,13.4c0.1,4.1-0.6,8.3-2,12.2c-0.2,0.2-0.5,0.3-0.8,0.3c-0.4,0.1-0.7,0.4-0.7,0.9
			c0,0.3,0.2,0.5,0.4,0.6c0.2,0.1,0.4,0.2,0.6,0.3c0.3,0.1,2,0.2,2-0.5c0-0.5-0.4-0.6,0-1.5l0,0c1.4-3.9,2.2-8,2.4-12.1
			C233.5,103.5,233.4,99.9,232.7,96.5z"/>
		<path class="st44" d="M230,91.1c-0.6-0.9-1.5,0.7-1.6,1.2c-0.1,0.2,0,0.3,0.2,0.4c0,0,0.1,0,0.1,0l0,0l0,0c0.1,0,0.2-0.1,0.2-0.1
			C229.5,92.3,230.4,91.7,230,91.1z"/>
		<path class="st44" d="M231.9,100.3c0,0-0.1-0.1-0.1,0c0,0,0,0,0,0c-0.1,1.3-0.1,2.6,0,3.9c0,1.8-0.1,3.6,0,5.4l0,0
			C232.1,106.8,233,103,231.9,100.3z"/>
		<path class="st44" d="M231.8,98.4c0,0-0.1-0.1-0.1-0.1c0,0,0,0-0.1,0.1c-0.1,0.2-0.1,0.5,0,0.7c0,0.1,0.2,0.1,0.2,0
			C231.9,98.9,231.9,98.6,231.8,98.4z"/>
		<path class="st44" d="M229.2,92.8c0,0-0.1,0.1-0.1,0.1c0,0.6,0.8,1.1,1.1,1.5c0.5,0.9,0.9,1.8,1.2,2.8c0,0.1,0.2,0,0.2,0
			C231.5,96.4,230.6,92.2,229.2,92.8z"/>
		<path class="st44" d="M231.5,110.6c-0.2,2-0.6,4-1.1,6c-0.2,1.2-0.6,2.5-1.8,3.1c-0.2,0.1-0.3,0.3-0.3,0.5c-0.1,0.6,0.9,0.7,0.9,0
			c0,0.1,0.8-0.8,0.8-0.8c0.4-0.7,0.6-1.5,0.8-2.4C231.3,115,231.6,112.8,231.5,110.6L231.5,110.6z"/>
		<path class="st45" d="M233,104.5c-0.4,3-0.8,6-1.4,9c-0.3,1.4-0.7,2.8-1.2,4.2c-0.2,0.9-0.4,1.8-0.4,2.7c-0.2,0.1-0.2,0.2-0.2,0.4
			c0,0.1,0.2,0.2,0.3,0.2h0.2c0.2,0,0.3-0.2,0.3-0.4c-0.3-2.3,1.2-4.8,1.6-7C232.8,110.6,233,107.6,233,104.5
			C233,104.5,233,104.5,233,104.5z"/>
		<path class="st45" d="M230.4,91.8c-0.4-0.4-0.9,0.2-0.5,0.6c1,1.1,1.5,3.1,1.9,4.4c0.5,1.8,0.9,3.5,1.2,5.3l0,0
			C232.9,99,232.8,94.3,230.4,91.8z"/>
		<path class="st46" d="M229.7,91c-0.1,0-0.2,0-0.2,0c0,0,0,0,0,0.1c0,0.5-0.7,0.8-1,1.1c-0.1,0.1-0.1,0.2-0.1,0.3
			C228.7,93.2,230.7,91.7,229.7,91z"/>
		<path class="st46" d="M229.2,91.1c0.2,0.2,0,0.6,0,0.8c0,0,0,0.1,0,0.1s0.1,0,0.1,0C229.6,91.7,229.7,91,229.2,91.1L229.2,91.1z"
			/>
		<path class="st22" d="M243.1,141c-1.2,0.1-3.3,1.3-4.5,1.7c-1.6,0.5-3.3,0.7-5,0.7c-2.1,0.1-3,1.3-4.8,1.8s-3.7,0.1-5.6,0.4
			c-1.7,0.3-2.9,0.9-4.4,0.9c-1.8,0-2.8-0.7-4.7,0l-1.3,1.3c-1.4,0.8-5,0.8-6.5,2.2c7.1,3.8,14.8,4.9,22.9,5.4
			c5.8,0.4,10.6-2,15.4-5c2.3-1.4,6.5-3.4,7.5-6C249.6,142.4,246.4,141.2,243.1,141z"/>
		
			<linearGradient id="SVGID_11_" gradientUnits="userSpaceOnUse" x1="186.0467" y1="287.4415" x2="285.8219" y2="287.4415" gradientTransform="matrix(0.9992 -4.117812e-02 -4.117812e-02 -0.9992 2.224 469.2049)">
			<stop  offset="0" style="stop-color:#9F5C46"/>
			<stop  offset="0.99" style="stop-color:#824225"/>
		</linearGradient>
		<path class="st47" d="M273.3,160.9c-0.8-1.4-2.6-2.4-3.5-3.3c-1.1-1-2.3-1.9-3.6-2.6c-1-2.9-2.6-5.5-4.7-7.8c-3.4-3.5-6.3-2-6.3-2
			s-1.9-1.8-3-2c-0.9,0-1.7,0.2-2.4,0.8c-0.5-0.5-1-1-1.6-1.4c-1.4-0.9-3.4,0.1-3.9,2.5c-0.5-2.8-6.1-2.4-5.8,0.8
			c-0.1-1.7-2.7-1.6-4-0.8c-1.6,1-1.7,2.9-2.4,4.4c-0.3-1.5-1.5-2.6-3-2.7c-1.6,0.1-2.3,1.9-3,3.1c1.1-4.7-6.4-2.2-8,0
			c1.8-4.3-5.7-1.8-7.1-0.4c0.7-0.9,0.1-1.6-0.8-1.5l-1.3-0.4c-2.2-1.5-11.1,2.9-14.3,4.1c-2.5,0.9-5.9-0.2-8.6,0.6
			c-2.5,0.8-4.7,2.3-6.4,4.3c-0.7,1.1,2.5,1.7,2,2.5c-0.8,1.1-2.4,1.2-3.3,2.6c-0.7,1.4-0.7,3.1,0,4.5c-1.6,1.1-2.9,1.1-2.4,3.4
			c0.4,1.7,1.5,2.7,2.6,4c-3.3,4.4,2.6,7.9,5.8,10.1c-1.8,2.7,0.1,4.1,2.4,5.6c1,0.6,2.2,1.1,3.4,1.3c1.2,0.2,3.1,0,4.2,0.4
			c-2.3,4.4,9.4,4.3,11.6,3.7c-0.1,6.1,10.6,5.2,14.5,4.1c-0.1,5.5,12.9,0.2,14.9-0.3c1.6-0.4,1.3,0.1,2.8,0.8
			c1.3,0.5,2.8,0.5,4.2,0.2c2.8-0.3,5.5-1.3,7.8-2.9c1-0.8,1.9-2.3,3-2.8c3,4.1,11.2-1.9,12.9-5.1c0.2-0.3,0.5-1.5,0.6-1.7
			c0.6-0.5,1.1-0.1,1.8-0.4c1-0.4,1.9-1.2,2.4-2.1c1.4-2.2,2-5.3,2.1-8.7c2.3-0.5,2.6-3,2.8-4.9
			C276.3,168.9,274.7,163.4,273.3,160.9z"/>
		
			<linearGradient id="SVGID_12_" gradientUnits="userSpaceOnUse" x1="194.0804" y1="291.4079" x2="242.9066" y2="291.4079" gradientTransform="matrix(0.9992 -4.117812e-02 -4.117812e-02 -0.9992 2.224 469.2049)">
			<stop  offset="1.000000e-02" style="stop-color:#652010"/>
			<stop  offset="1" style="stop-color:#7C3A20"/>
		</linearGradient>
		<path class="st48" d="M184.8,186.6c0,0,2.6-6.7,15.6-13.7s25.5-16.1,27.2-20.1s1.2-5.6,2.5-5.7s3.7,2.4,0.4,8.5s-6.6,9-12.5,13
			s-12.2,7.2-17.2,13.8s-5.4,8.2-6.6,8.4S185.7,191.3,184.8,186.6z"/>
		
			<linearGradient id="SVGID_13_" gradientUnits="userSpaceOnUse" x1="205.0947" y1="290.1915" x2="248.5514" y2="290.1915" gradientTransform="matrix(0.9992 -4.117812e-02 -4.117812e-02 -0.9992 2.224 469.2049)">
			<stop  offset="1.000000e-02" style="stop-color:#652010"/>
			<stop  offset="1" style="stop-color:#7C3A20"/>
		</linearGradient>
		<path class="st49" d="M236.6,145l-0.3,0.3c-1.2,1.5-1,4.8-1.4,6.7c-0.6,2.4-1.6,4.8-3,6.9c-2.3,3.7-5.3,6.8-8.8,9.3
			c-8.5,5.5-16.3,11.1-22.7,19c-1.4,1.7-2.7,3.4-3.8,5.3c-1.6,2.9,2.6,2.2,4.7,2.1c2.9-0.1,4.2-0.2,5.6-2.7c1.3-2.2,2.7-4.2,4-6.3
			c2.8-4.4,6.2-8.5,10.1-12c3.5-3.3,7.3-6.2,10.3-10c2.3-2.7,4-5.8,5-9.1C236.7,152.5,239.1,146.2,236.6,145z"/>
		
			<linearGradient id="SVGID_14_" gradientUnits="userSpaceOnUse" x1="188.2471" y1="295.3427" x2="236.8092" y2="295.3427" gradientTransform="matrix(0.9992 -4.117812e-02 -4.117812e-02 -0.9992 2.224 469.2049)">
			<stop  offset="1.000000e-02" style="stop-color:#652010"/>
			<stop  offset="1" style="stop-color:#7C3A20"/>
		</linearGradient>
		<path class="st50" d="M225.7,148.1l-0.5-0.1c-1.7,0-3.3,2.7-4.3,3.9c-1.6,1.7-3.2,3.4-4.9,4.9c-3.7,3.4-7.9,6.1-12.5,8.1
			c-4.4,2-9.1,3.5-13.5,5.4c-2.2,1-4.3,2-6.4,3.1c-1.1,0.6-4.7,2.4-5,3.8s2.7,3.8,3.8,4.5c0.9,0.6,1.7,1.2,2.6,0.9
			c0.6-0.3,1.4-1.5,1.9-2c3.3-3.3,6.8-6.3,10.6-9.1c7.4-5.7,17.1-8.2,23.4-15.1C221.7,155.3,227.5,148.6,225.7,148.1z"/>
		
			<linearGradient id="SVGID_15_" gradientUnits="userSpaceOnUse" x1="219.3847" y1="288.3605" x2="256.5447" y2="288.3605" gradientTransform="matrix(0.9992 -4.117812e-02 -4.117812e-02 -0.9992 2.224 469.2049)">
			<stop  offset="1.000000e-02" style="stop-color:#652010"/>
			<stop  offset="1" style="stop-color:#7C3A20"/>
		</linearGradient>
		<path class="st51" d="M245.6,149.9c-0.3-1.3-0.7-2.5-1.4-3.6c-0.4-0.7-2.1-2.6-2.1-2.6l-1.4-0.1c-1.4,1.1,0.4,5.4,0.4,7
			c-0.1,2.4-0.4,4.7-1,7c-1,4.9-3.9,9-7,12.9c-3.4,4.3-7.8,7.8-11.8,11.4c-4,3.9-7.2,8.4-9.6,13.5c-0.4,0.8-1.4,2-1.2,2.9
			c0.2,1.4,1.3,1,2.7,0.8c2.2-0.3,5.3,0.1,7.3-1s3.5-3.6,5-5.2c1.9-2,3.8-4.1,5.6-6.3c6.7-7.7,12.3-16.9,13.9-27.1
			C245.7,156.3,246.3,153.1,245.6,149.9z"/>
		
			<linearGradient id="SVGID_16_" gradientUnits="userSpaceOnUse" x1="232.9047" y1="286.2209" x2="264.4105" y2="286.2209" gradientTransform="matrix(0.9992 -4.117812e-02 -4.117812e-02 -0.9992 2.224 469.2049)">
			<stop  offset="1.000000e-02" style="stop-color:#652010"/>
			<stop  offset="1" style="stop-color:#7C3A20"/>
		</linearGradient>
		<path class="st52" d="M253.6,154.7c-0.3-1.8-4.2-11.4-7.2-9.8c1.5,1.2,1.7,2.9,2.2,4.7c2.7,8.8,1,19.6-3,27.8
			c-2.5,5.4-5.8,10.4-9.7,14.9c-3,3.3-7.4,7.2-11.7,8.5l1.4,0.6c1.2-0.3,2.3-0.7,3.4-1.2c1.2-0.5,2.5-0.7,3.7-1.2
			c3.1-1.3,5.9-3.1,8.5-5.2c6.8-6.4,9.5-15.4,11.7-24.3C254.2,164.7,254.4,159.6,253.6,154.7z"/>
		
			<linearGradient id="SVGID_17_" gradientUnits="userSpaceOnUse" x1="259.441" y1="260.3495" x2="263.951" y2="312.0995" gradientTransform="matrix(0.9992 -4.117812e-02 -4.117812e-02 -0.9992 2.224 469.2049)">
			<stop  offset="1.000000e-02" style="stop-color:#652010"/>
			<stop  offset="1" style="stop-color:#7C3A20"/>
		</linearGradient>
		<path class="st53" d="M257.7,152.1c-0.7-1.7-1.8-3.2-3.1-4.4c-1.1-1.1-5.8-4.7-5.8-4.7c3.4,1.6,6.2,7.4,7.4,10.6
			c1.6,4.6,1.2,9.7,1,14.6c-0.5,9.6-4,19.6-10.8,26.9c-1.3,1.3-2.5,2.7-3.5,4.2c2-0.8,4-0.9,6-1.9c1.9-1,3.5-2.6,4.6-4.5
			c2.5-4,4.2-8.4,5.1-13.1C259.9,170.7,261.8,160.5,257.7,152.1z"/>
		
			<linearGradient id="SVGID_18_" gradientUnits="userSpaceOnUse" x1="273.0778" y1="264.6791" x2="272.9278" y2="306.3691" gradientTransform="matrix(0.9992 -4.117812e-02 -4.117812e-02 -0.9992 2.224 469.2049)">
			<stop  offset="1.000000e-02" style="stop-color:#652010"/>
			<stop  offset="1" style="stop-color:#7C3A20"/>
		</linearGradient>
		<path class="st54" d="M257.5,145.7l-0.9-0.2c8.6,4.8,9.7,16.1,8.7,25.2c-0.6,5-1.8,9.9-3.6,14.6c-0.8,2-1.7,4-2.8,5.9
			c-0.3,0.6-1.9,2.5-1.3,3.3s2.5-0.4,3.1-0.7c9.7-4.5,9-17,9-25.9C269.7,159.2,264.4,150.9,257.5,145.7z"/>
		
			<linearGradient id="SVGID_19_" gradientUnits="userSpaceOnUse" x1="187.0128" y1="300.4962" x2="228.7287" y2="300.4962" gradientTransform="matrix(0.9992 -4.117812e-02 -4.117812e-02 -0.9992 2.224 469.2049)">
			<stop  offset="1.000000e-02" style="stop-color:#652010"/>
			<stop  offset="1" style="stop-color:#7C3A20"/>
		</linearGradient>
		<path class="st55" d="M214.1,150.4c-1.4,1.2-3,2.4-4.6,3.4c-3.1,2-6.4,3.9-9.7,5.6c-6.6,3.6-14.1,4.8-20.8,7.7
			c-1.9,0.8-2.5,1.2-1.6,3.1c0.3,0.7,0.7,1.3,1.1,1.8c0.9,1,0.8,0.6,1.6-0.2c2.7-2.3,6.4-3.9,9.6-5.1c3.4-1.3,7.1-1.9,10.5-3.4
			c3.4-1.5,6.7-3.4,9.6-5.8c1.5-1.2,2.8-2.5,4.2-3.9c0.7-0.6,1.4-1.3,2-2c0.6-0.8,0.7-1.8,1.3-2.5l0.6-0.8
			C217.4,146.9,214.7,149.8,214.1,150.4z"/>
		
			<linearGradient id="SVGID_20_" gradientUnits="userSpaceOnUse" x1="189.0452" y1="304.1399" x2="221.7348" y2="304.1399" gradientTransform="matrix(0.9992 -4.117812e-02 -4.117812e-02 -0.9992 2.224 469.2049)">
			<stop  offset="1.000000e-02" style="stop-color:#652010"/>
			<stop  offset="1" style="stop-color:#7C3A20"/>
		</linearGradient>
		<path class="st56" d="M207.3,151.3c-1.6,1.2-3.2,2.2-5,3.1c-3.5,1.6-7.2,2.9-10.9,3.8c-2.7,0.8-5.4,1.4-8,2.3s-5.1,1.3-4.4,4.6
			c2.9-2,6.2-2.7,9.5-4s6.4-2.4,9.8-3.4c2.7-0.8,5.3-2,7.6-3.5c1.6-1.1,4.5-3.1,4.9-5.1l0.1-0.4
			C209.9,148.1,208.2,150.6,207.3,151.3z"/>
		
			<linearGradient id="SVGID_21_" gradientUnits="userSpaceOnUse" x1="190.4435" y1="307.682" x2="219.1975" y2="307.682" gradientTransform="matrix(0.9992 -4.117812e-02 -4.117812e-02 -0.9992 2.224 469.2049)">
			<stop  offset="1.000000e-02" style="stop-color:#652010"/>
			<stop  offset="1" style="stop-color:#7C3A20"/>
		</linearGradient>
		<path class="st57" d="M208.1,148.3l-0.2-0.3c-1.8,0.1-3.1,0.9-4.7,1.7s-3.4,1.4-5.2,2.1c-3.6,1.4-7.3,1.2-11.1,1.9
			c-1.6,0.3-9.8,3.1-5.9,5c1.3,0.6,3-1,4.3-1.5c1.8-0.5,3.7-0.8,5.5-1.1c3.3-0.7,6.6-1.7,9.7-3c1.6-0.6,3.1-1.2,4.6-1.9
			c1.5-0.8,2.1-1.7,3.3-2.9C208.3,148,208.3,148.2,208.1,148.3z"/>
		
			<linearGradient id="SVGID_22_" gradientUnits="userSpaceOnUse" x1="281.4488" y1="269.8093" x2="282.2188" y2="302.1493" gradientTransform="matrix(0.9992 -4.117812e-02 -4.117812e-02 -0.9992 2.224 469.2049)">
			<stop  offset="1.000000e-02" style="stop-color:#652010"/>
			<stop  offset="1" style="stop-color:#7C3A20"/>
		</linearGradient>
		<path class="st58" d="M275.4,167.3c-0.5-2.7-1.5-5.8-3.4-7.9l-0.9-0.8c2,2.1,2.6,5.2,2.5,8.1c-0.1,1-0.3,2-0.6,2.9
			c-0.5-2.3-1.2-4.5-2-6.7c-0.3-0.6-0.6-1.3-0.9-1.9c1,4,1.5,8,1.7,12.1c0,2.4-0.4,4.8-1.1,7.1c-0.6,2.1-1.8,4.3-2.2,6.4
			c2.8-1.5,3.8-5.4,4.3-8.2c0.2-1,0.3-2.1,0.4-3.1c1.1-0.1,1.9-1.9,2.1-2.8C275.8,170.7,275.8,169,275.4,167.3z"/>
		<path class="st23" d="M239.5,146.3C239.5,146.3,239.4,146.3,239.5,146.3c1.2,11.1-7.4,21.2-14.6,28.6c-6,6.1-13.7,13.7-14.6,22.6
			c0,0.2,0.1,0.4,0.3,0.5c0.2,0,0.3,0,0.4-0.2c2.8-5,5.2-9.6,9.1-13.9c3.5-3.9,7.4-7.4,11.1-11.3
			C237.5,165.9,242.9,155.6,239.5,146.3z"/>
		<path class="st23" d="M234.8,147.7c-1.5,10.2-10.9,17.1-18.6,22.8c-4,2.9-7.8,6.1-11.5,9.4c-1.9,1.9-3.7,3.8-5.4,5.9
			c-1.6,1.9-2.1,4.3-3.2,6.5c-0.1,0.2,0.1,0.3,0.3,0.2c3.1-4.5,6.7-8.7,10.7-12.6c4.4-4,9.6-7.3,14.2-10.9
			C228.5,163.6,234.2,157.1,234.8,147.7L234.8,147.7z"/>
		<path class="st23" d="M227.2,150.2c-4.5,7.9-14.9,13.2-22.6,17.6c-7.2,4.2-16.2,8.6-19.5,16.9c-0.1,0.1,0,0.3,0.1,0.4
			c0.1,0.1,0.2,0,0.3-0.1c3.5-3.5,6.7-7,10.8-10c4.3-3.1,9.2-5.3,13.7-8.1c6.7-4.2,14.7-8.8,17.5-16.6
			C227.6,150.1,227.3,150,227.2,150.2z"/>
		<path class="st23" d="M223.3,148.3c-8.1,7.6-16.6,12.5-26.6,17.1c-5.8,2.7-13.2,3.7-16.8,9.5c-0.1,0.2,0.1,0.3,0.3,0.2
			c6.2-5.5,15.7-6.6,23-10.3C210.9,160.8,218.5,155.8,223.3,148.3C223.4,148.3,223.3,148.3,223.3,148.3z"/>
		<path class="st23" d="M216.3,148.3c-2.1,0.2-4.1,1-5.6,2.5c-2.9,2.5-6,4.6-9.3,6.4c-6.9,3.4-16,4.3-21.9,9.3
			c-0.1,0.1-0.1,0.4,0.1,0.3c6.4-2.7,13.3-3.8,19.7-6.7c2.9-1.3,5.6-2.9,8.2-4.9c2.9-2.2,5.2-5.6,8.8-6.6c0.1,0,0.1-0.1,0.1-0.2
			C216.4,148.3,216.3,148.3,216.3,148.3z"/>
		<path class="st23" d="M209.4,148.4c-4.7,2.4-9,5.4-14.1,6.9c-4.6,1.4-9.8,2.3-13.7,5.2c-0.1,0.1,0,0.3,0.1,0.2
			c4.9-1.9,10.5-2.7,15.6-4.3c4.6-1.5,8.6-4.8,12.5-7.5c0.1-0.1,0.2-0.3,0.1-0.4C209.7,148.4,209.5,148.3,209.4,148.4z"/>
		<path class="st23" d="M205.1,147.7c-3.4,0.8-6.7,1.9-10.1,2.8c-3.5,0.9-6.8,1.4-10,3.1c0,0,0,0.1,0,0.1c3.5-0.5,7.1-0.8,10.6-1.5
			s6.4-2.7,9.7-4.1c0.1,0,0.2-0.2,0.1-0.3C205.4,147.8,205.2,147.7,205.1,147.7L205.1,147.7z"/>
		<path class="st23" d="M247.7,148.6C247.7,148.6,247.6,148.6,247.7,148.6c2.4,9.4,0.4,20.1-4,28.6c-2.2,4-4.8,7.7-7.9,11.1
			c-2.7,3.1-6.1,5.7-8.5,9.1c-0.3,0.4,0.3,0.8,0.6,0.6c4.1-2.1,7.3-6.1,10.3-9.6c3.3-3.9,6.1-8.3,8.3-13
			C250.6,167,251,157.3,247.7,148.6z"/>
		<path class="st23" d="M255.9,154.1c0-0.1-0.1-0.1-0.2-0.1s-0.1,0.1-0.1,0.2c1.9,8.1,0.4,16.4-2.6,24.1c-1.3,3.3-2.9,6.5-4.8,9.5
			c-1.5,2.5-3.5,4.8-4.3,7.6c-0.1,0.3,0.1,0.6,0.4,0.6c0.1,0,0.3,0,0.4-0.1c5.5-3.4,9.2-12.4,11.3-18.2
			C258.7,169.8,259.4,161.8,255.9,154.1z"/>
		<path class="st23" d="M262.9,156.8C262.9,156.8,262.8,156.8,262.9,156.8c2.3,5.9,1.6,13.6,0.4,19.7s-4.2,11.2-6.3,16.9
			c-0.2,0.4,0.5,0.7,0.8,0.4C265.9,184.6,268.5,167.8,262.9,156.8z"/>
		<path class="st23" d="M270.8,165.3c-0.1-0.3-0.5-0.2-0.5,0.1c0.5,3.3,0.5,6.7,0.1,10c-0.3,2.9-1.4,5.8-1.6,8.8
			c0,0.1,0.1,0.2,0.2,0.2c0.1,0,0.1,0,0.2-0.1C273.1,179.5,272,170.8,270.8,165.3z"/>
		<path class="st22" d="M273.3,160.9c-1-1.8-2.7-2.6-3.8-3.5c-0.5-0.4-1.1-1.2-1.5-1.4c-0.8-0.5-1.4-0.9-1.4-0.9
			c-1.3-2.9-3-5.5-5.1-7.9c-1.9-1.9-4.4-3.1-5.9-2.1c-0.1,0-0.2,0.1-0.3,0.1c0,0-1.9-1.8-3-2c-0.9-0.2-1.8,0.1-2.4,0.8
			c-0.3-0.4-0.7-0.8-1.1-1.1c-1.5-0.6-3.6-0.8-4.4,2.2c-0.5-2.8-6.1-2.4-5.8,0.8c-0.1-1.7-2.7-1.6-4-0.8c-0.6,0.4-1.1,1-1.4,1.7
			c1-0.9,2.4-1,3.5-0.3c-0.1,1.2,0.2,2.5,0.2,3.7c-0.1,2-0.5,4.1-1.1,6c0,0,0.1,0.1,0.1,0c1.1-2,2.6-5.1,2.7-7.9
			c0.1,0.3,0.2,0.5,0.3,0.8c2.4-1.1,4.1-0.5,5.1,1c0.1,1.3,0.5,2.6,0.7,3.9c0.3,1.9,0.3,3.8,0.2,5.6 M244.9,159.6
			c0.4-1.7,0.7-3.4,0.8-5.2c7.7-0.1,5.7,13.9,4.7,18.4c-1.5,6.7-6.1,13.8-13.9,12.9c-1.1-0.1-2.2-0.3-3.2-0.6c0.7-1,1.4-2,2.1-3
			c3.5-5,6.2-10.5,7.9-16.3c0-0.1-0.1-0.1-0.1,0c-2.2,5.6-5.3,10.8-9.1,15.4c-2,2.5-4.4,4.8-6.4,7.3c-1.2,0.6-2.6,1-3.9,1.2
			c-3.3,0.6-8.3,1.3-10.6-1.7c-0.8-0.9-1.4-1.8-2-2.9c1.8-2.8,3.8-5.5,6-7.9c4.2-4.2,8.5-8.1,12.5-12.5c0,0,0-0.1-0.1-0.1
			c-7.1,6.9-18.2,12.9-22.6,22.4c-0.7,0.3-1.5,0.4-2.3,0.4c-1.6,0-5.1-0.6-5.4-2.5c3.2-3.7,6.3-7.5,10.2-10.6
			c4.5-3.7,9.8-5.7,13.6-10.3 M222.8,164.1c-5,4.4-11.6,6.6-16.8,11c-3.2,2.7-7.2,5.9-9.6,9.7c-1.7,0.2-3.3-0.2-4.7-1.1
			c-1.7-1.1-3.5-3.8-2.7-5.8l0,0c2.5-2.5,5.3-4.7,8.2-6.6c3.9-2.5,8.1-4.6,12-7.1c0.3-0.2,0-0.5-0.3-0.4c-7,3.6-17.6,7-22.8,13.8
			c-1.1-0.3-2.1-0.9-2.8-1.9c-0.6-0.9-1-1.9-0.9-3c0-1.1,0.2-2.2,0.6-3.2l-0.3-0.1c2-1,4-1.7,6.2-2.3c3.4-0.9,6.7-2.2,9.8-4
			c0.1-0.1,0-0.3-0.1-0.2c-4.6,1.9-12.8,2.2-17.7,5.3l-0.7-0.6c-1.4-1.2-1.1-1.6-0.6-3.2c0.1-0.2,0.1-0.3,0.1-0.5
			c1.2-0.2,2.5-1.2,3.7-1.6c1.8-0.7,3.5-1.4,5.2-2.3c0.1,0,0-0.1,0-0.1c-1.8,0.7-3.7,0.7-5.5,1.1c-1.1,0.2-2.1,0.5-3.1,1
			c0.1-0.3,0.2-0.6,0.3-0.9c0.6-0.9,1.3-1.8,2.2-2.5l-0.2-0.2c0.6-0.3,1.1-0.7,1.6-1.1c0.9-0.5,1.9-1,2.9-1.4
			c0.1-0.1,0.1-0.4-0.1-0.3c-1.1,0.2-2.2,0.4-3.3,0.6c-0.8,0.1-1.5,0.4-2.1,0.9c-0.4-0.5-0.6-1.1-0.8-1.8c-0.3,0.3-0.6,0.6-0.8,1
			c-0.4,0.7,0.6,1.2,1.4,1.7c0.1,0.2,0.3,0.3,0.5,0.4c0.1,0.1,0.2,0.3,0.1,0.4c-0.8,1.1-2.4,1.2-3.3,2.6c-0.7,1.4-0.7,3.1,0,4.5
			c-1.6,1.1-2.9,1.1-2.4,3.4c0.4,1.7,1.5,2.7,2.6,4c-3.3,4.4,2.6,7.9,5.8,10.1c-1.8,2.7,0.1,4.1,2.4,5.6c1,0.6,2.2,1.1,3.4,1.3
			c1.2,0.2,3.1,0,4.2,0.4c-2.3,4.4,9.4,4.3,11.6,3.7c-0.1,6.1,10.6,5.2,14.5,4.1c-0.1,5.5,12.9,0.2,14.9-0.3
			c1.6-0.4,1.3,0.1,2.8,0.8c1.3,0.5,2.8,0.5,4.2,0.2c2.8-0.3,5.5-1.3,7.8-2.9c1-0.8,1.9-2.3,3-2.8c3,4.1,11.2-1.9,12.9-5.1
			c0.2-0.3,0.5-1.5,0.6-1.7c0.6-0.5,1.1-0.1,1.8-0.4c1-0.4,1.9-1.2,2.4-2.1c1.4-2.2,2-5.3,2.1-8.7c2.3-0.5,2.6-3,2.8-4.9
			c0.3-2.1-1.2-7.6-2.7-10.1L222.8,164.1z"/>
		<path class="st22" d="M221.3,155.6c1.2-1,2.4-2.1,3.4-3.4c0.8-1,2-2.7,1.4-4c-0.1-0.2-0.3-0.3-0.5-0.3c-0.1,0-0.2,0.1-0.3,0.3
			c-0.1,0.6-0.1,1.2-0.3,1.8c-0.3,0.8-0.6,1.5-1.1,2.1c-0.8,1.2-1.7,2.3-2.8,3.3C221.1,155.6,221.2,155.7,221.3,155.6z"/>
		<path class="st22" d="M217,152.1c0.7-0.9,2.2-3,1-4c-0.1-0.1-0.1-0.1-0.2,0c0,0,0,0,0,0c-0.2,0.5-0.3,1-0.4,1.5
			c-0.3,1-0.8,1.8-1.4,2.6c-1,1.3-2.2,2.4-3.5,3.4l0,0C214.2,154.8,215.8,153.6,217,152.1z"/>
		<path class="st22" d="M211.3,148.2c-0.2-0.6-1-0.4-1.1,0.2c-0.1,1-0.5,2-1.2,2.8c-0.6,0.7-1.3,1.3-2.1,1.9l0,0
			C208.6,152.2,212,150.5,211.3,148.2z"/>
		<path class="st22" d="M229.7,157.6c1-2.5,4.7-8.8,0.4-10.4c-0.6-0.2-1.2,0.5-0.6,0.9C231.9,149.9,230.9,155,229.7,157.6
			C229.6,157.6,229.6,157.6,229.7,157.6z"/>
		<path class="st22" d="M180.3,160.3l-0.1,0.1C180.3,160.4,180.4,160.4,180.3,160.3L180.3,160.3z"/>
		<path class="st22" d="M273.4,162.7c-0.3-0.4-0.5-0.8-0.9-1.1c-1.5-1.8-4.3-4.6-4.9-2.6c-0.1-0.4-0.3-0.8-0.4-1.1
			c-0.6-1.3-1.1-6.2-8.6-11.6c-1-0.7-4.7-1.6-3.6,0.7c-0.7-0.8-5.4-4.5-5.7-2c-1.8-1.9-4-3.2-4.9,0.3c-0.4-2.3-4.3-2.4-5.5-0.6
			c1.2,0.8,2.9-0.1,4.3,1c1.4,1,2.4,2.6,2.6,4.3h0.1c0.2,1,0.3,2,0.4,3c0,0.1,0.1,0.1,0.1,0c0.2-1.1,0.3-2.2,0.3-3.3
			c1.4-0.4,2.4-0.2,3.8,0.9c0.6,0.4,1.1,1,1.5,1.5c0.3,1,0.7,2,1,3.1c0.8,2.8,1,5.8,0.5,8.6c0,0,0.1,0.1,0.1,0
			c1-3.1,1.2-6.4,0.5-9.5c1.5-0.1,2.7-0.2,4,1.1l0.2,0.2c0.9,3,1,6.2,1.7,9.3c0,0.2,0.3,0.1,0.3-0.1c-0.2-2.1-0.1-4.4-0.3-6.6
			c0.2,0.3,0.5,0.7,0.8,0.9c2.8,2.1,5.6,5.4,5.5,9.1c-0.3,11.6-8.1,14.9-8.6,15.6c1.2-3.8,1.5-8,1.9-11.9c0,0-0.1-0.1-0.1,0
			c0,0,0,0,0,0c-0.9,3.4-1.4,6.9-2.4,10.2c-0.4,1.4-1,2.7-1.8,3.9c-2.8,2-6.3,3.1-9.4,1.4c2-3.4,3.7-6.9,5-10.6
			c0-0.1-0.1-0.1-0.1-0.1c-1.3,2.7-2.6,5.5-4.1,8c-1.4,2-2.8,3.9-4.4,5.7c-2.1,1.8-4.6,3.1-7.3,3.8c-1.8,0.6-3.7,0.9-5.7,1
			c-1.3,0.1-4.1,0.7-5-0.7c0.9-1,1.8-2,2.7-2.9c1.9-2,3.7-4.2,5.1-6.6c0-0.1,0-0.1-0.1-0.1c-1.6,2.5-4.1,4.5-6.2,6.6
			c-1.5,1.3-2.9,2.7-4.1,4.4c-2.8,1-6.3,0.8-8.9,0.3c-1.6-0.4-3.1-1.2-4.3-2.3c-0.5-0.5-0.7-1.5-1.3-1.9c0,0-0.1,0-0.1-0.1
			c2-3.1,3.9-6.4,5.5-9.7l0,0c-2,3.3-5.2,6.2-6.9,9.7c-0.3,0.1-0.6,0.1-0.9,0.2c-3.4,0.3-7-0.7-8.7-4l0,0c1.3-2.2,2.9-4.2,4.7-6
			c0.1-0.1-0.1-0.3-0.2-0.2c-2.2,1.7-4.2,3.8-5.8,6.1c-1.3-0.2-2.5-0.5-3.7-1c-1.6-0.5-3-1.3-4.2-2.5c-0.4-0.7-0.8-1.4-1.2-2.1
			c-0.2-0.3-0.5-0.6-0.8-0.9c0.9-1.3,2-2.4,3.3-3.4c1.4-1.2,2.9-2.3,4.3-3.6c0.1-0.1-0.1-0.3-0.2-0.2c-1.7,1.3-3.6,2.4-5.3,3.7
			c-1.1,0.8-2.2,1.7-3,2.8c-2.5-1.7-6.2-4.9-4.4-8.4c-0.1-0.1-0.3-0.2-0.4-0.3c1.1-1.4,3.3-2.3,4.8-3.2 M184.4,168.8
			c-1.8,0.5-4,1.1-5.4,2.5c-0.3-0.5-0.5-1-0.6-1.6c-0.3-1.5,0.4-1.9,0.8-3.1c0.1-0.5,0.1-1,0-1.6c0.1,0,0.1-0.1,0.2-0.1
			c0.8-1,2.3-1.4,3.4-2.1l0,0c-1.1,0.1-2.7,0.2-3.6,0.9c-0.1-0.9,0-1.8,0.3-2.6c-0.3,0.2-0.5,0.5-0.6,0.8c-0.7,1.4-0.7,3.1,0,4.5
			c-1.6,1.1-2.9,1.1-2.4,3.4c0.4,1.7,1.5,2.7,2.6,4c-3.3,4.4,2.6,7.9,5.8,10.1c-1.8,2.7,0.1,4.1,2.4,5.6c1,0.6,2.2,1.1,3.4,1.3
			c1.2,0.2,3.1,0,4.2,0.4c-2.3,4.4,9.4,4.3,11.6,3.7c-0.1,6.1,10.6,5.2,14.5,4.1c-0.1,5.5,12.9,0.2,14.9-0.3
			c1.6-0.4,1.3,0.1,2.8,0.8c1.3,0.5,2.8,0.5,4.2,0.2c2.8-0.3,5.5-1.3,7.8-2.9c1-0.8,1.9-2.3,3-2.8c3,4.1,11.2-1.9,12.9-5.1
			c0.2-0.3,0.5-1.5,0.6-1.7c0.6-0.5,1.1-0.1,1.8-0.4c1-0.4,1.9-1.2,2.4-2.1c1-1.7,1.6-3.7,1.8-5.7c0.2-1.1,0-2.5,0.7-3.2
			c0.5-0.6,1-1.2,1.3-1.9c2-3.5,0.2-8-1.7-11.2L184.4,168.8z"/>
		<g>
			<path class="st22" d="M253.4,151.3c-0.1-0.3-0.3-0.6-0.4-0.9C253.1,150.7,253.2,151,253.4,151.3z"/>
			<path class="st22" d="M253.4,151.3c0,0.1,0,0.2,0,0.2s0.1,0,0.1,0C253.5,151.5,253.5,151.4,253.4,151.3z"/>
			<path class="st34" d="M250.2,144.8c-0.6-0.9-3.1-3.8-4.1-1.9c-0.1,0.3,0,0.6,0.2,0.7c0.1,0,0.2,0.1,0.3,0.1
				c0.7-0.1,1.3,0.1,1.8,0.6c0.8,0.7,1.4,1.5,2.1,2.4c0.6,0.8,1.2,1.7,1.8,2.6c0.2,0.3,0.5,0.7,0.8,1.1c-0.2-0.6-0.4-1.3-0.7-1.9
				C251.7,147.2,251.1,146,250.2,144.8z"/>
			<path class="st34" d="M251.1,143.3c-0.1,0-0.2,0.1-0.1,0.2c3.2,2.6,6.6,5.5,7.6,9.8c0,0.1,0.1,0,0.1,0
				C257.7,149.5,255.8,143.8,251.1,143.3z"/>
			<path class="st34" d="M267.8,161.2c-1.1-5.4-3.5-12.7-8.7-15.6c-0.1-0.1-0.3,0.1-0.2,0.2c1.8,2.2,3.5,4.5,5,6.8
				C265.4,155.4,266.6,158.3,267.8,161.2C267.7,161.2,267.7,161.2,267.8,161.2C267.7,161.2,267.7,161.2,267.8,161.2z"/>
			<path class="st34" d="M268.6,167.8c0.4,6.6-1,12.7-2.3,19.1c0,0,0,0.1,0.1,0.1c0,0,0.1,0,0.1-0.1c3.1-5.8,3.3-12.8,2.4-19.1
				c0-0.1-0.1-0.1-0.1-0.1C268.7,167.7,268.6,167.7,268.6,167.8z"/>
			<path class="st34" d="M274.5,164.8C274.5,164.8,274.5,164.8,274.5,164.8c0.6,2.4,0.5,4.9-0.2,7.3c-0.3,0.8-0.8,1.5-1.2,2.3
				c0-0.7-0.1-1.5-0.2-2.2c0.6-5.8-1-13.2-6-16.7c-0.1-0.1-0.2,0.1-0.1,0.2c3.1,4.7,5.7,10.1,6,15.9c-0.3,4.1-0.4,8.1-1.6,12.1
				c0,0.1,0,0.1,0.1,0.2c0.1,0,0.1,0,0.1-0.1c1.2-2.4,1.8-5,1.8-7.7c0,0,0.1,0,0.1-0.1C276,172.6,276,168.7,274.5,164.8z"/>
		</g>
		<path class="st30" d="M295.9,195.5c-1.2,2.3-6.8,0.1-8.9-0.1c-3.8-0.4-4.5,2.7-6.9,4.7c0,0,0,0.1,0.1,0.1c2.5-0.9,3-3.4,6.5-2.9
			c1.7,0.3,3.3,0.8,5,1.3c2.3,0.6,5,0.5,6.2-1.9C298.5,195.4,296.6,194.2,295.9,195.5z"/>
		<path class="st31" d="M293.6,191.6c-0.6-0.4-1-1-1.5-1.5c-0.5-0.4-1-0.8-1.5-1.3c-1.5-1.5,3.9-1.9,4.5-2.1s0.3-1.2-0.3-1.3
			c-0.6,0-1.2,0-1.8,0.1c-0.7-0.1-1.5-0.1-2.2,0c-1.3,0.3-2.2,1.5-2.1,2.9c-0.1,1.8,1,2.9,2.4,3.8c1,0.4,2,0.8,3,1.1
			c0.6,0.3,1.2,0.4,1.9,0.6c0,0,0.1,0,0.1,0c0,0,0,0,0-0.1C295.3,192.9,294.5,192.2,293.6,191.6z"/>
		<path class="st31" d="M292.7,183.7c-2.2-0.3-5.3-0.1-7.3-0.8s-4-1.6-6.3-1.8c-0.1,0-0.1,0-0.1,0.1c0,0.1,0,0.1,0.1,0.1
			c2.1,0.7,4.1,1.4,6.1,2.3c0.8,0.3,2.4,1.6,3.4,1.8c1.3,0.3,2.5,0.5,3.8,0.8c0.7,0.2,1.4-0.2,1.5-0.9s-0.2-1.4-0.9-1.5
			C292.9,183.7,292.8,183.7,292.7,183.7z"/>
		<path class="st31" d="M294.6,185.3l-0.2-0.2c-0.3-0.4-0.9,0.2-0.5,0.5l0.2,0.2c0.1,0.1,0.4,0.1,0.5,0
			C294.7,185.7,294.7,185.5,294.6,185.3L294.6,185.3z"/>
		<path class="st31" d="M279.9,200c-0.8-0.5-2.1-0.1-2.8,0.5c-0.8,0.7-1.2,1.7-1.2,2.8c0,0.1,0.1,0.3,0.2,0.4c0,0-0.4,1.8-0.4,2
			c0,0,0.1,0.1,0.1,0.1c0,0,0,0,0.1-0.1c0.2-0.6,0.4-1.1,0.5-1.7c0.2-0.4,0.4-0.9,0.6-1.3c0.2-0.5,0.4-1,0.8-1.4
			c0.6-0.6,1.4-0.3,2-0.7C280,200.3,280,200.1,279.9,200C279.9,200,279.9,200,279.9,200z"/>
		<path class="st37" d="M278.9,275.3c-3,8.7-12.8,13.1-22,10s-14.3-12.7-11.3-21.4c2.1-5.9,7.4-10.1,13.7-10.9
			c2.7-0.4,5.1,1.1,7.9,2c3.5,1.2,6.8,2.1,8.8,4.7C279.6,264.1,280.7,270,278.9,275.3z"/>
		<path class="st38" d="M274,260.3c-2.7-1.8-6.8-0.5-10-1.3c-1.5-0.3-4.3-1.4-3.4-3.4c0.1-0.5,0.5-0.9,1-1c0.5-0.2,1.1,0.1,1.3-0.5
			c-1.2-1.3-3.5-0.8-5-0.4c-2.8,0.6-5.3,1.9-7.4,3.8c-2.7,2.9-4.4,6.6-4.8,10.5c-0.4,9.1,10.1,12.9,17.9,10.9
			c4.5-1.1,7.8-2.5,10.2-6.7c1.1-1.7,1.8-3.5,2.2-5.5c0.3-2.1-0.5-3.8-1.5-5.7C274.4,260.9,274.2,260.6,274,260.3z"/>
		<path class="st39" d="M272.6,260.8l-0.2-0.1c-2.6-2.1-6.8,0.5-9.9-0.6s-4.8-5.4-7.3-4.7c-7.9,2.1-9.3,12-4.9,15.8
			c6.4,5.6,20.5,1.4,22.3-7.7C273.3,259.5,272.7,261.7,272.6,260.8z"/>
		<path class="st40" d="M266.9,262.9c-1.4-1.7-3.9-1.1-5.8-1.7c-1.1-0.4-2-1-2.7-1.8c-0.4-0.5-1-1.6-1.6-1.7c0,0,0,0.1,0,0.1l-1-0.5
			c-3.8-1.3-6.7,5.6-5.5,8.2c1.9,4,6,5.5,10.2,4.6C263.1,269.6,269.5,266.2,266.9,262.9z"/>
		<path class="st41" d="M263.9,264.4c-0.2-0.5-0.7-0.8-1.2-0.8l0,0c-0.3-0.1-0.6,0-0.8,0.2c-0.3,0.3-0.5,0.6-0.6,1
			c-0.1,0.5,0.2,1.1,0.8,1.2c0,0,0.1,0,0.1,0c0.3,0,0.5,0,0.8-0.1c0.6,0,1-0.4,1-1C264,264.7,264,264.5,263.9,264.4z"/>
		<path class="st41" d="M258.7,263.5c-0.1-0.1-0.2-0.1-0.3-0.2c0-0.4-0.2-0.7-0.5-0.9c-0.5-0.4-1.1-0.8-1.7-1.1
			c-0.5-0.6-1.3-0.7-1.9-0.2c-0.1,0.1-0.3,0.3-0.3,0.4c-0.4,0.7-0.5,1.6-0.2,2.3c0.2,0.7,0.9,1.1,1.6,0.9c0.1,0,0.2-0.1,0.3-0.1
			c0.2,0.1,0.4,0.1,0.6,0.1c0.4,0.3,0.9,0.3,1.4,0c0.2,0,0.4,0,0.6-0.1h-0.1C258.7,264.8,259.3,263.9,258.7,263.5z"/>
		<path class="st41" d="M254.1,260.1c-0.5-0.8-1.7,0.1-1,0.8c0.3,0.2,0.7,0.2,0.9-0.1C254.2,260.6,254.3,260.3,254.1,260.1z"/>
		<path class="st42" d="M269.3,257.9c-1,0-1.9-0.1-2.9-0.3c-0.1,0-0.3-0.1-0.4-0.1c-0.2-0.4-0.5-0.7-0.7-1.2
			c-0.2-0.6-0.7-1.2-1.3-1.4c-1.5-0.4-3,1.4-1.7,2.6c1.9,1.8,4.7,1.2,7,0.8C269.5,258.2,269.5,257.9,269.3,257.9z"/>
		<path class="st42" d="M277.8,265.4c-0.2-0.4-0.7-1.1-0.6-0.7c1.6,5.1-1.3,11.2-5.7,15c-2.4,2-5.3,3.3-8.4,3.8c-2,0.2-4,0.3-6,0.1
			c-0.4,0-0.7,0.2-0.3,0.4C267.9,290.3,283.9,277.5,277.8,265.4z"/>
		<path class="st43" d="M285.5,232.2c4-2.8,5.7-3.1,6.1-3.2c1-0.4,2.5,0.1,2.1,1.3l-0.2,0.6c-0.2,0.9-0.9,1.5-1.8,1.6
			c-4.6-0.4-11.5,7.2-14.6,10.3c-3.8,3.7-7.1,8-9.7,12.6c0,0.4,0.1,0.7,0.3,1c0.6,0.7-0.3,1.7-1.2,1.5c-0.2,0-0.4-0.1-0.7-0.2
			c-0.3-0.1-1.8-1.3-1.1-2c0.5-0.5,0.9-0.2,1.4-1.4l0,0c2.6-4.7,5.7-9,9.3-12.9C278.4,238,281.8,234.9,285.5,232.2z"/>
		<path class="st44" d="M292.6,229.4c1.3-0.3,0.5,1.8,0.2,2.3c-0.1,0.2-0.3,0.3-0.5,0.2c0,0-0.1,0-0.1,0l0,0l0,0
			c-0.1-0.1-0.1-0.2-0.1-0.3C292,230.8,291.8,229.6,292.6,229.4z"/>
		<path class="st44" d="M282.6,236.3c0,0,0.1,0,0.1,0c0,0,0,0.1,0,0.1c-1.1,1.3-2.3,2.5-3.6,3.6c-1.6,1.7-3.2,3.4-5,5l0,0
			C276.5,242.1,279.3,238,282.6,236.3z"/>
		<path class="st44" d="M284.5,234.6c0.1-0.1,0.2,0,0.1,0.1c-0.2,0.3-0.4,0.5-0.7,0.6c-0.1,0-0.1,0-0.2,0c0,0,0-0.1,0-0.1
			C283.9,234.9,284.2,234.7,284.5,234.6z"/>
		<path class="st44" d="M291.7,231.5c0,0.1,0,0.1,0,0.1c-0.5,0.5-1.6,0.4-2.3,0.6c-1.2,0.5-2.4,1-3.5,1.7c0,0-0.1,0-0.1,0
			c0,0,0-0.1,0-0.1C286.5,233.1,291.1,229.9,291.7,231.5z"/>
		<path class="st44" d="M273.4,246c-1.7,2-3.2,4.1-4.7,6.4c-1,1.3-1.9,2.7-1.5,4.2c0.1,0.3,0,0.5-0.2,0.7c-0.5,0.7-1.4,0-0.7-0.6
			c-0.1,0.1,0.1-1.3,0.1-1.3c0.4-1,0.9-1.9,1.6-2.7C269.5,250.2,271.3,248,273.4,246C273.4,246,273.4,246,273.4,246z"/>
		<path class="st45" d="M277.9,239.3c-2.4,3.1-5,6.1-7.3,9.3c-1.1,1.5-2,3.2-2.9,4.8c-0.6,1-1.4,2-2.2,2.8c0.1,0.4-0.4,0.7-0.7,0.4
			c0,0-0.1-0.1-0.2-0.2c-0.1-0.2-0.1-0.5,0.1-0.6c2.3-1.8,3.5-5.3,5.2-7.7C272.4,245.1,275.1,242.1,277.9,239.3
			C277.9,239.3,277.9,239.3,277.9,239.3z"/>
		<path class="st45" d="M291.7,229.6c0.6-0.1,0.5,0.9-0.2,1c-1.8,0.2-4,1.7-5.6,2.6c-2,1.2-4,2.6-5.9,4l0,0
			C283,234.3,287.5,230.2,291.7,229.6z"/>
		<path class="st46" d="M293,229.4c0.1,0,0.2,0.1,0.1,0.3c-0.5,0.5-0.1,1.2-0.2,1.8c0,0.2-0.1,0.3-0.3,0.4
			C291.7,232.2,291.6,229.3,293,229.4z"/>
		<path class="st46" d="M293.4,229.9C293.4,229.9,293.4,229.9,293.4,229.9C293.3,229.9,293.3,229.9,293.4,229.9
			c-0.4,0.1-0.6,0.6-0.8,0.8s-0.2,0.1-0.2-0.1C292.4,230.1,293,229.4,293.4,229.9z"/>
		<path class="st37" d="M304.9,273.7c-1.6,9.5-11.1,15.8-21.2,14.1s-17-10.8-15.3-20.3c1.2-6.5,6-11.7,12.4-13.5
			c2.8-0.8,5.5,0.3,8.6,0.8c3.8,0.6,7.4,1,10,3.4C303.7,262,305.8,267.9,304.9,273.7z"/>
		<path class="st38" d="M297.3,259c-3.1-1.4-7.2,0.6-10.6,0.4c-1.6-0.1-4.6-0.7-4.1-3c0.1-0.5,0.4-0.9,0.9-1.2
			c0.5-0.3,1.2-0.1,1.3-0.8c-1.5-1.1-3.7-0.2-5.2,0.4c-2.8,1.1-5.2,2.9-7,5.2c-2.4,3.4-3.5,7.6-3.2,11.7c1.1,9.5,12.7,11.7,20.4,8.3
			c4.5-1.9,7.6-3.9,9.5-8.7c0.8-1.9,1.3-3.9,1.3-6c-0.1-2.3-1.1-3.9-2.5-5.7C297.8,259.5,297.5,259.2,297.3,259z"/>
		<path class="st39" d="M295.9,259.7l-0.2-0.1c-3-1.7-6.9,1.7-10.3,1s-5.8-4.8-8.4-3.6c-7.9,3.5-7.6,14-2.4,17.2
			c7.6,4.7,21.5-2,21.8-11.8C296.5,258.3,296.2,260.6,295.9,259.7z"/>
		<path class="st40" d="M291.3,264c-1.6-1.5-4-0.5-6-0.8c-1.1-0.2-2.1-0.6-3-1.4c-0.5-0.4-1.2-1.4-1.9-1.4l0.1,0.1l-1-0.3
			c-3.9-0.7-5.7,6.6-4.1,9c2.6,3.6,6.8,4.5,10.8,2.9C288.6,271.2,294.4,266.8,291.3,264z"/>
		<path class="st41" d="M288.4,265.9c-0.3-0.5-0.8-0.7-1.3-0.6l0,0c-0.3,0-0.6,0.1-0.8,0.4c-0.2,0.3-0.4,0.7-0.4,1.1
			c0,0.6,0.4,1,1,1c0,0,0.1,0,0.1,0c0.3,0,0.5-0.1,0.8-0.2c0.5-0.1,0.9-0.6,0.8-1.2C288.6,266.2,288.6,266,288.4,265.9z"/>
		<path class="st41" d="M283.3,265.8c-0.1-0.1-0.2-0.1-0.3-0.1c0-0.4-0.3-0.7-0.6-0.8c-0.2-0.4-0.7-0.6-1.1-0.5
			c-0.2-0.2-0.5-0.3-0.8-0.3c-0.6-0.5-1.4-0.4-1.9,0.1c-0.1,0.1-0.2,0.3-0.3,0.4c-0.3,0.8-0.2,1.6,0.1,2.3c0.3,0.7,1.1,1,1.7,0.7
			c0.1,0,0.2-0.1,0.3-0.2c0.2,0.1,0.4,0.1,0.6,0c0.4,0.2,1,0.2,1.3-0.2c0.2,0,0.4,0,0.5-0.1h-0.1c0.4,0.1,0.7-0.2,0.8-0.5
			C283.6,266.3,283.5,266,283.3,265.8z"/>
		<path class="st41" d="M278.2,263.3c-0.6-0.7-1.6,0.4-0.9,0.9c0.3,0.2,0.7,0.1,0.9-0.2C278.3,263.8,278.3,263.5,278.2,263.3z"/>
		<path class="st42" d="M292,257.3c-1,0.1-2,0.2-3,0.2c-0.1,0-0.3,0-0.5-0.1c-0.3-0.4-0.7-0.6-0.9-1.1c-0.3-0.6-0.9-1.1-1.6-1.3
			c-1.6-0.2-2.9,1.9-1.3,3c2.3,1.5,5.1,0.5,7.4-0.4C292.3,257.5,292.2,257.3,292,257.3z"/>
		<path class="st42" d="M302.1,263.6c-0.3-0.4-0.9-1-0.7-0.6c2.6,5.1,0.6,11.9-3.4,16.5c-2.2,2.4-5,4.3-8.1,5.4
			c-2,0.6-4.1,0.9-6.2,1.1c-0.4,0-0.7,0.3-0.3,0.5C296.1,291.1,310.5,275.1,302.1,263.6z"/>
		<path class="st43" d="M290.2,213.8c-1.2-6.5-2.4-8.3-2.5-8.8c-0.5-1.4-2-2.2-2.5-0.5c-0.1,0.3-0.2,0.5-0.3,0.8
			c-0.4,1-0.4,2.5,0.4,3.3c3.8,3.7,4,17.8,4.4,23.8c0.5,7.3,0.1,14.6-1.1,21.8c-0.2,0.3-0.5,0.6-0.9,0.7c-0.9,0.2-1,2.1-0.2,2.7
			c0.2,0.2,0.4,0.3,0.6,0.4c0.3,0.2,2.3,0.3,2.3-1.1c0-1-0.6-1.1-0.2-2.7l0,0c1.2-7.2,1.7-14.5,1.6-21.7
			C291.7,226.2,291.2,219.9,290.2,213.8z"/>
		<path class="st44" d="M286.5,204.4c-0.8-1.5-1.7,1.4-1.7,2.2c0,0.4,0.2,0.7,0.4,0.7l0,0l0,0c0.1,0,0.2-0.1,0.3-0.2
			C286.1,206.5,287,205.4,286.5,204.4z"/>
		<path class="st44" d="M289.6,220.6c0-0.1-0.2-0.1-0.2,0c0,2.3,0.1,4.6,0.3,6.9c0.1,3.2,0.2,6.4,0.5,9.6l0,0
			C290.4,232.1,291.1,225.4,289.6,220.6z"/>
		<path class="st44" d="M289.3,217.2c0-0.1-0.2-0.1-0.2,0c-0.1,0.4,0,0.9,0.1,1.3c0,0.2,0.3,0.2,0.3-0.1
			C289.5,218,289.5,217.6,289.3,217.2z"/>
		<path class="st44" d="M285.8,207.5c0,0.1-0.1,0.1-0.1,0.2c0.1,1,1,1.9,1.4,2.7c0.6,1.6,1.2,3.2,1.6,4.9c0,0.1,0.2,0.1,0.2-0.1
			C288.8,213.7,287.4,206.3,285.8,207.5z"/>
		<path class="st44" d="M290.1,239c0.1,3.6-0.4,7.2-0.7,10.8c-0.1,2.2-0.4,4.5-1.7,5.7c-0.3,0.2-0.3,0.5-0.3,0.9
			c-0.1,1.1,1.1,1.2,1,0c0,0.2,0.8-1.4,0.8-1.4c0.4-1.4,0.6-2.8,0.7-4.2C290.3,246.9,290.4,242.9,290.1,239L290.1,239z"/>
		<path class="st45" d="M291.2,228c-0.2,5.4-0.3,10.8-0.7,16.2c-0.2,2.6-0.6,5.1-1,7.6c0,0.3-0.5,5.1-0.3,4.9
			c-0.3,0.3-0.2,1.1,0.2,1.1h0.2c0.2,0,0.4-0.4,0.3-0.7c-0.6-4,0.9-8.7,1.2-12.6C291.7,239,291.3,233.5,291.2,228
			C291.2,228,291.2,228,291.2,228z"/>
		<path class="st45" d="M287.1,205.5c-0.4-0.6-1,0.5-0.5,1.1c1.3,1.9,2,5.3,2.6,7.8c0.8,3.1,1.4,6.3,1.9,9.5l0,0
			C290.6,218.2,290,209.9,287.1,205.5z"/>
		<path class="st46" d="M286.3,204.1c-0.1-0.1-0.2,0-0.2,0.2c0,1-0.7,1.4-1,2.1c-0.1,0.2-0.1,0.4,0,0.6
			C285.3,208.2,287.4,205.3,286.3,204.1z"/>
		<path class="st46" d="M285.6,204.2c0,0,0,0.1,0,0.1c0.2,0.3,0.1,1.1,0.1,1.5c0,0.2,0.1,0.3,0.2,0.1
			C286.2,205.4,286.3,204.1,285.6,204.2z"/>
	</g>
</g>
</svg>
