<?xml version="1.0" encoding="utf-8"?>
<!-- Generator: Adobe Illustrator 23.0.0, SVG Export Plug-In . SVG Version: 6.00 Build 0)  -->
<svg version="1.1" id="Capa_1" xmlns="http://www.w3.org/2000/svg" xmlns:xlink="http://www.w3.org/1999/xlink" x="0px" y="0px"
	 viewBox="0 0 482 482" style="enable-background:new 0 0 482 482;" xml:space="preserve">
<style type="text/css">
	.st0{fill:#FFFFFF;}
	.st1{stroke:#000000;stroke-miterlimit:10;}
</style>
<g>
	<rect x="-63" y="-58.9" class="st0" width="600" height="600"/>
</g>
<g>
	<g>
		<g>
			<path class="st0" d="M471.4,383.6c10.5-15.2,1-29.7-8.1-44.3c-10.9-17.5-20.7-35.4-27.4-53.6c-6.1-16.5-3.6-44.1,36-44.7
				c3,0,3.2-2.5,0.6-2.9c0.7-0.9-0.1-2.1-2.2-2.1c-36.3,0.3-45.3-24.2-39.2-40.4c6.7-18,21.2-35.3,32.1-52.5
				c9.3-14.7,17.9-31.3,7.3-46.6C463,85.4,447.3,76.8,427.9,73c22.1-4.9,39.6-16.3,42.5-30.2c2.8-13.6-10.6-27.2-31.7-33.3
				C427,6.2,414.8,6,402.1,7.3c-18.2,1.8-36.2,4.2-54.3,6.2c-18.1,2.1-36.1,4.3-54.2,6.3c-11.8,1.3-22.8,1.8-33.9-1.2
				c-6.9-1.9-12.7-4.7-19.1-7c-0.4-0.3-0.9-0.5-1.5-0.5c-0.2-0.1-0.4-0.1-0.6-0.2c-0.9-0.3-1.6,0.1-1.6,0.6
				c-28.3,15.3-63,6.9-95,0.7c-29-5.6-61.1-8.7-90.9-3.3C25,13.5,7.7,24.2,10,40.6c2,14,16.5,26.9,38.2,33.3
				c-19.1,3.2-30.9,13-35.8,23.9C5.6,113,13,128.9,22,143.4c11.2,18,26.8,35.8,27.8,55.3c0.8,16.9-11.8,33.7-39,41.2
				c-2,0.6-1,2.4,0.9,2.5c0.2,0.1,0.5,0.3,0.9,0.4c14,2.9,25.9,8.4,31.7,16.4c6.6,9.2,3.7,19.2-0.8,28.5
				c-8.2,17.1-19.2,33.7-28.1,50.6c-7.7,14.6-13.6,30.6-5.1,45.6c5.9,10.3,18.1,19.6,35.8,23.7c-40.4,15.5-42.6,53.8,5,66
				c27.2,7,55.2-2.4,81.4-6.7c17.5-2.9,35.6-5.4,53.7-6.5c17.8-1.1,37.5,0.2,48.2,9.6c0.6,0.5,1.4,0.7,2.2,0.7
				c0.5,0.5,1.5,0.8,2.5,0.4c32-11.4,65.3-9.2,100.2-3.7c30,4.8,65.8,12.5,96.7,5.5c22.4-5.1,35.5-19,34.3-32.6
				c-1.2-14.1-17.6-26.7-38.7-33.3C449.7,403,464.3,393.9,471.4,383.6z M426.1,405.3c-2.7-0.6-5.1,1.7-2.3,2.5
				c25.9,7.8,46.6,22.9,40.1,40.7c-2.9,7.8-10.7,15.2-22.6,19.4c-15.6,5.6-35.6,5-53.1,3.4c-28.5-2.7-55.3-9.5-84.1-11.3
				c-22-1.4-48.1-0.4-65.6,8.3c-12.7-11.1-35.9-12.3-57-10.6c-31.1,2.5-59.7,8.5-89.5,13.6c-29.7,5.1-60.1-2.8-69.8-20.5
				c-8.9-16.4,6.7-32.1,27.9-42.4c2.8,0.3,3.8-2.2,1-2.8c-28.3-5.9-40.9-23.1-40-39.5c1-18.4,14.2-36.4,23.9-53.6
				c8.2-14.5,21.1-30.7,17.6-46.3c-2.7-11.6-16.4-21.6-35.7-25c18.2-5.3,30-15.8,35-27.1c7-15.8,0-32.2-9.2-47.2
				c-10.9-17.6-26.3-35.1-27.9-54.1C13.7,98,24.2,80.3,51.3,76.4c2.3-0.3,2.2-1.9,0.8-2.6c0.5-0.5,0.4-1.1-0.6-1.4
				C26.9,64,9.2,47.2,16.4,30.3C24.6,11,68.8,7.8,97.3,9.3c30.7,1.6,57.5,10.6,87.6,13.4c18.9,1.8,42.4,0.1,54.9-9.2
				c7.1,4.4,16.4,8,26.3,9.5c11.5,1.7,23.3,0.3,34.7-1c31.6-3.6,63.1-7.4,94.7-11c15.6-1.8,30.4-2.6,44.5,2.3
				c11.3,3.9,20.1,10.4,23.8,17.8c8.4,16.6-11.2,33.5-37.8,39.2c-2.1,0.5-2.1,2-0.9,2.6c-1.1,0.5-1.1,1.7,0.6,2.1
				c30,6.6,47.4,23,44.5,41.5c-3,18.9-19.4,37.7-30.8,55.3c-9.4,14.5-21.5,31.2-12.7,46.8c5.6,10,19.3,18.5,37.2,20.1
				c-17.6,2.4-30.4,11.6-34.4,21.8c-6.4,16.6,4.9,34.8,12.8,50.6c4.5,9,9.5,17.9,14.9,26.8c5.5,9,12.5,18,14,27.6
				C473.8,383.4,453.7,398.5,426.1,405.3z"/>
			<path class="st0" d="M455.8,385.5c12.6-13.2,2.9-29.3-3.9-42.6c-8.4-16.5-18.4-32.8-25.3-49.5c-7-17.1-15.7-42.4,17.8-52.3
				c1.8-0.5,0.9-1.8-0.6-2c0-0.3-0.2-0.7-0.9-0.9c-28.9-8.8-29.8-29.4-22.4-45.5c8-17.2,20.3-34,30.8-50.7
				c7.9-12.7,17.8-27.5,9-40.9c-3.6-5.4-10.2-9.6-17.8-13.2c-4.8-2.3-10-4.4-15-6.7c-2.5-1.1-4.9-2.3-7.2-3.5
				c-1.3-0.7-6.7-5.5-6.3-5.4c0.7,0.1,1-0.4,0.5-0.7h-0.1c19.3-6.3,42.4-14.5,44.6-28.6c1.8-12.1-15.1-21.9-33.7-25.6
				c-28.1-5.6-60,0.9-87.5,4.7c-30.2,4.1-74.9,14.6-97.3-3.4c-0.5-0.4-1.4-0.4-2-0.2c-0.7-0.3-1.7-0.4-2.5,0.1
				c-51.3,28-119.2-17.4-176.9-6c-20,4-36.4,14.3-34,27.1C28,55.1,52,66.1,68.1,77.4c-18.4,1-32.6,8.7-39.7,18.4
				c-10.9,15.1-1.4,31.9,7.4,46.4c17.1,28.5,56.2,74.9-2.3,96.4c-0.4,0.2-0.6,0.4-0.5,0.6c-1,0.1-1.2,0.9-0.1,1.1
				c34.3,6.6,28.6,34.3,24,50.4c-5.1,17.7-18.9,33.6-28.2,50.5c-7.8,14-12.1,30-1.8,43.9c7.5,10.2,22.4,18.5,41.4,20.7
				c-18,7.2-33.5,19.5-35.1,32.4c-1.3,11.3,8.7,23.7,28.5,27.1c12.2,2.1,25.2,0.4,37-1.8c15-2.8,29.6-6.1,44.8-8.5
				c30.6-4.8,76.9-12.3,99.7,5.2c1.3,1,4.2,0.2,3.4-0.9c31.9-7.4,63.7-4.9,96.5-0.1c26.4,3.9,59.2,11.4,86.5,6
				c20.5-4,29.8-16.1,26.5-28.1c-4-14.8-26-24.7-47.8-31C426.1,402,446,395.7,455.8,385.5z M406.8,404.9c-0.7,0.2-0.8,0.7-0.5,1
				c-1.8,0-3,1.5-1.1,2c22.9,6.5,46.7,17.1,47.6,33.1c0.5,8.4-5.6,16.6-18.8,20.8c-13.1,4.1-29.5,3.2-43.6,1.8
				c-46.3-4.6-100.3-20-146-5.8c-13.6-9.3-34.6-11.4-55-10.3c-27.1,1.5-54,6-79.4,11.3c-13.6,2.8-29.1,6.6-43.9,4.8
				c-14.5-1.7-24.3-8.4-27.8-16.5c-7.5-17.2,14.1-29.5,32.2-41.1c0.1,0,0.1-0.1,0.1-0.1c1.7-0.3,2.2-1.9,0-2.1
				c-30.2-3.4-45.8-20.3-46-37c-0.2-18.2,14.4-34.9,24.8-51.6c9.8-15.7,15.5-32.6,14.1-49.4c-0.9-10.9-8-23.5-28.1-26.3
				c46.1-14,32.6-49.5,19-72.2C45,151.3,32,135,28.1,118.1c-3.8-16.3,8.2-37.8,41.8-38.6c1.8,0,2.2-1.2,1.4-1.8
				c0-0.1-0.1-0.2-0.2-0.3C56.7,64.2,26.7,53.3,28.6,35.8c2.2-20.6,44.6-25.1,72.4-21.6c42.9,5.4,98.2,28.1,138,5.8l0,0
				c10.4,10.2,32.9,11.8,51.5,10.3c27.3-2.2,54.1-7.3,81-10.6c27.2-3.3,62.3-4.4,79,11.4c18.6,17.7-15.3,31.4-38.5,38.8
				c-1.4,0.5-1,1.4,0.1,1.8c-3.8,3.1,4.8,6.7,8.3,8.5c10.1,5.1,22.1,9.1,30.4,15.3c21.6,16.3,0.9,39.5-9.4,56.2
				c-14.9,24.1-56.4,70.7-0.9,88.1c-18.6,6.2-25.1,18.6-24.2,30.5c1.2,16.8,10.8,33.6,19.4,49.6c4.4,8.2,9,16.4,13.2,24.7
				c4.3,8.6,9.4,17.6,9.3,26.6C457.9,389.5,431,397.2,406.8,404.9z"/>
		</g>
	</g>
</g>
<polygon class="st1" points="315.4,364 180.2,370.2 107.2,256.2 169.4,136 304.7,129.8 377.7,243.8 "/>
</svg>
