<?xml version="1.0"?>
<svg xmlns="http://www.w3.org/2000/svg" height="512px" viewBox="-1 0 512.00336 512" width="512px"><path d="m88.582031 461.464844c-.511719-.257813-1.0625-.429688-1.632812-.511719-1.628907-.34375-3.328125-.164063-4.855469.511719-1.042969.414062-2 1.023437-2.8125 1.792968-.753906.828126-1.359375 1.78125-1.792969 2.816407-.4375 1.027343-.671875 2.128906-.683593 3.242187.011718 2.261719.898437 4.433594 2.476562 6.058594.828125.753906 1.78125 1.359375 2.8125 1.792969 1.015625.476562 2.125.710937 3.246094.683593.539062-.015624 1.078125-.074218 1.609375-.171874.570312-.082032 1.121093-.253907 1.632812-.511719.523438-.171875 1.011719-.433594 1.449219-.769531.503906-.339844.9375-.683594 1.367188-1.023438 1.570312-1.628906 2.457031-3.796875 2.472656-6.058594-.011719-1.113281-.246094-2.214844-.683594-3.242187-.429688-1.035157-1.039062-1.988281-1.789062-2.816407-.429688-.339843-.855469-.683593-1.367188-1.023437-.4375-.335937-.925781-.597656-1.449219-.769531zm0 0" fill="#FFFFFF"/><path d="m81.539062 443.714844c.316407 0 .632813-.015625.949219-.050782 4.667969-.515624 8.042969-4.714843 7.542969-9.386718l-4.746094-42.664063c-.515625-4.6875-4.734375-8.0625-9.417968-7.542969-4.6875.515626-8.0625 4.734376-7.542969 9.417969l4.742187 42.667969c.496094 4.304688 4.140625 7.558594 8.472656 7.558594zm0 0" fill="#FFFFFF"/><path d="m186.800781 477.796875c.308594.035156.625.050781.9375.054687 4.347657-.003906 7.996094-3.277343 8.472657-7.597656l8.535156-76.796875c.515625-4.6875-2.859375-8.902343-7.542969-9.421875-4.6875-.519531-8.902344 2.859375-9.421875 7.542969l-8.535156 76.800781c-.246094 2.25.410156 4.507813 1.824218 6.273438 1.417969 1.769531 3.476563 2.898437 5.730469 3.144531zm0 0" fill="#FFFFFF"/><path d="m136.539062 477.851562c4.710938 0 8.53125-3.824218 8.53125-8.535156v-42.667968c0-4.710938-3.820312-8.53125-8.53125-8.53125-4.714843 0-8.535156 3.820312-8.535156 8.53125v42.667968c0 4.710938 3.820313 8.535156 8.535156 8.535156zm0 0" fill="#FFFFFF"/><path d="m130.480469 398.574219 1.269531 1.023437c.480469.324219 1 .582032 1.546875.769532 2.066406.910156 4.417969.910156 6.484375 0 2.636719-1.082032 4.558594-3.410157 5.125-6.203126.566406-2.792968-.300781-5.683593-2.308594-7.707031-.832031-.75-1.785156-1.355469-2.816406-1.792969-2.078125-.851562-4.410156-.851562-6.484375 0-2.144531.777344-3.832031 2.464844-4.609375 4.609376-.910156 2.066406-.910156 4.417968 0 6.484374.433594 1.035157 1.039062 1.988282 1.792969 2.816407zm0 0" fill="#FFFFFF"/><path d="m496.996094 70.9375 7.558594-3.78125c2.894531-1.445312 4.722656-4.402344 4.71875-7.636719 0-2.601562-.996094-16.597656-20.597657-36.199219-19.601562-19.597656-33.605469-20.605468-36.214843-20.605468-3.234376 0-6.1875 1.828125-7.628907 4.71875l-3.78125 7.558594-14.378906-10.214844c-6.359375-4.546875-14.453125-5.941406-21.96875-3.777344-7.515625 2.160156-13.628906 7.640625-16.601563 14.871094-.300781.742187-.496093 1.519531-.582031 2.3125l-4.09375 38.121094c-13.019531-10.332032-28.410156-17.257813-44.777343-20.15625-26.9375-4.34375-53.34375 10.339843-63.871094 35.515624l-62.292969 145.332032-.09375.21875-3.769531 8.808594c-29.324219-29.144532-73.304688-37.78125-111.46875-21.894532-38.167969 15.886719-63.03125 53.179688-63.015625 94.519532-2.292969 0-4.578125.234374-6.824219.691406-.605469.121094-1.152344.375-1.75.53125-1.582031.371094-3.136719.851562-4.652344 1.441406-.679687.289062-1.277344.714844-1.9375 1.039062-1.332031.621094-2.628906 1.324219-3.871094 2.109376-5.050781 3.269531-9.050781 7.921874-11.519531 13.40625-.285156.578124-.660156 1.101562-.90625 1.707031-.621093 1.566406-1.121093 3.179687-1.5 4.820312-.136719.539063-.367187 1.042969-.480469 1.585938-3.730468 18.269531 7.917969 36.144531 26.136719 40.109375l20.773438 117.734375c2.875 16.304687 17.054687 28.183593 33.609375 28.160156h110.644531c16.558594.023437 30.734375-11.855469 33.613281-28.160156l20.769532-117.761719c11.4375-2.460938 20.800781-10.632812 24.789062-21.628906s2.035156-23.269532-5.160156-32.488282l28.875-12.375.257812-.109374 145.320313-62.25c25.183593-10.511719 39.875-36.921876 35.523437-63.863282-2.902344-16.371094-9.832031-31.757812-20.164062-44.785156l38.128906-4.09375c.796875-.078125 1.578125-.273438 2.320312-.582031 7.234376-2.972657 12.710938-9.085938 14.871094-16.601563 2.164063-7.515625.769532-15.609375-3.777344-21.96875zm-250.148438 230.613281c-.128906 0-.238281.101563-.359375.152344l-24.128906 10.34375c-6.402344 2.820313-13.878906 1.378906-18.773437-3.617187-.28125-.289063-.546876-.625-.855469-.949219-.410157-.613281-.894531-1.160157-1.339844-1.757813-3.25-4.742187-3.800781-10.832031-1.457031-16.085937l23.292968-54.363281 53.472657 53.484374zm-110.308594-88.234375c24.925782-.042968 48.601563 10.902344 64.714844 29.917969l-16.996094 39.679687c-1.226562 2.890626-2.0625 5.929688-2.484374 9.035157-3.585938-1.164063-7.332032-1.78125-11.101563-1.832031-11.230469-.019532-21.902344 4.910156-29.167969 13.472656-12.007812-6.953125-26.980468-6.214844-38.246094 1.886718-7.265624-9.65625-18.636718-15.339843-30.71875-15.359374-7.570312.019531-14.964843 2.296874-21.230468 6.542968 1.101562-46.300781 38.914062-83.277344 85.230468-83.34375zm72.132813 267.503906c-1.441406 8.15625-8.53125 14.097657-16.8125 14.097657h-110.644531c-8.28125 0-15.367188-5.941407-16.808594-14.097657l-20.097656-113.902343h184.457031zm47.332031-148.039062c0 9.425781-7.640625 17.070312-17.066406 17.070312h-204.800781c-5.125 0-9.980469-2.304687-13.222657-6.273437-3.238281-3.96875-4.527343-9.1875-3.5-14.207031.066407-.351563.210938-.667969.304688-1 .175781-.75.402344-1.484375.683594-2.203125.195312-.46875.476562-.851563.71875-1.339844.238281-.484375.519531-1.066406.851562-1.550781.621094-.917969 1.332032-1.777344 2.117188-2.558594.785156-.789062 1.640625-1.5 2.558594-2.125.367187-.242188.777343-.410156 1.160156-.632812.582031-.316407 1.136718-.675782 1.707031-.929688.648437-.246094 1.3125-.453125 1.988281-.613281.402344-.113281.785156-.285157 1.195313-.367188 4.421875-.898437 9.015625-.023437 12.800781 2.429688 3.855469 2.539062 9.035156 1.546875 11.679688-2.234375 4.710937-6.746094 12.894531-10.164063 21-8.769532 8.105468 1.398438 14.675781 7.355469 16.855468 15.289063.929688 3.347656 3.792969 5.796875 7.246094 6.195313 3.457031.449218 6.828125-1.292969 8.464844-4.371094 2.996094-5.476563 8.746094-8.882813 14.992187-8.875 5.0625-.046875 9.871094 2.207031 13.074219 6.128906 1.875 2.339844 4.84375 3.523438 7.816406 3.117188s5.511719-2.347657 6.6875-5.105469c2.96875-6.808594 9.300782-11.558594 16.667969-12.503907 7.371094-.945312 14.695313 2.054688 19.285156 7.894532.484375.71875.980469 1.417968 1.519531 2.101562 2.09375 3.347656 3.210938 7.21875 3.214844 11.167969 0 4.714844 3.820313 8.535156 8.535156 8.535156 4.125-.035156 7.621094-3.054687 8.25-7.136719 2.171876.453126 4.386719.679688 6.605469.683594 4.699219-.023437 9.34375-.996094 13.652344-2.867187l19.945313-8.53125c4.367187 3.152343 6.972656 8.195312 7.011718 13.582031zm177.605469-111.265625-140.007813 60-63.144531-63.148437 59.988281-139.996094c7.414063-17.949219 26.171876-28.46875 45.355469-25.429688 15.480469 2.871094 29.871094 9.957032 41.582031 20.480469.171876.296875.363282.582031.570313.851563l59.734375 59.734374c.273438.207032.558594.398438.855469.570313 10.519531 11.714844 17.609375 26.101563 20.476562 41.585937 3.039063 19.175782-7.46875 37.929688-25.410156 45.351563zm60.988281-118.910156c-.609375 2.152343-2.058594 3.972656-4.019531 5.050781l-49.757813 5.34375-41.8125-41.816406 5.347657-49.765625c1.078125-1.957031 2.894531-3.398438 5.042969-4.011719 2.527343-.730469 5.25-.257812 7.382812 1.28125l16.546875 11.757812-.5625 1.128907c-1.945313 4.179687-.214844 9.148437 3.902344 11.21875 4.121093 2.070312 9.140625.496093 11.335937-3.554688l8.996094-17.988281c7.386719 3.40625 14.035156 8.222656 19.582031 14.171875 5.945313 5.550781 10.761719 12.195313 14.191407 19.566406l-18.023438 8.996094c-2.742188 1.359375-4.550781 4.082031-4.730469 7.140625-.183593 3.058594 1.289063 5.980469 3.855469 7.652344 2.566406 1.675781 5.832031 1.84375 8.554688.445312l1.128906-.5625 11.785156 16.589844c1.523438 2.128906 1.984375 4.839844 1.253906 7.355469zm0 0" fill="#FFFFFF"/><path d="m319.550781 94.746094c-2.023437-1.011719-4.367187-1.179688-6.515625-.460938-2.148437.714844-3.921875 2.257813-4.933594 4.285156l-51.199218 102.398438c-2.109375 4.21875-.398438 9.34375 3.820312 11.453125 4.21875 2.105469 9.347656.394531 11.453125-3.824219l51.199219-102.398437c1.011719-2.027344 1.179688-4.371094.460938-6.519531-.714844-2.148438-2.257813-3.921876-4.285157-4.933594zm0 0" fill="#FFFFFF"/><path d="m405.789062 188.613281-102.398437 51.199219c-4.21875 2.105469-5.929687 7.234375-3.824219 11.453125 2.109375 4.214844 7.234375 5.929687 11.453125 3.820313l102.398438-51.199219c4.21875-2.105469 5.929687-7.234375 3.824219-11.453125-2.105469-4.214844-7.234376-5.929688-11.453126-3.820313zm0 0" fill="#FFFFFF"/><path d="m309.707031 202.28125c3.332031 3.332031 8.730469 3.332031 12.0625 0l68.269531-68.265625c3.234376-3.347656 3.1875-8.671875-.105468-11.960937-3.292969-3.292969-8.613282-3.339844-11.960938-.105469l-68.265625 68.265625c-3.332031 3.335937-3.332031 8.734375 0 12.066406zm0 0" fill="#FFFFFF"/></svg>
