<?xml version="1.0" encoding="utf-8"?>
<!-- Generator: Adobe Illustrator 23.0.0, SVG Export Plug-In . SVG Version: 6.00 Build 0)  -->
<svg version="1.1" id="Capa_1" xmlns="http://www.w3.org/2000/svg" xmlns:xlink="http://www.w3.org/1999/xlink" x="0px" y="0px"
	 viewBox="0 0 512 512" style="enable-background:new 0 0 512 512;" xml:space="preserve">
<style type="text/css">
	.st0{fill:#FFFFFF;}
</style>
<path class="st0" d="M459.1,290.1C433.7,199,350.6,135.9,256,135.9c-94.6,0-177.7,63-203.1,154.2c-30.1,3.5-52.8,29-52.9,59.2
	s22.5,55.8,52.5,59.5l15.7,70.7c0.9,3.9,4.3,6.7,8.3,6.7h358.9c4,0,7.5-2.8,8.3-6.7l15.7-70.7c30-3.7,52.6-29.3,52.5-59.5
	C511.9,319.1,489.2,293.7,459.1,290.1L459.1,290.1z M256,153c85.6-0.2,161.1,55.8,185.6,137.8c-10.1,1.9-19.6,6.4-27.5,13
	c-23.9-20.2-59.3-18.5-81.2,3.9c-21.9-22.4-57.3-24.1-81.2-3.9c-22.2-18.8-54.7-18.8-76.9,0c-22.2-18.8-54.7-18.8-76.9,0
	c-7.9-6.6-17.4-11.1-27.5-13C94.9,208.8,170.5,152.8,256,153z M428.6,469.2h-83.9l13.3-40l-16.2-5.4l-15.1,45.4h-62.2v-42.7h-17.1
	v42.7h-62.2l-15.1-45.4l-16.2,5.4l13.4,40H83.4l-13.5-60.7c10.3-1.8,20-6.4,28-13.1c22.2,18.8,54.7,18.8,76.9,0
	c22.2,18.8,54.7,18.8,76.9,0c23.9,20.2,59.3,18.5,81.2-3.9c21.9,22.4,57.3,24.1,81.2,3.9c8,6.8,17.7,11.3,28,13.1L428.6,469.2z
	 M452.5,392.3c-12.3,0-23.9-5.3-32-14.5c-1.6-1.8-4-2.9-6.4-2.9s-4.8,1.1-6.4,2.9c-8.8,10-21.7,15.3-35,14.4
	c-13.3-0.9-25.4-7.9-32.7-19c-1.7-2.2-4.3-3.6-7.1-3.6s-5.4,1.3-7.1,3.6c-7.3,11.1-19.4,18.1-32.7,19c-13.3,0.9-26.2-4.4-35-14.4
	c-1.7-1.8-4-2.8-6.4-2.8s-4.7,1-6.4,2.8c-8.1,9.2-19.8,14.5-32,14.5s-24-5.3-32-14.5c-1.7-1.8-4-2.8-6.4-2.8s-4.7,1-6.4,2.8
	c-8.1,9.2-19.8,14.5-32,14.5s-24-5.3-32-14.5c-1.7-1.8-4-2.8-6.4-2.8s-4.7,1-6.4,2.8c-11.7,13.4-30.5,18.1-47.2,11.8
	c-16.6-6.3-27.7-22.2-27.7-40c0-17.8,11-33.7,27.7-40c16.6-6.3,35.4-1.6,47.2,11.8c1.7,1.8,4,2.8,6.4,2.8s4.7-1,6.4-2.8
	c8.1-9.2,19.8-14.5,32-14.5s24,5.3,32,14.5c1.7,1.8,4,2.8,6.4,2.8s4.7-1,6.4-2.8c8.1-9.2,19.8-14.5,32-14.5s24,5.3,32,14.5
	c1.7,1.8,4,2.8,6.4,2.8s4.7-1,6.4-2.8c8.8-10,21.7-15.3,35-14.4c13.3,0.9,25.4,7.9,32.7,19c1.7,2.3,4.3,3.6,7.1,3.6s5.4-1.3,7.1-3.6
	c7.3-11.1,19.4-18.1,32.7-19c13.3-0.9,26.2,4.4,35,14.4c1.7,1.8,4,2.8,6.4,2.8s4.7-1,6.4-2.8c13-14.8,34.4-18.8,51.9-9.7
	c17.5,9.1,26.4,29,21.7,48.1C489.4,378.9,472.2,392.3,452.5,392.3z"/>
<path class="st0" d="M256,272.7c17.6,0,25.6-26.6,25.6-51.3c0-24.7-8-51.3-25.6-51.3s-25.6,26.6-25.6,51.3
	C230.4,246.1,238.4,272.7,256,272.7z M256,187.4c2.8,2.2,8.5,13.9,8.5,34c0,20.1-5.7,31.8-8.5,34c-2.8-2.2-8.5-13.9-8.5-34
	C247.5,201.3,253.2,189.6,256,187.4z"/>
<path class="st0" d="M372,262.5c4.7,0.2,9.3-1.6,12.6-4.9c12.4-12.5-0.7-36.9-18.1-54.4s-41.9-30.6-54.4-18.1
	c-12.5,12.5,0.7,36.9,18.1,54.4C342.9,252.1,359.2,262.5,372,262.5z M354.4,215.3c14.2,14.2,18.4,26.5,17.9,30.1
	c-3.7,0.5-15.9-3.8-30.1-17.9c-14.2-14.1-18.4-26.5-17.9-30.1C328.1,196.9,340.2,201.2,354.4,215.3z"/>
<path class="st0" d="M145.3,262.6c12.8,0,29.1-10.4,41.8-23.1c17.5-17.4,30.6-41.9,18.1-54.4s-36.9,0.7-54.4,18.1
	s-30.6,41.9-18.1,54.4C136,260.9,140.6,262.7,145.3,262.6z M162.9,215.3c14.2-14.2,26.4-18.4,30.1-17.9c0.4,3.5-3.8,15.9-17.9,30.1
	c-14.1,14.2-26.4,18.5-30.1,17.9C144.5,241.9,148.7,229.5,162.9,215.3z"/>
<path class="st0" d="M201.9,48.3l-11.5-12.6l-18,16.4c-5.9,5.3-9.1,12.9-8.5,20.8c0.6,8,4.9,15.3,11.6,19.7c2.2,1.4,3.7,3.7,4.1,6.3
	c0.3,2.3-0.4,4.7-1.9,6.5L164,122l13.2,10.9l13.7-16.6c4.6-5.5,6.7-12.7,5.7-19.8c-1.1-7.3-5.2-13.9-11.4-17.9
	c-2.4-1.5-3.9-4-4.2-6.8c-0.2-2.7,1-5.3,3-7L201.9,48.3z"/>
<path class="st0" d="M278.8,39.7l-11.5-12.6l-18,16.4c-5.9,5.3-9.1,12.9-8.5,20.8c0.6,8,4.9,15.3,11.6,19.7c2.2,1.4,3.7,3.7,4.1,6.3
	c0.3,2.3-0.4,4.7-1.9,6.5l-13.7,16.6l13.2,10.9l13.7-16.6c4.6-5.5,6.7-12.7,5.7-19.8c-1.1-7.3-5.2-13.9-11.4-17.9
	c-2.4-1.5-3.9-4-4.2-6.8c-0.2-2.7,1-5.3,3-7L278.8,39.7z"/>
<path class="st0" d="M355.7,48.3l-11.5-12.6l-18,16.4c-5.9,5.3-9.1,12.9-8.5,20.8c0.6,8,4.9,15.3,11.6,19.7c2.2,1.4,3.7,3.7,4.1,6.3
	c0.3,2.3-0.4,4.7-1.9,6.5L317.8,122l13.2,10.9l13.7-16.6c4.6-5.5,6.7-12.7,5.7-19.8c-1.1-7.3-5.2-13.9-11.4-17.9
	c-2.4-1.5-3.9-4-4.2-6.8c-0.2-2.7,1-5.3,3-7L355.7,48.3z"/>
</svg>
