<?xml version="1.0" encoding="utf-8"?>
<!-- Generator: Adobe Illustrator 23.0.0, SVG Export Plug-In . SVG Version: 6.00 Build 0)  -->
<svg version="1.1" id="Capa_1" xmlns="http://www.w3.org/2000/svg" xmlns:xlink="http://www.w3.org/1999/xlink" x="0px" y="0px"
	 viewBox="0 0 600 600" style="enable-background:new 0 0 600 600;" xml:space="preserve">
<style type="text/css">
	.st0{display:none;}
	.st1{fill:#FFFFFF;}
</style>
<rect class="st0" width="600" height="600"/>
<g>
	<path class="st1" d="M344.8,313.1c-0.2,0-0.5,0.1-0.7,0.1c-2.8,0.4-5.7,0.5-8.6,0.1c-2.3,0.3-3.5,0.3-3.5,0.3s0,0,0,0
		c2.2,1.8,4.8,2.8,8.1,2.2c2.1-0.4,4.1-1.1,6-1.9c-0.3-0.2-0.6-0.5-1-0.7C345,313.2,344.9,313.1,344.8,313.1z"/>
	<path class="st1" d="M430.4,370.4c-0.1,0.1-0.1,0.2-0.2,0.4c0,0,0,0,0,0C430.4,370.6,430.4,370.4,430.4,370.4
		C430.5,370.3,430.5,370.3,430.4,370.4z"/>
	<path class="st1" d="M211.4,169.3c0.7-5,2.8-9.5,5.8-13.5c0.7-2.1,1.6-4.2,2.7-6.2c-6.4,4.9-9.3,11.8-8.6,19.5
		C211.3,169.1,211.4,169.2,211.4,169.3z"/>
	<path class="st1" d="M233.8,139.6c3.4-2.8,7.5-5.5,12.2-7.8c-1.9,0.6-3.8,1.3-5.6,2.1c-3.4,1.6-6.8,4-9.5,7
		C231.8,140.3,232.8,139.8,233.8,139.6z"/>
	<path class="st1" d="M350.5,311.7c0.1,0,0.2,0.1,0.3,0.1c0.3-0.1,0.5-0.3,0.8-0.4c0.5-0.2,0.9-0.4,1.4-0.7
		C352.2,311.1,351.4,311.5,350.5,311.7C350.5,311.7,350.5,311.7,350.5,311.7z"/>
	<path class="st1" d="M258.1,127.2c0.8-0.4,1.7-0.7,2.5-1c-3,0.6-6.9,1.7-10.1,3.5c0.2,0,0.4-0.1,0.6-0.1
		C253.3,128.6,255.7,127.8,258.1,127.2z"/>
	<path class="st1" d="M228.2,143.2c-0.6,0.4-1.1,0.7-1.7,1.1c0.4-0.2,0.9-0.4,1.4-0.6C228,143.6,228.1,143.4,228.2,143.2z"/>
	<path class="st1" d="M218.8,153.8c0.6-1.9,1.5-3.7,2.6-5.3c-0.3,0.2-0.6,0.4-0.9,0.6c-1,1.8-1.8,3.7-2.5,5.7
		C218.2,154.5,218.5,154.2,218.8,153.8z"/>
	<path class="st1" d="M389,386.8c0.1-0.3,0.1-0.5,0.2-0.8c0,0,0,0,0,0c-0.1,0.2-0.1,0.4-0.2,0.5C388.9,386.7,389,386.7,389,386.8z"
		/>
	<path class="st1" d="M438.2,267.7c0.2-1.9,0.4-3.8,0.5-5.6c0-0.4,0-0.8,0-1.2c-0.4,3.3-1,6.5-1.5,9.5
		C437.6,269.5,437.9,268.6,438.2,267.7z"/>
	<path class="st1" d="M432.4,366.4c-0.3,0.6-0.7,1.3-1,1.9c0.1-0.1,0.2-0.2,0.3-0.4C431.9,367.4,432.2,366.9,432.4,366.4z"/>
	<path class="st1" d="M439.9,234.8c0.1,1.5,0.2,3,0.2,4.6c0.1-0.2,0.1-0.4,0.1-0.7C440.3,237.4,440.1,236.1,439.9,234.8z"/>
	<path class="st1" d="M371,345.9c0.1,0.6,0.1,1.3,0.3,1.9c0.3,0.3,0.5,0.5,0.7,0.7C371.6,347.7,371.3,346.8,371,345.9z"/>
	<path class="st1" d="M346,311.9c0.4,0,0.8-0.1,1.1-0.2c-0.2,0-0.4,0-0.5-0.1C346.4,311.8,346.2,311.8,346,311.9z"/>
	<path class="st1" d="M345.7,313c0.3,0.3,0.6,0.5,0.9,0.8c1.1-0.4,2.1-0.9,3.1-1.4c-0.2-0.1-0.5-0.1-0.7-0.2
		C348,312.5,346.8,312.8,345.7,313z"/>
	<path class="st1" d="M334.6,140.5c-5.2-4.6-11.5-7.8-18.4-8.8c-0.1,0-0.2,0-0.3,0c6.1,2.3,11.9,4.9,17,7.9
		C333.5,139.8,334.1,140.1,334.6,140.5z"/>
	<path class="st1" d="M225.2,147.9c0.3-0.4,0.6-0.7,1-1.1c0.2-0.4,0.4-0.8,0.6-1.2c-1.3,0.6-2.6,1.2-3.9,1.9c-0.4,0.5-0.7,0.9-1,1.5
		c-0.6,1-1.2,2.1-1.6,3.2C221.8,150.7,223.4,149.2,225.2,147.9z"/>
	<path class="st1" d="M291.2,125.5c0.2,0,0.5,0,0.7,0c-4.7-1.2-9.8-1.7-14.2-1.5c-2.3,0.1-4.6,0.3-6.7,0.7c0.4,0,0.7,0.1,1.1,0.1
		c2.2-0.2,4.4-0.2,6.8-0.2C283,124.6,287.1,124.9,291.2,125.5z"/>
	<path class="st1" d="M227.6,145.3C227.6,145.3,227.6,145.3,227.6,145.3C227.6,145.3,227.6,145.3,227.6,145.3
		C227.6,145.3,227.6,145.3,227.6,145.3z"/>
	<path class="st1" d="M343.9,311.7c0.4-0.1,0.8-0.1,1.3-0.2c-0.1,0-0.2,0-0.3,0c-0.4,0-0.8,0.1-1.2,0.1
		C343.7,311.6,343.8,311.6,343.9,311.7z"/>
	<path class="st1" d="M342.2,311.8c0.1,0,0.1,0,0.2,0c0.1,0,0.1,0,0.2,0c-0.1,0-0.1-0.1-0.2-0.1
		C342.4,311.8,342.3,311.8,342.2,311.8z"/>
	<path class="st1" d="M342.3,312.6C342.3,312.6,342.3,312.6,342.3,312.6C342.3,312.6,342.3,312.6,342.3,312.6
		C342.3,312.6,342.3,312.6,342.3,312.6z"/>
	<path class="st1" d="M337.6,142.3c0.1,0.1,0.3,0.2,0.4,0.3c4.1,2.7,7.6,5.6,10.5,8.4c-1-4.9-6.4-8.3-11-9.5
		c-0.3-0.1-0.5-0.1-0.8-0.2C337,141.7,337.3,142,337.6,142.3z"/>
	<path class="st1" d="M342.2,312.6c-0.9,0.1-1.9,0-2.8,0c-0.1,0-0.2,0.1-0.3,0.1C340.1,312.7,341.2,312.7,342.2,312.6z"/>
	<path class="st1" d="M216.5,159.7c0.1-0.2,0.1-0.3,0.2-0.5c-0.1,0.1-0.1,0.2-0.2,0.3C216.5,159.5,216.5,159.6,216.5,159.7z"/>
	<path class="st1" d="M215.4,162.1c0.1-0.3,0.1-0.6,0.2-0.9c-0.5,1-1,2.1-1.4,3.1C214.6,163.6,215,162.9,215.4,162.1z"/>
	<path class="st1" d="M219.1,156c0.2-0.3,0.4-0.6,0.6-0.9c0.3-0.5,0.7-1,1.1-1.5c0,0.1-0.1,0.1-0.1,0.2
		C220.1,154.5,219.5,155.2,219.1,156z"/>
	<path class="st1" d="M232.9,140.3c-1.1,0.5-2.1,1.2-3.1,1.8c-0.3,0.4-0.7,0.8-1,1.3c0.3-0.1,0.7-0.3,1-0.4
		C230.8,142.1,231.8,141.2,232.9,140.3z"/>
	<path class="st1" d="M397.3,434.9c-0.3,0.4-0.5,0.7-0.8,1.1c-0.2,1.5-0.2,3.1,0,4.6c0.1-0.4,0.2-0.7,0.4-1.1
		C396.7,437.9,396.8,436.4,397.3,434.9z"/>
	<path class="st1" d="M387.5,390.1c0-0.3,0.1-0.7,0.1-1c0-0.5,0.1-1.1,0.2-1.7c-2.7,3.1-3.9,6.6-4.2,10.3c0.5-1.2,1.2-2.4,1.9-3.5
		C386,392.9,386.7,391.5,387.5,390.1z"/>
	<path class="st1" d="M379.5,417.9c0.2-2.3,0.5-4.5,0.8-6.5c0.1-1.2,0.2-2.5,0.4-3.7c-1.6,3-2.6,6.3-2.8,9.8
		c-0.2,4.7,1.1,9.1,3.2,13.2C379.8,426.7,379.1,422.3,379.5,417.9z"/>
	<path class="st1" d="M383.3,400.2c0-0.1,0-0.2,0-0.3c-0.6,1.3-1,2.7-1.4,4.2c0.1-0.1,0.1-0.2,0.2-0.3
		C382.5,402.5,382.9,401.3,383.3,400.2z"/>
	<path class="st1" d="M370.1,343.5c-1.8-4.9-3.2-9.5-3.9-13.3c-0.2-1-0.3-1.9-0.5-2.9c0,0.7,0,1.3,0.1,2c0.2,3.8,0.5,7.9,1.5,11.6
		c0.5,1.7,1,3.5,2.1,4.9c0.1,0.1,0.4,0.5,0.7,0.9c0-0.4-0.1-0.8-0.1-1.2C370,344.9,370,344.2,370.1,343.5z"/>
	<path class="st1" d="M371.4,348.9c0.9,3.9,2.6,7.7,5.2,10.8c-1.5-3.4-3-6.9-4.3-10.4C372,349.2,371.7,349,371.4,348.9z"/>
	<path class="st1" d="M388.3,384.4c-0.2-0.5-0.5-1-0.8-1.6c-0.1-0.1-0.1-0.2-0.2-0.2c0.3,0.8,0.6,1.6,0.9,2.5c0-0.1,0-0.2,0.1-0.3
		C388.3,384.6,388.3,384.5,388.3,384.4z"/>
	<path class="st1" d="M435.1,365.4c-0.1,0.1-0.1,0.2-0.2,0.2c-0.3,0.4-0.6,0.7-0.9,1.1c-0.6,1-1.1,1.9-1.8,2.7
		c-0.3,0.4-0.6,0.8-0.9,1.1c-0.7,1.5-1.5,3-2.4,4.5c-0.2,0.3-0.5,0.7-0.7,1c-0.4,1.2-0.7,2-0.7,2s0.2,0.6,0.5,1.6
		c1-1.5,2.1-2.9,3-4.4C432.8,372.2,434.1,368.9,435.1,365.4z"/>
	<path class="st1" d="M368.9,294.2c-0.6,1.2-1.1,2.4-1.5,3.7c-1.3,4.4-2,9.1-2.3,13.7c-0.1,2.6-0.4,5.8,0,8.6
		C365.2,310.3,367.3,300.4,368.9,294.2z"/>
	<path class="st1" d="M435.9,361.8c0-0.2,0.1-0.5,0.1-0.7c-0.5,0.5-1.1,1.2-1.6,1.9c-0.3,1.1-0.7,2.1-1.2,3.2
		c0.3-0.3,0.5-0.5,0.8-0.8C434.8,364.2,435.4,363,435.9,361.8z"/>
	<path class="st1" d="M421.9,421.6c-0.3,0.1-0.7,0.3-1,0.4c-1,0.7-2.1,1.5-3.2,2.1c-0.4,0.4-0.9,0.7-1.4,1c0.5-0.2,1.1-0.3,1.6-0.5
		c2.9-0.9,7.5-2.2,8.1-5.8c0.1-0.6,0.1-1.2,0.1-1.7c0,0,0,0,0,0C425.4,419.2,424.1,420.7,421.9,421.6z"/>
	<path class="st1" d="M396.8,442.1c0.2,0.9,0.6,1.7,1,2.4c-0.3-1.1-0.6-2.3-0.8-3.5C397,441.4,396.9,441.7,396.8,442.1z"/>
	<path class="st1" d="M430.5,388.6c-0.2-0.4-0.4-0.9-0.5-1.3c0.6,2.9,1.2,6.2,1.4,9.6C431.7,394.2,431.5,391.4,430.5,388.6z"/>
	<path class="st1" d="M398.4,433.7c-0.6,1.5-0.9,2.9-1,4.4c0.9-1.9,2.1-3.6,3.5-5c0.8-0.8,1.7-1.5,2.6-2.3c-0.6,0.2-1.1,0.5-1.7,0.7
		C400.5,432.2,399.3,432.9,398.4,433.7z"/>
	<path class="st1" d="M392.1,192.2c0.3-0.1,0.7-0.3,1.1-0.4c0.9-0.3,1.8-0.4,2.7-0.5c-1.9-0.1-3.7,0-5.3,0.3
		c0.3,0.3,0.6,0.5,0.6,0.5S391.5,192.1,392.1,192.2z"/>
	<path class="st1" d="M383.5,399.6c0.2-0.5,0.4-1,0.5-1.4c-0.2,0.4-0.4,0.8-0.5,1.2C383.5,399.5,383.5,399.6,383.5,399.6z"/>
	<path class="st1" d="M437.8,319c1.4,2.9,3,5.8,4.5,8.8C441.4,324.6,440,321.6,437.8,319z"/>
	<path class="st1" d="M433.6,307.8c0.1-2.7,0.1-5.3-0.1-8c-0.1-1.4-0.3-2.9-0.6-4.4c-0.1,0.2-0.2,0.4-0.2,0.6
		C432.4,300.4,432.8,304.3,433.6,307.8z"/>
	<path class="st1" d="M388.7,388.4c0-0.2-0.1-0.5-0.1-0.7c-0.1,0.5-0.3,0.9-0.4,1.4C388.3,388.9,388.5,388.7,388.7,388.4z"/>
	<path class="st1" d="M437.5,359.9c0,0-0.1,0.1-0.1,0.1c-0.1,0.2-0.2,0.4-0.2,0.5c-0.2,0.5-0.5,1-0.7,1.5c0,0.2-0.1,0.3-0.1,0.5
		c0.6-1,1.2-2,1.7-3C437.9,359.7,437.7,359.8,437.5,359.9z"/>
	<path class="st1" d="M429.1,373.6C429.1,373.6,429.1,373.6,429.1,373.6C429.1,373.6,429.1,373.5,429.1,373.6
		C429.1,373.5,429.1,373.5,429.1,373.6z"/>
	<path class="st1" d="M439.2,263.7c0,0.3-0.1,0.6-0.1,0.9c1.1-4.3,1.5-8.7,0.6-13.1c-0.1,1.1-0.2,2.2-0.3,3.2
		C439.6,257.8,439.5,260.9,439.2,263.7z"/>
	<path class="st1" d="M440.2,243.3c0.1-0.7,0.1-1.4,0.1-2.2c0,0.1-0.1,0.2-0.1,0.3C440.2,242,440.2,242.6,440.2,243.3z"/>
	<path class="st1" d="M393.3,192.2c-0.1,0-0.2,0.1-0.3,0.1c2.4,0.2,7,0.9,12.3,2.3c-1.9-1.7-4.6-2.7-7.5-3.1
		C396.3,191.4,394.7,191.6,393.3,192.2z"/>
	<path class="st1" d="M439.3,229.4c0.6,1.4,1,2.8,1.2,4.3c0.1,0.7,0.2,1.4,0.3,2.1c0.1-1.6,0.1-3.1,0-4.7c-0.3-4.1-1.3-8-3.5-11.5
		c-0.3-0.5-0.6-0.9-0.9-1.3C437.7,221.7,438.7,225.4,439.3,229.4z"/>
	<path class="st1" d="M433,292.3c0,0.1,0,0.2,0.1,0.3c1.6-4,3.3-8.4,2.2-12.5c-0.8,3.9-1.5,7.4-2,10.3
		C433.2,291.1,433.1,291.7,433,292.3z"/>
	<path class="st1" d="M436.8,272.9c-0.2,0.9-0.3,1.7-0.5,2.6c0.2-0.6,0.5-1.1,0.7-1.7c0.3-1,0.6-2,0.8-3.1
		C437.4,271.5,437.1,272.2,436.8,272.9z"/>
	<path class="st1" d="M432.7,373.3c1.4-2.8,2.4-5.8,3.2-8.9c2.1-2.2,3.5-4.9,4.7-7.6c4-5.9,6.7-17.3,2.7-26.9
		c-0.8-4.9-2.8-9.3-6.3-13c-0.1-0.1-0.2-0.2-0.2-0.2c-1-2.2-1.9-4.4-2.6-6.7c0-0.4,0.1-0.9,0.1-1.3c0.3-4.5,0.2-9-0.6-13.4
		c-0.1-0.4-0.1-0.8-0.2-1.2c0.8-2.2,1.7-4.3,2.4-6.5c0.8-2.8,0.9-6-0.2-8.8c0.1-0.3,0.1-0.6,0.2-1c0.4-0.7,0.8-1.5,1.1-2.3
		c1-2.4,1.5-4.8,1.8-7.3c1.8-5.1,2.6-10.4,1.8-15.8c-0.1-1.1-0.4-2.1-0.6-3.2c0-0.3,0-0.6,0-0.9c0.6-3,1-6.1,0.9-9.1
		c0.5-2.2,0.6-4.5,0.6-6.7c0-4.3-0.9-8.3-2.9-12.1c-1-1.9-2.3-3.6-3.8-5.1c-5.1-9.6-14.4-15.3-23.1-18.5c1.5-0.3,3-0.7,4.4-1.2
		c0.2-0.1,0.1-0.3-0.1-0.3c-1.9,0.4-3.7,0.8-5.5,1c0.8-0.3,1.4-0.8,1.8-1.6c0.1-0.1-0.1-0.2-0.2-0.1c-0.9,0.7-1.9,1.1-2.9,1.4
		c-1.1-0.4-2.2-0.7-3.2-1c-0.4-0.5-0.9-1-1.5-1.3c0.3,0.2,0.6,0.4,0.9,0.5c0.1,0,0.1-0.1,0.1-0.1c-0.7-0.5-1.5-0.9-2.2-1.2
		c-3.6-1.9-8.5-2.3-12-1.9c-0.5,0.1-1,0.1-1.5,0.2c-1.6-1.3-4.5-3.2-7.1-3.4c-3.8-0.3-7.8,2.2-7.8,2.2s-12.2-21-23.5-35.3
		c-0.8-1-1.6-1.9-2.5-2.9c-0.6-4.5-4.7-8.1-8.7-9.6c-1.4-0.6-2.9-1-4.4-1.3c-1-0.9-2.1-1.9-3.3-2.7c-4.4-3.5-9-5.7-14.5-6.8
		c-2-0.4-4-0.7-6-0.8c-2-0.7-4-1.3-6.1-1.8c-2.4-0.9-4.9-1.6-7.4-2.1c-1.7-0.8-3.5-1.3-5.3-1.7c-0.8-0.2-1.7-0.4-2.5-0.6
		c-3.1-1-6.3-1.7-9.7-1.9c-5-0.2-10.1,0.8-15,2.1c-0.1,0-0.1,0-0.2,0.1c-2.9,0-5.7,0.3-8.5,1.2c-2.6,0.8-6.6,2.4-9.6,4.6
		c-3.6,1-7.1,2.4-10.5,4.1c-3.5,1.9-6.3,4.4-8.5,7.6c-1.8,1.1-3.5,2.2-5,3.5c-0.7,0.4-1.4,0.8-2.1,1.2c0.3-0.4,0.5-0.8,0.8-1.2
		c0.1-0.1-0.1-0.2-0.2-0.1c-0.4,0.5-0.7,1-1,1.5c-1.1,0.7-2.2,1.5-3.2,2.4c-3.7,3.1-6.6,7.9-7.8,13c0.1-2,0.4-4,1-6
		c0.1-0.2-0.2-0.3-0.3-0.1c-0.9,2.6-1.2,5.2-1.1,7.9c-0.4,2.6-0.3,5.3,0.5,7.8c-0.8,1.7-1.2,2.7-1.2,2.7s-9,14.5-10.2,23.7
		c-1.2,9.2-4,19-3.4,22.9c0.6,3.6,2.2,10.5,1,14.4c-3.6,0.4-6.9-0.8-10.1-2.2c-0.1-0.1-0.4,0.1-0.2,0.2c2,2.9,5.9,4,9.4,4.1
		c-2.5,4.5-8.9,14.7-12.5,17.5c-3.9,3.1-7.8,8.6-5.8,12.2c1.9,3.6,5.5,5.2,7.5,5.8c2,0.6,3.3,4.7,1.9,6.6c-1.4,1.8-3.6,2.4-4.5,4.4
		c-0.8,2-1.1,6.3,2.3,7.7c2.6,1.1,7.8,3.3,7.7,3.9c-0.1,0.6-5.6,1-6.6,2.8c-0.9,1.8-1.6,4.7-0.3,6.9c1.3,2.2,5.9,1.9,7.1,3.5
		s-0.5,2.8-0.9,8.1c-0.4,5.4-1.3,13,7.7,15.7s22.8,0.5,27.8-0.6s12.9-3.3,16.8,3.4s6.8,20.4,7.8,26.1s6.2,26.1,7.2,29.8
		s-0.6,12.6-5.1,16.8c-4.4,4.2-8.8,11-10.5,13.8s-20,28.6-23.3,34.8s-4.5,10.1-4.5,10.1H372c0,0-2.3-25-7.3-38.3
		s-19.6-31.9-28.4-46.9s-10.5-45.5-8.2-54.7c1.7-6.5,2.9-10.5,3.5-12.3c1.8,1.4,3.8,2.2,6.2,2.3c3.2,0.1,6.2-1,9.1-2.3
		c0.2,0.1,0.5,0.3,0.8,0.4c0.2,0.1,0.4-0.3,0.2-0.4c-0.2-0.1-0.3-0.1-0.4-0.2c1.1-0.5,2.2-1.1,3.3-1.7c2,0.6,4.1,1.1,6.2,1.1
		c0.3,0,0.3-0.5,0-0.5c-1.8,0-3.5-0.5-5.3-1.1c3-1.6,6.1-3.1,9.4-3.6c0.3,0,0.2-0.6-0.1-0.6c-1.6,0.2-3,0.6-4.4,1.2
		c-0.6,0.1-1.2,0.3-1.8,0.4c1.1-0.6,2.2-1.3,3.3-1.9c0.2-0.1,0-0.3-0.1-0.3c-2.9,1.5-5.8,3-8.9,3.9c-0.2,0-0.4-0.1-0.5-0.1
		c-0.3-0.1-0.6-0.1-1-0.2c0,0,0,0,0,0c0.8-0.2,1.7-0.4,2.5-0.6c0.1,0,0.1-0.3,0-0.3c-1.3,0.2-2.6,0.4-3.9,0.6
		c-0.2,0-0.4-0.1-0.5-0.1c1.3-0.5,2.7-1.1,4.1-1.7c1.8-0.8,3.5-2,5.2-3.3c2.6-1.1,5.2-2.4,7.9-3.4c0.2-0.1,0.1-0.4-0.1-0.3
		c-2.1,0.7-4.1,1.6-6.2,2.4c1.1-0.9,2.2-1.9,3.2-3c2-0.7,3.8-1.8,5.3-3.2c0.2-0.2-0.1-0.4-0.3-0.3c-1.2,1-2.5,1.8-4,2.4
		c5.9-6,10.1-12.5,10.1-12.5s-0.5,1.3-1.1,3.5c-1.1,1.7-2.1,3.6-2.8,5.6c-1.6,4.6-2.2,9.7-2.5,14.6c-0.2,3.3-0.5,7.5,0.7,10.9
		c-0.3,2.3-0.3,4.6-0.2,6.8c0.2,5.6,0.6,14.7,5.4,18.7c0.8,4.7,3.4,9.7,6.9,13.1c1.9,4.3,3.8,8.4,5.6,12c0.6,2.5,1.7,5.1,3.2,7.5
		c0.6,1.6,1.2,3.5,2,5.2c0,0.2-0.1,0.4-0.1,0.6c0,0-0.1,0.1-0.1,0.1c-3.2,3.3-4.4,7.5-4.5,11.8c-1,2.2-1.7,4.5-2.1,6.8
		c-2.1,3.5-3.5,7.5-3.9,11.5c-0.6,5.7,1.3,11,4.1,15.8c0.3,2.3,0.8,4.5,1.5,6.7c0.7,2.1,1.8,4.1,3,5.9c1.1,1.6,2.6,2.4,4.1,3.6
		c0.2,0.1,0.4-0.2,0.2-0.3c-1.7-1.3-3.1-2.5-4.2-4.3c-1.2-1.8-2-3.8-2.7-5.9c-0.5-1.4-0.8-2.8-1-4.2c2.9,7.2,7.4,13.3,11,17.5
		c0.2,0.5,0.3,1,0.5,1.5c0.8,2,2.3,3.4,3.5,5.2c0.1,0.2,0.5,0,0.3-0.2c-0.8-1.3-1.8-2.4-2.6-3.7c-0.3-0.5-0.5-0.9-0.7-1.4
		c0.7,0.8,1.3,1.4,1.9,2c0.7,1.6,1.7,3,3.2,3.8c0.1,0.1,0.3-0.1,0.1-0.2c-0.8-0.6-1.4-1.4-2-2.2c0.5,0.4,0.7,0.7,0.7,0.7
		s-0.2-0.4-0.5-1.1c0.1,0.2,0.2,0.4,0.3,0.6c0.1,0.2,0.4,0,0.3-0.2c-0.6-1.3-1.1-2.7-1.6-4.1c0.6,1,1.2,2,1.9,2.9
		c0.2,0.2,0.6,0,0.4-0.2c-1.4-1.9-2.5-4.1-3.2-6.4c-0.7-3.4-0.9-6.9-0.4-10.3c0-0.1,0.1-0.2,0.1-0.4c0,1.5,0.1,2.9,0.5,4.2
		c-0.7,3.6-0.2,7.3,2,10.2c0.1,0.2,0.4,0,0.3-0.2c-1.9-2.6-2.3-5.7-1.9-8.8c0.3,0.7,0.7,1.4,1.3,2c0,0,0.1,0,0.1,0c0,0,0,0,0,0
		c0,0.2,0.3,0.1,0.3-0.1c-0.4-1.9-0.8-3.7-0.9-5.5c1.5-4.3,5-7.1,8.5-9.8c0.9-0.4,1.7-0.7,2.6-1.1c2.3-0.6,4.5-1.5,6.6-2.8
		c1.3-0.3,2.5-0.7,3.8-1.1c2.8-0.8,5.8-2,7.4-4.6c0.7-1.2,0.8-2.6,0.7-4c1.7-2.2,3.1-4.8,3.8-7.7c0.7-2.7,0.9-5.7,0.9-8.8
		c0.8-3.5,0.9-7.2-0.2-10.8c-0.5-1.7-1.2-3.4-2.2-5c-0.4-1.5-0.7-2.8-1-3.8c0.3-0.4,0.6-0.8,0.8-1.1
		C430.4,377.3,431.6,375.3,432.7,373.3z M345.1,311.5c-0.4,0.1-0.8,0.2-1.3,0.2c-0.1-0.1-0.2-0.1-0.3-0.2c0.4,0,0.8-0.1,1.2-0.1
		C344.9,311.4,345,311.5,345.1,311.5z M222.9,147.6c1.2-0.7,2.5-1.4,3.9-1.9c-0.2,0.4-0.4,0.8-0.6,1.2c-0.3,0.4-0.7,0.7-1,1.1
		c-1.8,1.3-3.4,2.7-4.9,4.3c0.5-1.1,1-2.2,1.6-3.2C222.2,148.5,222.5,148,222.9,147.6z M229.8,142.1c0.9-0.6,2-1.3,3.1-1.8
		c-1.1,0.9-2.1,1.8-3,2.7c-0.3,0.1-0.7,0.2-1,0.4C229.1,143,229.5,142.5,229.8,142.1z M342.4,311.8c-0.1,0-0.1,0-0.2,0
		C342.3,311.8,342.4,311.8,342.4,311.8c0.1-0.1,0.1,0,0.2,0C342.5,311.8,342.5,311.8,342.4,311.8z M271,124.7
		c2.1-0.4,4.4-0.7,6.7-0.7c4.4-0.1,9.5,0.3,14.2,1.5c-0.2,0-0.5,0-0.7,0c-4.1-0.5-8.2-0.8-12.4-0.9c-2.3,0-4.6,0.1-6.8,0.2
		C271.7,124.8,271.4,124.7,271,124.7z M227.6,145.3C227.6,145.3,227.6,145.3,227.6,145.3C227.6,145.3,227.6,145.3,227.6,145.3
		C227.6,145.3,227.6,145.3,227.6,145.3z M216.5,159.7c0-0.1,0-0.1,0-0.2c0.1-0.1,0.1-0.2,0.2-0.3
		C216.6,159.4,216.6,159.5,216.5,159.7z M215.4,162.1c-0.4,0.8-0.8,1.5-1.2,2.2c0.4-1.1,0.9-2.1,1.4-3.1
		C215.5,161.5,215.5,161.8,215.4,162.1z M219.7,155.1c-0.2,0.3-0.4,0.6-0.6,0.9c0.5-0.8,1-1.5,1.5-2.3c0-0.1,0.1-0.1,0.1-0.2
		C220.3,154.1,220,154.6,219.7,155.1z M339.4,312.6c0.9,0,1.9,0.1,2.8,0c-1,0.1-2.1,0.1-3.1,0.1
		C339.2,312.6,339.3,312.6,339.4,312.6z M342.3,312.6C342.3,312.6,342.3,312.6,342.3,312.6C342.3,312.6,342.3,312.6,342.3,312.6
		C342.3,312.6,342.3,312.6,342.3,312.6z M337.4,141.6c4.6,1.1,10,4.5,11,9.5c-2.8-2.9-6.4-5.7-10.5-8.4c-0.1-0.1-0.3-0.2-0.4-0.3
		c-0.3-0.3-0.6-0.6-0.9-0.9C336.9,141.5,337.2,141.5,337.4,141.6z M316.2,131.7c6.8,1,13.2,4.2,18.4,8.8c-0.6-0.3-1.1-0.6-1.7-0.9
		c-5.1-2.9-10.8-5.6-17-7.9C316.1,131.7,316.2,131.7,316.2,131.7z M260.6,126.2c-0.8,0.3-1.7,0.7-2.5,1c-2.5,0.7-4.8,1.4-7,2.3
		c-0.2,0-0.4,0.1-0.6,0.1C253.7,127.9,257.6,126.7,260.6,126.2z M240.5,133.9c1.8-0.9,3.7-1.5,5.6-2.1c-4.7,2.3-8.8,5-12.2,7.8
		c-1,0.2-2,0.8-2.9,1.3C233.7,137.9,237,135.5,240.5,133.9z M228.2,143.2c-0.1,0.2-0.2,0.4-0.3,0.5c-0.5,0.2-0.9,0.4-1.4,0.6
		C227,143.9,227.6,143.6,228.2,143.2z M221.3,148.6c-1.1,1.6-1.9,3.4-2.6,5.3c-0.3,0.3-0.6,0.7-0.8,1c0.7-1.9,1.5-3.8,2.5-5.7
		C220.7,149,221,148.8,221.3,148.6z M219.9,149.6c-1.1,2-2,4.1-2.7,6.2c-3,4-5,8.5-5.8,13.5c0-0.1-0.1-0.1-0.1-0.2
		C210.6,161.4,213.5,154.4,219.9,149.6z M340.1,315.8c-3.3,0.6-5.9-0.4-8.1-2.2c0,0,0,0,0,0s1.3,0.1,3.5-0.3
		c2.8,0.4,5.8,0.2,8.6-0.1c0.2,0,0.5-0.1,0.7-0.1c0.1,0,0.2,0.1,0.2,0.1c0.4,0.2,0.7,0.5,1,0.7C344.1,314.8,342.1,315.4,340.1,315.8
		z M346.6,313.7c-0.3-0.2-0.6-0.5-0.9-0.8c1.1-0.2,2.3-0.5,3.4-0.8c0.2,0.1,0.5,0.1,0.7,0.2C348.7,312.8,347.7,313.3,346.6,313.7z
		 M351.6,311.5c-0.3,0.1-0.5,0.3-0.8,0.4c-0.1,0-0.2-0.1-0.3-0.1c0,0,0.1,0,0.1,0c0.8-0.3,1.6-0.6,2.4-0.9
		C352.5,311,352.1,311.3,351.6,311.5z M346,311.9c0.2-0.1,0.4-0.1,0.6-0.2c0.2,0,0.4,0,0.5,0.1C346.8,311.8,346.4,311.9,346,311.9z
		 M371,345.9c0.3,0.9,0.7,1.7,1,2.6c-0.2-0.2-0.5-0.4-0.7-0.7C371.1,347.2,371,346.6,371,345.9z M440.2,239.4c0-1.5-0.1-3.1-0.2-4.6
		c0.2,1.3,0.3,2.6,0.4,3.9C440.3,239,440.2,239.2,440.2,239.4z M438.7,262.1c-0.1,1.9-0.2,3.8-0.5,5.6c-0.3,0.9-0.7,1.8-1,2.7
		c0.5-3.1,1.1-6.3,1.5-9.5C438.7,261.2,438.7,261.6,438.7,262.1z M389.2,386c-0.1,0.3-0.1,0.5-0.2,0.8c0-0.1-0.1-0.1-0.1-0.2
		C389,386.4,389,386.3,389.2,386C389.1,386.1,389.1,386,389.2,386z M432.4,366.4c-0.2,0.5-0.5,1-0.7,1.5c-0.1,0.1-0.2,0.2-0.3,0.4
		C431.7,367.6,432.1,367,432.4,366.4z M430.3,370.7c0.1-0.1,0.1-0.2,0.2-0.4c0,0,0,0,0.1,0C430.4,370.4,430.4,370.6,430.3,370.7
		C430.3,370.7,430.3,370.7,430.3,370.7z M434.5,363c0.5-0.7,1-1.3,1.6-1.9c0,0.2-0.1,0.5-0.1,0.7c-0.6,1.2-1.2,2.4-1.8,3.5
		c-0.3,0.3-0.5,0.5-0.8,0.8C433.8,365.1,434.2,364,434.5,363z M436.5,362.1c0.2-0.5,0.5-1,0.7-1.5c0.1-0.2,0.2-0.4,0.2-0.5
		c0,0,0.1-0.1,0.1-0.1c0.2-0.1,0.4-0.3,0.6-0.4c-0.5,1-1.1,2.1-1.7,3C436.4,362.4,436.4,362.2,436.5,362.1z M388.7,388.4
		c-0.2,0.2-0.3,0.4-0.5,0.7c0.1-0.5,0.2-0.9,0.4-1.4C388.6,388,388.6,388.2,388.7,388.4z M383.5,399.6c0-0.1,0-0.1,0-0.2
		c0.2-0.4,0.4-0.8,0.5-1.2C383.8,398.7,383.7,399.1,383.5,399.6z M429.1,373.6C429.1,373.5,429.1,373.5,429.1,373.6
		C429.1,373.5,429.1,373.6,429.1,373.6C429.1,373.6,429.1,373.6,429.1,373.6z M442.3,327.8c-1.5-3.1-3-5.9-4.5-8.8
		C440,321.6,441.4,324.6,442.3,327.8z M433.5,299.8c0.3,2.7,0.2,5.3,0.1,8c-0.8-3.5-1.2-7.3-0.9-11.7c0.1-0.2,0.1-0.4,0.2-0.6
		C433.1,296.9,433.3,298.3,433.5,299.8z M433.1,292.6c0-0.1,0-0.2-0.1-0.3c0.1-0.6,0.2-1.2,0.3-1.8c0.5-3,1.3-6.5,2-10.3
		C436.4,284.2,434.7,288.6,433.1,292.6z M436.9,273.8c-0.2,0.6-0.4,1.2-0.7,1.7c0.2-0.8,0.3-1.7,0.5-2.6c0.3-0.7,0.7-1.5,1-2.2
		C437.5,271.8,437.3,272.8,436.9,273.8z M439.1,264.6c0-0.3,0.1-0.6,0.1-0.9c0.2-2.8,0.4-5.9,0.2-8.9c0.1-1.1,0.2-2.2,0.3-3.2
		C440.6,255.9,440.2,260.3,439.1,264.6z M440.2,243.3c0-0.6,0-1.2,0-1.9c0-0.1,0.1-0.2,0.1-0.3C440.3,241.8,440.3,242.5,440.2,243.3
		z M440.7,231c0.1,1.5,0.1,3.1,0,4.7c-0.1-0.7-0.2-1.4-0.3-2.1c-0.2-1.4-0.6-2.9-1.2-4.3c-0.6-3.9-1.6-7.7-3.1-11.1
		c0.3,0.4,0.6,0.9,0.9,1.3C439.5,223,440.4,227,440.7,231z M405.3,194.6c-5.4-1.5-9.9-2.1-12.3-2.3c0.1,0,0.2-0.1,0.3-0.1
		c1.4-0.5,3-0.7,4.6-0.6C400.7,191.9,403.5,192.9,405.3,194.6z M395.9,191.3c-0.9,0.1-1.8,0.2-2.7,0.5c-0.4,0.1-0.7,0.2-1.1,0.4
		c-0.6-0.1-0.9-0.1-0.9-0.1s-0.2-0.2-0.6-0.5C392.2,191.3,394,191.2,395.9,191.3z M365.2,311.6c0.2-4.6,1-9.3,2.3-13.7
		c0.4-1.3,0.9-2.5,1.5-3.7c-1.7,6.2-3.8,16-3.7,26C364.8,317.4,365.1,314.3,365.2,311.6z M369.4,345.9c-1.1-1.4-1.6-3.2-2.1-4.9
		c-1-3.7-1.3-7.7-1.5-11.6c0-0.7,0-1.3-0.1-2c0.1,1,0.3,1.9,0.5,2.9c0.7,3.8,2.1,8.4,3.9,13.3c0,0.7,0,1.4,0,2c0,0.4,0,0.8,0.1,1.2
		C369.8,346.3,369.5,346,369.4,345.9z M371.4,348.9c0.3,0.2,0.5,0.3,0.8,0.4c1.4,3.4,2.8,6.9,4.3,10.4
		C374.1,356.6,372.3,352.8,371.4,348.9z M387.4,382.6c0.1,0.1,0.1,0.2,0.2,0.2c0.3,0.6,0.5,1.1,0.8,1.6c0,0.1,0,0.3,0,0.4
		c0,0.1,0,0.2-0.1,0.3C387.9,384.2,387.6,383.4,387.4,382.6z M387.8,387.5c-0.1,0.6-0.1,1.1-0.2,1.7c-0.1,0.3-0.1,0.7-0.1,1
		c-0.8,1.3-1.5,2.7-2,4.1c-0.7,1.1-1.3,2.3-1.9,3.5C383.9,394,385.1,390.5,387.8,387.5z M383.3,399.9c0,0.1,0,0.2,0,0.3
		c-0.4,1.1-0.8,2.3-1.2,3.5c-0.1,0.1-0.1,0.2-0.2,0.3C382.2,402.6,382.7,401.2,383.3,399.9z M377.9,417.6c0.1-3.5,1.2-6.8,2.8-9.8
		c-0.2,1.2-0.3,2.4-0.4,3.7c-0.4,2-0.6,4.2-0.8,6.5c-0.4,4.4,0.3,8.7,1.6,12.8C379,426.7,377.8,422.2,377.9,417.6z M396.5,436
		c0.2-0.4,0.5-0.7,0.8-1.1c-0.5,1.5-0.5,3-0.4,4.6c-0.1,0.4-0.3,0.7-0.4,1.1C396.3,439.1,396.3,437.5,396.5,436z M396.8,442.1
		c0.1-0.4,0.2-0.7,0.3-1.1c0.2,1.2,0.5,2.4,0.8,3.5C397.4,443.8,397,443,396.8,442.1z M400.9,433.2c-1.4,1.4-2.6,3.1-3.5,5
		c0.1-1.5,0.4-2.9,1-4.4c0.9-0.8,2-1.6,3.4-2.1c0.6-0.2,1.1-0.5,1.7-0.7C402.6,431.6,401.8,432.4,400.9,433.2z M426.1,419
		c-0.6,3.6-5.2,4.9-8.1,5.8c-0.5,0.2-1.1,0.3-1.6,0.5c0.5-0.3,0.9-0.7,1.4-1c1.1-0.7,2.2-1.4,3.2-2.1c0.3-0.1,0.7-0.3,1-0.4
		c2.1-0.9,3.4-2.4,4.2-4.4c0,0,0,0,0,0C426.2,417.8,426.2,418.4,426.1,419z M430.5,388.6c1,2.8,1.2,5.6,0.9,8.3
		c-0.3-3.4-0.8-6.7-1.4-9.6C430.1,387.8,430.3,388.2,430.5,388.6z M427.5,378.1c0,0,0.2-0.8,0.7-2c0.3-0.3,0.5-0.7,0.7-1
		c0.9-1.4,1.7-2.9,2.4-4.5c0.3-0.4,0.6-0.8,0.9-1.1c0.6-0.9,1.2-1.8,1.8-2.7c0.3-0.4,0.6-0.7,0.9-1.1c0.1-0.1,0.1-0.2,0.2-0.2
		c-1,3.4-2.3,6.8-4.1,9.9c-0.9,1.5-2,2.9-3,4.4C427.7,378.7,427.5,378.1,427.5,378.1z"/>
</g>
<path class="st1" d="M525,75H54c-6.6,0-12-5.4-12-12V40c0-6.6,5.4-12,12-12h471c6.6,0,12,5.4,12,12v23C537,69.6,531.6,75,525,75z"/>
<path class="st1" d="M546,539H63c-6.6,0-12-5.4-12-12v-21c0-6.6,5.4-12,12-12h483c6.6,0,12,5.4,12,12v21
	C558,533.6,552.6,539,546,539z"/>
<path class="st1" d="M550,441h-30c-6.6,0-12-5.4-12-12V122c0-6.6,5.4-12,12-12h30c6.6,0,12,5.4,12,12v307
	C562,435.6,556.6,441,550,441z"/>
<path class="st1" d="M104,425.2H59c-6.6,0-12-5.4-12-12v-279c0-6.6,5.4-12,12-12h45c6.6,0,12,5.4,12,12v279
	C116,419.8,110.6,425.2,104,425.2z"/>
</svg>
