<?xml version="1.0" encoding="utf-8"?>
<!-- Generator: Adobe Illustrator 23.0.0, SVG Export Plug-In . SVG Version: 6.00 Build 0)  -->
<svg version="1.1" xmlns="http://www.w3.org/2000/svg" xmlns:xlink="http://www.w3.org/1999/xlink" x="0px" y="0px"
	 viewBox="0 0 482 482" style="enable-background:new 0 0 482 482;" xml:space="preserve">
<style type="text/css">
	.st0{fill:#FFFFFF;}
</style>
<g id="fondo">
	<rect x="-359" y="-359" width="1200" height="1200"/>
</g>
<g id="Capa_1">
	<path class="st0" d="M-336.9-337.9V820.4H813.7V-337.9H-336.9z M762,772.3H-285.2V-289.8H762V772.3z"/>
	<rect x="762" y="-277.8" class="st0" width="51.6" height="189.8"/>
	<rect x="-336.9" y="-337.9" class="st0" width="51.6" height="189.8"/>
	<rect x="193.8" y="-337.9" class="st0" width="203.8" height="48.1"/>
	<rect x="439.5" y="772.3" class="st0" width="374.2" height="48.1"/>
	<rect x="-336.9" y="772.3" class="st0" width="203.8" height="48.1"/>
	<rect x="762" y="292" class="st0" width="51.6" height="107.8"/>
	<rect x="-336.9" y="204.3" class="st0" width="51.6" height="107.8"/>
	<g>
		
			<rect x="489.2" y="-359" transform="matrix(-1 -1.224647e-16 1.224647e-16 -1 1182.1337 -586.6409)" class="st0" width="203.8" height="131.4"/>
		
			<rect x="-132.1" y="-359" transform="matrix(-1 -1.224647e-16 1.224647e-16 -1 -60.3507 -586.6409)" class="st0" width="203.8" height="131.4"/>
	</g>
	
		<rect x="106.1" y="709.6" transform="matrix(-1 -1.224647e-16 1.224647e-16 -1 416.0579 1550.6409)" class="st0" width="203.8" height="131.4"/>
	
		<rect x="694.8" y="521.8" transform="matrix(6.123234e-17 -1 1 6.123234e-17 178.1123 1362.8276)" class="st0" width="151.4" height="141.1"/>
	
		<rect x="677.5" y="38" transform="matrix(6.123234e-17 -1 1 6.123234e-17 661.9722 878.9678)" class="st0" width="185.9" height="141.1"/>
	
		<rect x="-381.4" y="-39.6" transform="matrix(6.123234e-17 -1 1 6.123234e-17 -319.3575 -257.5819)" class="st0" width="185.9" height="141.1"/>
	
		<rect x="-383.7" y="477.2" transform="matrix(6.123234e-17 -1 1 6.123234e-17 -836.1647 259.2247)" class="st0" width="190.4" height="141.1"/>
</g>
</svg>
