<?xml version="1.0" encoding="utf-8"?>
<!-- Generator: Adobe Illustrator 21.1.0, SVG Export Plug-In . SVG Version: 6.00 Build 0)  -->
<svg version="1.1" id="Layer_1" xmlns="http://www.w3.org/2000/svg" xmlns:xlink="http://www.w3.org/1999/xlink" x="0px" y="0px"
	 viewBox="0 0 750 2500" style="enable-background:new 0 0 750 2500;" xml:space="preserve">
<path d="M1845.5,2096V-198.1h-2937.3v2307.2h13.6c2.5,128.1,4.9,256.3,7.4,384.4c355.9,0,711.8,0,1067.7,0c6.7,0,6.7,6.1,13.5,6.1
	c6.7,0,6.7-6.1,13.5-6.1c6.7,0,6.7,6.1,13.5,6.1c6.7,0,6.7-6.1,13.5-6.1c6.7,0,6.7,6.1,13.5,6.1c6.7,0,6.7-6.1,13.5-6.1
	c6.7,0,6.7,6.1,13.5,6.1h0c6.7,0,6.7-6.1,13.5-6.1c6.7,0,6.7,6.1,13.5,6.1c6.7,0,6.7-6.1,13.5-6.1c6.7,0,6.7,6.1,13.5,6.1
	c6.7,0,6.7-6.1,13.5-6.1c6.7,0,6.7,6.1,13.5,6.1s6.7-6.1,13.5-6.1c6.7,0,6.7,6.1,13.5,6.1c6.7,0,6.7-6.1,13.5-6.1
	c6.7,0,6.7,6.1,13.5,6.1c6.7,0,6.7-6.1,13.5-6.1c6.7,0,6.7,6.1,13.5,6.1c6.7,0,6.7-6.1,13.5-6.1c6.7,0,6.7,6.1,13.5,6.1h0
	c6.7,0,6.7-6.1,13.5-6.1c6.7,0,6.7,6.1,13.5,6.1c6.7,0,6.7-6.1,13.5-6.1c6.7,0,6.7,6.1,13.5,6.1c6.7,0,6.7-6.1,13.5-6.1
	c6.7,0,6.7,6.1,13.5,6.1s6.7-6.1,13.5-6.1s6.7,6.1,13.5,6.1s6.7-6.1,13.5-6.1c6.7,0,6.7,6.1,13.5,6.1c6.7,0,6.7-6.1,13.5-6.1
	c6.7,0,6.7,6.1,13.5,6.1c6.7,0,6.7-6.1,13.5-6.1c6.7,0,6.7,6.1,13.5,6.1h0c6.7,0,6.7-6.1,13.5-6.1c6.7,0,6.7,6.1,13.5,6.1
	c6.7,0,6.7-6.1,13.5-6.1c6.7,0,6.7,6.1,13.5,6.1c6.7,0,6.7-6.1,13.5-6.1c6.7,0,6.7,6.1,13.5,6.1c6.7,0,6.7-6.1,13.5-6.1
	c6.7,0,6.7,6.1,13.5,6.1c6.7,0,6.7-6.1,13.5-6.1c6.7,0,6.7,6.1,13.5,6.1c6.7,0,6.7-6.1,13.5-6.1c6.7,0,6.7,6.1,13.5,6.1
	c6.7,0,6.7-6.1,13.5-6.1c6.7,0,6.7,6.1,13.5,6.1v0h0c0,0,0,0,0,0v0c6.7,0,6.7-6.1,13.5-6.1c6.7,0,6.7,6.1,13.5,6.1
	c6.7,0,6.7-6.1,13.5-6.1c6.7,0,6.7,6.1,13.5,6.1c6.7,0,6.7-6.1,13.5-6.1c6.7,0,6.7,6.1,13.5,6.1c6.7,0,6.7-6.1,13.5-6.1
	c364.6,1.5,729.2,3,1093.8,4.5c0.5-134,1-268,1.5-402C1847.2,2096,1846.3,2096,1845.5,2096z"/>
</svg>
