<?xml version="1.0" encoding="utf-8"?>
<!-- Generator: Adobe Illustrator 23.0.0, SVG Export Plug-In . SVG Version: 6.00 Build 0)  -->
<svg version="1.1" xmlns="http://www.w3.org/2000/svg" xmlns:xlink="http://www.w3.org/1999/xlink" x="0px" y="0px"
	 viewBox="0 0 756.5 2500" style="enable-background:new 0 0 756.5 2500;" xml:space="preserve">
<style type="text/css">
	.st0{fill-rule:evenodd;clip-rule:evenodd;}
</style>
<g id="Capa_2">
</g>
<g id="Layer_1">
	<path class="st0" d="M2035.2,2532.6H-81.9v3h-1304.3l0-2539.4h545.1H161.4h202.1c1.2,0.7,4.1,2.1,5.2,7.3c0.4,1.7,0.8,3.8-0.2,7.1
		s-1.7,5.7-1.3,9s4.3,3.6,4.9-0.4c0.7-4.6-1.4-6.7-1.3-11.3s0.1-7.6,2.6-8.5s4.2,1.8,5.2,3.4c1,1.6,3.2,4.7,6.7,4.3
		c3.6-0.4,0.7,6.9,0.5,8.6c-0.3,1.6-1.9,10.6,2.8,10.6s3.5-9.7,2.6-13.4c-0.9-3.7-0.1-6.3,1.9-7.6c1.9-1.2,4.5,2.3,6.4,5
		s3,3.7,5.9,3.7s4-0.4,6.2,2.7c2.2,3.1,5,2.9,6.4,0.8s2.9-11.7,5-13.2c2.1-1.6,3.7-0.6,6.4,6.5c2.4,6.2,2.2,8.5,2.2,8.7
		c-1.4,8-1,10.1,1.3,10.3c3.2,0.3,3.5-2.8,2.1-9.7c-1.5-6.9,2.1-5.2,3.2-8.2s1-5.3,1.5-8.2s1.6-4.9,4.1-3.4c2.1,1.2,2.8,5.1,5.2,4.2
		c1.7-0.7,2.6-7.7,5.4-8.2c0.1,0,0.2,0,0.3-0.1l194.1,0h1384.3l0,37.3L2035.2,2532.6z"/>
</g>
</svg>
