<?xml version="1.0" encoding="utf-8"?>
<!-- Generator: Adobe Illustrator 21.1.0, SVG Export Plug-In . SVG Version: 6.00 Build 0)  -->
<svg version="1.1" id="Layer_1" xmlns="http://www.w3.org/2000/svg" xmlns:xlink="http://www.w3.org/1999/xlink" x="0px" y="0px"
	 viewBox="0 0 756.5 2500" style="enable-background:new 0 0 756.5 2500;" xml:space="preserve">
<path d="M2884.7,52.9c-709-2.7-1418-5.5-2127-8.2v-0.1c-6.5-0.5-5.6-9.9-5.6-15.1c0-5.4-3.1-10.2-7.4-10c-4.3,0.2-6.4,8.2-7.9,14.3
	c-1.5,6.2-6.6,6.4-9.4-1c-1.4-3.7-1.8-8.7-5.4-9c-5-0.4-4.9,7.3-8.4,7.4c-4.4,0.2-3.2-6.3-6.5-15c-0.8-2.2-2.7-3.8-4.4-4v-0.3H416.2
	c6.8,6.7,11.7,15.3,14,24.9h-0.1c-6.1-21-27.6-36.7-50.2-36.7c-22.6,0-43.9,15.7-49.9,36.7h-0.4c2.3-9.6,7.2-18.2,14-24.9H91.9
	c-7.5,0-6.7,10.9-7.9,14.7c-2.4,7.7-8.8,5.3-6.5,5.7c-3.8-0.8-4.8-5.7-5.8-10.6s-2-9.6-5.7-9.6c-0.5,0-1.1,0.1-1.8,0.3
	c-2.8,0.9-3.2,7.7-3.6,14.9c-0.3,5.4-0.7,11.5-2.1,16.3c-1.6,5.6-4.3,8.5-8.3,8.9c-0.2,0-0.4,0-0.6,0c-4.8,0-5.9-6.4-6.9-12.6
	c-0.9-5.4-1.7-10.4-4.9-10.4c-0.2,0-0.4,0-0.6,0.1c-2.3,0.6-4.5,7.8-5.6,19.6c-1.1,11.1-1,23.9,0.2,32.8l0.2,1.3
	c1,7.3,1.8,13.1-0.2,15.3c-0.6,0.6-1.4,1-2.3,1c-1.2,0-2.2-0.4-2.9-1.3c-1.8-2.2-1.9-7.5-0.2-16.1c2.4-11.8,3.1-22.2,2-30.1
	c-0.9-6.4-3-10.9-5.8-12.1c-0.3-0.1-0.6-0.2-1-0.2c-0.7,0-1.4,0.3-2,1c-0.7,0.8-1.9,2.7-1.6,6.8c0.7,9.5,0.9,14.6-0.4,15.9
	c-0.3,0.3-0.6,0.4-0.9,0.4c-0.3,0-0.6-0.1-1-0.3c-2.3-1.2-1.5-6-0.7-11.7c0.5-3.6,1.1-7.3,1-10.4c-0.3-6.1-1.6-13.3-6.4-13.3
	c-1.9,0-2.8,2.2-3.7,4.4c-0.8,2-1.6,4-3.3,4.4c-0.2,0.1-0.5,0.1-0.7,0.1c-0.1,0-0.1,0-0.2,0c-736.2,2.3-1472.4,4.5-2208.6,6.8
	c1,210,2,420,3,630.1v1845.2h5085.5V667.4c2.1-0.8,4.1-1.6,6.1-2.4C2886.7,461.1,2885.7,257.1,2884.7,52.9z"/>
</svg>
