<?xml version="1.0" encoding="utf-8"?>
<!-- Generator: Adobe Illustrator 23.0.0, SVG Export Plug-In . SVG Version: 6.00 Build 0)  -->
<svg version="1.1" id="Layer_1" xmlns="http://www.w3.org/2000/svg" xmlns:xlink="http://www.w3.org/1999/xlink" x="0px" y="0px"
	 viewBox="0 0 750 128.1" style="enable-background:new 0 0 750 128.1;" xml:space="preserve">
<style type="text/css">
	.st0{fill:#FFFFFF;}
</style>
<path d="M745,56.1v-45H-4.3v45.3h3.5c0.6,2.5,1.3,5,1.9,7.5c90.8,0,181.6,0,272.4,0c1.7,0,1.7,0.1,3.4,0.1c1.7,0,1.7-0.1,3.4-0.1
	c1.7,0,1.7,0.1,3.4,0.1c1.7,0,1.7-0.1,3.4-0.1c1.7,0,1.7,0.1,3.4,0.1c1.7,0,1.7-0.1,3.4-0.1c1.7,0,1.7,0.1,3.4,0.1l0,0
	c1.7,0,1.7-0.1,3.4-0.1c1.7,0,1.7,0.1,3.4,0.1c1.7,0,1.7-0.1,3.4-0.1c1.7,0,1.7,0.1,3.4,0.1c1.7,0,1.7-0.1,3.4-0.1
	c1.7,0,1.7,0.1,3.4,0.1c1.7,0,1.7-0.1,3.4-0.1c1.7,0,1.7,0.1,3.4,0.1c1.7,0,1.7-0.1,3.4-0.1c1.7,0,1.7,0.1,3.4,0.1
	c1.7,0,1.7-0.1,3.4-0.1c1.7,0,1.7,0.1,3.4,0.1c1.7,0,1.7-0.1,3.4-0.1c1.7,0,1.7,0.1,3.4,0.1l0,0c1.7,0,1.7-0.1,3.4-0.1
	c1.7,0,1.7,0.1,3.4,0.1c1.7,0,1.7-0.1,3.4-0.1c1.7,0,1.7,0.1,3.4,0.1c1.7,0,1.7-0.1,3.4-0.1c1.7,0,1.7,0.1,3.4,0.1
	c1.7,0,1.7-0.1,3.4-0.1c1.7,0,1.7,0.1,3.4,0.1c1.7,0,1.7-0.1,3.4-0.1c1.7,0,1.7,0.1,3.4,0.1c1.7,0,1.7-0.1,3.4-0.1
	c1.7,0,1.7,0.1,3.4,0.1c1.7,0,1.7-0.1,3.4-0.1c1.7,0,1.7,0.1,3.4,0.1l0,0c1.7,0,1.7-0.1,3.4-0.1c1.7,0,1.7,0.1,3.4,0.1
	c1.7,0,1.7-0.1,3.4-0.1c1.7,0,1.7,0.1,3.4,0.1c1.7,0,1.7-0.1,3.4-0.1c1.7,0,1.7,0.1,3.4,0.1c1.7,0,1.7-0.1,3.4-0.1
	c1.7,0,1.7,0.1,3.4,0.1c1.7,0,1.7-0.1,3.4-0.1c1.7,0,1.7,0.1,3.4,0.1c1.7,0,1.7-0.1,3.4-0.1c1.7,0,1.7,0.1,3.4,0.1
	c1.7,0,1.7-0.1,3.4-0.1c1.7,0,1.7,0.1,3.4,0.1l0,0l0,0l0,0l0,0c1.7,0,1.7-0.1,3.4-0.1c1.7,0,1.7,0.1,3.4,0.1c1.7,0,1.7-0.1,3.4-0.1
	c1.7,0,1.7,0.1,3.4,0.1c1.7,0,1.7-0.1,3.4-0.1c1.7,0,1.7,0.1,3.4,0.1c1.7,0,1.7-0.1,3.4-0.1c93,0,186,0.1,279,0.1
	c0.1-2.6,0.3-5.3,0.4-7.9C745.4,56.1,745.2,56.1,745,56.1z"/>
<rect x="128.6" y="-17.3" class="st0" width="88.6" height="68"/>
<rect x="423.4" y="-8.1" class="st0" width="170.6" height="52.4"/>
</svg>
